<?xml version="1.0" encoding="iso-8859-1"?>
<!-- Generator: Adobe Illustrator 19.0.0, SVG Export Plug-In . SVG Version: 6.00 Build 0)  -->
<svg version="1.1" id="Capa_1" xmlns="http://www.w3.org/2000/svg" xmlns:xlink="http://www.w3.org/1999/xlink" x="0px" y="0px"
	 viewBox="0 0 511.922 511.922" style="enable-background:new 0 0 511.922 511.922;" xml:space="preserve">
<g>
	<g transform="translate(1 1)">
		<path style="fill:#607D8B;" d="M279.71,197.741L151.454,325.997c-10.028,9.984-26.239,9.984-36.267,0
			c-0.918-0.883-1.747-1.855-2.474-2.901c-3.301-4.406-5.069-9.77-5.035-15.275c-0.003-6.814,2.698-13.351,7.509-18.176
			l121.685-121.6l6.571-6.656L279.71,197.741z"/>
		<path style="fill:#CFD8DC;" d="M256.328,187.501L128.073,315.757c-4.139,4.118-9.555,6.706-15.359,7.339
			c-3.301-4.406-5.069-9.77-5.035-15.275c-0.003-6.814,2.698-13.351,7.509-18.176l121.685-121.6L256.328,187.501z"/>
		<path style="fill:#607D8B;" d="M491.508,155.245l-7.424,7.424c-3.354,3.328-8.764,3.328-12.117,0l-66.56-66.475
			c-3.185-3.235-7.535-5.056-12.075-5.056c-4.54,0-8.89,1.822-12.075,5.056l-58.027,57.941l-36.267-36.267L387.316,17.517
			c13.381-13.312,35.003-13.312,48.383,0l26.625,26.709c0.392,0.377,0.762,0.775,1.108,1.195
			c9.821,9.995,16.929,22.331,20.651,35.84l13.995,48.811C500.605,139.034,498.092,148.661,491.508,155.245z"/>
		<path style="fill:#CFD8DC;" d="M476.574,134.083l-7.424,7.509c-3.354,3.328-8.764,3.328-12.117,0l-66.56-66.56
			c-6.674-6.656-17.475-6.656-24.149,0l-58.027,58.027l-18.261-18.261l97.28-97.28c13.381-13.312,35.003-13.312,48.383,0
			l26.625,26.709c0.392,0.377,0.762,0.775,1.108,1.195c2.381,4.694,4.296,9.61,5.717,14.677l13.995,48.811
			C485.683,117.871,483.169,127.504,476.574,134.083L476.574,134.083z"/>
		<g>
			<path style="fill:#C52828;" d="M447.732,186.904l-66.475-66.56c-2.136-2.078-4.787-3.551-7.68-4.267l53.674,53.76
				c3.329,3.353,3.329,8.764,0,12.117l-12.032,12.032c-4.288,4.279-10.522,5.967-16.384,4.437l12.63,12.629
				c6.707,6.656,17.527,6.656,24.233,0l12.033-12.032C451.059,195.667,451.059,190.258,447.732,186.904L447.732,186.904z"/>
			<path style="fill:#C52828;" d="M35.999,476.44l-0.769,0.768c-6.05,6.05-14.548,8.977-23.04,7.936
				c1.348,4.275,3.825,8.107,7.168,11.093c10.753,8.992,26.629,8.135,36.352-1.963l273.236-273.237l34.133-34.133
				c4.319-4.35,10.672-5.987,16.555-4.267l-12.8-12.8c-6.707-6.656-17.527-6.656-24.235,0L47.945,464.493L35.999,476.44z"/>
		</g>
		<g>
			<path style="fill:#F44335;" d="M387.316,186.904c-2.091-2.138-4.76-3.621-7.68-4.267l11.349,11.349
				c2.155,2.179,4.873,3.715,7.851,4.437L387.316,186.904z M45.897,463.213c-0.513-0.171-1.109-0.341-1.621-0.512
				c-1.103-0.17-2.226-0.17-3.329,0c-0.597,0.171-1.108,0.341-1.621,0.512c-0.513,0.256-1.024,0.512-1.45,0.768
				c-0.482,0.301-0.915,0.675-1.281,1.109c-1.626,1.563-2.55,3.718-2.559,5.973c0.013,1.143,0.244,2.273,0.683,3.328
				c0.293,0.758,0.728,1.453,1.281,2.048l11.946-11.947c-0.171-0.171-0.427-0.341-0.598-0.512
				C46.836,463.725,46.409,463.469,45.897,463.213z"/>
			<path style="fill:#F44335;" d="M427.251,181.955l-12.032,12.032c-4.288,4.279-10.522,5.967-16.384,4.437l-11.52-11.52
				c-2.091-2.138-4.76-3.621-7.68-4.267l-12.8-12.8c-6.707-6.656-17.527-6.656-24.235,0L47.945,464.493
				c-0.171-0.171-0.427-0.341-0.598-0.512c-0.511-0.256-0.938-0.512-1.45-0.768c-0.513-0.171-1.109-0.341-1.621-0.512
				c-1.103-0.17-2.226-0.17-3.329,0c-0.597,0.171-1.108,0.341-1.621,0.512c-0.513,0.256-1.024,0.512-1.45,0.768
				c-0.482,0.301-0.915,0.675-1.281,1.109c-1.626,1.563-2.55,3.718-2.559,5.973c0.013,1.143,0.244,2.273,0.683,3.328
				c0.293,0.758,0.728,1.453,1.281,2.048l-0.769,0.768c-6.05,6.05-14.548,8.977-23.04,7.936c-2.776-8.398-0.999-17.635,4.693-24.405
				c0.511-0.597,1.024-1.195,1.536-1.707l10.325-10.24v-0.085L338.933,138.52l18.089-18.176c4.34-4.313,10.671-5.945,16.555-4.267
				l53.674,53.76C430.58,173.19,430.58,178.601,427.251,181.955z"/>
		</g>
		<path style="fill:#D84315;" d="M338.932,235.288c1.598,1.594,2.496,3.759,2.496,6.016s-0.898,4.422-2.496,6.016l-18.177,18.176
			c-3.353,3.328-8.763,3.328-12.117,0l-90.711-90.709c-9.983-10.028-9.983-26.239,0-36.267l42.411-42.325
			c4.779-4.865,11.313-7.606,18.133-7.606c6.82,0,13.354,2.741,18.133,7.606l42.326,42.325c6.655,6.674,6.655,17.475,0,24.149
			c-15.4,15.354-19.406,38.768-9.985,58.368C331.398,226.345,334.78,231.172,338.932,235.288z"/>
		<path style="fill:#FF5722;" d="M323.23,217.283c3.329,3.353,3.329,8.764,0,12.117l-23.125,23.125
			c-0.769,0.749-1.665,1.356-2.646,1.792l-79.531-79.531c-9.983-10.028-9.983-26.239,0-36.267l42.411-42.325
			c5.551-5.576,13.345-8.31,21.163-7.424l36.778,36.779c2.261,2.261,21.785,13.329,22.017,27.051
			c0.182,10.739-13.288,23.101-17.067,34.133C319.221,196.522,319.221,207.494,323.23,217.283z"/>
		<path style="fill:#F5F5F5;" d="M266.405,174.812l-6.094-6.094c-6.665-6.665-6.665-17.471,0-24.136l6.094-6.094
			c6.665-6.665,17.471-6.665,24.136,0l6.094,6.094c6.665,6.665,6.665,17.471,0,24.136l-6.094,6.094
			C283.876,181.477,273.07,181.477,266.405,174.812z"/>
	</g>
	<g>
		<path d="M329.939,230.579c-0.475,0.002-0.949-0.039-1.417-0.121c-2.725-0.459-5.06-2.209-6.267-4.696
			c-11.002-22.864-6.339-50.185,11.625-68.105c3.342-3.351,3.342-8.774,0-12.125c-1.601-1.6-2.5-3.77-2.5-6.033
			s0.899-4.433,2.5-6.033l18.116-18.116c10.018-10,26.241-10,36.258,0l66.517,66.521c6.667,6.675,6.667,17.488,0,24.162
			l-12.067,12.071c-10.02,9.993-26.236,9.995-36.258,0.004l-24.183-24.196c-3.351-3.342-8.774-3.342-12.125,0l-34.167,34.166
			C334.371,229.678,332.202,230.577,329.939,230.579L329.939,230.579z M376.197,174.35c6.8-0.013,13.325,2.683,18.133,7.492
			l24.183,24.196c3.351,3.342,8.774,3.342,12.125,0l12.067-12.071l-66.517-66.55c-3.349-3.346-8.776-3.346-12.125,0l-13.117,13.117
			c4.67,9.809,2.668,21.496-5,29.192c-9.538,9.526-14.021,22.996-12.092,36.337l24.217-24.217
			C362.875,177.035,369.399,174.337,376.197,174.35L376.197,174.35z"/>
		<path d="M37.014,511.921c-8.213,0.08-16.166-2.876-22.333-8.3c-7.015-6.255-11.116-15.142-11.325-24.537
			c-0.228-9.384,3.391-18.454,10.017-25.104l241.892-241.896c3.386-3.2,8.681-3.2,12.067,0l36.284,36.284
			c1.601,1.6,2.5,3.77,2.5,6.033c0,2.263-0.899,4.433-2.5,6.033L62.747,501.3C55.912,508.105,46.659,511.924,37.014,511.921z
			 M261.297,230.183L25.439,466.046c-3.33,3.325-5.147,7.872-5.025,12.575c0.121,4.704,2.17,9.151,5.667,12.299
			c7.389,5.927,18.09,5.193,24.6-1.687L285.514,254.4L261.297,230.183z"/>
		<path d="M43.564,480.596c-2.243,0.022-4.398-0.872-5.967-2.475c-0.823-0.758-1.467-1.69-1.883-2.729
			c-0.438-1.056-0.67-2.186-0.683-3.329c0.011-2.257,0.937-4.413,2.567-5.975c0.366-0.432,0.796-0.806,1.275-1.108
			c0.425-0.254,0.942-0.512,1.45-0.767c0.517-0.171,1.025-0.341,1.625-0.513c1.102-0.171,2.223-0.171,3.325,0
			c0.517,0.171,1.108,0.341,1.625,0.513c0.508,0.254,0.933,0.513,1.45,0.767c0.445,0.345,0.871,0.715,1.275,1.108
			c1.571,1.593,2.459,3.737,2.475,5.975c0.018,1.137-0.183,2.268-0.592,3.329c-0.477,1.005-1.113,1.927-1.883,2.729
			c-0.404,0.393-0.83,0.763-1.275,1.108c-0.517,0.258-0.942,0.513-1.45,0.771c-0.53,0.182-1.073,0.324-1.625,0.425
			C44.714,480.567,44.138,480.624,43.564,480.596L43.564,480.596z"/>
		<path d="M315.73,277.525c-4.532,0.007-8.88-1.791-12.083-4.996l-90.709-90.712c-6.423-6.405-10.033-15.104-10.033-24.175
			s3.61-17.77,10.033-24.175l42.325-42.329l0,0c13.52-12.937,34.83-12.937,48.35,0l42.333,42.329
			c9.992,10.021,9.992,26.237,0,36.258c-12.83,12.782-16.17,32.281-8.325,48.604c2.052,4.425,4.871,8.452,8.325,11.895
			c6.656,6.676,6.66,17.478,0.009,24.158l-18.15,18.146C324.604,275.732,320.259,277.53,315.73,277.525z M267.33,103.204
			l-42.325,42.329c-3.222,3.206-5.033,7.563-5.033,12.108c0,4.545,1.811,8.903,5.033,12.108l90.709,90.712l18.167-18.142
			c-4.834-4.839-8.788-10.483-11.683-16.679c-10.943-22.842-6.257-50.105,11.683-67.983c3.342-3.351,3.342-8.774,0-12.125
			l-42.333-42.329C284.78,96.712,274.098,96.712,267.33,103.204L267.33,103.204z"/>
		<path d="M279.439,189.329c-6.788,0.012-13.301-2.679-18.1-7.479l-6.1-6.104c-4.802-4.801-7.5-11.314-7.5-18.104
			c0-6.791,2.698-13.303,7.5-18.104l6.075-6.071c10.132-9.674,26.079-9.672,36.208,0.004l6.1,6.092
			c9.973,10.006,9.977,26.193,0.009,36.204l-6.083,6.079C292.746,186.648,286.23,189.341,279.439,189.329L279.439,189.329z
			 M279.413,143.033c-2.264-0.004-4.436,0.896-6.033,2.5l-6.075,6.075c-1.601,1.601-2.5,3.772-2.5,6.035
			c0,2.264,0.899,4.435,2.5,6.035l6.1,6.1c3.338,3.328,8.739,3.326,12.075-0.004l6.075-6.071c3.327-3.339,3.323-8.74-0.009-12.075
			l-6.1-6.092C283.852,143.929,281.678,143.027,279.413,143.033z"/>
		<path d="M134.305,343c-13.822-0.006-26.281-8.333-31.571-21.103c-5.29-12.769-2.372-27.468,7.396-37.247L218.98,175.8
			c3.332-3.332,8.735-3.332,12.067,0c3.332,3.332,3.332,8.735,0,12.067l-108.85,108.85c-6.688,6.687-6.689,17.53-0.002,24.219
			c6.687,6.688,17.53,6.689,24.219,0.002l108.85-108.854c3.338-3.296,8.711-3.279,12.029,0.038
			c3.317,3.317,3.334,8.691,0.038,12.029L158.48,333.004C152.072,339.419,143.372,343.016,134.305,343L134.305,343z"/>
		<path d="M303.63,111.75c-3.451-0.001-6.562-2.08-7.882-5.268c-1.32-3.188-0.591-6.858,1.849-9.298l72.567-72.571
			c3.332-3.332,8.735-3.332,12.067,0c3.332,3.332,3.332,8.735,0,12.067l-72.567,72.571
			C308.065,110.853,305.894,111.753,303.63,111.75z"/>
		<path d="M479.005,174.717c-4.53,0.008-8.878-1.786-12.083-4.987l-66.517-66.525c-3.392-3.242-8.733-3.242-12.125,0l-42.333,42.329
			c-3.332,3.332-8.735,3.332-12.067,0s-3.332-8.735,0-12.067l42.333-42.329c10.018-10,26.241-10,36.258,0l66.517,66.521l7.467-7.437
			c4.416-4.406,6.105-10.854,4.417-16.858l-13.958-48.779c-3.6-12.595-10.348-24.065-19.608-33.329l-26.667-26.667
			c-10.158-9.704-26.151-9.704-36.308,0l-30.242,30.237c-3.332,3.332-8.734,3.332-12.067,0c-3.332-3.332-3.332-8.735,0-12.067
			l30.242-30.242C390.279,4.502,401.15-0.001,412.485,0c11.335,0.001,22.206,4.505,30.22,12.521l26.667,26.667
			c11.313,11.315,19.556,25.327,23.95,40.713l13.958,48.783c3.385,11.96,0.034,24.815-8.758,33.6l-7.433,7.437
			C487.886,172.927,483.537,174.725,479.005,174.717L479.005,174.717z"/>
	</g>
</g>
<g>
</g>
<g>
</g>
<g>
</g>
<g>
</g>
<g>
</g>
<g>
</g>
<g>
</g>
<g>
</g>
<g>
</g>
<g>
</g>
<g>
</g>
<g>
</g>
<g>
</g>
<g>
</g>
<g>
</g>
</svg>
