<?xml version="1.0" encoding="iso-8859-1"?>
<!-- Generator: Adobe Illustrator 19.0.0, SVG Export Plug-In . SVG Version: 6.00 Build 0)  -->
<svg version="1.1" id="Capa_1" xmlns="http://www.w3.org/2000/svg" xmlns:xlink="http://www.w3.org/1999/xlink" x="0px" y="0px"
	 viewBox="0 0 511.988 511.988" style="enable-background:new 0 0 511.988 511.988;" xml:space="preserve">
<g>
	<g transform="translate(1 1)">
		<path style="fill:#009688;" d="M235.747,341.929c-30.386-12.442-54.506-36.562-66.948-66.948l-32.315,13.32
			c16.384,38.732,47.211,69.559,85.943,85.943L235.747,341.929z"/>
		<path style="fill:#607D8B;" d="M301.045,273.137l86.07,35.052c9.654,3.991,20.762,1.769,28.139-5.628l79.585-79.585
			c4.876-4.863,7.616-11.466,7.616-18.352c0-6.886-2.74-13.489-7.616-18.352l-50.663-50.663l-24.469,24.469l38.429,38.429
			c3.364,3.384,3.364,8.85,0,12.234l-57.135,57.135c-2.443,2.427-6.084,3.193-9.298,1.958l-108.826-42.882l-46.185-18.168
			l-25.815-10.155c-9.606-3.791-20.547-1.507-27.834,5.811l-13.397,13.397c-3.421,3.404-7.29,6.327-11.5,8.687l-45.512,25.325
			c-2.118,1.135-4.056,2.578-5.75,4.282l-91.759,91.759c-5.779,5.775-8.499,13.935-7.341,22.022l2.019,14.008
			c0.457,3.15,2.603,5.796,5.59,6.894c2.988,1.098,6.336,0.471,8.724-1.634l101.669-91.025c1.333-1.181,2.839-2.151,4.466-2.875
			l100.935-44.901c4.301-1.863,9.169-1.929,13.519-0.184l10.583,4.343L301.045,273.137z"/>
		<path style="fill:#009688;" d="M409.372,174.204l-18.518-18.518l48.938-48.938l18.518,18.518c6.665,6.665,6.665,17.471,0,24.136
			l-24.802,24.802C426.843,180.869,416.037,180.869,409.372,174.204z"/>
		<path style="fill:#F5F5F5;" d="M374.925,66.357l-51.369-51.369c-4.867-4.867-11.469-7.602-18.352-7.602
			s-13.485,2.734-18.352,7.602l-79.573,79.573c-7.384,7.384-9.623,18.474-5.683,28.144l58.008,142.384
			c1.776,4.359,1.699,9.254-0.212,13.555l-44.854,100.921c-0.724,1.629-1.695,3.136-2.879,4.468l-90.991,101.665
			c-2.116,2.381-2.753,5.732-1.657,8.723c1.096,2.991,3.746,5.138,6.9,5.589l14.035,2.005c8.087,1.155,16.246-1.564,22.022-7.341
			l91.729-91.729c1.705-1.705,3.164-3.64,4.336-5.748l25.29-45.523c2.342-4.216,5.261-8.085,8.671-11.495l13.413-13.413
			c7.306-7.306,9.583-18.251,5.795-27.864l-71.208-180.76c-1.262-3.205-0.504-6.853,1.932-9.288l57.162-57.162
			c1.622-1.622,3.823-2.534,6.117-2.534c2.294,0,4.495,0.911,6.117,2.534l39.134,39.134L374.925,66.357z"/>
		<path style="fill:#009688;" d="M384.595,51.496l18.518,18.518l-48.938,48.938l-18.518-18.518c-6.665-6.665-6.665-17.471,0-24.136
			l24.802-24.802C367.123,44.831,377.93,44.831,384.595,51.496z"/>
		<path style="fill:#CFD8DC;" d="M311.223,298.864c3.741,9.632,1.468,20.562-5.803,27.904l-13.397,13.397
			c-3.444,3.398-6.376,7.278-8.704,11.52l-25.259,45.483c-1.178,2.125-2.642,4.077-4.352,5.803l-91.733,91.733
			c-5.802,5.731-13.936,8.443-22.016,7.339l-14.08-2.048c-3.16-0.45-5.815-2.605-6.905-5.606c-1.089-3.001-0.436-6.357,1.699-8.73
			l8.192-9.131c6.064-0.539,11.744-3.198,16.043-7.509l91.733-91.733c1.708-1.675,3.147-3.603,4.267-5.717l25.344-45.483
			c2.297-4.239,5.201-8.12,8.619-11.52l13.483-13.397c7.27-7.342,9.543-18.272,5.803-27.904L311.223,298.864z"/>
	</g>
	<g>
		<path d="M19.372,400.881c-8.55-0.011-15.797-6.295-17.017-14.758l-2.017-13.992c-1.512-10.747,2.096-21.581,9.75-29.275
			l91.758-91.758c2.294-2.305,4.917-4.256,7.783-5.792l45.367-25.242c3.519-1.974,6.754-4.415,9.617-7.258l13.4-13.4
			c9.695-9.733,24.253-12.761,37.025-7.7l25.775,10.133c2.837,1.116,4.863,3.662,5.315,6.677c0.452,3.015-0.739,6.043-3.125,7.942
			c-2.386,1.899-5.603,2.381-8.44,1.264l-25.808-10.15c-6.445-2.553-13.79-1.019-18.675,3.9l-13.4,13.4
			c-3.969,3.945-8.454,7.334-13.333,10.075l-45.567,25.358c-1.424,0.755-2.728,1.718-3.867,2.859l-91.758,91.758
			c-3.865,3.889-5.688,9.362-4.925,14.792l2.017,13.992l101.85-90.909c1.959-1.756,4.18-3.196,6.583-4.267l101.042-44.95
			c6.434-2.773,13.707-2.874,20.217-0.283l10.591,4.35c2.825,1.155,4.818,3.73,5.227,6.754c0.409,3.024-0.828,6.036-3.245,7.9
			c-2.417,1.863-5.645,2.294-8.465,1.13l-10.583-4.341c-2.233-0.869-4.719-0.821-6.917,0.133l-100.825,44.858
			c-0.793,0.345-1.529,0.809-2.183,1.375L30.805,396.54C27.651,399.333,23.585,400.877,19.372,400.881L19.372,400.881z"/>
		<path d="M397.989,319.673c-4.493,0-8.943-0.878-13.1-2.583l-86.059-35.05c-4.363-1.777-6.46-6.754-4.683-11.117
			s6.754-6.46,11.117-4.683l86.067,35.05c6.48,2.677,13.934,1.19,18.892-3.767l79.583-79.583c3.275-3.262,5.117-7.694,5.117-12.317
			c0-4.623-1.841-9.055-5.117-12.317l-30.667-30.675L446.73,175.04l18.442,18.433c6.682,6.717,6.686,17.57,0.009,24.292
			l-57.15,57.142c-4.822,4.826-12.039,6.35-18.4,3.883l-108.875-42.9c-4.386-1.726-6.543-6.681-4.817-11.067
			c1.726-4.386,6.681-6.543,11.067-4.817L395.83,262.89l57.275-57.183l-24.475-24.633c-1.601-1.6-2.5-3.77-2.5-6.033
			c0-2.263,0.899-4.433,2.5-6.033l24.475-24.475c1.6-1.601,3.77-2.5,6.033-2.5l0,0c2.263,0,4.434,0.899,6.033,2.5l36.7,36.708
			c6.477,6.462,10.117,15.234,10.117,24.383s-3.64,17.922-10.117,24.383l-79.583,79.584
			C415.851,316.048,407.107,319.677,397.989,319.673L397.989,319.673z"/>
		<path d="M422.43,188.723c-6.787,0.011-13.299-2.678-18.1-7.475l-18.517-18.533c-1.601-1.6-2.5-3.77-2.5-6.033
			c0-2.263,0.899-4.433,2.5-6.033l48.933-48.933c1.6-1.601,3.77-2.5,6.033-2.5c2.263,0,4.433,0.899,6.033,2.5l18.525,18.517
			c9.975,10.005,9.975,26.195,0,36.2L440.53,181.24C435.734,186.045,429.219,188.739,422.43,188.723z M403.914,156.682
			l12.483,12.492c3.339,3.317,8.728,3.317,12.067,0l24.808-24.808c3.327-3.336,3.323-8.736-0.009-12.067l-12.483-12.483
			L403.914,156.682z"/>
		<path d="M144.564,511.807c-1.614-0.002-3.227-0.116-4.825-0.341l-14.033-2.008c-6.265-0.892-11.532-5.156-13.708-11.099
			c-2.176-5.942-0.908-12.6,3.3-17.326l91-101.692c0.593-0.665,1.079-1.419,1.442-2.233l44.85-100.925
			c0.966-2.182,1.008-4.662,0.117-6.875l-58.008-142.384c-5.255-12.846-2.278-27.591,7.55-37.392l79.575-79.575
			c13.643-13.033,35.124-13.033,48.767,0l36.708,36.7c1.601,1.6,2.5,3.77,2.5,6.033c0,2.263-0.899,4.433-2.5,6.033l-24.475,24.475
			c-1.6,1.601-3.77,2.5-6.033,2.5l0,0c-2.263,0-4.434-0.899-6.033-2.5l-24.467-24.475l-57.333,57.167l71.192,180.883
			c5.027,12.776,2,27.317-7.708,37.025l-13.408,13.417c-2.854,2.845-5.294,6.077-7.25,9.6l-25.292,45.525
			c-1.552,2.804-3.49,5.377-5.758,7.642l-91.733,91.725C162.507,508.169,153.723,511.8,144.564,511.807L144.564,511.807z
			 M306.205,16.932c-4.619-0.006-9.05,1.826-12.317,5.092l-79.575,79.575c-4.964,4.952-6.469,12.401-3.817,18.892l58.008,142.383
			c2.64,6.512,2.526,13.816-0.317,20.242l-44.85,100.917c-1.083,2.44-2.543,4.695-4.325,6.683L128.03,492.39l14.125,2.175
			c5.425,0.771,10.897-1.053,14.775-4.925l91.733-91.725c1.144-1.14,2.12-2.436,2.9-3.85l25.3-45.533
			c2.729-4.913,6.131-9.421,10.108-13.392l13.4-13.408c4.907-4.905,6.435-12.254,3.892-18.708l-71.208-180.758
			c-2.514-6.362-1.007-13.609,3.833-18.442l57.167-57.167c6.715-6.7,17.586-6.7,24.3,0l18.433,18.442l12.408-12.408l-30.675-30.667
			C315.255,18.758,310.824,16.926,306.205,16.932z"/>
		<path d="M355.139,128.515c-2.264,0.003-4.435-0.897-6.033-2.5l-18.517-18.517c-4.802-4.801-7.5-11.314-7.5-18.104
			c0-6.791,2.698-13.303,7.5-18.104l24.808-24.8c10.131-9.667,26.069-9.667,36.2,0l18.516,18.517c1.601,1.6,2.5,3.77,2.5,6.033
			c0,2.263-0.899,4.433-2.5,6.033l-48.942,48.942C359.574,127.618,357.402,128.518,355.139,128.515z M373.497,56.057
			c-2.263-0.009-4.434,0.892-6.025,2.5l-24.817,24.808c-1.601,1.6-2.5,3.77-2.5,6.033c0,2.263,0.899,4.433,2.5,6.033l12.483,12.483
			l36.875-36.875L379.53,58.557C377.932,56.954,375.761,56.054,373.497,56.057L373.497,56.057z"/>
		<path d="M219.58,379.932c-1.046,0-2.082-0.193-3.058-0.567c-38.637-14.89-69.173-45.428-84.058-84.067
			c-1.689-4.4,0.508-9.336,4.908-11.025c4.4-1.689,9.336,0.508,11.025,4.908c13.15,34.125,40.118,61.096,74.242,74.25
			c3.84,1.474,6.082,5.478,5.333,9.522C227.221,376.998,223.693,379.932,219.58,379.932L219.58,379.932z"/>
		<path d="M233.655,348.373c-1.024-0.001-2.04-0.184-3-0.542c-30.848-11.481-55.177-35.811-66.658-66.658
			c-1.616-4.403,0.622-9.285,5.013-10.933c4.391-1.648,9.289,0.555,10.97,4.933c9.741,26.241,30.434,46.934,56.675,56.675
			c3.863,1.449,6.137,5.455,5.4,9.515C241.317,345.423,237.781,348.374,233.655,348.373L233.655,348.373z"/>
	</g>
</g>
<g>
</g>
<g>
</g>
<g>
</g>
<g>
</g>
<g>
</g>
<g>
</g>
<g>
</g>
<g>
</g>
<g>
</g>
<g>
</g>
<g>
</g>
<g>
</g>
<g>
</g>
<g>
</g>
<g>
</g>
</svg>
