<?xml version="1.0" encoding="iso-8859-1"?>
<!-- Generator: Adobe Illustrator 19.0.0, SVG Export Plug-In . SVG Version: 6.00 Build 0)  -->
<svg version="1.1" id="Capa_1" xmlns="http://www.w3.org/2000/svg" xmlns:xlink="http://www.w3.org/1999/xlink" x="0px" y="0px"
	 viewBox="0 0 512 512" style="enable-background:new 0 0 512 512;" xml:space="preserve">
<g>
	<g transform="translate(1 1)">
		<path style="fill:#FDD834;" d="M459.8,470.258h-51.2c-9.426,0-17.067-7.641-17.067-17.067v-25.6h85.333v25.6
			C476.867,462.616,469.226,470.258,459.8,470.258z"/>
		<path style="fill:#FFEB3A;" d="M434.2,470.258h-25.6c-9.426,0-17.067-7.641-17.067-17.067v-25.6h59.733v25.6
			C451.267,462.616,443.626,470.258,434.2,470.258z"/>
		<g>
			<path style="fill:#607D8B;" d="M80.067,363.762l-6.229,55.296H41.667c-9.414-0.028-17.039-7.653-17.067-17.067v-38.229H80.067z"
				/>
			<path style="fill:#607D8B;" d="M330.166,128.924c0,0-85.333-8.533-145.067-34.133C143.388,76.915,97.517,54.878,73.633,43.207
				c-10.372-5.064-22.603-4.528-32.492,1.425l-12.398,7.439c-2.748,1.649-4.34,4.698-4.123,7.895
				c0.217,3.197,2.207,6.003,5.152,7.266l283.327,121.426H331.8L330.166,128.924z"/>
		</g>
		<path style="fill:#D84315;" d="M498.883,121.756l-23.467-46.933c-4.327-8.67-13.179-14.154-22.869-14.165h-25.6
			c9.69,0.012,18.543,5.495,22.869,14.165l23.467,46.933c2.376,4.709,3.604,9.914,3.584,15.189v282.112
			c-0.028,9.414-7.653,17.039-17.067,17.067h25.6c9.414-0.028,17.039-7.652,17.067-17.067V136.945
			C502.487,131.671,501.259,126.466,498.883,121.756L498.883,121.756z"/>
		<path style="fill:#FF5722;" d="M473.283,121.756l-23.467-46.933c-4.327-8.67-13.179-14.154-22.869-14.165H381.72
			c-9.69,0.012-18.543,5.495-22.869,14.165l-23.467,46.933c-2.376,4.709-3.604,9.914-3.584,15.189v20.48
			c-0.018,9.291-2.555,18.403-7.339,26.368l-13.312,22.187c-3.076,5.127-8.613,8.268-14.592,8.277h-34.475
			c-4.547-0.002-8.907-1.814-12.117-5.035l-6.997-6.997c-3.21-3.221-7.57-5.032-12.117-5.035H75.8
			c-18.107-0.005-35.474,7.186-48.277,19.989s-19.994,30.17-19.989,48.277v94.379c38.871,4.318,68.276,37.178,68.267,76.288h384
			c9.414-0.028,17.039-7.652,17.067-17.067V136.945C476.887,131.671,475.659,126.466,473.283,121.756L473.283,121.756z
			 M331.8,333.724c0.002,9.053-3.593,17.737-9.995,24.139s-15.085,9.997-24.139,9.995H111.555
			c-15.053-23.299-36.299-41.944-61.355-53.845v-22.955c-0.003-9.053,3.593-17.737,9.995-24.139s15.085-9.997,24.139-9.995h213.333
			c9.053-0.003,17.737,3.593,24.139,9.995s9.997,15.085,9.995,24.139V333.724z"/>
		<path style="fill:#FDD834;" d="M485.4,94.791H348.867l9.984-19.968c4.327-8.67,13.179-14.154,22.869-14.165h70.827
			c9.69,0.012,18.543,5.495,22.869,14.165L485.4,94.791z"/>
		<g>
			<path style="fill:#FFEB3A;" d="M459.8,94.791H348.867l8.112-19.968c2.713-8.078,10.073-13.689,18.581-14.165h57.547
				c8.508,0.476,15.868,6.087,18.581,14.165L459.8,94.791z"/>
			<path style="fill:#FFEB3A;" d="M434.2,256.924L434.2,256.924c-9.426,0-17.067-7.641-17.067-17.067v-76.8
				c0-9.426,7.641-17.067,17.067-17.067l0,0c9.426,0,17.067,7.641,17.067,17.067v76.8
				C451.267,249.283,443.626,256.924,434.2,256.924z"/>
		</g>
	</g>
	<g>
		<path d="M486.4,445.658H76.8c-4.713,0-8.533-3.82-8.533-8.533c0.095-34.788-26.075-64.04-60.658-67.804
			C3.279,368.848,0,365.192,0,360.837v-94.379c0.049-42.395,34.405-76.751,76.8-76.8h155.063c6.794-0.019,13.314,2.682,18.104,7.5
			l7.067,7.067c1.598,1.606,3.772,2.506,6.038,2.5h34.467c2.995-0.009,5.768-1.579,7.317-4.142l13.333-22.221
			c3.977-6.633,6.078-14.221,6.079-21.955v-20.425c0.008-6.624,1.55-13.155,4.504-19.083l23.454-46.908
			c5.75-11.593,17.589-18.909,30.529-18.867h70.758c12.94-0.043,24.78,7.274,30.529,18.867l23.454,46.908
			c2.954,5.928,4.496,12.46,4.504,19.083v282.075C511.985,434.19,500.532,445.642,486.4,445.658z M84.912,428.591H486.4
			c4.71-0.006,8.527-3.823,8.533-8.533V137.983c-0.004-3.974-0.93-7.894-2.704-11.45l-23.454-46.908
			c-2.874-5.796-8.793-9.454-15.262-9.433h-70.758c-6.469-0.021-12.388,3.637-15.262,9.433l-23.454,46.908
			c-1.775,3.556-2.7,7.476-2.704,11.45v20.425c0,10.828-2.942,21.452-8.512,30.738l-13.333,22.217
			c-4.643,7.693-12.964,12.405-21.95,12.429h-34.467c-6.794,0.019-13.314-2.682-18.104-7.5l-7.067-7.067
			c-1.598-1.606-3.772-2.506-6.037-2.5H76.8c-32.974,0.037-59.696,26.759-59.733,59.733v87.071
			C53.726,360.911,81.261,391.374,84.912,428.591L84.912,428.591z"/>
		<path d="M315.729,198.195c-1.155-0.001-2.298-0.238-3.358-0.696L29.046,76.074c-5.891-2.525-9.87-8.137-10.304-14.531
			c-0.434-6.394,2.751-12.492,8.246-15.79l12.396-7.437c12.363-7.458,27.667-8.127,40.633-1.775
			c23.629,11.55,69.487,33.583,111.079,51.408c57.858,24.796,141.712,33.4,142.554,33.483c4.682,0.478,8.093,4.657,7.625,9.34
			c-0.469,4.683-4.641,8.103-9.325,7.643c-3.537-0.354-87.329-8.962-147.579-34.783c-41.929-17.967-88.075-40.142-111.85-51.758
			c-7.773-3.804-16.946-3.399-24.354,1.075l-12.396,7.437l283.325,121.429c3.723,1.598,5.81,5.593,4.994,9.562
			C323.274,195.347,319.781,198.195,315.729,198.195L315.729,198.195z"/>
		<path d="M486.4,104.324H349.867c-4.713,0-8.533-3.821-8.533-8.533c0-4.713,3.821-8.533,8.533-8.533H486.4
			c4.713,0,8.533,3.821,8.533,8.533C494.933,100.504,491.113,104.324,486.4,104.324z"/>
		<path d="M74.837,428.591H42.667c-14.132-0.015-25.585-11.468-25.6-25.6v-38.229c0-4.713,3.821-8.533,8.533-8.533
			s8.533,3.82,8.533,8.533v38.229c0.006,4.71,3.823,8.527,8.533,8.533h32.171c4.713,0,8.533,3.821,8.533,8.533
			C83.371,424.77,79.55,428.591,74.837,428.591z"/>
		<path d="M435.2,266.457c-14.132-0.015-25.585-11.468-25.6-25.6v-76.8c0-14.138,11.462-25.6,25.6-25.6
			c14.138,0,25.6,11.462,25.6,25.6v76.8C460.785,254.99,449.332,266.442,435.2,266.457L435.2,266.457z M435.2,155.524
			c-4.71,0.006-8.527,3.823-8.533,8.533v76.8c0,4.713,3.82,8.533,8.533,8.533s8.533-3.821,8.533-8.533v-76.8
			C443.727,159.347,439.91,155.53,435.2,155.524z"/>
		<path d="M435.2,445.658c-4.713,0-8.533-3.82-8.533-8.533v-85.333c0-4.713,3.82-8.533,8.533-8.533s8.533,3.82,8.533,8.533v85.333
			C443.733,441.837,439.913,445.658,435.2,445.658z"/>
		<path d="M452.267,377.391h-34.133c-4.713,0-8.533-3.82-8.533-8.533s3.82-8.533,8.533-8.533h34.133c4.713,0,8.533,3.82,8.533,8.533
			S456.98,377.391,452.267,377.391z"/>
		<path d="M452.267,411.524h-34.133c-4.713,0-8.533-3.82-8.533-8.533s3.82-8.533,8.533-8.533h34.133c4.713,0,8.533,3.82,8.533,8.533
			S456.98,411.524,452.267,411.524z"/>
		<path d="M460.8,479.791h-51.2c-14.132-0.015-25.585-11.468-25.6-25.6v-17.067c0-4.713,3.82-8.533,8.533-8.533h85.333
			c4.713,0,8.533,3.82,8.533,8.533v17.067C486.385,468.323,474.932,479.775,460.8,479.791z M401.067,445.658v8.533
			c0.006,4.71,3.823,8.527,8.533,8.533h51.2c4.71-0.006,8.527-3.823,8.533-8.533v-8.533H401.067z"/>
		<path d="M298.667,377.391H112.554c-4.713,0-8.533-3.82-8.533-8.533s3.821-8.533,8.533-8.533h186.113
			c14.132-0.015,25.585-11.468,25.6-25.6v-42.667c-0.015-14.132-11.468-25.585-25.6-25.6H85.333
			c-14.132,0.015-25.585,11.468-25.6,25.6v22.954c0,4.713-3.821,8.533-8.533,8.533s-8.533-3.821-8.533-8.533v-22.954
			c0.028-23.553,19.114-42.639,42.667-42.667h213.333c23.553,0.028,42.639,19.114,42.667,42.667v42.667
			C341.306,358.277,322.219,377.363,298.667,377.391z"/>
		<path d="M112.563,377.391c-2.899,0.004-5.602-1.465-7.175-3.9c-14.191-21.969-34.222-39.549-57.846-50.771
			c-4.253-2.023-6.063-7.109-4.043-11.364c2.019-4.255,7.104-6.069,11.36-4.053c26.489,12.578,48.95,32.289,64.863,56.92
			c1.697,2.624,1.824,5.965,0.331,8.709C118.56,375.678,115.687,377.388,112.563,377.391L112.563,377.391z"/>
	</g>
</g>
<g>
</g>
<g>
</g>
<g>
</g>
<g>
</g>
<g>
</g>
<g>
</g>
<g>
</g>
<g>
</g>
<g>
</g>
<g>
</g>
<g>
</g>
<g>
</g>
<g>
</g>
<g>
</g>
<g>
</g>
</svg>
