<?xml version="1.0" encoding="iso-8859-1"?>
<!-- Generator: Adobe Illustrator 19.0.0, SVG Export Plug-In . SVG Version: 6.00 Build 0)  -->
<svg version="1.1" id="Capa_1" xmlns="http://www.w3.org/2000/svg" xmlns:xlink="http://www.w3.org/1999/xlink" x="0px" y="0px"
	 viewBox="0 0 512.022 512.022" style="enable-background:new 0 0 512.022 512.022;" xml:space="preserve">
<g transform="translate(-1)">
	<g transform="translate(1 1)">
		<polygon style="fill:#F5F5F5;" points="436.758,92.449 503.489,25.718 412.523,7.542 382.998,36.982 		"/>
		<path style="fill:#FFB301;" d="M436.331,100.47c0.247,2.609-0.657,5.195-2.474,7.083L218.391,323.02
			c-48.555,48.469-72.789,157.696-72.789,157.696c-31.877,30.077-82.066,28.742-112.299-2.987c-2.326-2.321-4.519-4.771-6.571-7.339
			c-25.556-30.847-24.017-75.929,3.584-104.96L360.47,35.361c2.131-2.222,5.32-3.077,8.277-2.219l45.141,12.288l11.179,3.072
			c3.399,0.915,5.878,3.836,6.229,7.339L436.331,100.47z"/>
		<path style="fill:#FEC108;" d="M418.155,83.404c0.247,2.609-0.657,5.195-2.475,7.083L200.214,305.953
			c-48.554,48.469-72.789,157.696-72.789,157.696C99.915,489.97,57.504,492.81,26.731,470.39
			c-25.556-30.847-24.017-75.929,3.584-104.96L360.47,35.361c2.131-2.222,5.32-3.077,8.277-2.219l45.141,12.288L418.155,83.404z"/>
		<path style="fill:#F57C00;" d="M145.572,480.72c-31.841,30.121-82.06,28.763-112.228-3.034
			C1.548,447.519,0.19,397.3,30.311,365.459L145.572,480.72z"/>
		<path style="fill:#FF9801;" d="M119.972,464.137c-27.215,27.215-68.919,29.637-93.147,5.409s-21.807-65.932,5.408-93.147
			L119.972,464.137z"/>
		<path style="fill:#607D8B;" d="M307.727,185.105l80.501-80.501c3.336-3.356,3.336-8.777,0-12.133l-12.133-12.133
			c-3.356-3.337-8.777-3.337-12.133,0l-80.501,80.501l-75.587,75.587L54.577,389.724l24.266,24.266l153.297-153.298L307.727,185.105
			z"/>
		<path style="fill:#F5F5F5;" d="M212.296,219.873l54.608-54.608c6.698-6.698,17.558-6.698,24.257,0l12.128,12.128
			c6.698,6.698,6.698,17.558,0,24.257l-54.608,54.608c-6.698,6.698-17.558,6.698-24.257,0l-12.128-12.128
			C205.598,237.431,205.598,226.571,212.296,219.873z"/>
	</g>
	<g>
		<path d="M93.297,512.009c-0.817,0-1.625-0.008-2.442-0.033c-48.834-1.79-88.01-40.965-89.8-89.8
			c-0.84-23.053,7.934-45.418,24.225-61.75c1.6-1.601,3.77-2.5,6.033-2.5s4.433,0.899,6.033,2.5l115.258,115.258
			c1.601,1.6,2.5,3.77,2.5,6.033s-0.899,4.433-2.5,6.033C136.881,503.452,115.517,512.19,93.297,512.009z M31.705,378.917
			c-9.339,12.265-14.141,27.386-13.592,42.792c1.542,39.776,33.433,71.666,73.208,73.208c15.403,0.526,30.516-4.274,42.792-13.592
			L31.705,378.917z"/>
		<path d="M104.105,447.792c-2.264,0.003-4.435-0.897-6.033-2.5l-72.792-72.8c-1.601-1.6-2.5-3.77-2.5-6.033s0.899-4.433,2.5-6.033
			L355.405,30.292c4.347-4.332,10.676-6.013,16.6-4.408l56.3,15.358c6.786,1.821,11.758,7.623,12.517,14.608l4.966,44.717
			c0.579,5.165-1.228,10.313-4.908,13.983L225.405,330.025c-3.332,3.332-8.735,3.332-12.067,0c-3.332-3.332-3.332-8.735,0-12.067
			l215.475-215.475l-4.958-44.742l-56.333-15.391L43.38,366.459l66.758,66.767c2.44,2.441,3.169,6.11,1.849,9.298
			C110.667,445.712,107.556,447.791,104.105,447.792L104.105,447.792z"/>
		<path d="M146.58,490.251c-0.625-0.001-1.248-0.068-1.858-0.2c-4.599-1.026-7.5-5.582-6.483-10.183
			c1.017-4.558,25.383-112.192,75.1-161.908c3.332-3.332,8.735-3.332,12.067,0c3.332,3.332,3.332,8.735,0,12.067
			c-46.241,46.242-70.267,152.475-70.5,153.542C154.035,487.468,150.577,490.244,146.58,490.251L146.58,490.251z"/>
		<path d="M437.755,101.984c-3.451-0.001-6.562-2.08-7.882-5.268c-1.32-3.188-0.591-6.858,1.849-9.298l55.458-55.458l-70.858-14.159
			l-26.3,26.225c-3.338,3.319-8.733,3.307-12.057-0.026c-3.324-3.333-3.321-8.728,0.007-12.057l29.525-29.442
			c2.018-2.011,4.906-2.883,7.7-2.325l90.966,18.175c3.086,0.617,5.581,2.883,6.493,5.895s0.091,6.281-2.134,8.505l-66.733,66.733
			C442.19,101.087,440.019,101.987,437.755,101.984z"/>
		<path d="M79.839,423.526L79.839,423.526c-2.263,0-4.434-0.899-6.033-2.5l-24.259-24.266c-1.601-1.6-2.5-3.77-2.5-6.033
			c0-2.263,0.899-4.433,2.5-6.033l153.292-153.3c3.332-3.332,8.735-3.332,12.067,0c3.332,3.332,3.332,8.735,0,12.067L67.647,390.726
			l12.192,12.2l147.267-147.267c3.338-3.296,8.711-3.28,12.029,0.038c3.317,3.317,3.334,8.69,0.038,12.029l-153.3,153.3
			C84.272,422.627,82.102,423.526,79.839,423.526L79.839,423.526z"/>
		<path d="M308.73,194.642c-3.451-0.001-6.562-2.08-7.882-5.268c-1.32-3.188-0.591-6.858,1.849-9.298l80.5-80.509l-12.133-12.192
			l-80.567,80.5c-3.332,3.332-8.735,3.332-12.067,0c-3.332-3.332-3.332-8.735,0-12.067l80.5-80.5
			c3.198-3.215,7.548-5.019,12.083-5.008h0.017c4.54-0.013,8.897,1.791,12.1,5.008l12.133,12.133c6.667,6.686,6.667,17.506,0,24.192
			l-80.501,80.508C313.165,193.745,310.994,194.645,308.73,194.642z"/>
		<path d="M237.564,270.809c-6.811,0.013-13.346-2.689-18.158-7.508l-12.133-12.133c-10.017-10.04-10.017-26.293,0-36.333
			l54.592-54.6c10.169-9.7,26.164-9.7,36.333,0l12.133,12.133c4.818,4.818,7.525,11.353,7.525,18.167
			c0,6.814-2.707,13.349-7.525,18.167l-54.6,54.6C250.915,268.121,244.377,270.823,237.564,270.809L237.564,270.809z
			 M280.03,169.776c-2.288-0.003-4.484,0.905-6.1,2.525l-54.592,54.6c-3.367,3.37-3.367,8.83,0,12.2l12.133,12.133
			c3.368,3.363,8.823,3.363,12.192,0l54.6-54.6c3.367-3.37,3.367-8.83,0-12.2l-12.133-12.133
			C284.514,170.681,282.319,169.772,280.03,169.776L280.03,169.776z"/>
	</g>
</g>
<g>
</g>
<g>
</g>
<g>
</g>
<g>
</g>
<g>
</g>
<g>
</g>
<g>
</g>
<g>
</g>
<g>
</g>
<g>
</g>
<g>
</g>
<g>
</g>
<g>
</g>
<g>
</g>
<g>
</g>
</svg>
