<?xml version="1.0" encoding="iso-8859-1"?>
<!-- Generator: Adobe Illustrator 19.0.0, SVG Export Plug-In . SVG Version: 6.00 Build 0)  -->
<svg version="1.1" id="Capa_1" xmlns="http://www.w3.org/2000/svg" xmlns:xlink="http://www.w3.org/1999/xlink" x="0px" y="0px"
	 viewBox="0 0 511.986 511.986" style="enable-background:new 0 0 511.986 511.986;" xml:space="preserve">
<g>
	<g transform="translate(0 1)">
		<path style="fill:#795548;" d="M287.695,199.144L122.44,364.399H98.803c-15.865,0.015-31.08,6.303-42.326,17.493L13.555,424.9
			c-3.235,3.185-5.056,7.535-5.056,12.075s1.821,8.89,5.056,12.075l48.383,48.384c3.185,3.235,7.535,5.056,12.075,5.056
			s8.89-1.821,12.075-5.056l43.007-42.923c11.189-11.246,17.477-26.461,17.493-42.325v-23.637l165.256-165.255L287.695,199.144z
			 M112.37,412.185c0.036,6.796-2.671,13.318-7.509,18.091l-30.806,30.891l-24.233-24.235l30.89-30.805
			c4.773-4.838,11.296-7.545,18.092-7.509h13.567L112.37,412.185z"/>
		<path style="fill:#37474F;" d="M503.453,140.569L376.477,267.631c-13.415,13.312-35.055,13.312-48.47,0l-4.267-4.267
			l-19.968-19.968l-5.973-5.973l-54.443-54.443c-13.313-13.414-13.313-35.055,0-48.469L364.616,13.252l5.802-5.717L503.453,140.569z
			"/>
		<path style="fill:#607D8B;" d="M477.853,126.489L350.877,253.551c-7.139,7.139-17.082,10.734-27.136,9.813l-19.968-19.968
			l-5.973-5.973l-54.443-54.443c-13.313-13.414-13.313-35.055,0-48.469L364.616,13.252L477.853,126.489z"/>
		<path style="fill:#CFD8DC;" d="M285.71,188.987l-18.145,18.145l36.291,36.291l54.436-54.436
			c4.812-4.812,7.516-11.339,7.516-18.145c0-6.806-2.704-13.333-7.516-18.145l0,0c-4.812-4.812-11.339-7.516-18.145-7.516
			c-6.806,0-13.333,2.704-18.145,7.516l-12.098,12.098L285.71,188.987z"/>
	</g>
	<g>
		<path d="M352.236,287.11c-11.328,0.028-22.205-4.441-30.242-12.425L291.77,244.46c-3.332-3.332-3.332-8.735,0-12.067
			c3.332-3.332,8.734-3.332,12.067,0l30.208,30.208c10.096,9.968,26.334,9.957,36.417-0.025l120.925-121.008L370.42,20.601
			L249.386,141.543c-9.962,10.098-9.954,26.328,0.017,36.417l30.283,30.283c3.332,3.332,3.332,8.735,0,12.067
			c-3.332,3.332-8.735,3.332-12.067,0l-30.3-30.3c-16.586-16.759-16.597-43.744-0.025-60.517L364.386,2.502
			c1.6-1.601,3.77-2.5,6.033-2.5s4.433,0.899,6.033,2.5l133.033,133.033c1.601,1.6,2.5,3.77,2.5,6.033
			c0,2.263-0.899,4.433-2.5,6.033L382.511,274.668C374.466,282.662,363.578,287.136,352.236,287.11z"/>
		<path d="M303.853,252.96c-2.264,0.003-4.435-0.897-6.033-2.5l-36.292-36.292c-1.601-1.6-2.5-3.77-2.5-6.033
			c0-2.263,0.899-4.433,2.5-6.033l18.15-18.15c3.332-3.332,8.735-3.332,12.067,0c3.332,3.332,3.332,8.735,0,12.067l-12.117,12.117
			l24.225,24.225l48.408-48.408c4.327-4.327,6.017-10.635,4.434-16.546c-1.584-5.911-6.201-10.529-12.113-12.113
			s-12.219,0.106-16.546,4.433l-12.1,12.1c-3.332,3.332-8.735,3.332-12.067,0c-3.332-3.332-3.332-8.735,0-12.067l12.1-12.1
			c8.638-8.638,21.229-12.012,33.029-8.85c11.8,3.162,21.017,12.379,24.179,24.179c3.162,11.8-0.212,24.391-8.85,33.029
			l-54.442,54.442C308.289,252.062,306.117,252.962,303.853,252.96z"/>
		<path d="M74.011,511.984c-6.798,0.016-13.322-2.68-18.125-7.492L7.495,456.101c-9.99-10.02-9.994-26.233-0.009-36.258
			l42.958-42.95c12.803-12.87,30.222-20.083,48.375-20.033h20.05l148.709-148.708c1.6-1.601,3.77-2.5,6.033-2.5
			c2.263,0,4.433,0.899,6.033,2.5l24.192,24.192c1.601,1.6,2.5,3.77,2.5,6.033c0,2.263-0.899,4.433-2.5,6.033L155.128,393.118v20.05
			c0.05,18.153-7.164,35.572-20.033,48.375l-42.95,42.95C87.338,509.303,80.812,511.999,74.011,511.984L74.011,511.984z
			 M98.819,373.926c-13.625-0.038-26.698,5.375-36.308,15.033l-42.95,42.95c-3.342,3.351-3.342,8.774,0,12.125l48.392,48.392
			c3.357,3.331,8.773,3.327,12.125-0.009l42.95-42.942c9.658-9.61,15.071-22.683,15.034-36.308v-23.584
			c0-2.263,0.899-4.434,2.5-6.033l145.175-145.175l-12.125-12.125L128.437,371.427c-1.6,1.601-3.77,2.5-6.033,2.5L98.819,373.926z"
			/>
		<path d="M74.011,470.701c-2.264,0.003-4.435-0.897-6.033-2.5l-24.192-24.192c-1.601-1.6-2.5-3.77-2.5-6.033
			c0-2.263,0.899-4.433,2.5-6.033l30.85-30.849c6.396-6.437,15.101-10.047,24.175-10.025l13.575,0.009
			c4.708,0,8.525,3.817,8.525,8.525l0.009,13.567c0.023,9.077-3.587,17.785-10.025,24.183l-30.85,30.85
			C78.446,469.804,76.275,470.704,74.011,470.701L74.011,470.701z M61.886,437.976l12.125,12.125l24.817-24.817
			c3.225-3.203,5.034-7.563,5.025-12.108v-5.042h-5.05c-4.543-0.008-8.9,1.802-12.1,5.025L61.886,437.976z"/>
	</g>
</g>
<g>
</g>
<g>
</g>
<g>
</g>
<g>
</g>
<g>
</g>
<g>
</g>
<g>
</g>
<g>
</g>
<g>
</g>
<g>
</g>
<g>
</g>
<g>
</g>
<g>
</g>
<g>
</g>
<g>
</g>
</svg>
