<?xml version="1.0" encoding="iso-8859-1"?>
<!-- Generator: Adobe Illustrator 19.0.0, SVG Export Plug-In . SVG Version: 6.00 Build 0)  -->
<svg version="1.1" id="Capa_1" xmlns="http://www.w3.org/2000/svg" xmlns:xlink="http://www.w3.org/1999/xlink" x="0px" y="0px"
	 viewBox="0 0 512.047 512.047" style="enable-background:new 0 0 512.047 512.047;" xml:space="preserve">
<g transform="translate(0 -1)">
	<g transform="translate(0 2)">
		<path style="fill:#3F51B5;" d="M219.321,231.119c-44.056-12.423-106.958,9.999-157.073,60.114
			c-22.644,22.204-40.503,48.808-52.479,78.173c-2.564,6.377-1.087,13.668,3.757,18.543l0.061,0.061
			c4.066,4.077,9.922,5.815,15.554,4.615s10.271-5.173,12.322-10.554c10.31-25.038,25.632-47.702,45.025-66.599
			c47.813-47.813,103.019-62.296,130.652-48.601l27.027,27.027c13.695,27.633-0.788,82.839-48.601,130.652
			c-18.897,19.393-41.561,34.716-66.599,45.025c-5.381,2.051-9.354,6.69-10.554,12.322c-1.2,5.632,0.538,11.488,4.615,15.554
			l0.061,0.061c4.876,4.844,12.167,6.321,18.543,3.757c29.365-11.976,55.969-29.835,78.173-52.479
			c50.116-50.116,72.537-113.018,60.114-157.073L219.321,231.119z"/>
		<path style="fill:#CFD8DC;" d="M349.867,220.906l-8.96,9.813l-66.56,66.56l-34.133-3.755
			c-11.895-1.427-21.271-10.804-22.699-22.699l-3.755-34.133l66.56-66.56l0.853-0.853l8.96-8.107L349.867,220.906z"/>
		<path style="fill:#F4F4F4;" d="M324.267,212.372l-8.96,9.813l-66.56,66.56l-23.808-2.645c-4.182-4.069-6.809-9.473-7.424-15.275
			l-3.755-34.133l66.56-66.56l0.853-0.853L324.267,212.372z"/>
		<g>
			<path style="fill:#607D8B;" d="M500.139,62.527L385.195,210.666l-18.176,18.176c-6.707,6.656-17.527,6.656-24.235,0
				l-30.293-30.293l-20.053-20.053l-10.24-10.24c-6.656-6.707-6.656-17.528,0-24.235l18.176-18.176L448.512,10.9
				c6.857-5.01,16.34-4.286,22.357,1.707l13.739,13.824l13.824,13.739C504.425,46.187,505.149,55.67,500.139,62.527z"/>
			<path style="fill:#607D8B;" d="M484.608,26.431L373.078,137.962l-36.352,36.352l-24.235,24.235l-20.053-20.053l-10.24-10.24
				c-6.656-6.707-6.656-17.528,0-24.235l18.176-18.176L448.512,10.9c6.857-5.01,16.34-4.286,22.357,1.707L484.608,26.431z"/>
		</g>
		<circle style="fill:#F4F4F4;" cx="354.923" cy="156.123" r="25.685"/>
	</g>
	<g>
		<path d="M354.921,192.364c-13.851,0.002-26.339-8.342-31.64-21.139c-5.3-12.797-2.369-27.527,7.427-37.32l0,0
			c10.96-10.956,27.911-13.185,41.331-5.436s19.962,23.546,15.952,38.514C383.981,181.953,370.418,192.362,354.921,192.364
			L354.921,192.364z M354.921,140.939c-4.558-0.012-8.932,1.801-12.146,5.033l0,0c-3.223,3.221-5.033,7.59-5.033,12.146
			c0,4.556,1.811,8.925,5.033,12.146c6.796,6.492,17.496,6.492,24.292,0c4.912-4.913,6.381-12.301,3.723-18.72
			C368.131,145.126,361.868,140.94,354.921,140.939L354.921,140.939z"/>
		<path d="M354.921,244.376c-6.809,0.012-13.342-2.69-18.154-7.508l-10.242-10.238l0,0l-50.354-50.358
			c-10.013-10.032-10.013-26.276,0-36.308l18.179-18.179c0.252-0.254,0.521-0.49,0.804-0.708L443.3,6.189
			c10.208-7.725,24.554-6.712,33.575,2.371l27.608,27.604c9.043,8.959,10.106,23.211,2.492,33.413L391.963,217.885
			c-0.218,0.283-0.455,0.552-0.708,0.804l-18.179,18.179C368.264,241.686,361.73,244.388,354.921,244.376z M338.592,214.564
			l10.242,10.238c3.365,3.354,8.81,3.354,12.175,0l17.8-17.8L493.367,59.276c2.453-3.415,2.046-8.109-0.958-11.05l-27.6-27.6
			c-3.004-3.029-7.78-3.385-11.2-0.833L306.038,134.231l-17.8,17.8c-3.354,3.365-3.354,8.81,0,12.175L338.592,214.564z"/>
		<path d="M373.1,148.472c-3.451-0.001-6.562-2.08-7.882-5.268c-1.32-3.188-0.591-6.858,1.849-9.298L478.608,22.36
			c3.332-3.332,8.735-3.332,12.067,0s3.332,8.735,0,12.067L379.134,145.972C377.535,147.575,375.364,148.475,373.1,148.472z"/>
		<path d="M318.563,203.01c-3.451-0.001-6.562-2.08-7.882-5.268c-1.32-3.188-0.591-6.858,1.849-9.298l18.179-18.179
			c3.332-3.332,8.735-3.332,12.067,0c3.332,3.332,3.332,8.735,0,12.067l-18.179,18.179
			C322.998,202.113,320.826,203.013,318.563,203.01L318.563,203.01z"/>
		<path d="M274.346,307.826c-0.315,0.001-0.629-0.017-0.942-0.054l-34.1-3.788c-15.95-1.7-28.55-14.3-30.25-30.25l-3.788-34.1
			c-0.287-2.576,0.613-5.143,2.446-6.975l66.579-66.579c3.332-3.332,8.735-3.332,12.067,0c3.332,3.332,3.332,8.735,0,12.067
			l-63.679,63.679l3.333,30.025c0.857,7.999,7.176,14.318,15.175,15.175l30.025,3.333l63.679-63.679
			c2.155-2.155,5.297-2.997,8.242-2.208c2.944,0.789,5.244,3.089,6.033,6.033c0.789,2.944-0.053,6.086-2.208,8.242l-66.579,66.579
			C278.779,306.927,276.609,307.826,274.346,307.826L274.346,307.826z"/>
		<path d="M135.204,513.039c-12.342,0.071-22.972-8.688-25.263-20.816s4.412-24.161,15.93-28.597
			c23.934-9.886,45.597-24.555,63.663-43.108c44.729-44.729,59.017-96.558,46.988-120.829c-1.353-2.732-1.146-5.978,0.543-8.515
			c1.689-2.538,4.604-3.981,7.646-3.788c3.042,0.194,5.75,1.996,7.103,4.728c14.863,29.987,2.388,87.871-50.213,140.471
			c-19.732,20.221-43.391,36.194-69.521,46.938c-2.731,1.014-4.747,3.363-5.333,6.217c-0.6,2.787,0.275,5.686,2.317,7.675
			c2.473,2.478,6.188,3.236,9.433,1.925c28.281-11.544,53.899-28.758,75.275-50.579c46.596-46.6,69.879-106.367,57.937-148.725
			c-1.233-4.519,1.407-9.187,5.916-10.459c4.508-1.272,9.199,1.328,10.509,5.825c13.567,48.121-11.467,114.6-62.296,165.425
			c-23.033,23.479-50.633,41.99-81.096,54.391C141.706,512.42,138.47,513.038,135.204,513.039z"/>
		<path d="M25.567,403.543c-6.763-0.006-13.244-2.705-18.013-7.5c-7.287-7.283-9.536-18.205-5.721-27.775
			c12.4-30.452,30.907-58.042,54.379-81.067c50.825-50.821,117.296-75.863,165.425-62.296c4.497,1.311,7.097,6.001,5.825,10.509
			c-1.272,4.508-5.94,7.148-10.459,5.916c-42.342-11.933-102.125,11.346-148.725,57.938c-21.815,21.368-39.024,46.975-50.566,75.246
			c-1.317,3.223-0.589,6.92,1.85,9.404c1.995,2.076,4.921,2.974,7.738,2.375c2.848-0.585,5.195-2.593,6.212-5.316
			c10.743-26.137,26.717-49.801,46.942-69.538c52.596-52.604,110.471-65.084,140.471-50.212c2.732,1.353,4.534,4.061,4.728,7.103
			c0.194,3.042-1.25,5.957-3.788,7.646c-2.538,1.689-5.784,1.896-8.515,0.543c-24.258-12.021-76.096,2.263-120.829,46.988
			c-18.557,18.069-33.228,39.738-43.113,63.679C45.602,397.038,36.129,403.537,25.567,403.543L25.567,403.543z"/>
	</g>
</g>
<g>
</g>
<g>
</g>
<g>
</g>
<g>
</g>
<g>
</g>
<g>
</g>
<g>
</g>
<g>
</g>
<g>
</g>
<g>
</g>
<g>
</g>
<g>
</g>
<g>
</g>
<g>
</g>
<g>
</g>
</svg>
