<?xml version="1.0" encoding="iso-8859-1"?>
<!-- Generator: Adobe Illustrator 19.0.0, SVG Export Plug-In . SVG Version: 6.00 Build 0)  -->
<svg version="1.1" id="Capa_1" xmlns="http://www.w3.org/2000/svg" xmlns:xlink="http://www.w3.org/1999/xlink" x="0px" y="0px"
	 viewBox="0 0 512.004 512.004" style="enable-background:new 0 0 512.004 512.004;" xml:space="preserve">
<g>
	<g transform="translate(1 1)">
		<path style="fill:#607D8B;" d="M489.825,245.817l-98.347,98.347l0.086,0.085L253.02,482.708c-3.376,3.35-8.821,3.35-12.197,0
			l-12.111-12.197c-1.608-1.605-2.512-3.783-2.512-6.055c0-2.272,0.904-4.451,2.512-6.055l127.121-127.035l6.528-6.613
			L465.604,221.51c1.608-1.605,2.512-3.783,2.512-6.055s-0.904-4.451-2.512-6.055l-85.034-85.034c-3.35-3.375-3.35-8.821,0-12.197
			l12.111-12.111c3.375-3.35,8.821-3.35,12.197,0l84.948,85.034c8.082,8.037,12.626,18.965,12.626,30.363
			S497.907,237.78,489.825,245.817L489.825,245.817z"/>
		<path style="fill:#CFD8DC;" d="M416.924,221.51l-98.347,98.347l0.086,0.085L180.119,458.401c-3.376,3.35-8.821,3.35-12.197,0
			l-12.111-12.197c-1.608-1.605-2.512-3.783-2.512-6.055s0.904-4.451,2.512-6.055l127.121-127.035l6.528-6.613l103.242-103.243
			c1.608-1.605,2.512-3.783,2.512-6.055c0-2.272-0.904-4.451-2.512-6.055l-85.034-85.034c-3.35-3.375-3.35-8.821,0-12.197
			L319.78,75.75c3.375-3.35,8.821-3.35,12.197,0l84.947,85.034c8.082,8.037,12.626,18.965,12.626,30.363
			C429.55,202.545,425.006,213.473,416.924,221.51z"/>
		<path style="fill:#607D8B;" d="M344.817,197.203l-98.347,98.347l0.086,0.085L108.012,434.093c-3.376,3.35-8.821,3.35-12.197,0
			l-12.111-12.197c-1.608-1.605-2.512-3.783-2.512-6.055s0.904-4.451,2.512-6.055l127.121-127.035l6.528-6.613l103.242-103.243
			c1.608-1.605,2.512-3.783,2.512-6.055s-0.904-4.451-2.512-6.055l-85.034-85.034c-3.35-3.375-3.35-8.821,0-12.197l12.111-12.111
			c3.375-3.35,8.821-3.35,12.197,0l84.948,85.034c8.082,8.037,12.626,18.965,12.626,30.363S352.899,189.165,344.817,197.203z"/>
		<path style="fill:#CFD8DC;" d="M271.165,172.895l-98.347,98.347l0.086,0.085L34.359,409.786c-3.376,3.35-8.821,3.35-12.197,0
			l-12.111-12.197c-1.608-1.605-2.512-3.783-2.512-6.055s0.904-4.451,2.512-6.055l127.121-127.035l6.528-6.613l103.242-103.243
			c1.608-1.605,2.512-3.783,2.512-6.055c0-2.272-0.904-4.451-2.512-6.055l-85.034-85.034c-3.35-3.375-3.35-8.821,0-12.197
			l12.111-12.111c3.375-3.35,8.821-3.35,12.197,0l84.948,85.034c8.082,8.037,12.626,18.965,12.626,30.363
			C283.791,153.93,279.247,164.858,271.165,172.895z"/>
		<path style="fill:#283593;" d="M392.681,379.466l-16.578,16.577c-4.712,4.686-11.708,6.225-17.951,3.951l-16.491-5.927
			l-35.732-12.884L270.198,368.3l-35.817-12.798l-35.645-12.884l-35.731-12.884l-35.731-12.884l-35.732-12.798l-1.374-0.515
			c-5.532-1.981-9.66-6.663-10.932-12.399c-1.273-5.736,0.488-11.724,4.662-15.859l102.298-102.384
			c3.741-3.742,9.015-5.521,14.258-4.81c3.811,0.372,7.369,2.075,10.049,4.81l6.099,6.098l24.221,24.308l24.308,24.308
			l24.308,24.222l24.308,24.307l24.307,24.308l24.308,24.308l24.222,24.307l6.099,6.099
			C399.38,361.876,399.38,372.748,392.681,379.466L392.681,379.466z"/>
		<path style="fill:#3F51B5;" d="M370.263,362.202L353.6,378.779c-4.682,4.675-11.648,6.216-17.865,3.951l-16.492-5.926
			l-35.817-12.884l-35.646-12.884l-35.903-12.798l-35.559-12.884L140.5,312.47l-35.731-12.884l-25.682-9.19
			c-1.028-5.526,0.778-11.201,4.81-15.117l102.298-102.384c3.741-3.742,9.015-5.521,14.258-4.81l17.865,17.951l24.308,24.308
			l24.394,24.222l24.307,24.307l24.222,24.308l54.713,54.713C376.877,344.647,376.877,355.449,370.263,362.202L370.263,362.202z"/>
	</g>
	<g>
		<path d="M387.604,358.593h-0.009c-2.266-0.001-4.438-0.903-6.038-2.508l-24.22-24.308c-3.322-3.335-3.316-8.73,0.012-12.058
			l103.237-103.233l0.017-0.017l-85.046-85.071c-6.683-6.707-6.683-17.556,0-24.262l12.112-12.108
			c6.695-6.609,17.448-6.642,24.183-0.075l85.025,85.112c9.685,9.639,15.128,22.741,15.125,36.406
			c-0.003,13.664-5.453,26.764-15.142,36.399L393.637,356.093C392.037,357.693,389.867,358.592,387.604,358.593L387.604,358.593z
			 M375.441,325.764l12.175,12.217l97.196-97.196c6.478-6.435,10.122-15.187,10.125-24.317c0.003-9.13-3.635-17.885-10.108-24.324
			l-84.971-85.054l-12.234,12.112l85.038,85.167c6.656,6.679,6.66,17.483,0.009,24.166l-0.009,0.009L375.441,325.764z"/>
		<path d="M247.945,494.755c-4.552,0.017-8.921-1.788-12.133-5.012l-12.125-12.204c-3.204-3.207-5.002-7.555-5-12.088
			c0.002-4.533,1.805-8.879,5.012-12.083l77.217-77.217c2.342-2.333,5.817-3.109,8.929-1.996l35.733,12.883
			c2.747,0.991,4.797,3.319,5.433,6.169c0.636,2.851-0.23,5.828-2.295,7.893l-88.642,88.642
			C256.863,492.966,252.495,494.771,247.945,494.755L247.945,494.755z M309.154,392.051l-73.387,73.383l0.021,0.067l12.112,12.196
			l79.237-79.163L309.154,392.051z"/>
		<path d="M339.074,309.976c-2.264,0.003-4.435-0.897-6.033-2.5l-24.308-24.304c-1.601-1.6-2.5-3.77-2.5-6.033
			c0-2.263,0.899-4.433,2.5-6.033l78.938-78.938l-48.613-48.566c-0.244-0.243-0.474-0.5-0.688-0.771l-35.733-35.738
			c-6.605-6.697-6.641-17.447-0.079-24.187l0.1-0.1l12.196-12.108c6.681-6.653,17.485-6.643,24.154,0.021l85.037,85.033
			c20.067,20.115,20.067,52.677,0,72.792l-78.938,78.933C343.509,309.079,341.338,309.979,339.074,309.976z M326.833,277.139
			l12.242,12.237l72.904-72.9c13.417-13.445,13.417-35.213,0-48.658l-85.037-85.033l-12.179,12.054
			c-0.087,0.1-0.071,0.167-0.067,0.179l36.425,36.425c0.241,0.241,0.467,0.496,0.679,0.763l47.933,47.85
			c3.209,3.205,5.012,7.554,5.013,12.089c0.001,4.535-1.801,8.884-5.008,12.09L326.833,277.139z"/>
		<path d="M175.062,470.447c-4.537,0.011-8.89-1.794-12.087-5.012l-12.196-12.196c-6.667-6.681-6.667-17.498,0-24.179l78.592-78.592
			c2.329-2.337,5.799-3.118,8.904-2.004l35.817,12.8c2.754,0.985,4.812,3.311,5.454,6.165c0.641,2.854-0.223,5.837-2.291,7.906
			l-90.1,90.1C183.955,468.654,179.6,470.459,175.062,470.447L175.062,470.447z M237.616,366.355l-74.771,74.817l12.196,12.196
			l80.608-80.571L237.616,366.355z"/>
		<path d="M290.458,261.364c-2.259,0.003-4.426-0.892-6.025-2.487l-24.304-24.221c-1.604-1.6-2.507-3.772-2.508-6.038
			c-0.002-2.266,0.898-4.439,2.5-6.041l54.712-54.717l-85.033-85.075c-6.662-6.676-6.667-17.483-0.012-24.166l12.1-12.187
			c6.678-6.685,17.51-6.694,24.2-0.021l85.033,85.033c0.258,0.256,0.499,0.529,0.721,0.817
			c19.488,20.158,19.161,52.234-0.733,71.992l-54.617,54.612C294.893,260.467,292.721,261.367,290.458,261.364z M278.233,228.597
			l12.217,12.175l48.604-48.604c6.477-6.417,10.122-15.156,10.125-24.274c0.003-9.118-3.636-17.859-10.108-24.281
			c-0.247-0.248-0.481-0.51-0.7-0.783L254.02,58.476l-12.133,12.175l-0.021,0.021l-0.012,0.017l85.046,85.062
			c3.21,3.205,5.013,7.555,5.013,12.09c-0.001,4.536-1.806,8.885-5.017,12.089L278.233,228.597z"/>
		<path d="M102.183,446.139c-4.55,0.016-8.918-1.789-12.129-5.012l-12.112-12.108l-0.079-0.079
			c-6.562-6.74-6.526-17.491,0.079-24.187l80.05-80.05c2.341-2.333,5.817-3.11,8.929-1.996l35.733,12.883
			c2.747,0.991,4.797,3.318,5.433,6.169c0.636,2.851-0.23,5.828-2.295,7.893l-91.475,91.475
			C111.104,444.351,106.734,446.156,102.183,446.139L102.183,446.139z M90.008,416.951l12.112,12.108l82.092-81.975l-17.983-6.483
			l-82.254,82.383L90.008,416.951z"/>
		<path d="M241.845,212.834h-0.009c-2.266-0.001-4.438-0.903-6.038-2.508l-24.221-24.308c-3.322-3.335-3.316-8.73,0.012-12.058
			l30.317-30.321l-85.033-85.163c-3.209-3.205-5.013-7.554-5.013-12.09s1.803-8.885,5.013-12.09l0,0l12.201-12.196
			c6.759-6.471,17.416-6.471,24.175,0l85.033,85.034c20.023,20.133,20.023,52.659,0,72.792l-30.404,30.408
			C246.278,211.935,244.108,212.834,241.845,212.834z M229.683,180.005l12.175,12.217l24.358-24.363
			c13.381-13.469,13.373-35.215-0.017-48.675l-85.016-85.017l-12.242,12.196l-0.012,0.017l85.046,85.062
			c6.683,6.707,6.683,17.556,0,24.262L229.683,180.005z"/>
		<path d="M29.304,421.83c-4.537,0.011-8.89-1.794-12.087-5.012L5.037,404.735l-0.025-0.029C-1.672,398-1.67,387.15,5.016,380.447
			l81.517-81.434c2.33-2.338,5.803-3.116,8.908-1.996l35.733,12.8c2.751,0.987,4.806,3.314,5.446,6.166
			c0.64,2.852-0.225,5.833-2.292,7.901l-92.938,92.933C38.193,420.036,33.84,421.841,29.304,421.83L29.304,421.83z M17.062,392.617
			l12.2,12.109l83.467-83.388l-17.958-6.433l-83.721,83.771L17.062,392.617z"/>
		<path d="M364.945,410.551c-2.98,0.003-5.937-0.524-8.733-1.554l-267.95-96.442c-8.276-2.984-14.445-10.002-16.341-18.593
			s0.744-17.554,6.995-23.744l102.262-102.354c10.05-10.031,26.324-10.035,36.379-0.009l182.179,182.271
			c9.966,10.056,9.984,26.259,0.042,36.337l-16.621,16.612C378.298,407.854,371.76,410.538,364.945,410.551z M199.37,177.397
			c-2.296-0.003-4.499,0.908-6.121,2.533L90.958,282.313c-2.135,2.07-3.031,5.107-2.363,8.004c0.614,2.871,2.682,5.213,5.454,6.179
			l0.129,0.05l1.371,0.512l266.508,95.904c3.161,1.176,6.718,0.388,9.088-2.013l16.525-16.517c1.632-1.619,2.55-3.822,2.55-6.121
			s-0.918-4.502-2.55-6.121L205.491,179.926C203.867,178.304,201.665,177.394,199.37,177.397z"/>
	</g>
</g>
<g>
</g>
<g>
</g>
<g>
</g>
<g>
</g>
<g>
</g>
<g>
</g>
<g>
</g>
<g>
</g>
<g>
</g>
<g>
</g>
<g>
</g>
<g>
</g>
<g>
</g>
<g>
</g>
<g>
</g>
</svg>
