<?xml version="1.0" encoding="iso-8859-1"?>
<!-- Generator: Adobe Illustrator 19.0.0, SVG Export Plug-In . SVG Version: 6.00 Build 0)  -->
<svg version="1.1" id="Capa_1" xmlns="http://www.w3.org/2000/svg" xmlns:xlink="http://www.w3.org/1999/xlink" x="0px" y="0px"
	 viewBox="0 0 511.996 511.996" style="enable-background:new 0 0 511.996 511.996;" xml:space="preserve">
<g>
	<g transform="translate(1 1)">
		<g>
			
				<rect x="261.244" y="107.749" transform="matrix(0.7071 -0.7071 0.7071 0.7071 17.0711 290.9301)" style="fill:#CFD8DC;" width="196.95" height="34.219"/>
			<path style="fill:#CFD8DC;" d="M61.112,385.673l-18.335,18.335c-3.58,3.58-5.591,8.434-5.591,13.497s2.011,9.917,5.591,13.497
				l0.012,0.012c3.58,3.58,8.434,5.59,13.497,5.591h106.647L61.112,385.673z"/>
			<path style="fill:#CFD8DC;" d="M432.242,76.567l24.196-12.099l18.143-18.143c1.604-1.604,2.505-3.78,2.505-6.048
				c0-2.269-0.901-4.444-2.505-6.048l-24.194-24.194c-1.604-1.604-3.78-2.505-6.048-2.505c-2.269,0-4.444,0.901-6.048,2.505
				l-18.143,18.143l-12.099,24.196L432.242,76.567z"/>
		</g>
		<polygon style="fill:#607D8B;" points="317.282,191.508 293.133,239.892 230.873,302.151 182.489,253.767 244.749,191.508 
			293.133,167.273 		"/>
		
			<rect x="232.506" y="196.583" transform="matrix(-0.7071 0.7071 -0.7071 -0.7071 596.606 214.4809)" style="fill:#CFD8DC;" width="42.752" height="68.438"/>
		
			<rect x="312.281" y="269.707" transform="matrix(-0.7071 0.7071 -0.7071 -0.7071 783.2461 300.4868)" style="fill:#607D8B;" width="34.219" height="85.504"/>
		<path style="fill:#00695C;" d="M280.162,431.721l-45.397,48.725l-8.192-4.693l-2.475-1.28L61.794,390.164
			c-2.419-1.237-4.101-3.556-4.523-6.241c-0.422-2.684,0.466-5.408,2.389-7.327l113.835-113.749l16.811-16.896l48.384,48.384
			l36.267,133.035L280.162,431.721z"/>
		<path style="fill:#009688;" d="M255.586,440.852l-31.488,33.621L61.794,390.164c-2.419-1.237-4.101-3.556-4.523-6.241
			c-0.422-2.684,0.466-5.408,2.389-7.327l113.835-113.749l40.533,40.533l36.352,133.035L255.586,440.852z"/>
		<path style="fill:#02A9F4;" d="M232.644,421.327l2.49-2.49c2.197-2.197,3.029-5.411,2.176-8.398l-18.817-65.86
			c-0.833-2.914-3.145-5.17-6.079-5.93c-2.934-0.76-6.051,0.089-8.194,2.232l-26.011,26.011c-1.604,1.604-2.505,3.78-2.505,6.048
			c0,2.269,0.901,4.444,2.505,6.048l42.339,42.339c1.604,1.604,3.78,2.505,6.048,2.505
			C228.864,423.833,231.04,422.932,232.644,421.327L232.644,421.327z"/>
		<path style="fill:#CFD8DC;" d="M329.438,433.42l-66.562,66.562c-3.332,3.332-8.736,3.332-12.068,0L226.6,475.774l72.596-72.596
			c3.333-3.332,8.736-3.332,12.068,0l18.174,18.174C332.771,424.685,332.771,430.088,329.438,433.42z"/>
		<path style="fill:#F4F4F4;" d="M311.623,449.868l-51.383,51.383c-3.332,3.332-8.736,3.332-12.068,0l-24.208-24.208l57.417-57.417
			c3.332-3.332,8.736-3.333,12.068,0l18.174,18.174C314.955,441.133,314.955,446.536,311.623,449.868z"/>
	</g>
	<g>
		<path d="M433.246,86.104c-2.265,0.003-4.438-0.897-6.037-2.5l-24.192-24.2c-2.598-2.597-3.243-6.565-1.6-9.85l12.096-24.192
			c0.412-0.819,0.952-1.567,1.6-2.217l18.146-18.142c6.673-6.671,17.49-6.671,24.162,0l24.196,24.192
			c6.657,6.679,6.659,17.485,0.004,24.166l-18.15,18.142c-0.647,0.65-1.396,1.19-2.217,1.6l-24.196,12.1
			C435.874,85.797,434.569,86.105,433.246,86.104L433.246,86.104z M419.433,51.687l15.496,15.5l17.454-8.733l17.167-17.158
			l-24.196-24.225l-17.196,17.167L419.433,51.687z"/>
		<path d="M318.32,201.021c-2.264,0.003-4.435-0.897-6.033-2.5l-24.192-24.192c-1.601-1.6-2.5-3.77-2.5-6.033s0.899-4.433,2.5-6.033
			L403.016,47.337c1.6-1.6,3.77-2.5,6.033-2.5l0,0c2.263,0.001,4.433,0.9,6.033,2.5l24.192,24.2c1.601,1.6,2.5,3.77,2.5,6.033
			c0,2.263-0.899,4.433-2.5,6.033L324.354,198.521C322.755,200.124,320.584,201.023,318.32,201.021z M306.195,168.295l12.125,12.125
			l102.854-102.85L409.05,65.437L306.195,168.295z"/>
		<path d="M384.854,146.587c-2.263,0.001-4.434-0.898-6.035-2.499c-1.6-1.6-2.499-3.771-2.499-6.035V65.471
			c0-4.713,3.82-8.533,8.533-8.533s8.533,3.821,8.533,8.533v72.583c0.001,2.263-0.898,4.434-2.499,6.035
			C389.288,145.689,387.117,146.588,384.854,146.587L384.854,146.587z"/>
		<path d="M348.562,182.879c-2.263,0.001-4.434-0.898-6.035-2.499c-1.6-1.6-2.499-3.771-2.499-6.035v-72.583
			c0-4.713,3.821-8.533,8.533-8.533s8.533,3.821,8.533,8.533v72.583c0.001,2.263-0.898,4.434-2.499,6.035
			C352.996,181.981,350.826,182.88,348.562,182.879z"/>
		<path d="M294.129,249.404c-2.263,0.002-4.434-0.898-6.033-2.5l-48.387-48.383c-1.941-1.939-2.831-4.693-2.391-7.401
			c0.439-2.708,2.154-5.04,4.608-6.266l48.387-24.192c3.285-1.648,7.256-1.003,9.85,1.6l24.192,24.192
			c2.596,2.598,3.241,6.564,1.6,9.85l-24.192,48.383c-1.229,2.452-3.56,4.165-6.267,4.608
			C295.044,249.369,294.587,249.405,294.129,249.404z M260.15,194.829l31.642,31.633l16.146-32.292l-15.492-15.492L260.15,194.829z"
			/>
		<path d="M239.691,303.846c-2.263-0.001-4.433-0.9-6.033-2.5l-48.388-48.392c-1.601-1.6-2.5-3.77-2.5-6.033
			c0-2.263,0.899-4.433,2.5-6.033l54.437-54.433c1.6-1.601,3.77-2.5,6.033-2.5c2.263,0,4.433,0.899,6.033,2.5l48.387,48.383
			c1.601,1.6,2.5,3.77,2.5,6.033c0,2.263-0.899,4.433-2.5,6.033l-54.437,54.442C244.125,302.946,241.955,303.845,239.691,303.846
			L239.691,303.846z M203.37,246.921l36.321,36.325l42.371-42.375l-36.321-36.317L203.37,246.921z"/>
		<path d="M348.562,364.329c-2.264,0.003-4.435-0.897-6.033-2.5l-54.433-54.433c-1.601-1.6-2.5-3.77-2.5-6.033
			c0-2.263,0.899-4.433,2.5-6.033l24.192-24.2c3.386-3.2,8.681-3.2,12.067,0l54.437,54.442c1.601,1.6,2.5,3.77,2.5,6.033
			s-0.899,4.433-2.5,6.033l-24.196,24.192C352.998,363.432,350.826,364.332,348.562,364.329L348.562,364.329z M306.196,301.362
			l42.367,42.367l12.129-12.125l-42.371-42.375L306.196,301.362z"/>
		<path d="M282.033,309.896c-3.451-0.001-6.562-2.08-7.882-5.268c-1.32-3.188-0.591-6.858,1.849-9.298l36.288-36.292
			c3.332-3.332,8.735-3.332,12.067,0c3.332,3.332,3.332,8.735,0,12.067l-36.288,36.291
			C286.468,308.999,284.297,309.898,282.033,309.896L282.033,309.896z"/>
		<path d="M342.517,370.379c-3.451-0.001-6.562-2.08-7.882-5.268c-1.32-3.188-0.591-6.858,1.849-9.298l36.292-36.292
			c3.332-3.332,8.734-3.332,12.067,0c3.332,3.332,3.332,8.735,0,12.067l-36.292,36.291
			C346.951,369.482,344.78,370.382,342.517,370.379L342.517,370.379z"/>
		<path d="M227.591,485.296c-1.367-0.001-2.715-0.33-3.929-0.958L58.821,398.762c-4.829-2.507-8.173-7.166-9.003-12.543
			c-0.83-5.377,0.954-10.828,4.803-14.674l130.65-130.658c1.6-1.6,3.77-2.5,6.033-2.5l0,0c2.263,0.001,4.433,0.9,6.033,2.5
			l48.387,48.392c1.05,1.051,1.809,2.358,2.2,3.792l36.292,133.067c0.804,2.953-0.035,6.111-2.2,8.275l-48.387,48.383
			C232.028,484.398,229.856,485.298,227.591,485.296L227.591,485.296z M191.304,258.987L66.683,383.612l159.296,82.7l40.467-40.467
			l-34.392-126.1L191.304,258.987z"/>
		<path d="M300.174,291.746c-2.264,0.003-4.435-0.897-6.033-2.5l-24.192-24.192c-2.156-2.155-2.997-5.297-2.208-8.242
			c0.789-2.944,3.089-5.244,6.033-6.033c2.944-0.789,6.086,0.053,8.242,2.208l24.192,24.192c2.44,2.44,3.169,6.11,1.849,9.298
			C306.736,289.665,303.626,291.744,300.174,291.746L300.174,291.746z"/>
		<path d="M227.596,433.371c-4.535,0.009-8.885-1.794-12.083-5.008l-42.338-42.342c-3.205-3.205-5.006-7.552-5.004-12.085
			c0.002-4.533,1.805-8.879,5.012-12.081l26.004-26.008c4.28-4.283,10.508-5.98,16.369-4.46c5.861,1.52,10.48,6.029,12.14,11.852
			l18.817,65.858c1.701,5.962,0.041,12.378-4.337,16.767l-2.492,2.492l-0.004,0.009C236.481,431.578,232.13,433.381,227.596,433.371
			L227.596,433.371z M211.287,347.921l-26.046,26.008l48.404,48.4l-6.037-6.025l2.487-2.492L211.287,347.921z"/>
		<path d="M173.158,334.087c-2.265,0.003-4.438-0.897-6.037-2.5l-6.046-6.05c-3.3-3.34-3.283-8.718,0.038-12.036
			c3.321-3.319,8.699-3.332,12.036-0.03l6.046,6.05c2.438,2.442,3.166,6.111,1.845,9.299
			C179.719,332.007,176.608,334.086,173.158,334.087L173.158,334.087z"/>
		<path d="M197.354,309.896c-2.264,0.003-4.435-0.897-6.033-2.5l-6.05-6.05c-3.332-3.332-3.332-8.735,0-12.067
			c3.332-3.332,8.735-3.332,12.067,0l6.05,6.05c2.44,2.44,3.169,6.11,1.849,9.298C203.916,307.815,200.805,309.895,197.354,309.896
			L197.354,309.896z"/>
		<path d="M148.966,358.279c-2.264,0.003-4.435-0.897-6.033-2.5l-6.05-6.05c-2.156-2.156-2.997-5.297-2.208-8.242
			s3.089-5.244,6.033-6.033s6.086,0.053,8.242,2.208l6.05,6.05c2.44,2.44,3.169,6.11,1.849,9.298
			C155.528,356.199,152.418,358.278,148.966,358.279L148.966,358.279z"/>
		<path d="M263.887,279.654c-2.264,0.003-4.435-0.897-6.033-2.5l-48.387-48.392c-3.332-3.332-3.332-8.735,0-12.067
			c3.332-3.332,8.735-3.332,12.067,0l48.387,48.392c2.44,2.44,3.169,6.11,1.849,9.298
			C270.449,277.574,267.339,279.653,263.887,279.654L263.887,279.654z"/>
		<path d="M159.666,450.404H53.02c-11.175-0.001-21.249-6.731-25.528-17.054s-1.919-22.207,5.978-30.113l18.342-18.333
			c3.332-3.332,8.735-3.332,12.067,0c3.332,3.332,3.332,8.735,0,12.067l-18.338,18.333c-3.017,3.024-3.917,7.567-2.28,11.513
			s5.488,6.519,9.76,6.52h106.646c4.713,0,8.533,3.82,8.533,8.533S164.379,450.404,159.666,450.404L159.666,450.404z"/>
		<path d="M257.837,511.996c-4.526,0.007-8.868-1.789-12.067-4.992l-24.208-24.208c-1.601-1.6-2.5-3.77-2.5-6.033
			s0.899-4.433,2.5-6.033l72.596-72.591c6.67-6.65,17.463-6.65,24.133,0l18.175,18.175c3.201,3.2,5,7.54,5,12.067
			s-1.799,8.867-5,12.067l-66.563,66.558C266.706,510.206,262.363,512.003,257.837,511.996L257.837,511.996z M239.662,476.763
			l18.175,18.175l66.563-66.558l-18.175-18.175L239.662,476.763z"/>
	</g>
</g>
<g>
</g>
<g>
</g>
<g>
</g>
<g>
</g>
<g>
</g>
<g>
</g>
<g>
</g>
<g>
</g>
<g>
</g>
<g>
</g>
<g>
</g>
<g>
</g>
<g>
</g>
<g>
</g>
<g>
</g>
</svg>
