<?xml version="1.0" encoding="iso-8859-1"?>
<!-- Generator: Adobe Illustrator 19.0.0, SVG Export Plug-In . SVG Version: 6.00 Build 0)  -->
<svg version="1.1" id="Capa_1" xmlns="http://www.w3.org/2000/svg" xmlns:xlink="http://www.w3.org/1999/xlink" x="0px" y="0px"
	 viewBox="0 0 512.022 512.022" style="enable-background:new 0 0 512.022 512.022;" xml:space="preserve">
<g transform="translate(0 -1)">
	<g transform="translate(1 1)">
		<polygon style="fill:#00695C;" points="109.535,340.744 349.381,100.898 410.267,161.553 170.19,401.629 		"/>
		<path style="fill:#00838F;" d="M479.856,140.586c-24.329,23.848-61.3,29.199-91.392,13.227
			c20.674,2.694,41.556-3.127,57.856-16.127s26.617-32.066,28.587-52.822v-0.085l12.459-12.459c2.288-2.343,5.713-3.173,8.819-2.138
			c3.107,1.036,5.348,3.755,5.773,7.002C504.653,100.583,496.513,123.933,479.856,140.586L479.856,140.586z"/>
		<polygon style="fill:#009688;" points="105.78,345.531 340.566,110.745 383.062,153.019 148.054,388.027 		"/>
		<path style="fill:#00BCD4;" d="M474.907,84.864c-1.97,20.756-12.288,39.821-28.587,52.822s-37.181,18.822-57.856,16.127
			c-6.011-3.139-11.555-7.103-16.469-11.776c-21.541-20.375-29.532-51.274-20.571-79.537s33.295-48.914,62.641-53.156
			c6.532-0.938,13.158-1.024,19.712-0.256c3.252,0.412,5.984,2.644,7.037,5.749c1.053,3.104,0.243,6.538-2.088,8.843l-43.947,43.947
			c-6.656,6.74-6.656,17.58,0,24.32l18.261,18.261l6.059,6.059c6.741,6.656,17.579,6.656,24.32,0L474.907,84.864z"/>
		<path style="fill:#00838F;" d="M139.547,371.498c-3.979-3.999-8.386-7.547-13.141-10.581c24.2,29.349,23.463,71.939-1.738,100.433
			S57.286,495.781,25.2,475.349c1.534,1.949,3.187,3.801,4.949,5.547c19.542,19.542,48.025,27.174,74.72,20.021
			c26.695-7.153,47.546-28.004,54.699-54.699C166.721,419.523,159.089,391.04,139.547,371.498L139.547,371.498z"/>
		<path style="fill:#00BCD4;" d="M126.405,360.917c-32.087-20.432-74.267-14.495-99.468,13.999C1.737,403.41,1,446,25.2,475.349
			c32.087,20.432,74.267,14.495,99.468-13.999S150.605,390.266,126.405,360.917z M115.227,456.576
			c-16.799,16.725-43.958,16.725-60.757,0c-2.298-2.274-4.304-4.825-5.973-7.595c-10.132-16.138-8.416-37.022,4.213-51.29
			s33.152-18.505,50.4-10.406c4.528,2.078,8.636,4.97,12.117,8.533c8.072,8.049,12.608,18.98,12.608,30.379
			C127.835,437.596,123.298,448.526,115.227,456.576L115.227,456.576z"/>
	</g>
	<g>
		<path d="M426.111,172.551c-34.702,0.041-66.005-20.843-79.292-52.9c-13.287-32.057-5.938-68.962,18.617-93.483l0,0
			c18.438-18.501,44.321-27.558,70.271-24.592c6.49,0.705,11.987,5.1,14.104,11.275c2.237,6.241,0.659,13.213-4.046,17.883
			l-43.958,43.958c-3.375,3.383-3.375,8.859,0,12.242l24.308,24.3c3.44,3.229,8.797,3.229,12.237,0l43.983-43.983
			c4.681-4.693,11.646-6.269,17.892-4.05c6.138,2.093,10.512,7.546,11.225,13.992c2.818,24.301-4.908,48.645-21.222,66.875
			C473.916,162.296,450.574,172.665,426.111,172.551L426.111,172.551z M377.503,38.234c-13.137,13.139-20.403,31.031-20.146,49.61
			c0.257,18.578,8.016,36.263,21.512,49.032c27.158,25.365,69.494,24.776,95.938-1.333c14.863-14.801,22.119-35.599,19.688-56.433
			l-44.075,44.192c-10.19,9.683-26.181,9.683-36.371,0l-24.308-24.3c-10.029-10.051-10.029-26.324,0-36.375l43.958-43.958
			C412.954,16.196,392.227,23.413,377.503,38.234L377.503,38.234z"/>
		<path d="M161.528,420.817c-3.451-0.001-6.562-2.08-7.882-5.268c-1.32-3.188-0.591-6.858,1.849-9.298l249.742-249.742
			c3.332-3.332,8.734-3.332,12.067,0c3.332,3.332,3.332,8.735,0,12.067L167.561,418.317
			C165.963,419.92,163.791,420.82,161.528,420.817L161.528,420.817z"/>
		<path d="M100.886,359.926c-3.451-0.001-6.562-2.08-7.882-5.268c-1.32-3.188-0.591-6.858,1.849-9.298L344.348,95.867
			c2.156-2.156,5.297-2.997,8.242-2.208s5.244,3.089,6.033,6.033s-0.053,6.086-2.208,8.242L106.919,357.426
			C105.321,359.029,103.15,359.928,100.886,359.926L100.886,359.926z"/>
		<path d="M189.178,344.559c-2.265,0.003-4.438-0.897-6.038-2.5c-10.041-10.047-10.039-26.33,0.004-36.375L304.669,184.15
			c10.053-10.025,26.322-10.025,36.375,0c2.155,2.156,2.997,5.297,2.208,8.242c-0.789,2.944-3.089,5.244-6.033,6.033
			c-2.944,0.789-6.086-0.053-8.242-2.208c-3.386-3.367-8.856-3.367-12.242,0L195.211,317.751c-1.623,1.624-2.534,3.826-2.533,6.122
			c0.001,2.296,0.914,4.497,2.537,6.12c2.438,2.442,3.166,6.112,1.845,9.299C195.739,342.479,192.629,344.558,189.178,344.559
			L189.178,344.559z"/>
		<path d="M85.878,513.001c-34.729,0.014-66.044-20.898-79.338-52.982s-5.945-69.016,18.617-93.568l0,0
			c27.472-27.511,70.001-33.132,103.677-13.703c33.676,19.429,50.097,59.061,40.031,96.614
			C158.798,486.915,124.757,513.02,85.878,513.001L85.878,513.001z M85.878,358.359c-18.26-0.05-35.78,7.209-48.654,20.158l0,0
			c-17.415,17.376-24.228,42.728-17.87,66.493c6.358,23.765,24.921,42.327,48.686,48.686s49.117-0.455,66.493-17.87
			c19.677-19.68,25.563-49.275,14.913-74.987S113.707,358.362,85.878,358.359L85.878,358.359z"/>
		<path d="M85.878,478.642c-24.53-0.025-45.628-17.371-50.394-41.434s8.125-48.142,30.793-57.516
			c22.668-9.374,48.801-1.434,62.423,18.967c13.621,20.401,10.938,47.582-6.409,64.925
			C112.639,473.248,99.535,478.667,85.878,478.642L85.878,478.642z M85.878,392.751c-16.393,0.02-30.49,11.615-33.673,27.696
			c-3.183,16.081,5.433,32.172,20.582,38.436c15.149,6.264,32.613,0.957,41.717-12.676s7.311-31.798-4.28-43.389
			C103.771,396.355,95.009,392.732,85.878,392.751L85.878,392.751z"/>
	</g>
</g>
<g>
</g>
<g>
</g>
<g>
</g>
<g>
</g>
<g>
</g>
<g>
</g>
<g>
</g>
<g>
</g>
<g>
</g>
<g>
</g>
<g>
</g>
<g>
</g>
<g>
</g>
<g>
</g>
<g>
</g>
</svg>
