<?xml version="1.0" encoding="iso-8859-1"?>
<!-- Generator: Adobe Illustrator 19.0.0, SVG Export Plug-In . SVG Version: 6.00 Build 0)  -->
<svg version="1.1" id="Capa_1" xmlns="http://www.w3.org/2000/svg" xmlns:xlink="http://www.w3.org/1999/xlink" x="0px" y="0px"
	 viewBox="0 0 511.986 511.986" style="enable-background:new 0 0 511.986 511.986;" xml:space="preserve">
<g>
	<g transform="translate(0 1)">
		<path style="fill:#CFD8DC;" d="M334.406,273.431l-12.117,12.117l-6.571,12.117l-110.933-102.4l3.157-2.731l11.435-9.899
			l12.117-12.117c6.674-6.656,17.475-6.656,24.149,0l66.389,66.389l12.373,12.373C341.062,255.956,341.062,266.757,334.406,273.431
			L334.406,273.431z"/>
		<path style="fill:#F4F4F4;" d="M317.339,252.012l-12.117,12.117l-6.571,12.117l-90.709-83.712l11.435-9.899l12.117-12.117
			c6.674-6.656,17.475-6.656,24.149,0l66.389,66.389C323.028,242.407,321.276,248.046,317.339,252.012L317.339,252.012z"/>
		<polygon style="fill:#BDC3C7;" points="273.06,187.935 279.878,194.754 364.273,110.359 400.625,49.858 400.71,49.858 
			467.185,7.532 485.275,25.708 503.451,43.799 461.126,110.274 461.126,110.359 400.625,146.711 317.937,229.399 		"/>
		<polygon style="fill:#95A5A5;" points="503.451,43.799 461.126,110.274 460.699,110.018 400.966,50.284 400.71,49.858 
			467.185,7.532 485.275,25.708 		"/>
		<path style="fill:#00838F;" d="M327.494,334.956c-15.701,10.069-32,19.456-42.581,35.243
			c-9.984,14.848-16.043,31.659-26.965,45.995c-12.28,15.962-25.531,31.151-39.68,45.483
			c-13.966,15.987-31.269,28.716-50.688,37.291c-33.621,12.288-60.245-10.24-84.48-30.635c-1.195-1.024-21.419-19.029-21.163-19.285
			c-0.512,0-18.261-19.968-19.285-21.163c-5.717-6.741-11.605-13.739-16.725-20.992c-0.171-0.171-0.256-0.341-0.341-0.427
			l-0.171-0.171c-13.227-18.517-22.187-38.912-13.397-62.891c8.575-19.419,21.304-36.722,37.291-50.688
			c14.331-14.149,29.521-27.4,45.483-39.68c14.336-10.923,31.147-16.981,45.995-26.965c15.787-10.581,25.173-26.88,35.243-42.581
			c4.199-6.559,11.142-10.865,18.884-11.71c7.742-0.846,15.451,1.86,20.967,7.358l57.941,58.027l47.445,47.36l10.581,10.581
			c5.498,5.516,8.204,13.224,7.358,20.967C338.359,323.814,334.053,330.757,327.494,334.956z"/>
		<path style="fill:#0377BC;" d="M310.171,346.135v0.085c-9.881,6.298-18.456,14.439-25.259,23.979
			c-9.984,14.848-16.043,31.659-26.965,45.995c-12.28,15.962-25.531,31.151-39.68,45.483
			c-13.966,15.987-31.269,28.716-50.688,37.291c-33.621,12.288-60.245-10.24-84.48-30.635c-1.195-1.024-21.419-19.029-21.163-19.285
			c-0.256,0.256-18.261-19.968-19.285-21.163c-5.717-6.741-11.52-13.739-16.725-20.992c2.901,3.243,18.688,20.992,18.944,20.736
			c-0.256,0.256,19.968,18.261,21.163,19.285c24.235,20.395,50.859,42.923,84.48,30.635c19.419-8.574,36.722-21.304,50.688-37.291
			c14.149-14.331,27.4-29.521,39.68-45.483c10.923-14.336,16.981-31.147,26.965-45.995c5.642-8.075,12.661-15.094,20.736-20.736
			c3.552,1.283,6.783,3.321,9.472,5.973L310.171,346.135z"/>
		<path style="fill:#00BCD4;" d="M310.427,313.452c-15.701,10.155-32,19.541-42.581,35.243
			c-9.984,14.848-16.043,31.744-26.965,46.08c-12.259,15.952-25.512,31.115-39.68,45.397c-13.963,16.012-31.264,28.77-50.688,37.376
			c-33.621,12.288-60.245-10.325-84.48-30.72c-1.195-1.024-21.163-18.688-21.163-19.2c-0.512,0-16.128-17.579-18.944-20.736
			c-0.171-0.171-0.256-0.341-0.341-0.427l-0.171-0.171c-13.227-18.517-22.187-38.912-13.397-62.891
			c8.575-19.419,21.304-36.722,37.291-50.688c14.331-14.149,29.521-27.4,45.483-39.68c14.336-10.923,31.147-16.981,45.995-26.965
			c15.787-10.581,25.173-26.88,35.243-42.581c4.199-6.559,11.142-10.865,18.884-11.71c7.742-0.846,15.451,1.86,20.967,7.358
			l57.941,58.027l47.445,47.36C324.507,295.505,320.086,307.305,310.427,313.452z"/>
		<path style="fill:#02A9F4;" d="M288.582,328.044c-8.075,5.642-15.094,12.661-20.736,20.736
			c-9.984,14.848-16.043,31.659-26.965,45.995c-12.28,15.962-25.531,31.151-39.68,45.483
			c-13.966,15.987-31.269,28.716-50.688,37.291c-33.621,12.288-60.245-10.24-84.48-30.635c-1.195-1.024-21.419-19.029-21.163-19.285
			c-0.256,0.256-16.043-17.493-18.944-20.736c-0.171-0.171-0.256-0.341-0.341-0.427l-0.171-0.171
			c-13.227-18.517-22.187-38.912-13.397-62.891c8.575-19.419,21.304-36.722,37.291-50.688c14.331-14.149,29.521-27.4,45.483-39.68
			c14.336-10.923,31.147-16.981,45.995-26.965c9.54-6.803,17.681-15.378,23.979-25.259h0.085l1.451,1.451v0.085l10.667,10.581
			c9.984,10.061,9.984,26.291,0,36.352l-10.667,10.582c-4.806,4.841-11.355,7.546-18.176,7.509
			c-8.683,0.015-17.004,3.484-23.125,9.643l-20.736,20.651l-36.267,36.352c-4.848,4.808-7.581,11.348-7.595,18.176
			c0,0.939,0.085,1.877,0.171,2.816c0.627,5.824,3.25,11.251,7.424,15.36c10.027,9.984,26.239,9.984,36.267,0l96.939-96.853
			l18.176-18.176c6.551-6.612,17.202-6.726,23.893-0.256c0.085,0,0.256,0.171,0.341,0.256l12.032,12.032
			c3.236,3.202,5.056,7.565,5.056,12.117c0,4.552-1.821,8.915-5.056,12.117l-18.176,18.176l-96.853,96.939
			c-4.789,4.805-7.487,11.307-7.509,18.091c0,0.939,0.085,1.877,0.171,2.816c1.062,9.829,7.676,18.174,17.003,21.453
			c9.327,3.279,19.708,0.909,26.688-6.094l36.352-36.267l20.651-20.736c6.158-6.122,9.628-14.442,9.643-23.125
			c-0.037-6.821,2.669-13.37,7.509-18.176l10.581-10.667C268.756,327.002,279.22,324.676,288.582,328.044z"/>
	</g>
	<g>
		<path d="M148.472,511.986c-27.975,0-51.167-19.5-70.562-35.804c-7.8-6.15-15.167-12.83-22.05-19.991
			c-7.084-6.775-13.682-14.04-19.746-21.742C15.43,409.841-9.924,379.686,3.989,341.674c8.941-20.615,22.363-38.978,39.292-53.754
			c14.539-14.434,29.983-27.926,46.238-40.396c8.395-6.099,17.31-11.449,26.642-15.988c6.793-3.376,13.392-7.129,19.767-11.242
			c12.32-9.672,22.502-21.792,29.904-35.596l2.871-4.504c5.588-8.719,14.825-14.437,25.12-15.552
			c10.296-1.115,20.542,2.494,27.867,9.815l115.837,115.838c7.321,7.325,10.93,17.571,9.815,27.867
			c-1.115,10.296-6.833,19.532-15.552,25.12l-4.504,2.871c-13.804,7.402-25.924,17.584-35.596,29.904
			c-4.112,6.374-7.865,12.974-11.242,19.767c-4.538,9.332-9.888,18.247-15.988,26.642c-12.47,16.255-25.962,31.699-40.396,46.238
			c-14.776,16.928-33.139,30.351-53.754,39.292C163.324,510.607,155.93,511.959,148.472,511.986L148.472,511.986z M68.497,444.799
			c2.675,2.637,18.158,16.429,20.025,18.008c23.392,19.667,47.212,39.675,75.921,29.162c18.108-6.629,32.233-19.904,47.513-35.292
			c13.92-14.024,26.933-28.92,38.962-44.596l0,0c5.489-7.618,10.306-15.698,14.396-24.15c3.667-7.357,7.746-14.502,12.217-21.4
			c10.932-14.325,24.767-26.178,40.6-34.783l4.442-2.833c4.372-2.798,7.241-7.426,7.802-12.586
			c0.561-5.16-1.246-10.297-4.915-13.969L209.622,186.524c-3.672-3.669-8.808-5.476-13.969-4.915
			c-5.16,0.561-9.788,3.43-12.586,7.802l-2.833,4.442c-8.605,15.833-20.458,29.668-34.783,40.6
			c-6.898,4.471-14.043,8.549-21.4,12.217c-8.452,4.09-16.532,8.907-24.15,14.396c-15.676,12.029-30.572,25.043-44.596,38.962
			c-15.388,15.279-28.663,29.404-35.292,47.513c-10.513,28.729,9.5,52.529,28.85,75.55c1.883,2.225,15.683,17.721,18.321,20.396
			C67.668,443.875,68.108,444.315,68.497,444.799z"/>
		<path d="M321.968,295.336c-2.264,0.003-4.435-0.897-6.033-2.5L213.097,189.999c-1.601-1.6-2.5-3.77-2.5-6.033
			s0.899-4.433,2.5-6.033l12.096-12.1c10.146-9.692,26.12-9.692,36.267,0l78.642,78.642c4.81,4.809,7.512,11.332,7.512,18.133
			s-2.702,13.325-7.512,18.133l-12.1,12.096C326.403,294.439,324.232,295.339,321.968,295.336L321.968,295.336z M231.197,183.966
			l90.771,90.771l6.067-6.063c3.346-3.352,3.346-8.781,0-12.133l-78.642-78.642c-3.354-3.342-8.779-3.342-12.133,0L231.197,183.966z
			"/>
		<path d="M158.635,460.124c-13.831,0.007-26.303-8.322-31.597-21.099c-5.294-12.778-2.366-27.487,7.418-37.263L249.393,286.82
			c1.609-1.608,2.513-3.79,2.513-6.065c0-2.275-0.904-4.456-2.513-6.065l-12.1-12.1c-3.392-3.242-8.733-3.242-12.125,0
			L110.222,377.528c-13.53,12.925-34.832,12.925-48.362,0c-13.333-13.364-13.333-34.999,0-48.363l56.95-56.95
			c7.727-7.767,18.24-12.121,29.196-12.092c4.54-0.013,8.892-1.816,12.112-5.017l10.633-10.633c6.677-6.696,6.677-17.533,0-24.229
			l-12.1-12.1c-3.332-3.332-3.332-8.735,0-12.067s8.735-3.332,12.067,0l12.1,12.1c13.333,13.364,13.333,34.999,0,48.363
			l-10.633,10.633c-6.399,6.434-15.105,10.041-24.179,10.017c-6.428-0.017-12.596,2.538-17.129,7.096l-56.951,56.946
			c-6.677,6.696-6.677,17.533,0,24.229c6.779,6.475,17.451,6.475,24.229,0l114.942-114.938c10.145-9.692,26.118-9.692,36.262,0
			l12.1,12.1c4.81,4.809,7.513,11.332,7.513,18.133s-2.702,13.325-7.513,18.133L146.522,413.828c-6.691,6.691-6.691,17.539,0,24.229
			c6.691,6.691,17.539,6.691,24.229,0l56.95-56.95c4.555-4.534,7.108-10.702,7.092-17.129c-0.024-9.074,3.583-17.781,10.017-24.179
			l10.633-10.633c13.364-13.333,34.999-13.333,48.363,0l12.1,12.1c3.332,3.332,3.332,8.735,0,12.067
			c-3.332,3.332-8.735,3.332-12.067,0l-12.1-12.1c-6.697-6.675-17.532-6.675-24.229,0l-10.633,10.633
			c-3.201,3.22-5.003,7.572-5.017,12.112c0.029,10.955-4.323,21.467-12.087,29.196l-56.954,56.95
			C176.408,456.541,167.705,460.14,158.635,460.124z"/>
		<path d="M315.918,240.895c-3.451-0.001-6.562-2.08-7.882-5.268c-1.32-3.188-0.591-6.858,1.849-9.298l84.692-84.692
			c0.492-0.494,1.043-0.925,1.642-1.283l58.771-35.258l37.588-59.071L465.96,19.407l-59.071,37.588l-35.258,58.771
			c-0.358,0.598-0.789,1.15-1.283,1.642l-84.692,84.692c-3.334,3.32-8.727,3.315-12.054-0.012c-3.327-3.327-3.333-8.72-0.012-12.054
			l83.95-83.95l35.754-59.596c0.681-1.135,1.617-2.097,2.733-2.808l66.546-42.346c3.376-2.145,7.788-1.66,10.617,1.167
			l36.296,36.296c2.828,2.828,3.313,7.242,1.167,10.617l-42.346,66.546c-0.712,1.116-1.673,2.052-2.808,2.733l-59.596,35.754
			l-83.95,83.95C320.353,239.998,318.182,240.898,315.918,240.895L315.918,240.895z"/>
		<path d="M460.726,119.524c-2.264,0.003-4.435-0.897-6.033-2.5L394.96,57.29c-3.303-3.337-3.29-8.716,0.03-12.036
			c3.32-3.32,8.699-3.334,12.036-0.03l59.733,59.733c2.44,2.44,3.169,6.11,1.849,9.298S464.177,119.523,460.726,119.524
			L460.726,119.524z"/>
	</g>
</g>
<g>
</g>
<g>
</g>
<g>
</g>
<g>
</g>
<g>
</g>
<g>
</g>
<g>
</g>
<g>
</g>
<g>
</g>
<g>
</g>
<g>
</g>
<g>
</g>
<g>
</g>
<g>
</g>
<g>
</g>
</svg>
