<?xml version="1.0" encoding="iso-8859-1"?>
<!-- Generator: Adobe Illustrator 19.0.0, SVG Export Plug-In . SVG Version: 6.00 Build 0)  -->
<svg version="1.1" id="Capa_1" xmlns="http://www.w3.org/2000/svg" xmlns:xlink="http://www.w3.org/1999/xlink" x="0px" y="0px"
	 viewBox="0 0 511.964 511.964" style="enable-background:new 0 0 511.964 511.964;" xml:space="preserve">
<g>
	<g transform="translate(1 1)">
		<path style="fill:#795548;" d="M426.998,96.325l12.159-12.068c3.21-3.195,5.015-7.538,5.015-12.068
			c0-4.53-1.805-8.873-5.015-12.068l-18.238-18.102c-6.747-6.637-17.57-6.637-24.317,0l-12.158,12.068l-85.109,84.476
			l-16.961,16.835c-4.803,4.748-8.084,10.819-9.423,17.438l-1.946,9.896c-1.339,6.62-4.619,12.691-9.423,17.438L7.533,452.329
			l30.396,30.17L341.889,180.8L426.998,96.325z"/>
		<path style="fill:#607D8B;" d="M347.969,29.951l-72.95,72.408c-1.611,1.594-2.518,3.767-2.518,6.034s0.907,4.44,2.518,6.034
			l91.188,90.509c0,0,22.422,22.256,21.048,43.829c-0.254,2.609,0.695,5.192,2.579,7.015c1.884,1.823,4.497,2.688,7.096,2.348
			c44.074-5.875,82.622-32.616,103.561-71.841c3.506-6.642,2.253-14.797-3.086-20.08L360.127,29.951
			C356.759,26.619,351.336,26.619,347.969,29.951z"/>
		<path style="fill:#CFD8DC;" d="M500.504,186.282c-20.965,39.218-59.517,65.956-103.595,71.851
			c-2.598,0.326-5.203-0.547-7.079-2.374c-1.876-1.826-2.819-4.407-2.563-7.013c-0.42-12.527-4.982-24.561-12.971-34.219
			c42.292-7.892,78.398-35.24,97.451-73.813l25.684,25.515C502.735,171.52,503.98,179.646,500.504,186.282z"/>
	</g>
	<g>
		<path d="M396.7,267.75c-4.226,0.003-8.297-1.589-11.4-4.458c-3.889-3.604-5.936-8.777-5.567-14.067
			c0.917-14.433-13.075-31.783-18.55-37.242l-91.175-90.5c-3.227-3.196-5.042-7.55-5.042-12.092c0-4.542,1.815-8.895,5.042-12.092
			l72.95-72.408c6.7-6.617,17.475-6.617,24.175,0l137.283,136.258c7.966,7.957,9.833,20.169,4.608,30.142
			c-22.335,41.521-63.166,69.869-109.875,76.283C398.338,267.692,397.52,267.75,396.7,267.75z M348.967,30.95l6.008,6.059
			l-72.95,72.408l91.192,90.458c1.033,1.025,25.15,25.283,23.55,50.433c41.448-5.005,77.787-30.067,97.192-67.033
			c1.724-3.318,1.093-7.371-1.558-10.008L348.967,30.95z"/>
		<path d="M375.283,224.067c-4.387-0.006-8.054-3.337-8.48-7.703c-0.426-4.366,2.528-8.343,6.83-9.197
			c39.682-7.42,73.564-33.071,91.475-69.25c2.117-4.2,7.232-5.896,11.438-3.792s5.919,7.213,3.829,11.426
			c-20.233,40.93-58.546,69.954-103.425,78.35C376.402,224.013,375.843,224.069,375.283,224.067L375.283,224.067z"/>
		<path d="M38.933,492.034c-2.252,0.004-4.413-0.886-6.008-2.475l-30.4-30.175C0.909,457.782,0,455.601,0,453.325
			c0-2.275,0.909-4.456,2.525-6.058l254.05-252.158c3.601-3.557,6.061-8.106,7.067-13.067l1.933-9.85
			c1.673-8.291,5.775-15.897,11.783-21.85l16.958-16.842c2.164-2.15,5.311-2.981,8.255-2.181c2.944,0.8,5.237,3.109,6.017,6.058
			c0.779,2.949-0.074,6.09-2.238,8.24l-16.958,16.842c-3.607,3.554-6.07,8.104-7.075,13.067l-1.933,9.85
			c-1.673,8.291-5.775,15.897-11.783,21.85l-247.95,246.1l18.283,18.15l297.95-295.733c2.164-2.147,5.31-2.975,8.251-2.174
			c2.941,0.801,5.232,3.111,6.008,6.058s-0.078,6.086-2.242,8.233L44.942,489.558C43.346,491.148,41.185,492.038,38.933,492.034
			L38.933,492.034z"/>
		<path d="M428,105.859c-3.458,0-6.573-2.087-7.89-5.284c-1.316-3.197-0.573-6.873,1.881-9.308l12.159-12.066
			c1.597-1.596,2.493-3.761,2.492-6.019s-0.901-4.422-2.5-6.015l-18.233-18.091c-3.436-3.3-8.864-3.3-12.3,0L391.45,61.142
			c-2.165,2.147-5.31,2.975-8.251,2.174c-2.941-0.801-5.232-3.111-6.008-6.059c-0.777-2.948,0.078-6.086,2.243-8.233l12.158-12.066
			c10.074-9.933,26.259-9.933,36.333,0l18.242,18.1c4.826,4.797,7.54,11.319,7.542,18.123c0.002,6.804-2.71,13.328-7.533,18.127
			l-12.167,12.075C432.413,104.972,430.252,105.863,428,105.859L428,105.859z"/>
	</g>
</g>
<g>
</g>
<g>
</g>
<g>
</g>
<g>
</g>
<g>
</g>
<g>
</g>
<g>
</g>
<g>
</g>
<g>
</g>
<g>
</g>
<g>
</g>
<g>
</g>
<g>
</g>
<g>
</g>
<g>
</g>
</svg>
