<?xml version="1.0" encoding="iso-8859-1"?>
<!-- Generator: Adobe Illustrator 19.0.0, SVG Export Plug-In . SVG Version: 6.00 Build 0)  -->
<svg version="1.1" id="Capa_1" xmlns="http://www.w3.org/2000/svg" xmlns:xlink="http://www.w3.org/1999/xlink" x="0px" y="0px"
	 viewBox="0 0 511.945 511.945" style="enable-background:new 0 0 511.945 511.945;" xml:space="preserve">
<g>
	<g transform="translate(1 1)">
		<path style="fill:#F57C00;" d="M472.201,97.462c-1.386,1.731-2.867,3.383-4.437,4.949c-18.918,18.946-48.035,23.215-71.595,10.496
			L109.278,399.798c4.583,24.342-6.281,48.996-27.339,62.04c-21.058,13.043-47.97,11.788-67.723-3.16
			c8.87,16.887,25.23,28.56,44.083,31.455s37.962-3.331,51.49-16.778c14.002-14.015,20.195-34.031,16.555-53.504l1.963-1.963
			l284.928-284.928c23.56,12.719,52.677,8.45,71.595-10.496c10.521-10.419,16.788-24.382,17.579-39.168L472.201,97.462z"/>
		<path style="fill:#FF9801;" d="M436.788,94.731l-4.864-10.411l-3.584-7.765c-4.031-8.673-0.292-18.972,8.363-23.04l43.947-20.48
			c-19.55-16.266-47.186-18.567-69.157-5.759c-21.971,12.808-33.585,37.991-29.062,63.018L95.028,377.697
			c-23.231-11.977-51.542-7.547-70.005,10.954s-22.832,46.821-10.806,70.027c19.752,14.947,46.665,16.203,67.723,3.16
			c21.058-13.043,31.922-37.697,27.339-62.04l286.891-286.891c23.56,12.719,52.677,8.45,71.595-10.496
			c1.57-1.566,3.051-3.218,4.437-4.949l-12.288,5.717C451.193,107.193,440.868,103.421,436.788,94.731z M85.556,449.121
			c-10.028,9.984-26.239,9.984-36.267,0c-3.853-3.758-6.37-8.673-7.168-13.995c-1.979-11.981,4.711-23.708,16.031-28.104
			c11.32-4.395,24.171-0.255,30.795,9.922C95.572,427.122,94.157,440.549,85.556,449.121L85.556,449.121z"/>
	</g>
	<g>
		<path d="M443.126,149.871c-11.527-0.014-22.867-2.907-32.992-8.417c-2.686-1.448-4.395-4.22-4.482-7.27s1.462-5.915,4.061-7.513
			s5.855-1.687,8.537-0.233c13.197,7.123,28.824,8.213,42.883,2.991c14.059-5.221,25.185-16.248,30.534-30.258l-27.166,12.709
			c-12.964,6.022-28.357,0.426-34.425-12.517l-8.5-18.158c-5.953-12.94-0.412-28.262,12.442-34.4l29.817-13.867
			c-17.588-7.681-37.977-5.055-53.044,6.834c-15.067,11.888-22.364,31.107-18.985,50c0.564,3.008-0.526,6.088-2.856,8.071
			c-2.33,1.984-5.545,2.567-8.424,1.53c-2.879-1.037-4.982-3.537-5.512-6.551c-5.14-28.551,8.121-57.269,33.188-71.872
			s56.59-11.973,78.891,6.581c2.241,1.873,3.37,4.762,2.992,7.658c-0.378,2.896-2.211,5.399-4.858,6.633l-43.942,20.433
			c-4.376,2.105-6.262,7.326-4.242,11.742l8.492,18.15c2.079,4.414,7.335,6.318,11.758,4.258l42.5-19.883
			c2.714-1.27,5.895-1.024,8.381,0.648c2.486,1.672,3.914,4.526,3.761,7.518C509.823,121.183,479.682,149.736,443.126,149.871
			L443.126,149.871z"/>
		<path d="M96.017,387.229c-3.451-0.001-6.562-2.08-7.882-5.268c-1.32-3.188-0.591-6.858,1.849-9.298l287.391-287.4
			c3.332-3.332,8.735-3.332,12.067,0s3.332,8.735,0,12.067l-287.392,287.4C100.452,386.332,98.281,387.232,96.017,387.229
			L96.017,387.229z"/>
		<path d="M127.309,429.412c-3.456,0.001-6.572-2.082-7.891-5.277c-1.319-3.195-0.581-6.869,1.87-9.307l2-1.992l284.896-284.9
			c3.332-3.332,8.735-3.332,12.067,0c3.332,3.332,3.332,8.735,0,12.067L133.33,426.929
			C131.733,428.524,129.566,429.417,127.309,429.412L127.309,429.412z"/>
		<path d="M68.413,500.379c-28.391-0.021-53.824-17.564-63.928-44.096c-10.104-26.533-2.784-56.548,18.402-75.45
			s51.838-22.765,77.051-9.712c2.709,1.4,4.464,4.138,4.605,7.184c0.141,3.046-1.355,5.935-3.922,7.578
			c-2.568,1.643-5.818,1.791-8.524,0.388c-21.264-11.069-47.354-5.992-62.916,12.243c-15.562,18.235-16.474,44.798-2.2,64.058
			s39.954,26.115,61.927,16.531c21.973-9.583,34.421-33.068,30.018-56.632c-0.597-3.007,0.465-6.103,2.782-8.11
			c2.317-2.007,5.532-2.618,8.424-1.599c2.891,1.019,5.014,3.51,5.561,6.526c3.775,20.02-1.569,40.682-14.578,56.361
			C108.106,491.328,88.786,500.394,68.413,500.379L68.413,500.379z"/>
		<path d="M68.413,466.154c-9.073,0.016-17.778-3.582-24.191-10l0,0c-11.578-11.545-13.385-29.661-4.317-43.266
			s26.487-18.905,41.597-12.659s23.701,22.298,20.518,38.335C98.836,454.601,84.764,466.154,68.413,466.154L68.413,466.154z
			 M56.288,444.088c6.698,6.696,17.556,6.695,24.253-0.003c6.697-6.697,6.697-17.555,0-24.253
			c-6.697-6.697-17.555-6.699-24.253-0.003C49.599,426.532,49.599,437.385,56.288,444.088L56.288,444.088z"/>
	</g>
</g>
<g>
</g>
<g>
</g>
<g>
</g>
<g>
</g>
<g>
</g>
<g>
</g>
<g>
</g>
<g>
</g>
<g>
</g>
<g>
</g>
<g>
</g>
<g>
</g>
<g>
</g>
<g>
</g>
<g>
</g>
</svg>
