<?xml version="1.0" encoding="iso-8859-1"?>
<!-- Generator: Adobe Illustrator 19.0.0, SVG Export Plug-In . SVG Version: 6.00 Build 0)  -->
<svg version="1.1" id="Capa_1" xmlns="http://www.w3.org/2000/svg" xmlns:xlink="http://www.w3.org/1999/xlink" x="0px" y="0px"
	 viewBox="0 0 511.995 511.995" style="enable-background:new 0 0 511.995 511.995;" xml:space="preserve">
<g>
	<g transform="translate(1 1)">
		<path style="fill:#607D8B;" d="M502.461,108.23l-11.947,47.957l-16.64-16.64l-1.365-1.365l-0.427,1.877l-11.605,46.08
			l-17.92-17.92l-0.512,1.877l-11.52,45.995l-17.92-17.92l-0.512,1.877l-11.52,46.08l-16.64-16.64l-1.365-1.365L382.141,230
			l-11.52,46.08l-18.005-18.005l-0.427,1.877l-11.52,46.08l-16.64-16.64l-1.365-1.365l-0.427,1.877l-11.52,46.08l-16.64-16.64
			l-1.365-1.365l-0.427,1.877l-11.52,46.08l-16.64-16.64l-1.365-1.365l-0.427,1.877l-11.605,46.08l-16.555-16.555l-1.365-1.365
			l-0.512,1.877l-11.52,45.995l-22.699-22.699l-1.28,1.109l-29.952,27.648l4.267-34.389l19.712-157.44L400.573,30.32
			c4.631-4.618,11.513-6.148,17.664-3.925c2.384,0.794,4.547,2.139,6.315,3.925L502.461,108.23z"/>
		<path style="fill:#CFD8DC;" d="M485.395,93.552l-11.52,45.995l-0.427,1.877l-1.365-1.365l-16.64-16.555l-11.52,46.08l-0.512,1.877
			l-1.365-1.365l-16.555-16.64l-11.52,46.08l-0.512,1.877l-1.365-1.365l-16.555-16.64l-11.605,46.08l-0.427,1.877l-18.005-18.005
			l-11.52,46.08l-0.427,1.877l-1.365-1.365l-16.64-16.64l-11.52,46.08l-0.427,1.877l-1.365-1.365l-16.64-16.64l-11.52,46.08
			l-0.427,1.877l-1.365-1.365l-16.64-16.555l-11.52,45.995l-0.427,1.877l-1.365-1.365l-16.64-16.555l-11.52,46.08l-0.512,1.877
			l-1.365-1.365l-16.555-16.64l-11.52,46.08l-0.512,1.877l-22.699-22.699l-9.899,9.045l19.712-157.44L400.573,30.32
			c4.631-4.618,11.513-6.148,17.664-3.925L485.395,93.552z"/>
		<path style="fill:#FDD834;" d="M190.824,240.07l-17.493-4.693l21.931,74.069l-12.629,72.533l-52.395,80.981
			c-2.819,4.433-7.562,7.279-12.8,7.68l4.949,6.912c3.276,4.568,8.599,7.22,14.218,7.083c5.619-0.137,10.807-3.044,13.857-7.766
			l52.395-80.981l12.629-72.533L190.824,240.07z"/>
		<path style="fill:#FFEB3A;" d="M173.331,235.376l-29.269-7.936c-11.72-3.159-24.235,0.157-32.853,8.704l-98.731,98.389
			c-4.507,4.548-6.089,11.237-4.096,17.323c1.672,5.089,5.663,9.08,10.752,10.752l12.203,4.096c0.583,0.191,1.153,0.419,1.707,0.683
			c9.469,3.522,17.67,9.792,23.552,18.005l60.843,85.248c5.238-0.401,9.981-3.247,12.8-7.68l52.395-80.981l12.629-72.533
			L173.331,235.376z M160.872,401.862c-4.749,4.792-11.216,7.488-17.963,7.488s-13.214-2.696-17.963-7.488l-6.912-6.912
			l-41.045-40.96c-7.282-7.263-9.473-18.197-5.55-27.704c3.922-9.507,13.185-15.716,23.47-15.731
			c1.574,0.011,3.144,0.154,4.693,0.427c5.044,0.929,9.687,3.369,13.312,6.997l47.957,47.957
			C170.771,375.866,170.771,391.932,160.872,401.862L160.872,401.862z"/>
	</g>
	<g>
		<path d="M197.861,247.128l-12.067-12.067l209.75-209.754c9.959-9.937,26.083-9.937,36.042,0l77.908,77.908l-12.066,12.067
			L419.52,37.374c-3.292-3.279-8.616-3.279-11.908,0L197.861,247.128z"/>
		<path d="M221.795,435.407c-2.264,0.003-4.435-0.897-6.033-2.5l-22.717-22.712c-2.155-2.155-2.997-5.297-2.208-8.242
			c0.789-2.944,3.089-5.244,6.033-6.033c2.944-0.789,6.086,0.053,8.242,2.208l22.717,22.712c2.44,2.44,3.169,6.11,1.849,9.298
			C228.356,433.327,225.245,435.406,221.795,435.407L221.795,435.407z"/>
		<path d="M221.803,435.407c-2.629,0.003-5.113-1.207-6.731-3.279c-1.618-2.072-2.191-4.774-1.552-7.325l11.983-47.942
			c0.744-2.982,3.036-5.333,5.999-6.154c2.962-0.82,6.137,0.017,8.31,2.191l17.983,17.979c3.332,3.332,3.332,8.735,0,12.067
			c-3.332,3.332-8.735,3.332-12.067,0l-7.325-7.321l-8.333,33.321C229.123,432.74,225.715,435.404,221.803,435.407L221.803,435.407z
			"/>
		<path d="M251.769,405.445c-2.629,0.003-5.113-1.207-6.731-3.279c-1.618-2.072-2.191-4.774-1.552-7.325l11.983-47.946
			c0.744-2.982,3.036-5.333,5.999-6.154c2.962-0.82,6.137,0.017,8.31,2.191l17.975,17.979c3.332,3.332,3.332,8.735,0,12.067
			c-3.332,3.332-8.735,3.332-12.067,0l-7.317-7.317l-8.333,33.321C259.089,402.778,255.681,405.442,251.769,405.445L251.769,405.445
			z"/>
		<path d="M281.728,375.478c-0.7,0.002-1.397-0.084-2.075-0.254c-2.196-0.548-4.085-1.947-5.25-3.888s-1.509-4.266-0.959-6.462
			l11.992-47.942c0.744-2.982,3.036-5.333,5.999-6.154s6.137,0.017,8.31,2.191l17.975,17.979c2.155,2.156,2.997,5.297,2.208,8.242
			c-0.789,2.944-3.089,5.244-6.033,6.033c-2.944,0.789-6.086-0.053-8.242-2.208l-7.317-7.321l-8.342,33.321
			C289.048,372.811,285.64,375.475,281.728,375.478L281.728,375.478z"/>
		<path d="M311.694,345.516c-2.629,0.003-5.113-1.207-6.731-3.279c-1.618-2.072-2.191-4.774-1.552-7.325l11.983-47.946
			c0.744-2.982,3.036-5.333,5.999-6.154c2.962-0.82,6.137,0.017,8.31,2.191l17.983,17.979c2.155,2.156,2.997,5.297,2.208,8.242
			s-3.089,5.244-6.033,6.033s-6.086-0.053-8.242-2.208l-7.325-7.321l-8.333,33.325C319.014,342.849,315.606,345.513,311.694,345.516
			L311.694,345.516z"/>
		<path d="M341.661,315.549c-2.629,0.003-5.113-1.207-6.731-3.279c-1.618-2.072-2.191-4.774-1.552-7.325l11.983-47.942
			c0.744-2.982,3.036-5.333,5.999-6.154c2.962-0.82,6.137,0.017,8.31,2.191l17.983,17.979c3.332,3.332,3.332,8.735,0,12.067
			c-3.332,3.332-8.735,3.332-12.067,0l-7.325-7.321l-8.333,33.321C348.981,312.882,345.573,315.546,341.661,315.549L341.661,315.549
			z"/>
		<path d="M371.628,285.586c-2.629,0.003-5.113-1.207-6.731-3.279s-2.191-4.774-1.552-7.325l11.983-47.946
			c0.744-2.982,3.036-5.333,5.999-6.154c2.962-0.82,6.137,0.017,8.31,2.191l17.975,17.979c3.332,3.332,3.332,8.735,0,12.067
			c-3.332,3.332-8.734,3.332-12.067,0l-7.317-7.317l-8.333,33.321C378.948,282.919,375.54,285.584,371.628,285.586L371.628,285.586z
			"/>
		<path d="M401.586,255.62c-0.7,0.002-1.397-0.084-2.075-0.254c-2.197-0.548-4.085-1.947-5.25-3.888
			c-1.165-1.941-1.509-4.266-0.959-6.462l11.992-47.942c0.744-2.982,3.036-5.333,5.999-6.154c2.962-0.82,6.137,0.017,8.31,2.191
			l17.975,17.979c3.332,3.332,3.332,8.735,0,12.067c-3.332,3.332-8.735,3.332-12.067,0l-7.317-7.321l-8.342,33.321
			C408.906,252.953,405.498,255.617,401.586,255.62L401.586,255.62z"/>
		<path d="M431.553,225.657c-2.629,0.003-5.113-1.207-6.731-3.279c-1.618-2.072-2.191-4.774-1.552-7.325l11.983-47.946
			c0.744-2.982,3.036-5.333,5.999-6.154c2.962-0.82,6.137,0.017,8.31,2.191l17.983,17.979c3.296,3.338,3.28,8.711-0.038,12.029
			c-3.317,3.317-8.69,3.334-12.029,0.038l-7.325-7.321l-8.334,33.325C438.873,222.99,435.465,225.654,431.553,225.657
			L431.553,225.657z"/>
		<path d="M461.52,195.691c-2.629,0.002-5.113-1.207-6.731-3.279c-1.618-2.072-2.191-4.774-1.552-7.325l11.983-47.942
			c0.744-2.982,3.036-5.333,5.999-6.154c2.962-0.82,6.137,0.017,8.31,2.191l17.983,17.979c3.332,3.332,3.332,8.735,0,12.067
			c-3.332,3.332-8.735,3.332-12.067,0l-7.325-7.321l-8.333,33.321C468.84,193.023,465.432,195.688,461.52,195.691L461.52,195.691z"
			/>
		<path d="M491.486,165.728c-2.629,0.003-5.113-1.207-6.731-3.279c-1.618-2.072-2.191-4.774-1.552-7.325l11.983-47.946
			c0.736-2.961,2.997-5.303,5.93-6.143c2.933-0.84,6.091-0.05,8.282,2.073c2.192,2.122,3.083,5.253,2.338,8.212l-11.983,47.946
			C498.806,163.061,495.398,165.725,491.486,165.728z"/>
		<path d="M137.195,494.141c-8.229,0.004-15.952-3.97-20.733-10.667l-65.792-92.121c-5.189-7.288-12.565-12.734-21.058-15.546
			l-12.183-4.062c-8.387-2.795-14.726-9.737-16.75-18.343s0.556-17.645,6.817-23.886l98.708-98.408
			c10.765-10.685,26.4-14.841,41.05-10.913l46.8,12.663c2.859,0.774,5.114,2.973,5.958,5.812l24.658,83.217
			c0.374,1.263,0.451,2.594,0.225,3.892l-12.675,72.6c-0.201,1.128-0.623,2.206-1.242,3.171l-52.383,80.954
			c-4.58,7.082-12.368,11.438-20.8,11.633C137.594,494.141,137.394,494.141,137.195,494.141z M136.203,235.795
			c-6.726-0.001-13.179,2.659-17.95,7.4l-98.708,98.408c-2.068,2.062-2.919,5.048-2.25,7.891c0.669,2.843,2.763,5.135,5.533,6.059
			l12.183,4.062c11.915,3.948,22.263,11.59,29.542,21.817l65.792,92.121c1.62,2.271,4.261,3.59,7.05,3.521
			c2.79-0.043,5.37-1.487,6.867-3.842l51.442-79.5l12.033-68.916l-22.733-76.729l-42.208-11.417h-0.009
			C140.64,236.089,138.426,235.794,136.203,235.795L136.203,235.795z"/>
		<path d="M143.886,418.882c-9.013,0.026-17.661-3.555-24.017-9.946l-47.942-47.942c-13.236-13.266-13.224-34.747,0.027-47.998
			s34.732-13.263,47.998-0.027l47.942,47.942c6.371,6.367,9.95,15.005,9.95,24.013c0,9.007-3.579,17.645-9.95,24.012l0,0
			C161.542,415.327,152.896,418.909,143.886,418.882L143.886,418.882z M95.944,320.091c-6.834-0.003-12.996,4.112-15.612,10.425
			c-2.616,6.313-1.171,13.581,3.662,18.412l47.942,47.942c6.686,6.379,17.205,6.379,23.892,0l0,0
			c3.169-3.168,4.95-7.465,4.95-11.946c0-4.481-1.781-8.778-4.95-11.946l-47.942-47.942
			C104.726,321.859,100.426,320.078,95.944,320.091z"/>
	</g>
</g>
<g>
</g>
<g>
</g>
<g>
</g>
<g>
</g>
<g>
</g>
<g>
</g>
<g>
</g>
<g>
</g>
<g>
</g>
<g>
</g>
<g>
</g>
<g>
</g>
<g>
</g>
<g>
</g>
<g>
</g>
</svg>
