<?xml version="1.0" encoding="iso-8859-1"?>
<!-- Generator: Adobe Illustrator 19.0.0, SVG Export Plug-In . SVG Version: 6.00 Build 0)  -->
<svg version="1.1" id="Capa_1" xmlns="http://www.w3.org/2000/svg" xmlns:xlink="http://www.w3.org/1999/xlink" x="0px" y="0px"
	 viewBox="0 0 512.001 512.001" style="enable-background:new 0 0 512.001 512.001;" xml:space="preserve">
<g transform="translate(0 -1)">
	<g transform="translate(0 1)">
		<path style="fill:#607D8B;" d="M480.322,153.703l-84.992,84.992c-13.366-6.027-25.969-13.618-37.547-22.613
			c-0.171-0.085-0.256-0.171-0.427-0.256c-4.523-3.413-9.045-7.083-13.568-10.923l-36.608-36.608
			c-13.736-15.458-25.122-32.853-33.792-51.627l35.584-35.669l49.323-49.237c15.558-15.515,36.834-23.914,58.795-23.211
			c10.979,0.345,21.799,2.718,31.915,6.997h0.085c10.52,4.555,20.077,11.071,28.16,19.2
			C510.92,66.76,512.295,119.997,480.322,153.703z"/>
		<path style="fill:#CFD8DC;" d="M454.721,136.978l-49.323,49.237l-35.669,35.669c-3.84-1.621-7.851-3.584-11.947-5.803
			c-0.171-0.085-0.256-0.171-0.427-0.256c-4.523-3.413-9.045-7.083-13.568-10.923l-36.608-36.608
			c-13.736-15.458-25.122-32.853-33.792-51.627l35.584-35.669l49.323-49.237c15.558-15.515,36.834-23.914,58.795-23.211
			c10.979,0.345,21.799,2.718,31.915,6.997h0.085c0.853,0.853,1.707,1.621,2.56,2.475
			C485.321,50.035,486.696,103.271,454.721,136.978z"/>
		
			<rect x="-4.388" y="292.038" transform="matrix(-0.7071 0.7071 -0.7071 -0.7071 564.7031 384.669)" style="fill:#795548;" width="414.139" height="34.509"/>
		<path style="fill:#FFEB3A;" d="M13.569,413.023L13.569,413.023c6.739-6.739,17.665-6.739,24.404,0l61.01,61.008
			c6.739,6.739,6.739,17.664,0,24.403l0,0c-6.739,6.739-17.665,6.739-24.404,0l-61.01-61.008
			C6.831,430.688,6.831,419.762,13.569,413.023z"/>
		<path style="fill:#CFD8DC;" d="M367.422,144.587L367.422,144.587c4.854,4.854,7.581,11.438,7.581,18.302
			c0,6.865-2.727,13.448-7.581,18.302l-54.909,54.907c-3.369,3.369-8.832,3.369-12.202,0l-24.404-24.403
			c-1.618-1.618-2.527-3.812-2.527-6.101c0-2.288,0.909-4.483,2.527-6.101l54.909-54.907
			C340.925,134.479,357.314,134.479,367.422,144.587z"/>
	</g>
	<g>
		<path d="M395.364,248.193c-3.451-0.001-6.562-2.08-7.882-5.268c-1.32-3.188-0.591-6.858,1.849-9.298l84.925-84.925
			c13.863-13.918,21.334-32.96,20.634-52.592c-1.583-42.402-35.59-76.413-77.992-78c-19.621-0.622-38.636,6.844-52.592,20.65
			l-84.926,84.916c-3.338,3.296-8.711,3.28-12.029-0.038c-3.317-3.317-3.334-8.69-0.038-12.029l84.925-84.917
			c17.253-17.132,40.797-26.409,65.1-25.65c51.48,1.829,92.788,43.144,94.608,94.625c0.844,24.313-8.436,47.886-25.625,65.1
			l-84.925,84.925C399.798,247.296,397.627,248.196,395.364,248.193L395.364,248.193z"/>
		<path d="M395.364,248.193c-1.151,0.001-2.291-0.231-3.35-0.683c-19.561-9.02-37.691-20.866-53.808-35.158
			c-3.567-3.063-3.984-8.434-0.933-12.011s8.421-4.012,12.008-0.972c14.831,13.136,31.481,24.063,49.434,32.442
			c3.73,1.591,5.825,5.587,5.012,9.559C402.914,245.341,399.419,248.194,395.364,248.193L395.364,248.193z"/>
		<path d="M307.147,177.793c-2.498,0.004-4.872-1.09-6.492-2.992c-14.296-16.117-26.142-34.25-35.158-53.817
			c-1.194-2.805-0.801-6.033,1.031-8.469c1.832-2.436,4.824-3.71,7.85-3.342c3.026,0.368,5.625,2.323,6.819,5.127
			c8.382,17.949,19.309,34.595,32.442,49.425c2.161,2.532,2.652,6.089,1.257,9.111C313.501,175.86,310.475,177.795,307.147,177.793
			L307.147,177.793z"/>
		<path d="M306.414,248.151c-4.551,0.011-8.919-1.795-12.133-5.017l-24.408-24.408c-6.692-6.705-6.692-17.562,0-24.267
			l54.908-54.908c8.692-8.71,21.373-12.117,33.259-8.937c11.887,3.181,21.172,12.465,24.352,24.352
			c3.181,11.887-0.227,24.568-8.937,33.26l-54.909,54.908C315.332,246.356,310.965,248.162,306.414,248.151z M349.121,146.543
			c-4.604-0.009-9.022,1.817-12.275,5.075l-54.908,54.908l24.408,24.542l55.042-54.908c4.965-4.961,6.451-12.424,3.766-18.908
			C362.469,150.767,356.14,146.541,349.121,146.543L349.121,146.543z"/>
		<path d="M80.68,465.26c-2.264,0.003-4.435-0.897-6.033-2.5l-24.408-24.4c-1.601-1.6-2.5-3.77-2.5-6.033s0.899-4.433,2.5-6.033
			L269.872,206.66c1.6-1.601,3.77-2.5,6.033-2.5c2.263,0,4.433,0.899,6.033,2.5l24.408,24.408c1.601,1.6,2.5,3.77,2.5,6.033
			c0,2.263-0.899,4.433-2.5,6.033L86.713,462.76C85.115,464.363,82.944,465.263,80.68,465.26L80.68,465.26z M68.338,432.327
			L80.68,444.66l207.567-207.559l-12.341-12.341L68.338,432.327z"/>
		<path d="M86.772,513.001c-6.835,0.013-13.394-2.698-18.225-7.533L7.538,444.46c-10.054-10.073-10.049-26.387,0.013-36.454
			s26.376-10.08,36.454-0.03l61.008,61.017c7.383,7.371,9.594,18.467,5.599,28.105C106.617,506.736,97.205,513.015,86.772,513.001z
			 M25.772,417.501c-3.529-0.002-6.711,2.124-8.061,5.384c-1.35,3.261-0.602,7.013,1.895,9.507l61.008,61.008
			c3.411,3.388,8.92,3.377,12.318-0.023c3.398-3.401,3.405-8.909,0.015-12.318l-61.008-61.008
			C30.304,418.415,28.085,417.497,25.772,417.501L25.772,417.501z"/>
		<path d="M367.422,154.118c-3.451-0.001-6.562-2.08-7.882-5.268c-1.32-3.188-0.591-6.858,1.849-9.298l48.808-48.8
			c3.332-3.332,8.735-3.332,12.067,0c3.332,3.332,3.332,8.735,0,12.067l-48.809,48.8
			C371.857,153.221,369.685,154.121,367.422,154.118L367.422,154.118z"/>
	</g>
</g>
<g>
</g>
<g>
</g>
<g>
</g>
<g>
</g>
<g>
</g>
<g>
</g>
<g>
</g>
<g>
</g>
<g>
</g>
<g>
</g>
<g>
</g>
<g>
</g>
<g>
</g>
<g>
</g>
<g>
</g>
</svg>
