<?xml version="1.0" encoding="iso-8859-1"?>
<!-- Generator: Adobe Illustrator 19.0.0, SVG Export Plug-In . SVG Version: 6.00 Build 0)  -->
<svg version="1.1" id="Capa_1" xmlns="http://www.w3.org/2000/svg" xmlns:xlink="http://www.w3.org/1999/xlink" x="0px" y="0px"
	 viewBox="0 0 511.981 511.981" style="enable-background:new 0 0 511.981 511.981;" xml:space="preserve">
<g>
	<g transform="translate(1 1)">
		<path style="fill:#CFD8DC;" d="M112.202,494.408l4.084-4.084c4.946-4.946,6.433-12.381,3.77-18.848l-39.77-96.99l-30.628,30.628
			l34.273,83.639c2.206,5.357,6.943,9.257,12.623,10.393C102.233,500.283,108.106,498.505,112.202,494.408L112.202,494.408z"/>
		
			<rect x="214.679" y="187.706" transform="matrix(0.7071 -0.7071 0.7071 0.7071 -89.5386 229.2885)" style="fill:#F5F5F5;" width="34.654" height="70.042"/>
		<path style="fill:#C52828;" d="M496.919,390.926l-14.165,14.165l-82.517,82.517c-6.765,7.136-18.032,7.441-25.173,0.683
			L264.812,378.041l-42.923-42.923c-18.276-19.15-19.589-48.86-3.072-69.547c1.51-2.101,3.194-4.07,5.035-5.888l45.141-45.141
			c20.324-21.322,54.075-22.162,75.435-1.877l42.923,42.837l110.251,110.251C504.361,372.894,504.056,384.162,496.919,390.926
			L496.919,390.926z"/>
		<path style="fill:#F44335;" d="M482.754,405.091l-82.517,82.517c-6.765,7.136-18.032,7.441-25.173,0.683L264.812,378.041
			l-42.923-42.923c-18.276-19.15-19.589-48.86-3.072-69.547l33.195-33.195c20.32-21.302,54.034-22.179,75.435-1.963l42.923,42.923
			l24.491,24.491l85.76,85.76C486.247,389.386,487.132,398.3,482.754,405.091L482.754,405.091z"/>
		<path style="fill:#C52828;" d="M411.971,279.835L289.088,402.718c-6.665,6.665-17.471,6.665-24.136,0l-0.368-0.368
			c-6.665-6.665-6.665-17.471,0-24.136l122.883-122.883c6.665-6.665,17.471-6.665,24.136,0l0.368,0.368
			C418.636,262.364,418.636,273.17,411.971,279.835z"/>
		
			<rect x="4.466" y="172.76" transform="matrix(0.7071 -0.7071 0.7071 0.7071 -73.5627 202.5784)" style="fill:#CFD8DC;" width="406.573" height="34.654"/>
		<path style="fill:#9E9E9E;" d="M50.412,408.649l42.88-42.88c6.766-6.766,6.766-17.736,0-24.503l-30.629-30.628L7.532,365.769
			l4.156,20.772c1.22,6.097,5.612,11.072,11.511,13.038L50.412,408.649z"/>
		<path style="fill:#95A5A5;" d="M160.674,212.627L326.055,47.246"/>
		<polygon style="fill:#C52828;" points="350.555,71.745 381.19,41.119 387.308,10.493 356.682,16.62 326.056,47.246 		"/>
	</g>
	<g>
		<path d="M235.166,258.928c-2.264,0.003-4.435-0.897-6.033-2.5l-30.625-30.629c-1.601-1.6-2.5-3.77-2.5-6.033
			c0-2.263,0.899-4.433,2.5-6.033l24.5-24.504c3.386-3.2,8.681-3.2,12.067,0l30.633,30.629c1.601,1.6,2.5,3.77,2.5,6.033
			c0,2.263-0.899,4.433-2.5,6.033l-24.508,24.504C239.601,258.031,237.429,258.93,235.166,258.928L235.166,258.928z
			 M216.607,219.765l18.558,18.562l12.442-12.438l-18.567-18.562L216.607,219.765z"/>
		<path d="M265.799,387.565c-2.264,0.003-4.435-0.897-6.033-2.5l-42.884-42.879c-11.498-11.525-17.702-27.302-17.133-43.571
			c0.46-16.555,7.29-32.294,19.067-43.938l45.141-45.137c23.654-24.647,62.789-25.512,87.508-1.933l42.883,42.879
			c3.303,3.337,3.29,8.716-0.03,12.036c-3.32,3.32-8.699,3.334-12.036,0.031l-42.883-42.879
			c-18.051-16.922-46.389-16.057-63.375,1.933l-45.141,45.138c-17.986,16.988-18.851,45.322-1.933,63.375l42.883,42.879
			c2.44,2.44,3.169,6.11,1.849,9.298C272.361,385.485,269.25,387.564,265.799,387.565L265.799,387.565z"/>
		<path d="M388.041,502.707c-6.749,0.04-13.235-2.616-18.017-7.379l-85.758-85.758c-3.332-3.332-3.332-8.734,0-12.067
			c3.332-3.332,8.735-3.332,12.067,0l85.758,85.758c3.798,3.415,9.64,3.127,13.083-0.646l96.725-96.721
			c3.769-3.444,4.056-9.283,0.642-13.079l-85.758-85.758c-3.332-3.332-3.332-8.734,0-12.067c3.332-3.332,8.734-3.332,12.067,0
			l85.758,85.758c10.077,10.462,9.79,27.104-0.642,37.212l-96.725,96.725C402.158,499.801,395.251,502.687,388.041,502.707
			L388.041,502.707z"/>
		<path d="M278.049,417.24c-10.408-0.056-19.777-6.324-23.8-15.924c-4.024-9.599-1.924-20.674,5.334-28.135l122.883-122.879
			c10.129-9.671,26.071-9.671,36.2,0c4.927,4.785,7.738,11.341,7.807,18.209c0.069,6.868-2.61,13.479-7.44,18.362L296.149,409.752
			C291.352,414.557,284.838,417.252,278.049,417.24z M400.566,259.869c-2.261-0.007-4.431,0.892-6.025,2.496L271.649,385.248
			c-3.325,3.337-3.325,8.734,0,12.071c1.58,1.732,3.795,2.75,6.139,2.819c2.344,0.069,4.615-0.816,6.294-2.452l0,0l122.883-122.879
			c3.325-3.337,3.325-8.734,0-12.071C405.318,260.94,403.003,259.903,400.566,259.869z"/>
		<path d="M88.165,344.673L88.165,344.673c-2.263,0-4.434-0.899-6.033-2.5l-24.5-24.504c-1.601-1.6-2.5-3.77-2.5-6.033
			s0.899-4.433,2.5-6.033L321.024,42.215c1.6-1.601,3.77-2.5,6.033-2.5c2.263,0,4.433,0.899,6.033,2.5l24.5,24.5
			c1.601,1.6,2.5,3.77,2.5,6.033s-0.899,4.433-2.5,6.033L94.199,342.173C92.599,343.775,90.429,344.674,88.165,344.673z
			 M75.732,311.636l12.433,12.438L339.491,72.748l-12.433-12.433L75.732,311.636z"/>
		<path d="M51.416,418.182c-0.918,0.001-1.829-0.147-2.7-0.438l-27.217-9.071c-8.797-2.944-15.348-10.368-17.175-19.462
			l-4.158-20.767c-0.559-2.798,0.317-5.69,2.334-7.708l55.133-55.133c3.386-3.2,8.681-3.2,12.067,0l30.625,30.629
			c10.083,10.105,10.083,26.466,0,36.571l-42.875,42.879C55.849,417.282,53.679,418.181,51.416,418.182z M17.799,369.573
			l3.258,16.292c0.623,3.092,2.851,5.615,5.842,6.617l22.208,7.404l39.15-39.15c3.433-3.435,3.433-9.003,0-12.438l-24.592-24.596
			L17.799,369.573z"/>
		<path d="M100.441,509.019c-1.71-0.001-3.415-0.17-5.092-0.504c-8.482-1.688-15.556-7.512-18.842-15.512l-32.983-80.104
			c-1.308-3.186-0.575-6.846,1.858-9.283l30.625-30.629c2.018-2.017,4.91-2.893,7.707-2.334s5.131,2.479,6.218,5.117l38.483,93.458
			c3.988,9.654,1.764,20.76-5.633,28.133l-4.083,4.079C113.862,506.293,107.292,509.02,100.441,509.019L100.441,509.019z
			 M61.474,411.661l30.817,74.842c1.101,2.734,3.514,4.722,6.409,5.279c2.881,0.576,5.859-0.328,7.933-2.408l0,0l4.083-4.083
			c2.514-2.508,3.27-6.284,1.916-9.567l-33.608-81.617L61.474,411.661z"/>
		<path d="M94.299,289.544c-0.317,0.001-0.635-0.017-0.95-0.054c-4.684-0.52-8.06-4.737-7.542-9.421l5.117-46.071
			c0.883-7.788,4.375-15.048,9.908-20.6l11.925-11.929c3.332-3.332,8.735-3.332,12.067,0c3.332,3.332,3.332,8.735,0,12.067
			l-11.925,11.929c-2.798,2.81-4.563,6.484-5.008,10.425l-5.117,46.063C102.292,286.271,98.644,289.539,94.299,289.544
			L94.299,289.544z"/>
		<path d="M137.174,405.932c-2.264,0.003-4.435-0.897-6.033-2.5l-36.758-36.754c-3.332-3.332-3.332-8.735,0-12.067
			c3.332-3.332,8.735-3.332,12.067,0l36.758,36.754c2.44,2.44,3.169,6.11,1.849,9.298
			C143.736,403.852,140.625,405.931,137.174,405.932L137.174,405.932z"/>
		<path d="M161.674,222.161c-3.451-0.001-6.562-2.08-7.882-5.268c-1.32-3.188-0.591-6.858,1.849-9.298L321.024,42.215
			c2.155-2.155,5.297-2.997,8.242-2.208s5.244,3.089,6.033,6.033c0.789,2.944-0.053,6.086-2.208,8.242L167.707,219.661
			C166.109,221.264,163.938,222.164,161.674,222.161z"/>
		<path d="M186.174,246.665c-3.451-0.001-6.562-2.08-7.882-5.268s-0.591-6.858,1.849-9.298L345.524,66.715
			c3.332-3.332,8.735-3.332,12.067,0c3.332,3.332,3.332,8.735,0,12.067L192.207,244.165
			C190.609,245.768,188.438,246.668,186.174,246.665z"/>
		<path d="M351.557,81.282c-2.263,0-4.434-0.899-6.033-2.5l-24.5-24.5c-1.601-1.6-2.5-3.77-2.5-6.033s0.899-4.433,2.5-6.033
			l30.625-30.629c1.19-1.191,2.707-2.003,4.358-2.333l30.633-6.125c2.798-0.56,5.691,0.316,7.708,2.334s2.893,4.91,2.333,7.708
			l-6.133,30.625c-0.332,1.651-1.144,3.167-2.333,4.358l-30.625,30.629C355.991,80.383,353.82,81.282,351.557,81.282L351.557,81.282
			z M339.124,48.249l12.433,12.433l22.767-22.771l3.108-15.537l-15.542,3.108L339.124,48.249z"/>
	</g>
</g>
<g>
</g>
<g>
</g>
<g>
</g>
<g>
</g>
<g>
</g>
<g>
</g>
<g>
</g>
<g>
</g>
<g>
</g>
<g>
</g>
<g>
</g>
<g>
</g>
<g>
</g>
<g>
</g>
<g>
</g>
</svg>
