<?xml version="1.0" encoding="iso-8859-1"?>
<!-- Generator: Adobe Illustrator 19.0.0, SVG Export Plug-In . SVG Version: 6.00 Build 0)  -->
<svg version="1.1" id="Capa_1" xmlns="http://www.w3.org/2000/svg" xmlns:xlink="http://www.w3.org/1999/xlink" x="0px" y="0px"
	 viewBox="0 0 511.952 511.952" style="enable-background:new 0 0 511.952 511.952;" xml:space="preserve">
<g>
	<g transform="translate(1 1)">
		<g>
			<path style="fill:#607D8B;" d="M209.519,216.395l-0.597,0.683l-0.512-0.512c-1.833-1.818-3.438-3.852-4.779-6.059
				L209.519,216.395z"/>
			<path style="fill:#607D8B;" d="M501.359,129.611l-15.787,28.416L342.042,301.557c-13.446,13.397-35.194,13.397-48.64,0
				l-17.664-17.664l0.597-0.683c13.446,13.397,35.194,13.397,48.64,0L468.505,139.68l8.021-14.507l13.141-7.253
				c3.356-1.84,7.523-1.245,10.229,1.461C502.604,122.087,503.199,126.255,501.359,129.611z"/>
		</g>
		<path style="fill:#CFD8DC;" d="M476.527,125.173l-8.021,14.507L324.975,283.211c-13.446,13.397-35.194,13.397-48.64,0
			l-18.176-18.176l-24.32,24.235c-1.591,1.637-3.776,2.56-6.059,2.56s-4.468-0.923-6.059-2.56l-42.581,42.496l-18.688-18.688
			l41.899-41.899c-1.637-1.591-2.56-3.776-2.56-6.059c0-2.283,0.923-4.468,2.56-6.059l24.235-24.32l-17.664-17.664l0.597-0.683
			l-5.888-5.888c-8.51-13.577-6.529-31.229,4.779-42.581L351.94,24.394l15.275-8.533l13.141-7.253
			c3.356-1.84,7.523-1.245,10.229,1.461c2.706,2.706,3.302,6.874,1.461,10.229L376.26,48.714L238.788,186.187
			c-2.405,2.28-3.182,5.793-1.963,8.875c0.368,1.23,1.044,2.346,1.963,3.243l18.176,18.261c3.354,3.328,8.764,3.328,12.117,0
			L430.874,54.773l15.275-8.533l13.141-7.253c3.355-1.871,7.545-1.287,10.261,1.429c2.716,2.716,3.3,6.906,1.429,10.261
			l-15.787,28.416L293.401,240.885c-2.28,2.277-3.074,5.649-2.048,8.704c0.342,1.31,1.053,2.495,2.048,3.413l18.261,18.176
			c1.591,1.637,3.776,2.56,6.059,2.56c2.283,0,4.468-0.923,6.059-2.56l137.472-137.472L476.527,125.173z"/>
		<path style="fill:#9E9E9E;" d="M238.753,307.654l-36.44-36.44c-1.611-1.611-2.516-3.795-2.516-6.073s0.905-4.463,2.516-6.073
			l24.293-24.293l48.587,48.587L250.9,307.654c-1.611,1.611-3.795,2.516-6.073,2.516
			C242.548,310.169,240.364,309.264,238.753,307.654z"/>
		
			<rect x="191.204" y="275.799" transform="matrix(-0.7071 0.7071 -0.7071 -0.7071 569.0016 367.4512)" style="fill:#CFD8DC;" width="34.389" height="51.542"/>
		<path style="fill:#4E342E;" d="M220.527,350.197l-18.176,18.176c-13.837,4.035-26.742,10.763-37.973,19.797
			c-22.784,16.64-53.163,47.019-83.541,101.717c-16.799,16.726-43.958,16.726-60.758,0c-1.645-1.649-3.13-3.449-4.437-5.376
			c-5.292-7.26-8.132-16.018-8.106-25.003c-0.025-11.391,4.489-22.323,12.544-30.379
			c109.312-60.757,121.515-121.515,121.515-121.515l18.176-18.176c1.478-1.473,3.461-2.327,5.547-2.389
			c2.462-0.218,4.895,0.655,6.656,2.389l48.555,48.555C223.854,341.381,223.854,346.81,220.527,350.197z"/>
		<path style="fill:#795548;" d="M201.327,335.264l-18.176,18.176c-13.837,4.035-26.742,10.763-37.973,19.797
			c-22.784,16.64-53.163,47.019-83.541,101.717c-8.055,8.055-18.987,12.569-30.379,12.544c-5.35,0.034-10.656-0.981-15.616-2.987
			c-5.293-7.26-8.132-16.018-8.107-25.003c-0.025-11.391,4.489-22.323,12.544-30.379
			c109.312-60.757,121.515-121.515,121.515-121.515l18.176-18.176c1.478-1.473,3.461-2.327,5.547-2.389l36.011,36.011
			C204.654,326.448,204.654,331.877,201.327,335.264L201.327,335.264z"/>
		<path style="fill:#FDD834;" d="M220.527,350.197l-18.176,18.176l-60.757-60.757l18.176-18.176c3.432-3.216,8.771-3.216,12.203,0
			l48.555,48.555C223.854,341.381,223.854,346.81,220.527,350.197z"/>
		<path style="fill:#FFEB3A;" d="M201.327,335.264l-16.043,16.043l-43.691-43.691l18.176-18.176
			c1.455-1.456,3.405-2.309,5.461-2.389l36.096,36.096C204.655,326.5,204.655,331.91,201.327,335.264z"/>
	</g>
	<g>
		<path d="M318.706,321.157c-11.374,0.018-22.286-4.495-30.325-12.542l-85.029-85.025c-16.725-16.761-16.725-43.898,0-60.658
			L346.926,19.357c0.56-0.562,1.197-1.041,1.892-1.425l28.379-15.767c6.683-3.711,15.016-2.543,20.421,2.862
			s6.573,13.738,2.862,20.421L384.71,53.832c-0.381,0.696-0.861,1.333-1.425,1.892l-137.5,137.5l18.221,18.3l161.875-161.8
			c0.56-0.561,1.195-1.04,1.887-1.425l28.379-15.767c6.683-3.713,15.017-2.545,20.423,2.86c5.406,5.406,6.573,13.74,2.86,20.423
			l-15.767,28.383c-0.383,0.695-0.863,1.331-1.425,1.892L300.447,247.882l18.221,18.3l137.58-137.5
			c0.56-0.561,1.195-1.04,1.888-1.425l28.379-15.767c6.681-3.715,15.015-2.55,20.421,2.855c5.406,5.404,6.574,13.738,2.862,20.42
			l-15.767,28.383c-0.383,0.695-0.863,1.331-1.425,1.892l-143.57,143.575C340.995,316.662,330.081,321.175,318.706,321.157z
			 M358.139,32.282L215.418,174.999c-10.071,10.092-10.071,26.433,0,36.525l85.029,85.025c10.092,10.067,26.428,10.067,36.521,0
			l142.725-142.733l15.188-27.333l-27.421,15.125L330.814,278.249c-6.694,6.661-17.51,6.664-24.208,0.009l-18.225-18.233
			c-3.213-3.211-5.017-7.567-5.017-12.109c0.001-4.542,1.807-8.898,5.021-12.107L449.326,74.865l15.188-27.333l-27.421,15.117
			L276.151,223.59c-6.694,6.661-17.51,6.664-24.208,0.009l-18.225-18.233c-3.213-3.211-5.017-7.567-5.017-12.109
			c0.001-4.542,1.807-8.898,5.021-12.107l136.65-136.65l15.192-27.333L358.139,32.282z"/>
		<path d="M245.826,319.69c-4.537,0.008-8.892-1.788-12.104-4.992l-0.004-0.009l-36.437-36.442
			c-6.67-6.694-6.672-17.521-0.004-24.217l24.296-24.292c1.6-1.601,3.77-2.5,6.033-2.5s4.433,0.899,6.033,2.5l48.588,48.583
			c1.601,1.6,2.5,3.77,2.5,6.033s-0.899,4.433-2.5,6.033l-24.292,24.3C254.724,317.899,250.367,319.698,245.826,319.69
			L245.826,319.69z M245.785,302.623l0.012,0.009l18.321-18.283l-36.513-36.508l-18.259,18.258L245.785,302.623z"/>
		<path d="M215.46,341.482c-2.264,0.003-4.435-0.897-6.033-2.5l-36.442-36.441c-1.601-1.6-2.5-3.77-2.5-6.033
			c0-2.263,0.899-4.433,2.5-6.033l24.296-24.292c1.6-1.601,3.77-2.5,6.033-2.5c2.263,0,4.433,0.899,6.033,2.5l36.437,36.442
			c1.601,1.6,2.5,3.77,2.5,6.033c0,2.263-0.899,4.433-2.5,6.033l-24.292,24.292C219.895,340.585,217.723,341.484,215.46,341.482
			L215.46,341.482z M191.085,296.507l24.375,24.375l12.225-12.225l-24.371-24.375L191.085,296.507z"/>
		<path d="M203.314,377.924c-2.263-0.001-4.433-0.9-6.033-2.5l-60.733-60.733c-1.601-1.6-2.5-3.77-2.5-6.033
			c0-2.263,0.899-4.434,2.5-6.033l18.221-18.225c6.694-6.661,17.51-6.664,24.208-0.009l48.592,48.6
			c3.213,3.211,5.017,7.567,5.017,12.109c-0.001,4.542-1.807,8.898-5.021,12.107l-18.217,18.216
			C207.747,377.024,205.577,377.923,203.314,377.924z M154.66,308.665l48.654,48.658l12.187-12.192l-48.588-48.667L154.66,308.665z"
			/>
		<path d="M51.481,511.94c-20.818,0.009-39.591-12.527-47.56-31.76c-7.969-19.233-3.564-41.372,11.16-56.09
			c0.561-0.56,1.196-1.039,1.887-1.425c103.733-57.633,117.133-115.167,117.258-115.742c0.649-3.061,2.919-5.524,5.917-6.42
			c2.999-0.896,6.247-0.083,8.47,2.12l60.734,60.734c2.218,2.218,3.041,5.474,2.142,8.48c-0.899,3.005-3.374,5.276-6.446,5.912
			c-0.692,0.15-58.167,13.625-115.738,117.25c-0.383,0.695-0.863,1.331-1.425,1.892C78.232,506.548,65.133,511.964,51.481,511.94z
			 M26.364,436.965c-12.693,13.552-12.346,34.729,0.783,47.858c13.129,13.129,34.307,13.476,47.858,0.783
			c45.141-80.783,90.567-109.758,112.754-119.7l-41.696-41.7C136.118,346.399,107.151,391.824,26.364,436.965z"/>
	</g>
</g>
<g>
</g>
<g>
</g>
<g>
</g>
<g>
</g>
<g>
</g>
<g>
</g>
<g>
</g>
<g>
</g>
<g>
</g>
<g>
</g>
<g>
</g>
<g>
</g>
<g>
</g>
<g>
</g>
<g>
</g>
</svg>
