<?xml version="1.0" encoding="iso-8859-1"?>
<!-- Generator: Adobe Illustrator 19.0.0, SVG Export Plug-In . SVG Version: 6.00 Build 0)  -->
<svg version="1.1" id="Capa_1" xmlns="http://www.w3.org/2000/svg" xmlns:xlink="http://www.w3.org/1999/xlink" x="0px" y="0px"
	 viewBox="0 0 511.988 511.988" style="enable-background:new 0 0 511.988 511.988;" xml:space="preserve">
<g>
	<g transform="translate(0 1)">
		<path style="fill:#FDD834;" d="M372.992,223.244l-54.784,54.869c-3.387,3.328-8.816,3.328-12.203,0L171.947,412.086
			l-30.464,30.464c1.637,1.608,2.56,3.806,2.56,6.101s-0.922,4.493-2.56,6.101L98.901,497.42c-3.236,3.237-7.625,5.056-12.203,5.056
			c-4.577,0-8.967-1.819-12.203-5.056l-60.928-60.928c-5.682-5.714-6.673-14.593-2.389-21.419c0.696-1.072,1.496-2.073,2.389-2.987
			l42.667-42.581c1.608-1.638,3.806-2.56,6.101-2.56c2.295,0,4.494,0.923,6.101,2.56l30.464-30.464l133.973-134.059
			c-3.328-3.387-3.328-8.816,0-12.203l54.869-54.784l67.157,67.243h0.085L372.992,223.244z"/>
		<path style="fill:#F57C00;" d="M141.483,454.753L98.901,497.42c-3.236,3.237-7.625,5.056-12.203,5.056
			c-4.577,0-8.967-1.819-12.203-5.056l-17.067-17.067l-43.861-43.861c-3.237-3.236-5.056-7.625-5.056-12.203
			c0-4.577,1.819-8.967,5.056-12.203l42.667-42.581c1.608-1.638,3.806-2.56,6.101-2.56c2.295,0,4.494,0.923,6.101,2.56l7.253,7.253
			l24.405,24.405l12.117,12.117l29.269,29.269c1.637,1.608,2.56,3.806,2.56,6.101S143.12,453.145,141.483,454.753L141.483,454.753z"
			/>
		<path style="fill:#607D8B;" d="M500.907,156.257l-42.581,42.667l-85.333,24.32l-54.784,54.869c-3.387,3.328-8.816,3.328-12.203,0
			l-17.067-17.067l-56.064-56.064c-3.328-3.387-3.328-8.816,0-12.203l54.869-54.784l24.32-85.333l42.667-42.581
			c1.608-1.638,3.806-2.56,6.101-2.56c2.295,0,4.493,0.923,6.101,2.56l133.973,133.973c1.637,1.608,2.56,3.806,2.56,6.101
			C503.467,152.45,502.544,154.649,500.907,156.257z"/>
		<path style="fill:#CFD8DC;" d="M483.84,139.19l-42.581,42.667l-85.333,24.32l-54.784,54.869c-3.387,3.328-8.816,3.328-12.203,0
			l-56.064-56.064c-3.328-3.387-3.328-8.816,0-12.203l54.869-54.784l24.32-85.333l42.667-42.581c1.608-1.638,3.806-2.56,6.101-2.56
			c2.295,0,4.493,0.923,6.101,2.56L483.84,126.988c1.637,1.608,2.56,3.806,2.56,6.101C486.4,135.384,485.478,137.582,483.84,139.19z
			"/>
		<polygon style="fill:#37474F;" points="287.718,137.978 373.009,223.269 458.3,198.898 312.09,52.688 		"/>
		<polygon style="fill:#607D8B;" points="281.967,135.751 354.475,208.259 435.2,179.331 310.895,55.026 		"/>
		<path style="fill:#FFEB3A;" d="M354.901,205.238l-45.227,45.312c-3.387,3.328-8.816,3.328-12.203,0L163.413,384.524
			l-30.464,30.464c1.637,1.608,2.56,3.806,2.56,6.101s-0.922,4.493-2.56,6.101l-42.581,42.667
			c-3.236,3.237-7.626,5.056-12.203,5.056c-4.577,0-8.967-1.819-12.203-5.056l-54.784-54.784c0.696-1.072,1.496-2.073,2.389-2.987
			l42.667-42.581c1.608-1.638,3.806-2.56,6.101-2.56c2.295,0,4.494,0.923,6.101,2.56l30.464-30.464l133.973-134.059
			c-3.328-3.387-3.328-8.816,0-12.203l54.869-54.784L354.901,205.238z"/>
		<path style="fill:#F57C00;" d="M372.992,223.244l-54.784,54.869c-3.387,3.328-8.816,3.328-12.203,0l-60.843-60.843l-12.288-12.288
			c-1.28-1.291-2.091-2.974-2.304-4.779c-0.492-2.702,0.369-5.475,2.304-7.424l54.869-54.784l66.901,66.987h0.085L372.992,223.244z"
			/>
		<g>
			<path style="fill:#FF9801;" d="M354.645,204.982l-53.504,53.589c-3.387,3.328-8.816,3.328-12.203,0l-58.368-58.368
				c-0.492-2.702,0.369-5.475,2.304-7.424l54.869-54.784L354.645,204.982z"/>
			<path style="fill:#FF9801;" d="M124.416,437.686l-42.581,42.667c-3.236,3.237-7.625,5.056-12.203,5.056
				c-4.577,0-8.967-1.819-12.203-5.056l-43.861-43.861c-3.237-3.236-5.056-7.625-5.056-12.203c0-4.577,1.819-8.967,5.056-12.203
				l42.667-42.581c1.608-1.638,3.806-2.56,6.101-2.56c2.295,0,4.494,0.923,6.101,2.56l7.253,7.253l24.405,24.405l12.117,12.117
				l12.203,12.203c1.637,1.608,2.56,3.806,2.56,6.101S126.053,436.078,124.416,437.686z"/>
		</g>
		<polygon style="fill:#FDD834;" points="171.947,412.086 141.483,442.55 68.437,369.505 98.219,339.809 98.901,339.041 		"/>
		<polygon style="fill:#FFEB3A;" points="153.6,395.19 123.904,424.971 68.437,369.505 98.219,339.809 		"/>
		<g>
			<path style="fill:#607D8B;" d="M232.875,302.433l-18.261,18.347l-24.32-24.32l18.261-18.347c6.717-6.713,17.603-6.713,24.32,0
				c3.236,3.219,5.056,7.595,5.056,12.16C237.931,294.838,236.111,299.214,232.875,302.433z"/>
			<path style="fill:#607D8B;" d="M214.613,320.78l-24.405,24.32c-6.72,6.689-17.587,6.676-24.291-0.029
				c-6.705-6.704-6.717-17.571-0.029-24.291l24.405-24.32L214.613,320.78z"/>
		</g>
	</g>
	<g>
		<path d="M458.3,208.429c-2.264,0.003-4.435-0.897-6.033-2.5L306.058,59.721c-1.601-1.6-2.5-3.77-2.5-6.033
			c0-2.263,0.899-4.433,2.5-6.033L348.7,5.013c6.702-6.683,17.548-6.683,24.25,0l134.025,134.025c6.683,6.702,6.683,17.548,0,24.25
			l-42.642,42.642C462.735,207.532,460.564,208.432,458.3,208.429z M324.167,53.696L458.3,187.829l36.608-36.608L360.883,17.079
			L324.167,53.696z"/>
		<path d="M373.008,232.796c-2.263,0.001-4.434-0.899-6.033-2.5l-85.283-85.283c-2.191-2.19-3.024-5.396-2.175-8.375l24.367-85.292
			c0.831-2.907,3.139-5.158,6.066-5.916c2.927-0.759,6.037,0.088,8.176,2.225l146.208,146.209c2.137,2.139,2.983,5.249,2.225,8.176
			c-0.759,2.927-3.009,5.234-5.916,6.066l-85.292,24.367C374.588,232.686,373.8,232.795,373.008,232.796z M297.308,136.496
			l78.183,78.183l66.517-19.008L316.317,69.979L297.308,136.496z"/>
		<path d="M312.092,290.146c-4.548,0.007-8.911-1.798-12.125-5.017l-73.108-73.108c-6.683-6.702-6.683-17.548,0-24.25l54.833-54.825
			c1.6-1.601,3.77-2.5,6.033-2.5c2.263,0,4.433,0.899,6.033,2.5l85.283,85.283c1.601,1.6,2.5,3.77,2.5,6.033s-0.899,4.433-2.5,6.033
			l-54.825,54.833C321.003,288.347,316.64,290.153,312.092,290.146z M287.725,151.046l-48.8,48.908l73.109,73.109l48.9-48.808
			L287.725,151.046z"/>
		<path d="M86.683,511.988c-6.837,0.016-13.396-2.702-18.217-7.55L7.55,443.521C2.716,438.689,0,432.135,0,425.3
			c0-6.835,2.716-13.389,7.55-18.221l42.642-42.642c6.7-6.677,17.537-6.681,24.242-0.009l73.117,73.117
			c6.673,6.701,6.677,17.536,0.009,24.242l-42.658,42.65C100.081,509.288,93.521,512.007,86.683,511.988z M62.375,376.504
			l-42.758,42.65c-1.633,1.63-2.55,3.843-2.55,6.15c0,2.307,0.917,4.52,2.55,6.15l60.917,60.917c3.438,3.288,8.854,3.288,12.292,0
			l42.658-42.642L62.375,376.504z"/>
		<path d="M141.517,452.113c-2.264,0.003-4.435-0.897-6.033-2.5l-73.109-73.108c-1.601-1.6-2.5-3.77-2.5-6.033
			s0.899-4.433,2.5-6.033l164.484-164.483c1.6-1.601,3.77-2.5,6.033-2.5c2.263,0,4.433,0.899,6.033,2.5l73.108,73.109
			c1.601,1.6,2.5,3.77,2.5,6.033s-0.899,4.433-2.5,6.033L147.55,449.613C145.952,451.215,143.78,452.115,141.517,452.113z
			 M80.475,370.471l61.042,61.042l152.417-152.417l-61.042-61.042L80.475,370.471z"/>
		<path d="M178.067,359.688c-6.835,0.017-13.394-2.698-18.217-7.542l0,0v-0.009h-0.009c-4.83-4.832-7.543-11.386-7.542-18.218
			c0.002-6.833,2.717-13.385,7.55-18.215l42.642-42.641c10.197-9.733,26.244-9.733,36.442,0c4.83,4.832,7.543,11.386,7.542,18.218
			c-0.002,6.833-2.717,13.385-7.55,18.215l-42.641,42.641C191.463,356.985,184.903,359.704,178.067,359.688z M220.708,282.579
			c-2.308-0.004-4.522,0.914-6.15,2.55l-42.642,42.642c-1.633,1.629-2.55,3.84-2.55,6.146s0.917,4.517,2.55,6.146l0.009,0.009
			c3.438,3.288,8.854,3.288,12.292,0l42.642-42.642c2.483-2.49,3.224-6.228,1.878-9.476S224.225,282.585,220.708,282.579
			L220.708,282.579z"/>
		<path d="M214.617,330.271c-2.264,0.003-4.435-0.897-6.033-2.5l-24.367-24.367c-3.32-3.334-3.315-8.727,0.013-12.054
			c3.327-3.327,8.72-3.333,12.054-0.012l24.366,24.366c2.44,2.44,3.169,6.11,1.849,9.298
			C221.179,328.19,218.068,330.269,214.617,330.271L214.617,330.271z"/>
		<path d="M287.725,269.354c-3.451-0.001-6.562-2.08-7.882-5.268c-1.32-3.188-0.591-6.858,1.849-9.298l30.458-30.467
			c3.332-3.332,8.735-3.332,12.067,0c3.332,3.332,3.332,8.735,0,12.067l-30.459,30.466
			C292.16,268.457,289.989,269.357,287.725,269.354z"/>
		<path d="M251.167,232.796c-3.451-0.001-6.562-2.08-7.882-5.268c-1.32-3.188-0.591-6.858,1.849-9.298l30.467-30.458
			c3.332-3.332,8.734-3.332,12.067,0c3.332,3.332,3.332,8.735,0,12.067L257.2,230.296
			C255.602,231.899,253.43,232.799,251.167,232.796L251.167,232.796z"/>
		<path d="M92.775,464.296c-3.451-0.001-6.562-2.08-7.882-5.268c-1.32-3.188-0.591-6.858,1.849-9.298l30.458-30.458
			c3.332-3.332,8.735-3.332,12.067,0c3.332,3.332,3.332,8.735,0,12.067l-30.459,30.458C97.21,463.399,95.039,464.299,92.775,464.296
			z"/>
		<path d="M56.225,427.746c-3.451-0.001-6.562-2.08-7.882-5.268c-1.32-3.188-0.591-6.858,1.849-9.298l30.458-30.458
			c3.332-3.332,8.735-3.332,12.067,0c3.332,3.332,3.332,8.735,0,12.067l-30.459,30.458C60.66,426.849,58.489,427.749,56.225,427.746
			L56.225,427.746z"/>
		<path d="M171.975,421.654c-2.264,0.003-4.435-0.897-6.033-2.5l-73.108-73.108c-3.308-3.336-3.296-8.719,0.026-12.041
			s8.705-3.333,12.041-0.026l73.108,73.108c2.44,2.44,3.169,6.11,1.849,9.298S175.426,421.653,171.975,421.654L171.975,421.654z"/>
	</g>
</g>
<g>
</g>
<g>
</g>
<g>
</g>
<g>
</g>
<g>
</g>
<g>
</g>
<g>
</g>
<g>
</g>
<g>
</g>
<g>
</g>
<g>
</g>
<g>
</g>
<g>
</g>
<g>
</g>
<g>
</g>
</svg>
