<?xml version="1.0" encoding="iso-8859-1"?>
<!-- Generator: Adobe Illustrator 19.0.0, SVG Export Plug-In . SVG Version: 6.00 Build 0)  -->
<svg version="1.1" id="Capa_1" xmlns="http://www.w3.org/2000/svg" xmlns:xlink="http://www.w3.org/1999/xlink" x="0px" y="0px"
	 viewBox="0 0 511.985 511.985" style="enable-background:new 0 0 511.985 511.985;" xml:space="preserve">
<g>
	<g transform="translate(1 1)">
		<path style="fill:#CFD8DC;" d="M485.069,73.736l-5.888,9.131l-9.557,14.763l-14.421,22.187l-9.557,14.848l-14.338,22.101
			l-9.557,14.848l-14.421,22.272l-9.557,14.763l-14.336,22.187l-9.644,14.848l-14.335,22.272l-9.643,14.763l-14.336,22.187
			l-9.556,14.848l-14.422,22.187l-9.557,14.848l-14.335,22.187l-9.558,14.763l-51.2,79.104c-4.614,7.081-13.652,9.817-21.419,6.485
			l-29.525-12.629l-0.256-2.133l-24.32-194.219L409.123,12.638c6.791-6.694,17.699-6.694,24.49,0l50.262,50.261
			C486.779,65.777,487.277,70.295,485.069,73.736z"/>
		<path style="fill:#F5F5F5;" d="M460.749,61.278l-5.888,9.131l-9.557,14.763l-14.421,22.187l-9.557,14.848l-14.335,22.101
			l-9.558,14.848l-14.421,22.272l-9.557,14.763l-14.336,22.187l-9.642,14.848l-14.337,22.272l-9.643,14.763l-14.335,22.187
			l-9.558,14.848l-14.421,22.187l-9.557,14.848l-14.336,22.187l-9.557,14.763l-51.2,79.104c-4.614,7.08-13.651,9.817-21.418,6.485
			l-5.462-2.304l-24.32-194.219L409.123,12.638c2.222-2.242,5.032-3.809,8.107-4.523l42.325,42.325
			C462.46,53.318,462.958,57.836,460.749,61.278z"/>
		<path style="fill:#00838F;" d="M207.65,326.579l-56.32-56.235c-0.469-0.476-0.983-0.905-1.536-1.28l40.448,40.448
			c3.227,3.276,5.035,7.69,5.035,12.288v83.797c0.016,4.601-1.795,9.021-5.035,12.288l-62.462,62.464
			c-6.124,6.126-15.846,6.747-22.7,1.451l15.617,15.616c6.772,6.742,17.719,6.742,24.491,0l62.464-62.464
			c3.24-3.267,5.051-7.687,5.035-12.288v-83.797C212.685,334.269,210.877,329.855,207.65,326.579L207.65,326.579z"/>
		<path style="fill:#00BCD4;" d="M190.241,309.512l-40.448-40.448c-3.423-2.095-7.836-1.565-10.667,1.28L28.621,380.766
			c-6.742,6.805-6.742,17.771,0,24.576l76.459,76.459c6.854,5.296,16.576,4.675,22.7-1.451l62.462-62.464
			c3.24-3.267,5.051-7.687,5.035-12.288V321.8C195.277,317.202,193.468,312.788,190.241,309.512L190.241,309.512z M158.241,436.744
			l-18.431,18.432c-1.625,1.638-3.836,2.56-6.144,2.56c-2.307,0-4.519-0.922-6.144-2.56l-15.787-15.872l-40.107-40.107
			c-1.638-1.625-2.56-3.837-2.56-6.144c0-2.307,0.922-4.519,2.56-6.144l18.346-18.347c2.866-2.86,7.329-3.356,10.752-1.195
			l0.171,0.085c0.492,0.322,0.95,0.694,1.365,1.109l55.978,55.893c1.639,1.624,2.561,3.836,2.561,6.144
			C160.802,432.908,159.88,435.12,158.241,436.744z"/>
	</g>
	<g>
		<path d="M213.277,490.301c-3.519-0.001-7.001-0.719-10.233-2.113l-29.492-12.642c-2.802-1.2-4.75-3.803-5.112-6.829
			c-0.362-3.026,0.918-6.015,3.358-7.842c2.44-1.826,5.669-2.212,8.47-1.012l29.5,12.642c3.955,1.691,8.553,0.289,10.892-3.321
			l258.234-399.1l-50.283-50.45c-3.452-3.436-9.033-3.434-12.483,0.004L158.394,277.368c-3.332,3.332-8.735,3.332-12.067,0
			c-3.332-3.332-3.332-8.735,0-12.067L404.06,7.568c10.12-10.089,26.494-10.09,36.617-0.004l50.267,50.271
			c5.704,5.757,6.653,14.7,2.283,21.525L234.985,478.463C230.228,485.839,222.053,490.296,213.277,490.301L213.277,490.301z"/>
		<path d="M134.693,467.234c-4.566,0.009-8.948-1.802-12.175-5.033l-55.967-55.963l0,0c-6.722-6.723-6.722-17.622,0-24.346
			l18.408-18.404c6.809-6.508,17.533-6.508,24.342,0l55.967,55.963c6.722,6.723,6.722,17.622,0,24.346l-18.408,18.404
			C143.636,465.43,139.257,467.242,134.693,467.234z M78.618,394.172l55.967,55.963l18.617-18.408l-55.967-56.171l-24.65,24.65
			L78.618,394.172z"/>
		<path d="M133.952,511.984c-6.868,0.026-13.461-2.697-18.308-7.563l-92.05-92.05c-10.092-10.118-10.092-26.495,0-36.613
			l110.458-110.458c6.728-6.705,17.611-6.707,24.342-0.004l56.283,56.288c4.874,4.843,7.605,11.437,7.583,18.308v83.804
			c0.02,6.871-2.711,13.464-7.583,18.308l-62.417,62.417C147.412,509.287,140.82,512.01,133.952,511.984L133.952,511.984z
			 M146.327,277.368L35.66,387.826c-3.442,3.448-3.442,9.031,0,12.479l92.05,92.05c3.449,3.442,9.034,3.442,12.483,0l62.417-62.417
			c1.66-1.652,2.59-3.9,2.583-6.242v-83.804c0.009-2.341-0.922-4.588-2.583-6.238v-0.004L146.327,277.368z"/>
		<path d="M474.635,100.939c-0.912-0.001-1.818-0.149-2.683-0.438l-15.45-5.121c-2.902-0.952-5.075-3.383-5.696-6.373
			c-0.621-2.991,0.404-6.085,2.688-8.114c2.284-2.029,5.478-2.682,8.374-1.713l15.45,5.121c3.975,1.318,6.407,5.326,5.74,9.461
			S478.823,100.937,474.635,100.939L474.635,100.939z"/>
		<path d="M450.652,137.972c-0.921-0.002-1.835-0.152-2.708-0.446l-16.042-5.375c-2.899-0.961-5.063-3.399-5.674-6.391
			c-0.611-2.992,0.423-6.083,2.713-8.105c2.289-2.021,5.485-2.665,8.378-1.688l16.042,5.375c3.967,1.328,6.387,5.337,5.714,9.466
			C458.402,134.938,454.836,137.971,450.652,137.972L450.652,137.972z"/>
		<path d="M426.76,174.922c-0.918-0.001-1.83-0.15-2.7-0.442l-16.642-5.546c-4.471-1.491-6.887-6.325-5.396-10.796
			c1.491-4.471,6.325-6.887,10.796-5.396l16.642,5.546c3.967,1.327,6.388,5.334,5.718,9.464
			C434.508,171.882,430.944,174.918,426.76,174.922L426.76,174.922z"/>
		<path d="M402.785,211.955c-0.912-0.001-1.818-0.148-2.683-0.438l-17.242-5.717c-2.894-0.959-5.056-3.388-5.673-6.374
			c-0.617-2.985,0.406-6.073,2.683-8.1c2.277-2.027,5.463-2.685,8.356-1.726l17.242,5.717c3.976,1.318,6.408,5.326,5.741,9.461
			C410.543,208.914,406.974,211.954,402.785,211.955L402.785,211.955z"/>
		<path d="M378.894,248.993c-0.918-0.001-1.83-0.15-2.7-0.442l-17.925-5.975c-4.471-1.491-6.887-6.325-5.396-10.796
			c1.491-4.471,6.325-6.887,10.796-5.396l17.925,5.975c3.968,1.327,6.39,5.334,5.719,9.464
			C386.642,245.954,383.078,248.989,378.894,248.993L378.894,248.993z"/>
		<path d="M354.869,286.009c-0.918-0.001-1.83-0.15-2.7-0.442l-18.408-6.137c-4.471-1.491-6.887-6.325-5.396-10.796
			c1.491-4.471,6.325-6.887,10.796-5.396l18.408,6.138c3.968,1.327,6.39,5.334,5.719,9.464
			C362.618,282.97,359.053,286.006,354.869,286.009L354.869,286.009z"/>
		<path d="M330.318,322.83c-0.918-0.001-1.83-0.15-2.7-0.442l-18.408-6.137c-4.471-1.491-6.887-6.325-5.396-10.796
			c1.491-4.471,6.325-6.887,10.796-5.396l18.408,6.138c3.968,1.327,6.39,5.334,5.719,9.464
			C338.067,319.791,334.503,322.827,330.318,322.83z"/>
		<path d="M305.777,359.647c-0.918-0.001-1.83-0.15-2.7-0.442l-18.408-6.133c-4.46-1.499-6.865-6.326-5.376-10.79
			c1.489-4.464,6.31-6.88,10.777-5.402l18.408,6.133c3.967,1.327,6.388,5.334,5.718,9.464
			C313.525,356.607,309.96,359.643,305.777,359.647L305.777,359.647z"/>
		<path d="M281.227,396.468c-0.918-0.001-1.83-0.15-2.7-0.442l-18.408-6.138c-4.471-1.491-6.887-6.325-5.396-10.796
			c1.491-4.471,6.325-6.887,10.796-5.396l18.408,6.138c3.968,1.327,6.39,5.334,5.719,9.464
			C288.976,393.429,285.411,396.464,281.227,396.468L281.227,396.468z"/>
		<path d="M422.41,58.947c-0.573-0.009-1.145-0.066-1.708-0.171c-0.564-0.091-1.111-0.264-1.625-0.513
			c-0.524-0.17-1.015-0.429-1.45-0.767c-0.462-0.294-0.889-0.638-1.275-1.025c-1.63-1.595-2.552-3.778-2.558-6.059
			c0.023-2.277,0.942-4.454,2.558-6.059c0.341-0.341,0.85-0.683,1.275-1.025c0.437-0.334,0.927-0.593,1.45-0.767
			c0.516-0.245,1.062-0.417,1.625-0.513c1.094-0.254,2.231-0.254,3.325,0c0.563,0.094,1.11,0.267,1.625,0.513
			c0.523,0.171,1.014,0.431,1.45,0.767c0.459,0.3,0.889,0.643,1.283,1.025c0.414,0.418,0.785,0.875,1.108,1.367
			c0.25,0.425,0.508,0.937,0.767,1.45c0.167,0.513,0.341,1.025,0.508,1.621c0.104,0.535,0.162,1.077,0.175,1.622
			c-0.013,0.573-0.071,1.144-0.175,1.708c-0.167,0.513-0.341,1.025-0.508,1.538c-0.258,0.508-0.517,1.021-0.767,1.533
			c-0.344,0.448-0.714,0.875-1.108,1.279c-0.371,0.407-0.804,0.753-1.283,1.025c-0.434,0.339-0.925,0.599-1.45,0.767
			c-0.514,0.25-1.061,0.422-1.625,0.513C423.493,58.876,422.953,58.933,422.41,58.947L422.41,58.947z"/>
	</g>
</g>
<g>
</g>
<g>
</g>
<g>
</g>
<g>
</g>
<g>
</g>
<g>
</g>
<g>
</g>
<g>
</g>
<g>
</g>
<g>
</g>
<g>
</g>
<g>
</g>
<g>
</g>
<g>
</g>
<g>
</g>
</svg>
