<?xml version="1.0" encoding="iso-8859-1"?>
<!-- Generator: Adobe Illustrator 19.0.0, SVG Export Plug-In . SVG Version: 6.00 Build 0)  -->
<svg version="1.1" id="Capa_1" xmlns="http://www.w3.org/2000/svg" xmlns:xlink="http://www.w3.org/1999/xlink" x="0px" y="0px"
	 viewBox="0 0 511.994 511.994" style="enable-background:new 0 0 511.994 511.994;" xml:space="preserve">
<g>
	<g transform="translate(1 1)">
		<path style="fill:#795548;" d="M289.072,196.378L123.184,362.266H99.291c-16.127,0.04-31.585,6.45-43.008,17.835l-43.605,43.691
			c-3.276,3.233-5.12,7.643-5.12,12.245c0,4.602,1.844,9.013,5.12,12.245l49.067,49.067c3.232,3.276,7.643,5.12,12.245,5.12
			c4.602,0,9.013-1.844,12.245-5.12l43.691-43.605c11.385-11.423,17.795-26.881,17.835-43.008v-23.893l165.888-165.888
			L289.072,196.378z M113.029,410.821c0.015,6.9-2.754,13.515-7.68,18.347L74.032,460.57l-24.576-24.576l31.403-31.317
			c4.832-4.926,11.446-7.695,18.347-7.68h13.824V410.821z"/>
		<path style="fill:#607D8B;" d="M497.456,147.482L381.147,263.877c-13.587,13.506-35.518,13.544-49.152,0.085l-24.576-24.576
			l-6.144-6.059l-24.491-24.576l-30.72-30.72c-2.242-2.207-4.141-4.739-5.632-7.509l13.141,13.141l6.144,6.059l24.491,24.576
			l6.144,6.059l24.576,24.576c13.634,13.459,35.565,13.421,49.152-0.085l116.309-116.309c2.877-2.872,4.607-6.695,4.864-10.752
			c4.497,0.086,8.783,1.923,11.947,5.12l0.256,0.171c3.237,3.236,5.056,7.625,5.056,12.203S500.693,144.246,497.456,147.482z"/>
		<path style="fill:#CFD8DC;" d="M485.253,117.786c-0.257,4.057-1.987,7.88-4.864,10.752L364.08,244.847
			c-13.587,13.506-35.518,13.544-49.152,0.085l-24.576-24.576l-6.144-6.059l-24.491-24.576l-6.144-6.059l-13.141-13.141
			c-7.569-13.607-5.239-30.579,5.717-41.643L362.544,12.57c6.771-6.694,17.679-6.653,24.399,0.091
			c6.72,6.744,6.723,17.652,0.006,24.4L271.493,152.602l-1.024,0.939l30.635,30.635l116.48-116.48
			c6.783-6.714,17.708-6.714,24.491,0l0.085,0.085c3.237,3.236,5.056,7.626,5.056,12.203s-1.819,8.967-5.056,12.203L326.619,207.727
			l-0.939,0.939l30.635,30.72l116.48-116.48C476.057,119.545,480.57,117.69,485.253,117.786L485.253,117.786z"/>
	</g>
	<g>
		<path d="M74.982,511.994c-6.863,0.011-13.449-2.712-18.3-7.567L7.603,455.343c-4.856-4.858-7.582-11.447-7.579-18.316
			s2.736-13.455,7.596-18.309l43.625-43.625c12.969-13.049,30.619-20.371,49.017-20.333l20.408-0.017l151.104-151.1
			c1.6-1.601,3.77-2.5,6.033-2.5s4.433,0.899,6.033,2.5l24.542,24.542c1.601,1.6,2.5,3.77,2.5,6.033c0,2.263-0.899,4.433-2.5,6.033
			l-151.104,151.1l-0.012,20.417c0.033,18.397-7.286,36.044-20.33,49.017L93.307,504.41
			C88.45,509.273,81.856,512.002,74.982,511.994z M100.27,371.827c-13.857,0.048-27.137,5.558-36.958,15.334l-43.625,43.625
			c-1.659,1.654-2.593,3.9-2.596,6.242c-0.003,2.343,0.925,4.591,2.579,6.249l49.079,49.084c3.457,3.437,9.044,3.429,12.492-0.017
			l43.629-43.625c9.835-9.785,15.354-23.093,15.329-36.966l0.017-23.942c0.001-2.26,0.901-4.428,2.5-6.025l147.567-147.567
			l-12.475-12.475L130.241,369.311c-1.598,1.6-3.767,2.5-6.029,2.5l-23.942,0.017L100.27,371.827z"/>
		<path d="M75.024,470.077c-2.264,0.003-4.435-0.897-6.033-2.5l-24.542-24.542c-1.601-1.6-2.5-3.77-2.5-6.033s0.899-4.433,2.5-6.033
			l31.337-31.333c6.467-6.508,15.267-10.162,24.442-10.15h13.779c2.263-0.001,4.434,0.898,6.035,2.499
			c1.6,1.6,2.499,3.771,2.499,6.035v13.775c0.014,9.177-3.639,17.979-10.146,24.45l-31.337,31.334
			C79.459,469.18,77.288,470.08,75.024,470.077L75.024,470.077z M62.549,437.002l12.475,12.475l25.304-25.3
			c3.298-3.28,5.15-7.74,5.146-12.392v-5.233h-5.238c-4.649-0.001-9.106,1.852-12.383,5.15L62.549,437.002z"/>
		<path d="M357.499,283.502c-11.434,0.033-22.415-4.465-30.542-12.508l-85.9-85.9c-16.73-16.998-16.716-44.279,0.033-61.258
			L357.487,7.56c10.088-10.084,26.441-10.08,36.525,0.008c10.084,10.088,10.08,26.441-0.008,36.525l-110.45,110.45l18.579,18.583
			l110.45-110.45c10.22-9.767,26.314-9.767,36.533,0c10.105,10.093,10.129,26.461,0.054,36.583L338.716,209.71l18.579,18.575
			l110.45-110.45c10.15-10.049,26.512-10.011,36.615,0.085c10.103,10.096,10.152,26.458,0.11,36.615L388.216,270.902
			C380.044,278.996,369.001,283.526,357.499,283.502z M375.737,17.077c-2.319-0.005-4.545,0.912-6.188,2.55l-116.367,116.25
			c-10.154,10.307-10.167,26.852-0.029,37.175l85.842,85.85c10.338,10.125,26.887,10.084,37.175-0.092l116.225-116.333
			c3.383-3.49,3.339-9.049-0.099-12.485c-3.438-3.436-8.997-3.476-12.485-0.09L363.328,246.385c-1.6,1.601-3.77,2.5-6.033,2.5
			c-2.263,0-4.433-0.899-6.033-2.5l-30.646-30.642c-1.601-1.6-2.5-3.77-2.5-6.033s0.899-4.433,2.5-6.033L437.099,87.194
			c3.418-3.428,3.416-8.975-0.004-12.4c-3.449-3.385-8.966-3.407-12.442-0.05L308.166,191.227c-1.6,1.6-3.77,2.5-6.033,2.5l0,0
			c-2.263-0.001-4.433-0.9-6.033-2.5l-30.646-30.65c-1.601-1.6-2.5-3.77-2.5-6.033c0-2.263,0.899-4.433,2.5-6.033L381.937,32.027
			c2.507-2.505,3.257-6.275,1.899-9.548C382.478,19.205,379.281,17.072,375.737,17.077L375.737,17.077z"/>
	</g>
</g>
<g>
</g>
<g>
</g>
<g>
</g>
<g>
</g>
<g>
</g>
<g>
</g>
<g>
</g>
<g>
</g>
<g>
</g>
<g>
</g>
<g>
</g>
<g>
</g>
<g>
</g>
<g>
</g>
<g>
</g>
</svg>
