<?xml version="1.0" encoding="iso-8859-1"?>
<!-- Generator: Adobe Illustrator 19.0.0, SVG Export Plug-In . SVG Version: 6.00 Build 0)  -->
<svg version="1.1" id="Capa_1" xmlns="http://www.w3.org/2000/svg" xmlns:xlink="http://www.w3.org/1999/xlink" x="0px" y="0px"
	 viewBox="0 0 511.946 511.946" style="enable-background:new 0 0 511.946 511.946;" xml:space="preserve">
<g>
	<g transform="translate(1 3)">
		<path style="fill:#FF9801;" d="M197.985,155.809l-38.4,22.357l-15.019,8.789l-56.32,32.853c-5.58,3.26-10.133,8.02-13.141,13.739
			L29.622,343.457c-20.016,48.302-4.461,104.029,37.678,134.981s99.967,29.127,140.071-4.421c2.56-2.133,5.12-4.437,7.509-6.827
			l4.779-4.864h0.085l17.067-17.067l13.312-13.397l93.184-93.184L197.985,155.809z M140.299,306.679l-34.475,80.384
			c-4.469,10.462-15.679,16.338-26.825,14.064c-11.147-2.275-19.157-12.074-19.169-23.45c-0.025-3.261,0.644-6.49,1.963-9.472
			l34.389-80.384c3.349-7.912,10.672-13.429,19.201-14.464c8.529-1.036,16.96,2.568,22.104,9.449
			C142.632,289.685,143.705,298.791,140.299,306.679L140.299,306.679z"/>
		<g>
			<circle style="fill:#CFD8DC;" cx="213.667" cy="364.777" r="38.75"/>
			<path style="fill:#CFD8DC;" d="M488.971,174.668c0.005,8.86-0.91,17.697-2.731,26.368c-1.105,5.62-2.617,11.153-4.523,16.555
				c-5.573,15.828-14.149,30.431-25.259,43.008c-3.781,4.236-7.828,8.227-12.117,11.947c-23.515,20.529-53.691,31.811-84.907,31.744
				c-3.755,0-7.424-0.171-11.093-0.512c-66.892-5.744-118.307-61.651-118.44-128.79c-0.133-67.139,51.059-123.249,117.928-129.258
				c3.854-0.414,7.729-0.613,11.605-0.597c8.77,0.009,17.518,0.895,26.112,2.645c5.497,1.116,10.914,2.599,16.213,4.437
				c16.273,5.597,31.249,14.42,44.032,25.941c4.228,3.731,8.191,7.751,11.861,12.032c11.163,12.93,19.634,27.958,24.917,44.203
				c1.793,5.38,3.191,10.885,4.181,16.469C488.23,158.71,488.973,166.68,488.971,174.668L488.971,174.668z"/>
		</g>
		<path style="fill:#F5F5F5;" d="M463.713,174.668c0.005,8.86-0.91,17.697-2.731,26.368c-1.036,5.628-2.52,11.163-4.437,16.555
			c-5.425,15.786-13.825,30.385-24.747,43.008c-3.744,4.214-7.733,8.203-11.947,11.947c-19.897,17.768-44.953,28.711-71.509,31.232
			c-66.892-5.744-118.307-61.651-118.44-128.79c-0.133-67.139,51.059-123.249,117.928-129.258c4.789,0.377,9.549,1.061,14.251,2.048
			c5.413,1.116,10.745,2.599,15.957,4.437c16.039,5.607,30.762,14.435,43.264,25.941c4.145,3.735,8.023,7.755,11.605,12.032
			c11.002,12.973,19.325,27.996,24.491,44.203c1.805,5.371,3.175,10.879,4.096,16.469
			C462.971,158.71,463.714,166.68,463.713,174.668z"/>
		<path style="fill:#607D8B;" d="M359.436,219.439c-24.703,0-44.729-20.026-44.729-44.729s20.026-44.728,44.729-44.728
			c3.045,0.006,6.081,0.315,9.064,0.924c1.888,0.383,3.749,0.892,5.569,1.523c5.602,1.923,10.755,4.962,15.148,8.933
			c1.477,1.301,2.862,2.703,4.143,4.196c3.847,4.449,6.762,9.624,8.572,15.219c0.616,1.836,1.093,3.715,1.429,5.622
			c0.518,2.733,0.78,5.509,0.781,8.291c0,3.048-0.315,6.089-0.941,9.072c-0.377,1.963-0.901,3.895-1.566,5.78
			c-1.923,5.464-4.887,10.503-8.728,14.838c-1.284,1.436-2.658,2.79-4.112,4.053C380.663,215.534,370.231,219.444,359.436,219.439
			L359.436,219.439z"/>
		<path style="fill:#37474F;" d="M411.574,331.34c-6.508,2.164-13.149,3.903-19.883,5.205
			c-69.912,13.875-140.763-19.1-175.163-81.524s-24.436-139.935,24.635-191.628c11.513-12.163,24.841-22.468,39.509-30.549
			c5.157-2.885,10.486-5.45,15.957-7.68c4.491-1.797,9.536-1.595,13.869,0.555s7.545,6.045,8.83,10.709l4.523,15.531l36.011,124.075
			l54.613,117.077l6.827,14.763c2.07,4.374,2.194,9.42,0.341,13.891C419.79,326.235,416.132,329.713,411.574,331.34L411.574,331.34z
			"/>
		<path style="fill:#607D8B;" d="M391.692,336.545c-69.912,13.875-140.763-19.1-175.163-81.524s-24.436-139.935,24.635-191.628
			c11.513-12.163,24.841-22.468,39.509-30.549c6.262,1.306,11.287,5.97,13.056,12.117l4.523,15.531l36.011,124.075l54.613,117.077
			l6.827,14.763C398.943,323.271,397.315,331.447,391.692,336.545z"/>
		<path style="fill:#FEC108;" d="M194.913,483.063c-27.989,17.627-62.28,22.154-93.885,12.395
			c-31.605-9.759-57.374-32.83-70.553-63.169C90.136,423.596,150.539,442.247,194.913,483.063L194.913,483.063z"/>
	</g>
	<g>
		<path d="M415.479,304.683c-3.999,0.002-7.464-2.774-8.334-6.678c-0.87-3.904,1.087-7.888,4.709-9.585
			c57.132-26.641,84.126-92.773,61.956-151.784c-22.17-59.011-86.031-91.009-146.572-73.441c-2.938,0.879-6.121,0.114-8.338-2.004
			c-2.218-2.117-3.129-5.262-2.387-8.237c0.742-2.975,3.023-5.323,5.975-6.151c69.081-19.99,141.914,16.536,167.21,83.855
			s-5.46,142.77-70.611,173.22C417.958,304.409,416.726,304.683,415.479,304.683z"/>
		<path d="M379.063,226.612c-3.995,0.003-7.458-2.765-8.333-6.663c-0.876-3.898,1.07-7.881,4.683-9.587
			c3.657-1.713,6.989-4.046,9.85-6.896c11.148-11.143,13.333-28.421,5.31-41.989c-8.023-13.567-24.217-19.978-39.352-15.578
			c-2.93,0.846-6.088,0.064-8.285-2.05c-2.197-2.114-3.099-5.24-2.367-8.2c0.733-2.96,2.988-5.304,5.918-6.15
			c25.875-7.487,53.156,6.19,62.637,31.403s-2.03,53.477-26.429,64.893C381.56,226.333,380.319,226.612,379.063,226.612
			L379.063,226.612z"/>
		<path d="M452.196,278.925c-2.264,0.003-4.435-0.897-6.033-2.5l-18.267-18.27c-3.332-3.332-3.332-8.735,0-12.067
			c3.332-3.332,8.735-3.332,12.067,0l18.267,18.27c2.44,2.44,3.169,6.11,1.849,9.298
			C458.758,276.845,455.647,278.924,452.196,278.925L452.196,278.925z"/>
		<path d="M387.604,87.762c-2.653-0.004-5.153-1.239-6.769-3.343c-1.615-2.104-2.163-4.839-1.481-7.403l6.692-24.958
			c0.789-2.944,3.089-5.244,6.033-6.033c2.944-0.789,6.086,0.053,8.242,2.208c2.155,2.155,2.997,5.297,2.208,8.242l-6.692,24.958
			C394.839,85.161,391.464,87.756,387.604,87.762z"/>
		<path d="M433.929,114.504c-3.451-0.001-6.562-2.08-7.882-5.268c-1.32-3.188-0.591-6.858,1.849-9.298l18.267-18.267
			c3.332-3.332,8.735-3.332,12.067,0c3.332,3.332,3.332,8.735,0,12.067l-18.267,18.266
			C438.364,113.607,436.193,114.507,433.929,114.504L433.929,114.504z"/>
		<path d="M460.663,160.837c-4.281-0.006-7.895-3.182-8.451-7.426s2.117-8.244,6.251-9.353l24.958-6.687
			c4.552-1.22,9.23,1.482,10.45,6.033c1.22,4.552-1.482,9.23-6.033,10.45l-24.958,6.687
			C462.157,160.737,461.411,160.837,460.663,160.837z"/>
		<path d="M485.638,221.017c-0.749,0-1.494-0.1-2.217-0.296l-24.958-6.688c-4.552-1.22-7.253-5.898-6.033-10.45
			c1.22-4.552,5.898-7.253,10.45-6.033l24.958,6.687c4.134,1.109,6.808,5.109,6.251,9.353
			C493.532,217.835,489.918,221.011,485.638,221.017L485.638,221.017z"/>
		<path d="M360.654,351.267c-68.785-0.112-130.908-41.143-158.01-104.364S188.657,110.397,236.004,60.5l0,0
			c16.411-17.365,36.296-31.079,58.358-40.25c6.582-2.71,14.005-2.492,20.417,0.6c6.663,3.195,11.654,9.073,13.725,16.167
			l40.358,139.021l61.183,131.191c3.133,6.722,3.242,14.463,0.3,21.271c-2.82,6.583-8.317,11.648-15.108,13.921
			C397.633,348.27,379.205,351.256,360.654,351.267z M248.371,72.258c-48.994,51.623-56.571,129.964-18.38,190.02
			s112.351,86.418,179.88,63.942c2.172-0.734,3.924-2.368,4.808-4.483c1.01-2.336,0.973-4.992-0.1-7.3l-61.458-131.783
			c-0.185-0.397-0.338-0.808-0.458-1.229L312.121,41.796c-0.708-2.439-2.424-4.46-4.717-5.554c-2.029-1.011-4.395-1.096-6.492-0.233
			C281.047,44.268,263.144,56.619,248.371,72.258L248.371,72.258z"/>
		<path d="M293.863,96.242c-3.532-0.004-6.697-2.179-7.967-5.475L255.446,11.6c-1.691-4.4,0.504-9.338,4.904-11.029
			c4.4-1.691,9.338,0.504,11.029,4.904l30.45,79.167c1.004,2.625,0.654,5.575-0.937,7.892
			C299.301,94.85,296.673,96.236,293.863,96.242L293.863,96.242z"/>
		<path d="M135.538,511.946c-40.773,0.031-78.867-20.304-101.531-54.198S7.106,380.88,22.713,343.212l45.508-109.942
			c3.757-7.436,9.567-13.64,16.742-17.875l109.725-63.942c4.073-2.375,9.3-0.998,11.675,3.075c2.375,4.073,0.998,9.3-3.075,11.675
			L93.554,230.146c-4.209,2.473-7.643,6.072-9.917,10.392l-45.158,109.2c-19.158,46.296-2.95,99.678,38.713,127.507
			c41.664,27.829,97.183,22.358,132.612-13.07l128.508-128.508c2.156-2.156,5.297-2.997,8.242-2.208
			c2.944,0.789,5.244,3.089,6.033,6.033c0.789,2.944-0.053,6.086-2.208,8.242L221.871,476.242
			C198.989,499.155,167.919,512.004,135.538,511.946L135.538,511.946z"/>
		<path d="M84.804,413.137c-10.929-0.006-21.125-5.5-27.139-14.626c-6.014-9.126-7.042-20.662-2.737-30.707l34.45-80.387
			c7.117-16.439,26.187-24.027,42.653-16.972c16.465,7.055,24.125,26.098,17.131,42.589l-34.458,80.391
			C109.573,405.381,97.815,413.133,84.804,413.137L84.804,413.137z M119.362,284.762c-1.013,0-2.023,0.098-3.017,0.292
			c-5.054,0.931-9.297,4.348-11.283,9.087l-34.45,80.388c-3.361,7.845,0.274,16.929,8.119,20.29
			c7.845,3.361,16.929-0.274,20.29-8.119l34.458-80.387c2.505-5.807,1.202-12.555-3.283-17.013
			C127.339,286.397,123.436,284.762,119.362,284.762L119.362,284.762z"/>
		<path d="M214.696,415.092c-12.541,0.023-24.573-4.954-33.434-13.829l0,0c-15.99-15.956-18.479-40.987-5.944-59.779
			c12.535-18.792,36.601-26.109,57.476-17.475c20.874,8.634,32.739,30.814,28.337,52.97
			C256.729,399.135,237.285,415.093,214.696,415.092L214.696,415.092z M193.329,389.196c8.644,8.644,21.643,11.229,32.937,6.552
			c11.294-4.678,18.657-15.698,18.657-27.922c0-12.224-7.364-23.244-18.657-27.922c-11.294-4.678-24.293-2.092-32.937,6.552
			C181.546,358.265,181.546,377.385,193.329,389.196L193.329,389.196z"/>
		<path d="M239.054,497.683c-6.462,0.018-12.661-2.551-17.217-7.133l-13.175-13.171c-3.332-3.332-3.332-8.735,0-12.067
			c3.332-3.332,8.735-3.332,12.067,0l13.175,13.171c2.888,2.746,7.421,2.746,10.308,0c1.985-1.998,2.649-4.958,1.708-7.613
			L127.504,139.292c-1.026-2.87-0.442-6.069,1.53-8.392c1.973-2.323,5.035-3.418,8.033-2.871c2.998,0.547,5.477,2.652,6.503,5.522
			l118.425,331.587c3.134,8.866,0.912,18.743-5.717,25.412C251.722,495.134,245.519,497.703,239.054,497.683L239.054,497.683z"/>
		<path d="M195.913,494.596c-2.264,0.003-4.435-0.897-6.033-2.5c-42.556-38.756-100.193-56.491-157.175-48.363
			c-4.665,0.677-8.994-2.556-9.671-7.221c-0.677-4.665,2.556-8.994,7.221-9.671c62.338-9.258,125.505,10.31,171.692,53.188
			c2.442,2.44,3.173,6.111,1.852,9.3C202.477,492.518,199.365,494.597,195.913,494.596L195.913,494.596z"/>
	</g>
</g>
<g>
</g>
<g>
</g>
<g>
</g>
<g>
</g>
<g>
</g>
<g>
</g>
<g>
</g>
<g>
</g>
<g>
</g>
<g>
</g>
<g>
</g>
<g>
</g>
<g>
</g>
<g>
</g>
<g>
</g>
</svg>
