<?xml version="1.0" encoding="iso-8859-1"?>
<!-- Generator: Adobe Illustrator 19.0.0, SVG Export Plug-In . SVG Version: 6.00 Build 0)  -->
<svg version="1.1" id="Capa_1" xmlns="http://www.w3.org/2000/svg" xmlns:xlink="http://www.w3.org/1999/xlink" x="0px" y="0px"
	 viewBox="0 0 512 512" style="enable-background:new 0 0 512 512;" xml:space="preserve">
<g>
	<g transform="translate(0 1)">
		<rect x="435.2" y="84.333" style="fill:#607D8B;" width="34.133" height="57.771"/>
		<g>
			<path style="fill:#CFD8DC;" d="M443.733,33.133H460.8c9.426,0,17.067,7.641,17.067,17.067v25.6h-51.2V50.2
				C426.667,40.774,434.308,33.133,443.733,33.133z"/>
			<path style="fill:#CFD8DC;" d="M68.267,33.133H51.2c-9.426,0-17.067,7.641-17.067,17.067v25.6h51.2V50.2
				C85.333,40.774,77.692,33.133,68.267,33.133z"/>
		</g>
		<rect x="42.667" y="96.067" style="fill:#607D8B;" width="34.133" height="46.037"/>
		<rect x="137.131" y="161.133" style="fill:#795548;" width="238.319" height="34.133"/>
		<g>
			<circle style="fill:#CFD8DC;" cx="59.733" cy="161.133" r="25.6"/>
			<circle style="fill:#CFD8DC;" cx="452.267" cy="161.133" r="25.6"/>
		</g>
		<g>
			<path style="fill:#795548;" d="M153.6,84.333v110.933L71.765,465.261c-2.067,6.895-8.418,11.614-15.616,11.605h-0.085
				c-5.152,0.007-10.001-2.434-13.065-6.575c-3.064-4.142-3.979-9.492-2.466-14.417l78.933-260.608V84.333H153.6z"/>
			<path style="fill:#795548;" d="M455.936,476.867h-0.085c-7.198,0.009-13.548-4.71-15.616-11.605L358.4,195.267V84.333h34.133
				v110.933l78.933,260.608c1.513,4.925,0.598,10.275-2.466,14.417C465.937,474.433,461.088,476.873,455.936,476.867z"/>
		</g>
		<path style="fill:#FDD834;" d="M17.067,67.267h477.867c4.713,0,8.533,3.821,8.533,8.533v17.067c0,4.713-3.821,8.533-8.533,8.533
			H17.067c-4.713,0-8.533-3.821-8.533-8.533V75.8C8.533,71.087,12.354,67.267,17.067,67.267z"/>
		<path style="fill:#FFEB3A;" d="M8.533,67.267h460.8c4.713,0,8.533,3.821,8.533,8.533v17.067c0,4.713-3.821,8.533-8.533,8.533
			H8.533C3.821,101.4,0,97.579,0,92.867V75.8C0,71.087,3.821,67.267,8.533,67.267z"/>
	</g>
	<g>
		<path d="M494.933,110.933H17.067C7.645,110.924,0.009,103.288,0,93.867V76.8c0.009-9.422,7.645-17.057,17.067-17.067h477.867
			c9.421,0.011,17.056,7.645,17.067,17.067v17.067C511.989,103.288,504.355,110.922,494.933,110.933L494.933,110.933z M17.067,76.8
			v17.067h477.875L494.933,76.8H17.067z"/>
		<path d="M76.8,151.637c-4.713,0-8.533-3.821-8.533-8.533v-32.171H51.2v32.171c0,4.713-3.821,8.533-8.533,8.533
			s-8.533-3.821-8.533-8.533V102.4c0-4.713,3.821-8.533,8.533-8.533H76.8c4.713,0,8.533,3.82,8.533,8.533v40.704
			C85.333,147.817,81.513,151.637,76.8,151.637z"/>
		<path d="M59.733,196.267c-18.851,0-34.133-15.282-34.133-34.133S40.882,128,59.733,128s34.133,15.282,34.133,34.133
			C93.845,180.976,78.576,196.245,59.733,196.267z M59.733,145.067c-9.426,0-17.067,7.641-17.067,17.067
			c0,9.426,7.641,17.067,17.067,17.067S76.8,171.559,76.8,162.133C76.791,152.711,69.155,145.076,59.733,145.067L59.733,145.067z"/>
		<path d="M17.067,213.333c-3.451-0.001-6.562-2.08-7.882-5.268c-1.32-3.188-0.591-6.858,1.849-9.298l24.575-24.575
			c2.155-2.155,5.297-2.997,8.242-2.208s5.244,3.089,6.033,6.033c0.789,2.944-0.053,6.086-2.208,8.242L23.1,210.833
			C21.502,212.436,19.33,213.336,17.067,213.333z"/>
		<path d="M469.333,151.637c-2.263,0.001-4.434-0.898-6.035-2.499s-2.499-3.771-2.499-6.035v-32.171h-17.067v32.171
			c0,4.713-3.821,8.533-8.533,8.533s-8.533-3.821-8.533-8.533V102.4c-0.001-2.263,0.898-4.434,2.499-6.035
			c1.6-1.6,3.771-2.499,6.035-2.499h34.133c2.263-0.001,4.434,0.898,6.035,2.499s2.499,3.771,2.499,6.035v40.704
			c0.001,2.263-0.898,4.434-2.499,6.035S471.597,151.638,469.333,151.637L469.333,151.637z"/>
		<path d="M452.267,196.267c-18.851,0-34.133-15.282-34.133-34.133S433.415,128,452.267,128c18.851,0,34.133,15.282,34.133,34.133
			C486.38,180.976,471.11,196.246,452.267,196.267L452.267,196.267z M452.267,145.067c-9.426,0-17.067,7.641-17.067,17.067
			c0,9.426,7.641,17.067,17.067,17.067s17.067-7.641,17.067-17.067C469.323,152.712,461.688,145.077,452.267,145.067z"/>
		<path d="M494.933,213.333c-2.264,0.003-4.435-0.897-6.033-2.5l-24.575-24.575c-2.155-2.156-2.997-5.297-2.208-8.242
			c0.789-2.944,3.089-5.244,6.033-6.033c2.944-0.789,6.086,0.053,8.242,2.208l24.574,24.576c2.44,2.44,3.169,6.11,1.849,9.298
			C501.495,211.253,498.384,213.333,494.933,213.333z"/>
		<path d="M85.333,76.8h-51.2c-4.713,0-8.533-3.821-8.533-8.533V51.2c0.015-14.132,11.468-25.585,25.6-25.6h17.067
			c14.132,0.015,25.585,11.468,25.6,25.6v17.067C93.867,72.979,90.046,76.8,85.333,76.8z M42.667,59.733H76.8V51.2
			c-0.006-4.71-3.823-8.527-8.533-8.533H51.2c-4.71,0.006-8.527,3.823-8.533,8.533V59.733z"/>
		<path d="M477.867,76.8h-51.2c-2.263,0.001-4.434-0.898-6.035-2.499c-1.6-1.6-2.499-3.771-2.499-6.035V51.2
			c0.015-14.132,11.468-25.585,25.6-25.6H460.8c14.132,0.015,25.585,11.468,25.6,25.6v17.067c0.001,2.263-0.898,4.434-2.499,6.035
			C482.301,75.902,480.13,76.8,477.867,76.8L477.867,76.8z M435.2,59.733h34.133V51.2c-0.005-4.711-3.822-8.529-8.533-8.533h-17.067
			c-4.711,0.005-8.529,3.822-8.533,8.533V59.733z"/>
		<path d="M153.6,204.8h-34.133c-4.713,0-8.533-3.821-8.533-8.533V102.4c0-4.713,3.821-8.533,8.533-8.533H153.6
			c4.713,0,8.533,3.82,8.533,8.533v93.867C162.133,200.979,158.313,204.8,153.6,204.8z M128,187.733h17.067v-76.8H128V187.733z"/>
		<path d="M56.175,486.4h-0.071c-7.862,0.001-15.26-3.722-19.944-10.036c-4.685-6.314-6.102-14.473-3.822-21.997L111.3,193.792
			c1.092-3.597,4.407-6.057,8.166-6.059H153.6c2.702,0,5.244,1.279,6.853,3.449c1.61,2.17,2.097,4.973,1.313,7.559L79.941,468.77
			C76.808,479.268,67.131,486.447,56.175,486.4z M125.796,204.8L48.671,459.317c-0.713,2.353-0.269,4.905,1.196,6.879
			c1.465,1.974,3.779,3.138,6.237,3.138h0.071c3.426,0.014,6.452-2.23,7.433-5.513L142.096,204.8H125.796z"/>
		<path d="M392.533,204.8H358.4c-4.713,0-8.533-3.821-8.533-8.533V102.4c0-4.713,3.82-8.533,8.533-8.533h34.133
			c4.713,0,8.533,3.82,8.533,8.533v93.867C401.067,200.979,397.246,204.8,392.533,204.8z M366.933,187.733H384v-76.8h-17.067
			V187.733z"/>
		<path d="M455.9,486.4h-0.075c-10.956,0.046-20.632-7.132-23.767-17.629l-81.825-270.029c-0.783-2.585-0.296-5.389,1.313-7.559
			c1.61-2.17,4.152-3.449,6.853-3.449h34.133c3.759,0.002,7.075,2.462,8.166,6.059l78.959,260.575
			c2.282,7.523,0.866,15.682-3.817,21.996C471.158,482.677,463.761,486.4,455.9,486.4L455.9,486.4z M369.904,204.8l78.488,259.021
			c0.98,3.283,4.007,5.528,7.433,5.513h0.075c2.457,0,4.769-1.163,6.233-3.137c1.464-1.974,1.906-4.524,1.192-6.875L386.204,204.8
			H369.904z"/>
		<path d="M358.4,204.8H153.6c-4.713,0-8.533-3.821-8.533-8.533v-34.133c0-4.713,3.82-8.533,8.533-8.533h204.8
			c4.713,0,8.533,3.821,8.533,8.533v34.133C366.933,200.979,363.113,204.8,358.4,204.8z M162.133,187.733h187.733v-17.067H162.133
			V187.733z"/>
		<path d="M404.908,358.4H107.092c-4.713,0-8.533-3.82-8.533-8.533s3.821-8.533,8.533-8.533h297.817c4.713,0,8.533,3.82,8.533,8.533
			S409.621,358.4,404.908,358.4z"/>
		<path d="M430.767,443.733H81.237c-4.713,0-8.533-3.82-8.533-8.533s3.82-8.533,8.533-8.533h349.529
			c4.713,0,8.533,3.821,8.533,8.533S435.48,443.733,430.767,443.733z"/>
	</g>
</g>
<g>
</g>
<g>
</g>
<g>
</g>
<g>
</g>
<g>
</g>
<g>
</g>
<g>
</g>
<g>
</g>
<g>
</g>
<g>
</g>
<g>
</g>
<g>
</g>
<g>
</g>
<g>
</g>
<g>
</g>
</svg>
