<?xml version="1.0" encoding="iso-8859-1"?>
<!-- Generator: Adobe Illustrator 19.0.0, SVG Export Plug-In . SVG Version: 6.00 Build 0)  -->
<svg version="1.1" id="Capa_1" xmlns="http://www.w3.org/2000/svg" xmlns:xlink="http://www.w3.org/1999/xlink" x="0px" y="0px"
	 viewBox="0 0 509.235 509.235" style="enable-background:new 0 0 509.235 509.235;" xml:space="preserve">
<g>
	<g transform="translate(1 1)">
		<path style="fill:#4E342E;" d="M217.76,350.231l-18.176,18.176c-13.837,4.035-26.742,10.763-37.973,19.797
			c-22.784,16.64-53.163,47.019-83.541,101.717c-16.799,16.726-43.958,16.726-60.758,0c-1.645-1.649-3.13-3.449-4.437-5.376
			c-5.292-7.26-8.132-16.018-8.106-25.003c-0.025-11.391,4.489-22.323,12.544-30.379C126.624,368.407,138.827,307.65,138.827,307.65
			l18.176-18.176c1.478-1.473,3.461-2.327,5.547-2.389c2.462-0.218,4.895,0.655,6.656,2.389l48.555,48.555
			C221.088,341.416,221.088,346.844,217.76,350.231z"/>
		<path style="fill:#795548;" d="M198.56,335.298l-18.176,18.176c-13.837,4.035-26.742,10.763-37.973,19.797
			c-22.784,16.64-53.163,47.019-83.541,101.717c-8.055,8.055-18.987,12.569-30.379,12.544c-5.35,0.034-10.656-0.981-15.616-2.987
			c-5.293-7.26-8.132-16.018-8.107-25.003c-0.025-11.391,4.489-22.323,12.544-30.379C126.624,368.407,138.827,307.65,138.827,307.65
			l18.176-18.176c1.478-1.473,3.461-2.327,5.547-2.389l36.011,36.011C201.888,326.482,201.888,331.911,198.56,335.298
			L198.56,335.298z"/>
		<path style="fill:#FDD834;" d="M217.76,350.231l-18.176,18.176l-60.757-60.757l18.176-18.176c3.432-3.216,8.771-3.216,12.203,0
			l48.555,48.555C221.088,341.416,221.088,346.844,217.76,350.231z"/>
		<path style="fill:#FFEB3A;" d="M198.56,335.298l-16.043,16.043l-43.691-43.691l18.176-18.176c1.455-1.456,3.405-2.309,5.461-2.389
			l36.096,36.096C201.888,326.534,201.888,331.944,198.56,335.298z"/>
		
			<rect x="192.351" y="274.026" transform="matrix(-0.7071 0.7071 -0.7071 -0.7071 566.1071 365.1033)" style="fill:#CFD8DC;" width="30.174" height="51.542"/>
		<path style="fill:#37474F;" d="M499.616,25.794v126.805c0.578,9.692-3.026,19.168-9.899,26.027L345.846,318.231
			c-9.994,9.984-26.187,9.984-36.181,0l-17.067-17.067L189.003,197.57c-9.984-9.994-9.984-26.187,0-36.181L328.608,17.517
			c6.859-6.872,16.334-10.476,26.027-9.899H481.44c0.427,0,0.768-0.085,1.195-0.085c4.731-0.001,9.248,1.966,12.47,5.43
			C498.326,16.427,499.961,21.076,499.616,25.794L499.616,25.794z"/>
		<path style="fill:#607D8B;" d="M482.635,7.533c0,0.427-0.085,0.768-0.085,1.195v126.805c0.578,9.692-3.026,19.168-9.899,26.027
			L328.779,301.165c-9.994,9.984-26.187,9.984-36.181,0L189.003,197.57c-9.984-9.994-9.984-26.187,0-36.181L328.608,17.517
			c6.859-6.872,16.334-10.476,26.027-9.899H481.44C481.867,7.618,482.208,7.533,482.635,7.533z"/>
		<path style="fill:#CFD8DC;" d="M326.646,199.447l-9.728,36.011c-0.831,2.858-2.355,5.467-4.437,7.595l-38.571,38.656l0.085,0.085
			l-24.235,24.32c-3.387,3.328-8.816,3.328-12.203,0l-36.437-36.437c-3.328-3.387-3.328-8.816,0-12.203l24.32-24.235l0.171,0.171
			l38.571-38.656c2.127-2.082,4.736-3.607,7.595-4.437l36.011-9.728c5.152-0.555,10.278,1.253,13.941,4.917
			C325.392,189.17,327.2,194.295,326.646,199.447z"/>
	</g>
	<g>
		<path d="M244.289,318.216c-4.53,0.014-8.877-1.787-12.071-5l-36.2-36.2c-3.203-3.201-5.001-7.544-5-12.073
			c0.002-4.528,1.803-8.87,5.008-12.069l24.124-24.133c3.386-3.2,8.681-3.2,12.067,0l48.275,48.275c1.601,1.6,2.5,3.77,2.5,6.033
			c0,2.263-0.899,4.433-2.5,6.033l-24.137,24.133C253.163,316.427,248.818,318.228,244.289,318.216L244.289,318.216z
			 M226.185,246.841l-18.1,18.109l36.204,36.2h0.004l0.009,0.009l18.092-18.108L226.185,246.841z"/>
		<path d="M214.118,339.849c-2.264,0.003-4.435-0.897-6.033-2.5l-36.204-36.2c-1.601-1.6-2.5-3.77-2.5-6.033
			c0-2.263,0.899-4.433,2.5-6.033l24.137-24.133c1.6-1.601,3.77-2.5,6.033-2.5c2.263,0,4.433,0.899,6.033,2.5l36.204,36.2
			c1.601,1.6,2.5,3.77,2.5,6.033c0,2.263-0.899,4.433-2.5,6.033l-24.138,24.133C218.553,338.952,216.382,339.852,214.118,339.849z
			 M189.985,295.116l24.133,24.133l12.067-12.067l-24.133-24.133L189.985,295.116z"/>
		<path d="M202.052,376.058c-2.264,0.003-4.435-0.897-6.033-2.5l-60.342-60.342c-1.601-1.6-2.5-3.77-2.5-6.033
			s0.899-4.433,2.5-6.033l18.104-18.1c6.752-6.45,17.382-6.45,24.133,0l48.271,48.275c3.201,3.2,5,7.54,5,12.067
			c0,4.526-1.799,8.867-5,12.067l-18.101,18.1C206.487,375.16,204.316,376.06,202.052,376.058z M153.777,307.182l48.275,48.275
			l12.066-12.067l-48.271-48.275L153.777,307.182z"/>
		<path d="M51.202,509.233c-20.708,0.001-39.378-12.473-47.303-31.604c-7.925-19.132-3.545-41.153,11.098-55.796
			c0.561-0.56,1.196-1.039,1.887-1.425c103.034-57.242,116.346-114.383,116.471-114.958c0.649-3.061,2.919-5.524,5.917-6.42
			c2.999-0.896,6.247-0.083,8.47,2.12l60.342,60.342c2.219,2.219,3.041,5.476,2.141,8.482c-0.9,3.006-3.377,5.276-6.45,5.91
			c-0.975,0.217-57.912,13.8-114.946,116.458c-0.383,0.695-0.863,1.331-1.425,1.892C77.826,503.868,64.789,509.27,51.202,509.233z
			 M26.281,434.708c-12.581,13.442-12.234,34.439,0.783,47.458c13.19,12.616,33.868,12.958,47.467,0.783
			c44.796-80.158,89.892-108.983,111.971-118.9l-41.313-41.317C135.272,344.816,106.443,389.908,26.281,434.708z"/>
		<path d="M328.764,335.282c-9.059,0.025-17.751-3.576-24.137-10L183.947,204.608c-13.304-13.342-13.304-34.933,0-48.275
			L323.443,12.591c8.596-8.659,20.493-13.217,32.675-12.517l126.3-0.033c7.211-0.401,14.246,2.316,19.317,7.458
			c5.256,5.246,7.969,12.519,7.433,19.925l0.008,126.175c0.58,11.978-3.941,23.641-12.442,32.1L352.806,325.374
			C346.433,331.749,337.778,335.316,328.764,335.282L328.764,335.282z M354.056,17.083c-6.905-0.075-13.552,2.62-18.454,7.484
			L196.106,168.308c-3.227,3.2-5.05,7.552-5.068,12.098c-0.017,4.545,1.773,8.911,4.976,12.136l120.679,120.675l0,0
			c6.753,6.45,17.384,6.45,24.137,0L484.76,173.541c5.102-5.149,7.78-12.221,7.367-19.458V26.816
			c0.346-2.559-0.477-5.139-2.241-7.025s-4.282-2.881-6.859-2.708l-127.392,0.041C355.106,17.099,354.581,17.083,354.056,17.083z"/>
		<path d="M274.46,291.583c-2.263-0.001-4.433-0.9-6.033-2.5l-48.276-48.275c-1.601-1.6-2.5-3.77-2.5-6.033
			c0-2.263,0.899-4.433,2.5-6.033l39.021-39.017c3.165-3.163,7.102-5.444,11.421-6.617l35.954-9.733
			c0.422-0.117,0.852-0.201,1.288-0.25c7.729-0.858,15.43,1.845,20.928,7.345c5.498,5.5,8.198,13.201,7.339,20.93
			c-0.048,0.436-0.128,0.868-0.242,1.292l-9.738,35.958c-1.17,4.314-3.448,8.247-6.608,11.408l-39.021,39.025
			C278.893,290.683,276.723,291.582,274.46,291.583z M238.252,234.774l36.208,36.208l32.987-32.992l0,0
			c1.052-1.053,1.81-2.363,2.2-3.8l9.538-35.225c0.114-2.4-0.791-4.736-2.492-6.433c-1.678-1.726-4.027-2.633-6.429-2.483
			l-35.221,9.533c-1.439,0.393-2.75,1.154-3.804,2.208L238.252,234.774z"/>
	</g>
</g>
<g>
</g>
<g>
</g>
<g>
</g>
<g>
</g>
<g>
</g>
<g>
</g>
<g>
</g>
<g>
</g>
<g>
</g>
<g>
</g>
<g>
</g>
<g>
</g>
<g>
</g>
<g>
</g>
<g>
</g>
</svg>
