<?xml version="1.0" encoding="iso-8859-1"?>
<!-- Generator: Adobe Illustrator 19.0.0, SVG Export Plug-In . SVG Version: 6.00 Build 0)  -->
<svg version="1.1" id="Capa_1" xmlns="http://www.w3.org/2000/svg" xmlns:xlink="http://www.w3.org/1999/xlink" x="0px" y="0px"
	 viewBox="0 0 512.017 512.017" style="enable-background:new 0 0 512.017 512.017;" xml:space="preserve">
<g transform="translate(0 -1)">
	<g transform="translate(1 2)">
		<path style="fill:#D84315;" d="M145.886,452.563l-44.8,44.885c-3.732,3.712-8.949,5.525-14.179,4.927
			c-5.229-0.598-9.903-3.541-12.701-7.999l-5.717-9.045l-36.693-58.709c-4.265-6.844-3.239-15.727,2.475-21.419l31.232-31.232
			l0.853-0.939L145.886,452.563z"/>
		<path style="fill:#FF5722;" d="M127.028,435.497l-44.8,44.885c-3.61,3.62-8.65,5.435-13.739,4.949l-36.693-58.709
			c-4.265-6.844-3.239-15.727,2.475-21.419l31.232-31.232L127.028,435.497z"/>
		<path style="fill:#607D8B;" d="M445.809,120.583L234.572,331.82l-73.409-73.409L372.4,47.173
			c19.995-19.995,52.413-19.995,72.408,0l1.002,1.002C465.804,68.17,465.804,100.588,445.809,120.583L445.809,120.583z"/>
		<g>
			<path style="fill:#CFD8DC;" d="M429.3,95.414L208.988,315.726l-54.259-54.259L375.041,41.155
				c14.983-14.983,39.275-14.983,54.258,0l0,0C444.282,56.139,444.282,80.431,429.3,95.414L429.3,95.414z"/>
			<path style="fill:#CFD8DC;" d="M419.673,93.194c4.573-4.329,6.435-10.8,4.86-16.897s-6.335-10.859-12.433-12.433
				c-6.097-1.574-12.568,0.287-16.897,4.86L211.681,252.247l24.47,24.47L419.673,93.194z"/>
		</g>
		<path style="fill:#C52828;" d="M266.718,331.731L132.148,466.387l-18.603-18.688l-58.88-58.88
			c-4.943-4.917-6.426-12.333-3.755-18.773l37.035-90.112c0.857-2.067,2.102-3.95,3.669-5.547l22.187-22.101l24.491-24.491
			l12.203-12.288c5.184-5.074,12.971-6.4,19.541-3.328c1.846,0.785,3.526,1.915,4.949,3.328l91.733,91.819
			c3.237,3.236,5.056,7.625,5.056,12.203C271.774,324.106,269.956,328.495,266.718,331.731z"/>
		<path style="fill:#F44335;" d="M247.348,313.897L113.545,447.699l-58.88-58.88c-4.943-4.917-6.426-12.333-3.755-18.773
			l37.035-90.112c0.857-2.067,2.102-3.95,3.669-5.547l22.187-22.101l24.491-24.491l12.203-12.288
			c5.184-5.074,12.971-6.4,19.541-3.328l77.568,77.568C254.189,296.492,254.074,307.293,247.348,313.897L247.348,313.897z"/>
		<path style="fill:#CFD8DC;" d="M173.927,277.768l0.001-7.167c0.001-4.59-1.822-8.991-5.068-12.237l-91.762-91.762
			c-6.757-6.757-17.713-6.757-24.47,0l0,0c-6.757,6.757-6.757,17.713,0,24.47l86.692,86.693v0.004
			c0.002,9.555,7.748,17.3,17.303,17.3h0.001C166.179,295.069,173.926,287.323,173.927,277.768L173.927,277.768z"/>
		<path style="fill:#D84315;" d="M266.889,331.646l-30.72,30.72l-18.688-18.688c-3.616-3.598-6.36-7.977-8.021-12.8
			c-4.384-12.39-1.264-26.197,8.021-35.499l18.688-18.688l18.603,18.688l12.117,12.117
			C273.545,314.171,273.545,324.972,266.889,331.646L266.889,331.646z"/>
		<path style="fill:#FF5722;" d="M249.993,309.886l-30.72,30.805l-9.813-9.813c-4.384-12.39-1.264-26.197,8.021-35.499
			l18.688-18.688l18.603,18.688C255.647,300.705,253.862,306.123,249.993,309.886L249.993,309.886z"/>
	</g>
	<g>
		<path d="M261.619,311.721c-2.264,0.003-4.435-0.897-6.033-2.5l-73.409-73.408c-1.601-1.6-2.5-3.77-2.5-6.033
			c0-2.263,0.899-4.433,2.5-6.033L366.544,39.379c23.344-23.287,61.131-23.287,84.475,0l1.017,1.017
			c23.279,23.345,23.271,61.127-0.017,84.463L267.653,309.221C266.054,310.824,263.883,311.723,261.619,311.721z M200.278,229.779
			l61.342,61.342l178.333-178.329c16.633-16.675,16.633-43.667,0-60.342l-1.017-1.017c-16.675-16.624-43.657-16.618-60.325,0.012
			L200.278,229.779z"/>
		<path d="M237.153,287.25c-2.264,0.003-4.435-0.897-6.033-2.5l-24.475-24.471c-1.601-1.6-2.5-3.77-2.5-6.033s0.899-4.433,2.5-6.033
			L390.169,64.691c4.873-4.908,11.476-7.708,18.392-7.8c6.915-0.11,13.581,2.58,18.483,7.458
			c10.075,10.284,9.923,26.783-0.341,36.879L243.186,284.75C241.588,286.353,239.416,287.253,237.153,287.25z M224.744,254.246
			l12.408,12.404L414.636,89.162l0,0c3.603-3.43,3.756-9.128,0.341-12.746c-1.68-1.566-3.887-2.443-6.183-2.458
			c-2.468,0.039-4.823,1.044-6.558,2.8L224.744,254.246z"/>
		<path d="M133.153,476.892c-2.264,0.003-4.435-0.897-6.033-2.5l-77.508-77.508c-7.357-7.365-9.563-18.431-5.592-28.054
			l37.075-90.179c1.275-3.104,3.156-5.923,5.533-8.292l22.142-22.146c3.332-3.332,8.735-3.332,12.067,0
			c3.332,3.332,3.332,8.735,0,12.067l-22.15,22.154c-0.782,0.777-1.4,1.704-1.817,2.725l-37.058,90.154
			c-1.321,3.258-0.588,6.988,1.867,9.504l71.475,71.475l128.549-128.55c3.4-3.434,3.4-8.966,0-12.4l-91.758-91.767
			c-3.481-3.283-8.919-3.283-12.4,0l-12.242,12.237c-2.156,2.156-5.297,2.997-8.242,2.208c-2.944-0.789-5.244-3.089-6.033-6.033
			c-0.789-2.944,0.053-6.086,2.208-8.242l12.242-12.237c10.235-9.726,26.296-9.728,36.533-0.004l91.758,91.767
			c10.067,10.101,10.067,26.441,0,36.542L139.186,474.392C137.588,475.995,135.416,476.894,133.153,476.892L133.153,476.892z"/>
		<path d="M108.686,379.012c-3.451-0.001-6.562-2.08-7.882-5.268s-0.591-6.858,1.849-9.298l24.467-24.471
			c3.332-3.332,8.735-3.332,12.067,0c3.332,3.332,3.332,8.735,0,12.067l-24.467,24.471
			C113.121,378.116,110.95,379.015,108.686,379.012z"/>
		<path d="M145.386,415.717c-3.451-0.001-6.562-2.08-7.882-5.268c-1.32-3.188-0.591-6.858,1.849-9.298l24.475-24.471
			c3.338-3.296,8.711-3.28,12.029,0.038c3.317,3.317,3.334,8.69,0.038,12.029l-24.475,24.471
			C149.821,414.82,147.65,415.719,145.386,415.717L145.386,415.717z"/>
		<path d="M114.803,409.6c-3.451-0.001-6.562-2.08-7.882-5.268c-1.32-3.188-0.591-6.858,1.849-9.298l48.942-48.942
			c3.332-3.332,8.735-3.332,12.067,0c3.332,3.332,3.332,8.735,0,12.067L120.836,407.1
			C119.238,408.703,117.066,409.603,114.803,409.6L114.803,409.6z"/>
		<path d="M157.628,305.604c-12.789-0.015-23.65-9.37-25.558-22.017l-84.475-84.483c-10.089-10.09-10.089-26.448,0-36.538
			c10.227-9.76,26.32-9.756,36.542,0.009l91.758,91.758c4.828,4.856,7.547,11.419,7.567,18.267v7.166
			C183.445,294.028,171.889,305.585,157.628,305.604z M65.861,172.071c-3.545-0.001-6.742,2.135-8.099,5.41
			c-1.357,3.275-0.608,7.046,1.899,9.553l86.692,86.7c1.6,1.6,2.5,3.77,2.5,6.033c0,4.844,3.927,8.771,8.771,8.771
			c4.844,0,8.771-3.927,8.771-8.771V272.6c-0.006-2.324-0.928-4.552-2.567-6.2l-91.767-91.762
			C70.42,172.988,68.188,172.063,65.861,172.071z"/>
		<path d="M89.903,513.017c-0.988,0-1.976-0.055-2.958-0.167c-7.831-0.869-14.831-5.283-18.991-11.975l-42.35-67.767
			c-6.424-10.192-4.91-23.477,3.642-31.963l18.35-18.35c3.386-3.2,8.681-3.2,12.067,0l79.525,79.529c1.601,1.6,2.5,3.77,2.5,6.033
			s-0.899,4.433-2.5,6.033l-31.058,31.054C103.304,510.297,96.744,513.023,89.903,513.017z M53.627,400.9l-12.317,12.317
			c-2.906,2.879-3.419,7.392-1.233,10.85l42.342,67.762c1.418,2.265,3.792,3.76,6.447,4.062c2.656,0.302,5.304-0.623,7.194-2.512
			l0,0l25.025-25.021L53.627,400.9z"/>
		<path d="M212.678,213.842c-2.264,0.003-4.435-0.897-6.033-2.5l-12.234-12.237c-2.156-2.155-2.997-5.297-2.208-8.242
			c0.789-2.944,3.089-5.244,6.033-6.033c2.944-0.789,6.086,0.053,8.242,2.208l12.234,12.237c2.44,2.44,3.169,6.11,1.849,9.298
			C219.24,211.761,216.129,213.841,212.678,213.842L212.678,213.842z"/>
		<path d="M237.153,189.371c-2.264,0.003-4.435-0.897-6.033-2.5l-12.233-12.233c-3.332-3.332-3.332-8.735,0-12.067
			c3.332-3.332,8.735-3.332,12.067,0l12.233,12.233c2.44,2.44,3.169,6.11,1.849,9.298
			C243.715,187.29,240.604,189.369,237.153,189.371L237.153,189.371z"/>
		<path d="M261.619,164.9c-2.264,0.003-4.435-0.897-6.033-2.5l-12.233-12.233c-3.332-3.332-3.332-8.735,0-12.067
			c3.332-3.332,8.735-3.332,12.067,0l12.233,12.233c2.44,2.44,3.169,6.11,1.849,9.298C268.181,162.819,265.07,164.898,261.619,164.9
			L261.619,164.9z"/>
		<path d="M286.086,140.433c-2.264,0.003-4.435-0.897-6.033-2.5l-12.233-12.237c-3.332-3.332-3.332-8.735,0-12.067
			s8.735-3.332,12.067,0l12.233,12.237c2.44,2.44,3.169,6.11,1.849,9.298C292.648,138.353,289.537,140.432,286.086,140.433
			L286.086,140.433z"/>
		<path d="M310.561,115.962c-2.264,0.003-4.435-0.897-6.033-2.5l-12.234-12.233c-2.155-2.156-2.997-5.297-2.208-8.242
			s3.089-5.244,6.033-6.033c2.944-0.789,6.086,0.053,8.242,2.208l12.233,12.233c2.44,2.44,3.169,6.11,1.849,9.298
			C317.123,113.882,314.012,115.961,310.561,115.962L310.561,115.962z"/>
		<path d="M335.028,91.492c-2.264,0.003-4.435-0.897-6.033-2.5l-12.234-12.233c-3.332-3.332-3.332-8.735,0-12.067
			c3.332-3.332,8.735-3.332,12.067,0l12.233,12.233c2.44,2.44,3.169,6.11,1.849,9.298C341.589,89.412,338.479,91.491,335.028,91.492
			L335.028,91.492z"/>
		<path d="M359.503,67.021c-2.263,0.002-4.433-0.896-6.033-2.496l-12.242-12.233c-3.302-3.338-3.289-8.715,0.03-12.036
			c3.319-3.321,8.697-3.338,12.036-0.038l12.242,12.233c2.441,2.441,3.171,6.111,1.851,9.301
			C366.066,64.94,362.955,67.02,359.503,67.021L359.503,67.021z"/>
		<path d="M383.969,42.554c-2.264,0.003-4.435-0.897-6.033-2.5l-12.234-12.237c-3.332-3.332-3.332-8.735,0-12.067
			c3.332-3.332,8.735-3.332,12.067,0l12.233,12.237c2.44,2.44,3.169,6.11,1.849,9.298C390.531,40.474,387.42,42.553,383.969,42.554
			L383.969,42.554z"/>
		<path d="M439.028,48.675c-2.743-0.003-5.317-1.324-6.919-3.55c-1.603-2.226-2.039-5.086-1.172-7.688l6.117-18.354
			c0.954-2.904,3.389-5.076,6.383-5.693c2.994-0.617,6.089,0.416,8.113,2.707c2.024,2.291,2.667,5.49,1.686,8.385l-6.117,18.354
			C445.959,46.322,442.7,48.673,439.028,48.675z"/>
		<path d="M451.261,60.908c-4.184-0.004-7.749-3.039-8.419-7.169s1.751-8.137,5.719-9.464l18.35-6.117
			c4.471-1.491,9.305,0.925,10.796,5.396c1.491,4.471-0.925,9.305-5.396,10.796l-18.35,6.117
			C453.091,60.758,452.179,60.907,451.261,60.908L451.261,60.908z"/>
		<path d="M414.553,36.442c-3.672-0.002-6.932-2.353-8.092-5.837l-6.117-18.354c-0.973-2.893-0.326-6.086,1.697-8.372
			c2.023-2.286,5.113-3.317,8.103-2.704s5.425,2.778,6.384,5.676l6.117,18.354c0.866,2.602,0.43,5.462-1.172,7.688
			S417.295,36.438,414.553,36.442L414.553,36.442z"/>
		<path d="M481.844,91.495c-0.918-0.001-1.83-0.15-2.7-0.442l-18.35-6.117c-4.453-1.504-6.851-6.326-5.364-10.785
			c1.487-4.459,6.3-6.876,10.764-5.406l18.35,6.117c3.968,1.327,6.39,5.334,5.719,9.464S486.028,91.492,481.844,91.495
			L481.844,91.495z"/>
		<path d="M298.327,299.483c-2.263,0.002-4.433-0.896-6.033-2.496l-12.242-12.233c-3.302-3.338-3.289-8.715,0.03-12.036
			c3.319-3.321,8.697-3.338,12.036-0.038l12.242,12.233c2.441,2.441,3.171,6.111,1.851,9.301
			C304.891,297.402,301.78,299.482,298.327,299.483L298.327,299.483z"/>
		<path d="M322.794,275.017c-2.264,0.003-4.435-0.897-6.033-2.5l-12.233-12.237c-3.332-3.332-3.332-8.735,0-12.067
			c3.332-3.332,8.734-3.332,12.067,0l12.233,12.237c2.44,2.44,3.169,6.11,1.849,9.298
			C329.356,272.936,326.246,275.015,322.794,275.017L322.794,275.017z"/>
		<path d="M347.261,250.546c-2.264,0.003-4.435-0.897-6.033-2.5l-12.233-12.233c-3.332-3.332-3.332-8.735,0-12.067
			c3.332-3.332,8.735-3.332,12.067,0l12.233,12.233c2.44,2.44,3.169,6.11,1.849,9.298
			C353.823,248.465,350.712,250.544,347.261,250.546L347.261,250.546z"/>
		<path d="M371.736,226.075c-2.264,0.003-4.435-0.897-6.033-2.5l-12.233-12.233c-3.288-3.339-3.267-8.706,0.047-12.019
			c3.314-3.314,8.68-3.335,12.019-0.047l12.233,12.233c2.44,2.44,3.169,6.11,1.849,9.298
			C378.298,223.995,375.187,226.074,371.736,226.075L371.736,226.075z"/>
		<path d="M396.203,201.604c-2.264,0.003-4.435-0.897-6.033-2.5l-12.233-12.233c-3.332-3.332-3.332-8.735,0-12.067
			c3.332-3.332,8.735-3.332,12.067,0l12.233,12.233c2.44,2.441,3.169,6.11,1.849,9.298
			C402.765,199.524,399.654,201.603,396.203,201.604L396.203,201.604z"/>
		<path d="M420.669,177.137c-2.264,0.003-4.435-0.897-6.033-2.5L402.403,162.4c-3.313-3.335-3.304-8.722,0.02-12.046
			s8.711-3.333,12.046-0.021l12.234,12.238c2.44,2.44,3.169,6.11,1.849,9.298C427.231,175.057,424.121,177.136,420.669,177.137
			L420.669,177.137z"/>
		<path d="M445.144,152.667c-2.264,0.003-4.435-0.897-6.033-2.5l-12.233-12.233c-3.332-3.332-3.332-8.735,0-12.067
			c3.332-3.332,8.735-3.332,12.067,0l12.233,12.233c2.44,2.44,3.169,6.11,1.849,9.298
			C451.706,150.586,448.596,152.665,445.144,152.667L445.144,152.667z"/>
		<path d="M469.611,128.196c-2.264,0.003-4.435-0.897-6.033-2.5l-12.233-12.233c-3.332-3.332-3.332-8.735,0-12.067
			c3.332-3.332,8.735-3.332,12.067,0l12.233,12.233c2.44,2.44,3.169,6.11,1.849,9.298
			C476.173,126.115,473.062,128.194,469.611,128.196L469.611,128.196z"/>
		<path d="M237.153,372.896c-2.264,0.003-4.435-0.897-6.033-2.5l-18.692-18.688c-16.633-16.673-16.633-43.664,0-60.337
			l18.692-18.687c1.6-1.601,3.77-2.5,6.033-2.5s4.433,0.899,6.033,2.5l30.75,30.754c9.984,10.003,9.984,26.201,0,36.204
			l-30.75,30.754C241.588,371.999,239.416,372.898,237.153,372.896L237.153,372.896z M237.153,290.783l-12.658,12.654
			c-9.975,10.007-9.975,26.197,0,36.204l12.658,12.654l24.717-24.721c3.325-3.337,3.325-8.734,0-12.071L237.153,290.783z"/>
	</g>
</g>
<g>
</g>
<g>
</g>
<g>
</g>
<g>
</g>
<g>
</g>
<g>
</g>
<g>
</g>
<g>
</g>
<g>
</g>
<g>
</g>
<g>
</g>
<g>
</g>
<g>
</g>
<g>
</g>
<g>
</g>
</svg>
