<?xml version="1.0" encoding="iso-8859-1"?>
<!-- Generator: Adobe Illustrator 19.0.0, SVG Export Plug-In . SVG Version: 6.00 Build 0)  -->
<svg version="1.1" id="Capa_1" xmlns="http://www.w3.org/2000/svg" xmlns:xlink="http://www.w3.org/1999/xlink" x="0px" y="0px"
	 viewBox="0 0 512.027 512.027" style="enable-background:new 0 0 512.027 512.027;" xml:space="preserve">
<g>
	<g transform="translate(1 1)">
		<path style="fill:#02A9F4;" d="M415.136,241.711c1.637,1.608,2.56,3.806,2.56,6.101c0,2.295-0.922,4.493-2.56,6.101l-3.584,3.584
			c-7.778,7.586-19.456,9.527-29.269,4.864c-9.218-5.237-20.795-3.703-28.331,3.755c-18.347,18.347-61.099,85.675-103.936,128.427
			c-39.851,39.851-100.949,90.283-148.565,107.008c-6.255,2.137-13.181,0.513-17.835-4.181c-3.69-3.644-5.068-9.026-3.584-13.995
			c0.621-2.264,1.828-4.324,3.499-5.973c0.271-0.328,0.587-0.615,0.939-0.853c33.365-27.563,127.915-107.691,177.749-167.595
			c42.325-50.688,61.184-83.883,68.864-99.669c3.753-7.695,8.772-14.704,14.848-20.736l22.101-22.016l-24.491-24.491l-4.523,4.523
			l-17.579,17.579c-6.06,6.042-13.064,11.057-20.736,14.848c-35.771,18.994-69.218,42.075-99.669,68.779
			C141.216,297.604,61.003,392.153,33.44,425.519c-0.259,0.362-0.544,0.704-0.853,1.024c-5.583,5.413-14.479,5.337-19.968-0.171
			c-4.693-4.619-6.319-11.521-4.181-17.749c0.085-0.256,0.171-0.427,0.256-0.683c16.981-47.616,67.072-108.288,106.752-147.883
			c42.837-42.837,110.08-85.675,128.427-104.021c7.516-7.465,9.09-19.044,3.84-28.245c-4.691-9.795-2.784-21.475,4.779-29.269
			l3.669-3.669c0.524-0.521,1.13-0.953,1.792-1.28c3.356-1.998,7.639-1.472,10.411,1.28l4.693,4.693l11.52,11.52
			c4.999,4.994,12.532,6.447,19.029,3.669l32-13.739l7.253-3.755l4.864-2.56l69.973,64.341l-8.619,15.36l-13.739,32.085
			c-2.807,6.479-1.388,14.015,3.584,19.029L415.136,241.711z"/>
		<path style="fill:#9E9E9E;" d="M439.632,156.048c-8.495,8.548-19.365,14.344-31.197,16.636
			c-13.787,2.662-28.07,0.479-40.434-6.177c-10.35-5.618-18.849-14.116-24.469-24.465c-6.658-12.361-8.84-26.643-6.178-40.428
			c2.304-11.827,8.1-22.691,16.638-31.192c23.673-23.669,91.94-91.926,134.637-48.99
			C531.389,64.305,463.305,132.378,439.632,156.048z"/>
		<circle style="fill:#ECF0F1;" cx="396.814" cy="113.23" r="25.95"/>
		<path style="fill:#CFD8DC;" d="M439.627,156.036c11.351-11.349,17.728-26.743,17.728-42.795s-6.377-31.445-17.728-42.795
			l48.981-48.981C531.36,64.303,463.264,132.399,439.627,156.036z"/>
		<path style="fill:#0377BC;" d="M414.539,253.905l-3.584,3.584c-7.778,7.586-19.456,9.527-29.269,4.864
			c-9.218-5.237-20.795-3.703-28.331,3.755c-18.347,18.347-61.099,85.675-103.936,128.427
			c-39.851,39.851-100.949,90.283-148.565,107.008c-6.255,2.137-13.181,0.513-17.835-4.182c-3.02-2.999-4.525-7.2-4.096-11.435
			v-0.085c1.66,0.015,3.308-0.275,4.864-0.853c47.616-16.725,108.715-67.158,148.565-107.008
			c42.837-42.752,85.589-110.08,103.936-128.427c7.536-7.458,19.112-8.992,28.331-3.755c9.813,4.663,21.492,2.722,29.269-4.864
			l3.584-3.584c3.212-3.125,3.436-8.21,0.512-11.605l0.341-0.256l16.213,16.213c1.638,1.608,2.56,3.807,2.56,6.102
			S416.176,252.297,414.539,253.905z"/>
	</g>
	<g>
		<path d="M338.365,111.148c-0.546,0.001-1.09-0.052-1.625-0.158c-2.223-0.426-4.185-1.719-5.453-3.593
			c-1.268-1.875-1.738-4.177-1.306-6.398c2.614-13.503,9.225-25.908,18.975-35.608c3.332-3.332,8.735-3.332,12.067,0
			c3.332,3.332,3.332,8.735,0,12.067c-7.338,7.292-12.317,16.62-14.292,26.775C345.961,108.243,342.451,111.145,338.365,111.148z"/>
		<path d="M409.424,182.214c-4.395-0.006-8.066-3.349-8.483-7.724c-0.416-4.375,2.559-8.351,6.874-9.185
			c18.873-3.686,34.173-17.485,39.781-35.88c5.608-18.394,0.609-38.382-12.998-51.97c-2.156-2.155-2.997-5.297-2.208-8.242
			c0.789-2.944,3.089-5.244,6.033-6.033c2.944-0.789,6.086,0.053,8.242,2.208c18.047,18.062,24.664,44.603,17.209,69.024
			s-27.768,42.74-52.826,47.643C410.513,182.162,409.969,182.215,409.424,182.214z"/>
		<path d="M368.99,176.04c-1.405,0-2.789-0.349-4.025-1.017c-11.831-6.408-21.542-16.12-27.95-27.95
			c-1.447-2.686-1.35-5.941,0.256-8.535c1.606-2.595,4.475-4.134,7.524-4.037c3.05,0.097,5.815,1.815,7.253,4.506
			c4.826,8.871,12.113,16.157,20.983,20.983c3.447,1.85,5.193,5.808,4.238,9.601C376.315,173.384,372.902,176.042,368.99,176.04
			L368.99,176.04z"/>
		<path d="M397.815,148.698c-9.146,0.018-17.921-3.611-24.383-10.083l0,0c-11.662-11.635-13.479-29.89-4.338-43.595
			s26.691-19.043,41.915-12.748c15.224,6.295,23.878,22.47,20.669,38.628C428.468,137.058,414.289,148.698,397.815,148.698
			L397.815,148.698z M397.815,96.831c-7.04,0.002-13.386,4.242-16.081,10.746c-2.695,6.503-1.21,13.99,3.765,18.971l0,0
			c5.57,5.582,14.196,6.725,21.028,2.785c6.832-3.94,10.163-11.978,8.122-19.595S405.701,96.826,397.815,96.831L397.815,96.831z"/>
		<path d="M397.924,183.314c-11.508,0.002-22.837-2.847-32.975-8.292c-11.821-6.415-21.525-16.125-27.934-27.95
			c-7.578-14.091-10.062-30.365-7.033-46.075c2.614-13.503,9.225-25.908,18.975-35.608C368.524,45.823,414.324,0.023,456.94,0.023
			h0.075c14.595-0.09,28.583,5.84,38.667,16.392c48.775,48.908-24.833,122.492-49.017,146.667
			C433.757,176.041,416.216,183.323,397.924,183.314L397.924,183.314z M456.932,17.089c-35.541,0-79.392,43.85-95.908,60.367
			c-7.338,7.292-12.317,16.62-14.292,26.775c-2.277,11.852-0.402,24.126,5.308,34.758c4.825,8.878,12.116,16.171,20.992,21
			c10.646,5.696,22.922,7.573,34.783,5.316c10.158-1.972,19.489-6.951,26.783-14.292l0,0
			c21.208-21.199,85.741-85.708,48.991-122.558c-6.891-7.332-16.531-11.452-26.592-11.366H456.932z"/>
		<path d="M440.632,79.956c-3.451-0.001-6.562-2.08-7.882-5.268c-1.321-3.188-0.591-6.858,1.849-9.298l49.025-49.017
			c2.156-2.155,5.297-2.997,8.242-2.208c2.944,0.789,5.244,3.089,6.033,6.033c0.789,2.944-0.053,6.086-2.208,8.242l-49.025,49.017
			C445.067,79.059,442.896,79.959,440.632,79.956z"/>
		<path d="M23.74,440.098c-6.047,0.003-11.847-2.402-16.117-6.683c-7.018-6.966-9.436-17.331-6.225-26.684
			c17.008-48.525,67.458-110.208,108.992-151.742c28.003-26.374,57.799-50.777,89.175-73.033
			c13.645-9.594,26.759-19.924,39.283-30.942c5.09-4.91,5.962-12.75,2.075-18.658c-6.173-13.057-3.56-28.577,6.55-38.892
			l3.608-3.608c6.718-6.7,17.59-6.7,24.308,0l16.208,16.208c2.535,2.498,6.33,3.213,9.6,1.808l32.092-13.717
			c1.971-0.833,4.181-0.901,6.2-0.192l1.717,0.608c3.976,1.411,6.325,5.516,5.525,9.658c-2.277,11.852-0.403,24.126,5.308,34.758
			c1.791,3.318,1.192,7.418-1.475,10.083l-22.084,22.084c-6.703,6.741-14.485,12.314-23.025,16.492
			c-14.992,7.292-47.625,25.775-97.925,67.7c-60.583,50.433-142.758,147.933-166.5,176.617c-0.708,0.833-1.042,1.217-1.4,1.575
			C35.419,437.753,29.699,440.114,23.74,440.098z M263.324,101.923l-3.783,3.608c-5.05,5.305-6.276,13.187-3.075,19.775
			c6.812,12.415,4.545,27.844-5.55,37.775c-13.081,11.644-26.827,22.521-41.167,32.575c-30.702,21.768-59.868,45.625-87.292,71.4
			c-40.208,40.208-88.892,99.5-104.967,145.35c-1.043,3.156-0.188,6.63,2.2,8.941c1.065,1.074,2.512,1.683,4.025,1.692h0.025
			c1.433,0.009,2.81-0.555,3.825-1.567c0.26-0.35,0.547-0.679,0.858-0.983c23.442-28.375,106.475-126.892,168.183-178.258
			c51.683-43.075,85.7-62.3,101.375-69.925c6.836-3.351,13.066-7.818,18.433-13.216l17.817-17.817
			c-3.561-8.42-5.433-17.458-5.508-26.6l-20.783,8.883c-9.693,4.125-20.918,1.982-28.408-5.425L263.324,101.923z"/>
		<path d="M96.965,512.006c-6.897-0.016-13.507-2.764-18.383-7.642c-4.27-4.238-6.677-10.001-6.692-16.017
			c-0.046-6,2.324-11.766,6.575-16c0.2-0.192,0.908-0.825,1.125-1c29.125-24.116,126.625-106.249,177.092-166.849
			c41.925-50.3,60.408-82.933,67.7-97.908c4.181-8.542,9.758-16.326,16.5-23.033l22.083-22.083c2.67-2.655,6.761-3.257,10.083-1.483
			c10.638,5.701,22.911,7.577,34.767,5.316c4.128-0.785,8.216,1.541,9.65,5.492l0.617,1.717c0.724,2.027,0.659,4.252-0.183,6.233
			l-13.7,32.051c-1.427,3.271-0.721,7.082,1.783,9.625l16.217,16.217c6.7,6.715,6.7,17.586,0,24.3l-3.608,3.608
			c-10.283,10.115-25.783,12.744-38.825,6.583c-5.924-3.922-13.801-3.064-18.742,2.042c-11.012,12.518-21.338,25.624-30.933,39.258
			c-22.262,31.38-46.674,61.18-73.058,89.183c-41.533,41.533-103.217,91.975-151.8,108.983
			C102.577,511.534,99.781,512.01,96.965,512.006z M370.765,177.806l-17.817,17.817c-5.4,5.366-9.867,11.596-13.217,18.433
			c-7.633,15.675-26.858,49.683-69.933,101.367C218.39,377.156,119.882,460.139,90.915,484.106
			c-1.227,1.042-1.941,2.565-1.958,4.175c0.009,1.51,0.618,2.955,1.692,4.017c2.304,2.389,5.774,3.244,8.925,2.2
			c45.892-16.066,105.192-64.75,145.392-104.95c25.784-27.428,49.652-56.597,71.433-87.3c10.047-14.333,20.918-28.07,32.558-41.142
			c9.96-10.118,25.437-12.369,37.867-5.508c6.575,3.164,14.422,1.922,19.7-3.117l3.608-3.608v-0.167l-16.208-16.208
			c-7.43-7.497-9.566-18.752-5.4-28.45l8.867-20.733C388.24,183.24,379.194,181.369,370.765,177.806z"/>
	</g>
</g>
<g>
</g>
<g>
</g>
<g>
</g>
<g>
</g>
<g>
</g>
<g>
</g>
<g>
</g>
<g>
</g>
<g>
</g>
<g>
</g>
<g>
</g>
<g>
</g>
<g>
</g>
<g>
</g>
<g>
</g>
</svg>
