<?xml version="1.0" encoding="iso-8859-1"?>
<!-- Generator: Adobe Illustrator 19.0.0, SVG Export Plug-In . SVG Version: 6.00 Build 0)  -->
<svg version="1.1" id="Capa_1" xmlns="http://www.w3.org/2000/svg" xmlns:xlink="http://www.w3.org/1999/xlink" x="0px" y="0px"
	 viewBox="0 0 511.989 511.989" style="enable-background:new 0 0 511.989 511.989;" xml:space="preserve">
<g>
	<g transform="translate(1 20)">
		<path style="fill:#795548;" d="M16.798,474.193L16.798,474.193c6.681,6.681,17.513,6.681,24.194,0l254.034-254.034l-24.194-24.194
			L16.798,449.999C10.118,456.68,10.118,467.512,16.798,474.193z"/>
		<path style="fill:#009688;" d="M279.038,152.22l59.733,59.733l-18.145,18.145c-6.598,6.681-17.362,6.748-24.044,0.15l-35.84-35.84
			c-6.598-6.681-6.53-17.445,0.15-24.044L279.038,152.22z"/>
	</g>
	<g>
		<path d="M309.904,264.02c-6.806,0.016-13.335-2.691-18.133-7.517l-36.284-36.284c-4.813-4.807-7.517-11.331-7.517-18.133
			c0-6.802,2.704-13.326,7.517-18.133l18.142-18.142c1.6-1.601,3.77-2.5,6.033-2.5c2.263,0,4.433,0.899,6.033,2.5l60.483,60.483
			c1.601,1.6,2.5,3.77,2.5,6.033s-0.899,4.433-2.5,6.033l-18.142,18.142C323.239,261.329,316.71,264.036,309.904,264.02
			L309.904,264.02z M279.663,183.912l-12.108,12.108c-1.611,1.608-2.517,3.79-2.517,6.067s0.905,4.459,2.517,6.067l36.284,36.284
			c3.398,3.233,8.735,3.233,12.133,0l12.108-12.108L279.663,183.912z"/>
		<path d="M424.821,246.912h-78.625c-2.263,0-4.434-0.899-6.033-2.5l-72.584-72.583c-1.601-1.6-2.5-3.77-2.5-6.033V87.17
			c0.002-1.58,0.44-3.129,1.267-4.475l48.392-78.633c1.599-2.596,4.461-4.142,7.509-4.056c3.048,0.087,5.818,1.792,7.267,4.475
			s1.357,5.935-0.242,8.531l-47.125,76.575v72.675l67.583,67.583h72.675l76.575-47.125c2.596-1.599,5.848-1.691,8.531-0.242
			s4.389,4.219,4.475,7.267c0.086,3.048-1.46,5.91-4.056,7.509l-78.633,48.392C427.95,246.471,426.401,246.91,424.821,246.912z"/>
		<path d="M321.996,222.72c-4.384-0.006-8.051-3.333-8.481-7.696c-0.43-4.363,2.515-8.342,6.814-9.204l63.7-12.741l72.067-52.333
			c2.468-1.803,5.711-2.15,8.504-0.909c2.793,1.241,4.71,3.88,5.025,6.92c0.316,3.04-1.017,6.017-3.496,7.805l-73.583,53.425
			c-0.997,0.718-2.137,1.215-3.342,1.458l-65.525,13.108C323.126,222.666,322.562,222.722,321.996,222.72L321.996,222.72z"/>
		<path d="M297.813,198.52c-0.565,0.002-1.129-0.054-1.683-0.167c-4.621-0.925-7.616-5.421-6.692-10.042l13.108-65.525
			c0.243-1.205,0.74-2.344,1.458-3.342l53.425-73.584c2.771-3.815,8.11-4.662,11.925-1.892s4.662,8.11,1.892,11.925l-52.334,72.067
			l-12.741,63.7C305.375,195.647,301.877,198.517,297.813,198.52z"/>
		<path d="M309.904,210.62c-3.451-0.001-6.562-2.08-7.882-5.268c-1.32-3.188-0.591-6.858,1.849-9.298L406.696,93.229
			c2.156-2.156,5.297-2.997,8.242-2.208c2.944,0.789,5.244,3.089,6.033,6.033c0.789,2.944-0.053,6.086-2.208,8.242L315.938,208.12
			C314.34,209.723,312.168,210.623,309.904,210.62z"/>
		<path d="M418.779,246.912c-2.264,0.003-4.435-0.897-6.033-2.5L267.579,99.245c-3.332-3.332-3.332-8.735,0-12.067
			c3.332-3.332,8.735-3.332,12.067,0l145.167,145.167c2.44,2.44,3.169,6.11,1.849,9.298
			C425.341,244.832,422.23,246.911,418.779,246.912L418.779,246.912z"/>
		<path d="M25.629,511.986c-6.799,0.014-13.323-2.679-18.133-7.484l-0.009-0.009c-9.983-10.028-9.983-26.239,0-36.267
			l254.042-254.032c1.6-1.601,3.77-2.5,6.033-2.5c2.263,0,4.433,0.899,6.033,2.5l24.2,24.2c1.601,1.6,2.5,3.77,2.5,6.033
			c0,2.263-0.899,4.433-2.5,6.033L43.763,504.495C38.954,509.302,32.429,511.997,25.629,511.986L25.629,511.986z M19.563,492.428
			c3.357,3.339,8.782,3.336,12.133-0.009l248-247.992l-12.133-12.133l-248,248.001C16.225,483.651,16.225,489.072,19.563,492.428
			L19.563,492.428z"/>
	</g>
</g>
<g>
</g>
<g>
</g>
<g>
</g>
<g>
</g>
<g>
</g>
<g>
</g>
<g>
</g>
<g>
</g>
<g>
</g>
<g>
</g>
<g>
</g>
<g>
</g>
<g>
</g>
<g>
</g>
<g>
</g>
</svg>
