<?xml version="1.0" encoding="iso-8859-1"?>
<!-- Generator: Adobe Illustrator 19.0.0, SVG Export Plug-In . SVG Version: 6.00 Build 0)  -->
<svg version="1.1" id="Capa_1" xmlns="http://www.w3.org/2000/svg" xmlns:xlink="http://www.w3.org/1999/xlink" x="0px" y="0px"
	 viewBox="0 0 511.927 511.927" style="enable-background:new 0 0 511.927 511.927;" xml:space="preserve">
<g>
	<g transform="translate(0 2)">
		<g>
			<path style="fill:#02A9F4;" d="M239.257,319.395l-28.245,28.245c-0.066-0.006-0.126-0.037-0.171-0.085l-26.697-8.277
				l-13.495-17.058l-8.277-23.134c-0.049-0.044-0.079-0.105-0.085-0.171l28.245-28.245
				C204.783,271.011,238.916,305.144,239.257,319.395z"/>
			<path style="fill:#02A9F4;" d="M424.26,134.392l-34.304,34.304c-14.507-0.085-48.64-34.219-48.725-48.725l34.304-34.304
				l0.085,0.085l16.914,6.059l25.582,25.6l6.059,16.896L424.26,134.392z"/>
			<path style="fill:#02A9F4;" d="M424.175,134.307L375.62,85.752c13.451,2.829,27.376-1.878,36.352-12.288l9.82-7.253
				l21.924,17.067l-7.253,14.677C426.053,106.931,421.345,120.856,424.175,134.307L424.175,134.307z"/>
		</g>
		<path style="fill:#0377BC;" d="M402.756,219.47c-0.039,45.043-26.984,85.705-68.45,103.295
			c-41.466,17.59-89.429,8.706-121.844-22.57c-0.085,0-0.085,0-0.085-0.085c-40.273-39.026-45.581-101.782-12.434-147.018
			s94.586-59.082,143.933-32.438l0.085,0.085C380.215,140.343,402.792,178.255,402.756,219.47z"/>
		<circle style="fill:#795548;" cx="436.42" cy="365.882" r="34.475"/>
		<path style="fill:#4482C3;" d="M424.26,134.392l-0.085-0.085"/>
		<g>
			<path style="fill:#CFD8DC;" d="M210.841,347.555c-13.448-2.789-27.354,1.911-36.352,12.288l-2.56,2.56
				c-7.27-8.956-15.449-17.135-24.405-24.405l2.56-2.56c10.377-8.998,15.077-22.904,12.288-36.352L210.841,347.555z"/>
			<path style="fill:#CFD8DC;" d="M479.044,79.608l-6.059,6.059l-24.405,24.405l-12.117-12.117l-24.491-24.491l-12.117-12.117
				l30.464-30.464c4.844-4.875,11.432-7.616,18.304-7.616c6.872,0,13.46,2.741,18.304,7.616L479.044,43
				c4.875,4.844,7.616,11.432,7.616,18.304S483.919,74.765,479.044,79.608L479.044,79.608z"/>
			<polygon style="fill:#CFD8DC;" points="472.985,85.667 448.58,110.072 436.463,97.955 411.972,73.464 399.855,61.347 
				424.26,36.942 			"/>
		</g>
		<circle style="fill:#ECF0F1;" cx="290.212" cy="219.748" r="17.237"/>
		<path style="fill:#4E342E;" d="M162.287,408.568l-85.248,85.248c-4.844,4.875-11.432,7.616-18.304,7.616
			s-13.46-2.741-18.304-7.616l-24.32-24.32c-4.875-4.844-7.616-11.432-7.616-18.304c0-6.872,2.741-13.46,7.616-18.304l85.248-85.248
			c8.08-8.081,19.037-12.623,30.464-12.629c11.414,0.071,22.348,4.603,30.464,12.629
			C179.097,364.471,179.097,391.738,162.287,408.568L162.287,408.568z"/>
		<path style="fill:#02A9F4;" d="M378.095,201.379c0.005,39.547-20.794,76.18-54.755,96.442s-76.079,21.163-110.877,2.374
			c-0.085,0-0.085,0-0.085-0.085c-40.273-39.026-45.581-101.782-12.434-147.018s94.586-59.082,143.933-32.438l0.085,0.085
			C365.8,141.88,378.119,170.983,378.095,201.379z"/>
		<path style="fill:#795548;" d="M140.953,387.235l-85.248,85.248c-4.844,4.875-11.432,7.616-18.304,7.616
			s-13.46-2.741-18.304-7.616l-2.987-2.987c-4.875-4.844-7.616-11.432-7.616-18.304c0-6.872,2.741-13.46,7.616-18.304l85.248-85.248
			c8.08-8.081,19.037-12.623,30.464-12.629c6.161-0.014,12.249,1.326,17.835,3.925C157.123,355.274,153.653,374.531,140.953,387.235
			z"/>
		<path style="fill:#F5F5F5;" d="M427.543,332.645l-125.131-125.13c-6.741-6.701-17.628-6.701-24.368,0
			c-6.661,6.757-6.661,17.611,0,24.368l125.13,125.131L427.543,332.645z"/>
	</g>
	<g>
		<path d="M403.174,367.549c-2.264,0.003-4.435-0.897-6.033-2.5L272.012,239.915c-9.995-10.088-9.995-26.345,0-36.433
			c10.065-10.05,26.368-10.05,36.433,0l125.129,125.129c3.332,3.332,3.332,8.735,0,12.067c-3.332,3.332-8.735,3.332-12.067,0
			L296.379,215.549c-3.453-3.258-8.847-3.258-12.3,0c-1.619,1.586-2.52,3.763-2.496,6.029c-0.073,2.346,0.831,4.616,2.496,6.271
			l125.129,125.133c2.44,2.44,3.169,6.11,1.849,9.298C409.736,365.469,406.625,367.548,403.174,367.549L403.174,367.549z"/>
		<path d="M436.437,410.882c-20.501-0.014-38.137-14.507-42.123-34.616c-3.987-20.109,6.787-40.234,25.731-48.068
			c18.945-7.834,40.785-1.195,52.165,15.857c11.38,17.052,9.13,39.768-5.373,54.257C458.78,406.379,447.839,410.904,436.437,410.882
			z M436.437,341.978c-10.487,0.003-19.939,6.321-23.952,16.01c-4.013,9.689-1.795,20.84,5.619,28.257
			c10.261,9.792,26.406,9.792,36.667,0c7.416-7.416,9.634-18.569,5.621-28.258C456.379,348.297,446.925,341.979,436.437,341.978
			L436.437,341.978z"/>
		<path d="M211.033,358.165c-2.264,0.003-4.435-0.897-6.033-2.5l-48.737-48.737c-1.601-1.6-2.5-3.77-2.5-6.033
			c0-2.263,0.899-4.433,2.5-6.033l28.204-28.204c3.332-3.332,8.735-3.332,12.067,0c3.332,3.332,3.332,8.735,0,12.067l-22.171,22.171
			l36.671,36.671l22.171-22.171c2.155-2.156,5.297-2.997,8.242-2.208c2.944,0.789,5.244,3.089,6.033,6.033
			c0.789,2.944-0.053,6.086-2.208,8.242l-28.204,28.204C215.468,357.268,213.296,358.168,211.033,358.165L211.033,358.165z"/>
		<path d="M150.112,345.982c-3.451-0.001-6.562-2.08-7.882-5.268c-1.32-3.188-0.591-6.858,1.849-9.298
			c8.177-6.798,12.035-17.489,10.083-27.942c-1.347-4.477,1.132-9.209,5.579-10.65c4.424-1.442,9.182,0.96,10.65,5.375
			c4.074,16.57-1.418,34.03-14.246,45.283C154.547,345.085,152.375,345.985,150.112,345.982L150.112,345.982z"/>
		<path d="M174.478,370.349c-3.451-0.001-6.562-2.08-7.882-5.268c-1.32-3.188-0.591-6.858,1.849-9.298
			c11.256-12.823,28.713-18.315,45.283-14.246c4.444,1.488,6.857,6.282,5.404,10.738c-1.453,4.456-6.228,6.906-10.695,5.487
			c-10.448-1.935-21.126,1.922-27.925,10.088C178.914,369.452,176.742,370.351,174.478,370.349L174.478,370.349z"/>
		<path d="M389.954,179.24c-3.451-0.001-6.562-2.08-7.882-5.268s-0.591-6.858,1.849-9.298l28.267-28.262l-36.671-36.671
			l-28.262,28.267c-3.332,3.332-8.735,3.332-12.067,0c-3.332-3.332-3.332-8.735,0-12.067l34.295-34.3c3.386-3.2,8.681-3.2,12.067,0
			l48.738,48.738c1.601,1.6,2.5,3.77,2.5,6.033c0,2.263-0.899,4.433-2.5,6.033l-34.3,34.295
			C394.389,178.343,392.217,179.243,389.954,179.24L389.954,179.24z"/>
		<path d="M383.153,97.157c-3.496,0.055-6.98-0.412-10.338-1.388c-4.451-1.485-6.869-6.285-5.411-10.746
			c1.457-4.461,6.242-6.908,10.711-5.479c10.447,1.936,21.124-1.921,27.921-10.088c3.332-3.332,8.734-3.332,12.067,0
			c3.332,3.332,3.332,8.735,0,12.067C409.07,91.278,396.447,96.924,383.153,97.157L383.153,97.157z"/>
		<path d="M424.195,144.886c-3.645,0.012-6.886-2.317-8.037-5.775c-4.074-16.571,1.418-34.033,14.246-45.288
			c3.332-3.332,8.735-3.332,12.067,0c3.332,3.332,3.332,8.735,0,12.067c-8.177,6.798-12.035,17.489-10.083,27.942
			c0.794,2.595,0.309,5.414-1.307,7.594C429.464,143.607,426.909,144.891,424.195,144.886L424.195,144.886z"/>
		<path d="M58.728,511.927c-9.118,0.017-17.866-3.601-24.308-10.054l-24.367-24.366c-13.404-13.435-13.404-35.185,0-48.621
			l85.287-85.287c20.155-20.155,52.832-20.155,72.987,0c20.155,20.155,20.155,52.832,0,72.987l-85.287,85.287
			C76.598,508.327,67.848,511.945,58.728,511.927z M131.837,345.565c-9.162-0.016-17.953,3.619-24.429,10.1L22.12,440.953
			c-6.75,6.767-6.75,17.721,0,24.488l24.367,24.367c6.767,6.75,17.721,6.75,24.488,0l85.288-85.288
			c9.885-9.875,12.844-24.734,7.496-37.643C158.41,353.968,145.81,345.556,131.837,345.565L131.837,345.565z"/>
		<path d="M448.62,120.578c-2.264,0.003-4.435-0.897-6.033-2.5L393.849,69.34c-1.601-1.6-2.5-3.77-2.5-6.033s0.899-4.433,2.5-6.033
			l30.462-30.462c13.432-13.408,35.185-13.408,48.617,0l12.187,12.187c13.404,13.434,13.404,35.183,0,48.617l-30.462,30.462
			C453.055,119.681,450.884,120.58,448.62,120.578L448.62,120.578z M411.949,63.307l36.671,36.671l24.429-24.429
			c6.75-6.765,6.75-17.718,0-24.483l-12.187-12.187c-6.765-6.75-17.718-6.75-24.483,0L411.949,63.307z"/>
		<path d="M472.991,96.207c-2.264,0.003-4.435-0.897-6.033-2.5L418.22,44.969c-3.332-3.332-3.332-8.735,0-12.067
			c3.332-3.332,8.735-3.332,12.067,0l48.738,48.738c2.44,2.44,3.169,6.11,1.849,9.298C479.553,94.127,476.442,96.206,472.991,96.207
			L472.991,96.207z"/>
		<path d="M290.058,342.14c-59.206-0.117-109.551-43.239-118.762-101.724s25.441-114.995,81.745-133.304
			s117.567,7.008,144.517,59.724c20.557,40.549,16.706,89.19-9.975,126c-1.791,2.485-4.776,3.82-7.822,3.498
			c-3.046-0.323-5.686-2.253-6.916-5.059c-1.23-2.805-0.863-6.055,0.963-8.514c22.902-31.596,26.206-73.349,8.558-108.154
			c-20.393-39.865-64.117-62.087-108.341-55.062c-44.224,7.024-78.91,41.7-85.948,85.922c-7.037,44.222,15.171,87.952,55.03,108.357
			c34.811,17.659,76.576,14.36,108.183-8.546c3.804-2.741,9.108-1.899,11.876,1.886s1.964,9.094-1.801,11.889
			C340.64,334.103,315.672,342.187,290.058,342.14L290.058,342.14z"/>
		<path d="M290.228,247.457c-12.287-0.005-22.859-8.688-25.253-20.74c-2.393-12.052,4.06-24.116,15.413-28.815
			c11.353-4.699,24.444-0.725,31.268,9.493c6.824,10.218,5.481,23.833-3.208,32.52h-0.004
			C303.625,244.762,297.064,247.478,290.228,247.457L290.228,247.457z M290.228,213.007c-3.515,0.001-6.683,2.118-8.029,5.365
			c-1.346,3.247-0.604,6.985,1.879,9.472c3.442,3.28,8.852,3.282,12.296,0.004h0.004c2.489-2.486,3.234-6.227,1.888-9.477
			C296.919,215.121,293.746,213.004,290.228,213.007L290.228,213.007z"/>
		<path d="M472.991,47.469c-3.451-0.001-6.562-2.08-7.882-5.268c-1.32-3.188-0.591-6.858,1.849-9.298l30.458-30.458
			c3.341-3.281,8.701-3.256,12.012,0.054c3.311,3.311,3.335,8.671,0.054,12.012l-30.458,30.459
			C477.426,46.572,475.255,47.472,472.991,47.469z"/>
	</g>
</g>
<g>
</g>
<g>
</g>
<g>
</g>
<g>
</g>
<g>
</g>
<g>
</g>
<g>
</g>
<g>
</g>
<g>
</g>
<g>
</g>
<g>
</g>
<g>
</g>
<g>
</g>
<g>
</g>
<g>
</g>
</svg>
