<?xml version="1.0" encoding="iso-8859-1"?>
<!-- Generator: Adobe Illustrator 19.0.0, SVG Export Plug-In . SVG Version: 6.00 Build 0)  -->
<svg version="1.1" id="Capa_1" xmlns="http://www.w3.org/2000/svg" xmlns:xlink="http://www.w3.org/1999/xlink" x="0px" y="0px"
	 viewBox="0 0 512.01 512.01" style="enable-background:new 0 0 512.01 512.01;" xml:space="preserve">
<g>
	<g transform="translate(1)">
		<path style="fill:#4E342E;" d="M327.79,219.276L51.225,495.841c-9.704,9.704-25.342,10.005-35.413,0.683
			c-0.277-0.203-0.534-0.432-0.768-0.683c-9.984-9.994-9.984-26.187,0-36.181l268.032-268.032l8.533-8.533L327.79,219.276z"/>
		<path style="fill:#795548;" d="M302.19,210.743L18.713,494.22c-0.863,0.89-1.839,1.665-2.901,2.304
			c-0.277-0.203-0.534-0.432-0.768-0.683c-9.984-9.994-9.984-26.187,0-36.181l268.032-268.032L302.19,210.743z"/>
		<path style="fill:#AD1457;" d="M502.468,194.273c0.005,6.896-4.14,13.118-10.506,15.769c-6.366,2.651-13.702,1.21-18.593-3.651
			c-32.699,32.634-81.292,43.469-124.757,27.819l0.171,0.256l-20.139,20.139c-6.674,6.656-17.476,6.656-24.149,0l-48.213-48.213
			c-6.656-6.674-6.656-17.476,0-24.149l20.139-20.139l0.256,0.171c-15.651-43.465-4.815-92.059,27.819-124.757
			c-6.581-6.566-6.69-17.192-0.246-23.892c6.444-6.7,17.067-7.004,23.884-0.684c0.191,0.116,0.363,0.26,0.512,0.427v0.085
			l151.723,151.723l17.067,17.067C500.644,185.423,502.455,189.753,502.468,194.273z"/>
		<path style="fill:#E91E63;" d="M485.401,177.207c0.005,6.896-4.14,13.118-10.506,15.769c-6.366,2.651-13.702,1.21-18.593-3.651
			c-32.699,32.634-81.292,43.469-124.757,27.819l0.171,0.256l-20.139,20.139c-6.674,6.656-17.475,6.656-24.149,0l-31.147-31.147
			c-6.656-6.674-6.656-17.476,0-24.149l20.139-20.139l0.256,0.171c-15.651-43.465-4.815-92.059,27.819-124.757
			c-6.581-6.566-6.69-17.192-0.246-23.892c6.444-6.7,17.067-7.004,23.884-0.684l0.512,0.512l151.723,151.723
			C483.577,168.357,485.389,172.686,485.401,177.207z"/>
		<path style="fill:#C52828;" d="M473.35,206.389c-46.637,46.583-122.2,46.561-168.81-0.05s-46.63-122.174-0.046-168.81"/>
		<path style="fill:#F44335;" d="M455.951,191.467c-46.628,46.629-118.812,50.045-161.227,7.629
			c-42.415-42.416-38.999-114.601,7.629-161.231"/>
	</g>
	<g>
		<path d="M486.41,219.909c-6.786,0.014-13.298-2.68-18.092-7.484l0,0L299.459,43.559c-9.975-9.999-9.975-26.185,0-36.183
			c10.129-9.667,26.067-9.667,36.196,0l168.85,168.858c7.325,7.315,9.518,18.324,5.556,27.888S496.762,219.918,486.41,219.909
			L486.41,219.909z M480.385,200.359c2.438,2.439,6.106,3.167,9.292,1.846c3.186-1.321,5.261-4.431,5.258-7.88
			c0.008-2.261-0.891-4.431-2.496-6.025L323.584,19.442c-3.368-3.233-8.687-3.233-12.054,0c-3.324,3.328-3.326,8.719-0.004,12.05
			L480.385,200.359z"/>
		<path d="M389.922,249.834c-51.746,0.036-98.413-31.119-118.22-78.925c-19.807-47.805-8.85-102.836,27.758-139.408
			c3.332-3.332,8.735-3.332,12.067,0c3.332,3.332,3.332,8.735,0,12.067c-43.167,43.319-43.106,113.411,0.137,156.654
			s113.335,43.305,156.654,0.137c2.155-2.155,5.297-2.997,8.242-2.208c2.944,0.789,5.244,3.089,6.033,6.033
			c0.789,2.944-0.053,6.086-2.208,8.242C456.407,236.432,423.852,249.895,389.922,249.834L389.922,249.834z"/>
		<path d="M317.555,268.151c-6.788,0.014-13.301-2.68-18.096-7.484l-48.242-48.242c-9.979-10-9.979-26.191,0-36.192l20.2-20.2
			c2.155-2.155,5.297-2.997,8.242-2.208s5.244,3.089,6.033,6.033c0.789,2.944-0.053,6.086-2.208,8.242l-20.2,20.2
			c-3.3,3.342-3.3,8.716,0,12.058l48.242,48.242c3.389,3.183,8.669,3.183,12.058,0l20.2-20.2c3.332-3.332,8.735-3.332,12.067,0
			c3.332,3.332,3.332,8.735,0,12.067l-20.2,20.2C330.856,265.471,324.343,268.164,317.555,268.151z"/>
		<path d="M34.117,511.884c-13.799-0.001-26.239-8.313-31.519-21.061s-2.362-27.423,7.395-37.18l247.254-247.258
			c3.386-3.2,8.681-3.2,12.067,0l36.183,36.183c1.601,1.6,2.5,3.77,2.5,6.033s-0.899,4.433-2.5,6.033L58.247,501.892
			C51.861,508.311,43.172,511.909,34.117,511.884L34.117,511.884z M263.28,224.484L22.06,465.709
			c-6.656,6.661-6.656,17.455,0,24.117c6.755,6.429,17.366,6.429,24.121,0l241.216-241.225L263.28,224.484z"/>
	</g>
</g>
<g>
</g>
<g>
</g>
<g>
</g>
<g>
</g>
<g>
</g>
<g>
</g>
<g>
</g>
<g>
</g>
<g>
</g>
<g>
</g>
<g>
</g>
<g>
</g>
<g>
</g>
<g>
</g>
<g>
</g>
</svg>
