<?xml version="1.0" encoding="iso-8859-1"?>
<!-- Generator: Adobe Illustrator 19.0.0, SVG Export Plug-In . SVG Version: 6.00 Build 0)  -->
<svg version="1.1" id="Capa_1" xmlns="http://www.w3.org/2000/svg" xmlns:xlink="http://www.w3.org/1999/xlink" x="0px" y="0px"
	 viewBox="0 0 511.982 511.982" style="enable-background:new 0 0 511.982 511.982;" xml:space="preserve">
<g>
	<g transform="translate(1)">
		<path style="fill:#0377BC;" d="M229.048,431.732l-6.144,6.144c-3.277,3.25-5.12,7.673-5.12,12.288s1.843,9.038,5.12,12.288
			l-18.432,18.432c-13.62,13.54-35.617,13.54-49.237,0c-0.922-0.905-1.777-1.874-2.56-2.901c-11.04-13.822-9.938-33.731,2.56-46.251
			l18.517-18.432c6.805,6.741,17.771,6.741,24.576,0l6.144-6.229c0.894-0.839,1.935-1.504,3.072-1.963
			c3.194-1.176,6.779-0.412,9.216,1.963l12.288,12.373c1.638,1.625,2.56,3.837,2.56,6.144
			C231.608,427.895,230.687,430.107,229.048,431.732L229.048,431.732z"/>
		<g>
			<path style="fill:#02A9F4;" d="M209.763,419.615l-6.144,6.144c-6.712,6.817-6.712,17.759,0,24.576l-18.432,18.432
				c-6.501,6.55-15.347,10.236-24.576,10.24c-2.678-0.004-5.345-0.349-7.936-1.025c-11.04-13.822-9.938-33.731,2.56-46.251
				l18.517-18.432c6.805,6.741,17.771,6.741,24.576,0l6.144-6.229c0.894-0.839,1.935-1.504,3.072-1.963l2.219,2.219
				c1.638,1.625,2.56,3.837,2.56,6.144S211.401,417.99,209.763,419.615L209.763,419.615z"/>
			<path style="fill:#02A9F4;" d="M265.029,334.248l36.891,36.891l-29.938,29.938c-3.333,3.332-8.736,3.332-12.068,0l-24.823-24.823
				c-3.332-3.332-3.333-8.736,0-12.068L265.029,334.248z"/>
		</g>
		<path style="fill:#CFD8DC;" d="M380.003,108.575L216.76,271.817L49.507,439.071c-3.249,3.277-7.673,5.12-12.288,5.12
			s-9.039-1.843-12.288-5.12l-4.864-4.864l-7.424-7.424c-3.277-3.25-5.12-7.673-5.12-12.288c0-4.615,1.843-9.039,5.12-12.288
			L336.398,78.537l6.741-6.827L380.003,108.575z"/>
		<path style="fill:#F5F5F5;" d="M357.39,99.529L26.894,430.025c-1.906,1.922-4.248,3.357-6.827,4.182l-7.424-7.424
			c-3.277-3.25-5.12-7.673-5.12-12.288c0-4.615,1.843-9.039,5.12-12.288L336.398,78.537L357.39,99.529z"/>
		<path style="fill:#00838F;" d="M498.019,211.913v0.085c-5.926,5.888-15.493,5.888-21.419,0l-81.579-81.579L339.47,74.868
			c-1.897-1.829-3.28-4.124-4.011-6.656c-2.115-6.118-0.559-12.907,4.011-17.493l25.088-25.003
			c3.185-3.235,7.535-5.056,12.075-5.056c4.54,0,8.889,1.821,12.075,5.056l55.552,55.552l56.576,113.152
			C503.754,200.25,502.621,207.294,498.019,211.913L498.019,211.913z"/>
		<path style="fill:#00BCD4;" d="M479.928,191.177v0.085c-5.926,5.888-15.493,5.888-21.419,0L335.459,68.212
			c-2.115-6.118-0.559-12.907,4.011-17.493l25.088-25.003c3.185-3.235,7.535-5.056,12.075-5.056c4.54,0,8.889,1.821,12.075,5.056
			l40.107,40.107l53.931,107.861C485.664,179.514,484.53,186.558,479.928,191.177z"/>
		<g>
			<path style="fill:#02A9F4;" d="M388.684,25.66l55.566,55.566l-49.188,49.188l-55.566-55.566c-6.665-6.665-6.665-17.471,0-24.136
				l25.052-25.052C371.213,18.995,382.019,18.995,388.684,25.66z"/>
			<path style="fill:#02A9F4;" d="M277.832,332.745l-98.195-98.021c-3.201-3.201-4.999-7.542-4.999-12.068s1.798-8.867,4.999-12.068
				l12.755-12.755c3.201-3.201,7.542-4.999,12.068-4.999c4.526,0,8.867,1.798,12.068,4.999l98.195,98.021L277.832,332.745z"/>
		</g>
		<path style="fill:#0377BC;" d="M352.27,333.087l-49.579,49.579c-1.594,1.598-3.759,2.496-6.016,2.496
			c-2.257,0-4.422-0.898-6.016-2.496l-37.12-37.12c-3.328-3.354-3.328-8.764,0-12.117l49.493-49.493
			c4.318-4.35,10.672-5.988,16.555-4.267c2.895,0.647,5.536,2.131,7.595,4.267l25.088,25.003
			C358.925,315.611,358.925,326.413,352.27,333.087z"/>
		<path style="fill:#02A9F4;" d="M330.595,314.825l-49.493,49.579c-1.644,1.651-3.9,2.547-6.229,2.475l-21.333-21.333
			c-3.328-3.354-3.328-8.764,0-12.117l49.493-49.493c4.318-4.35,10.672-5.988,16.555-4.267l11.008,11.008
			C337.251,297.35,337.251,308.152,330.595,314.825L330.595,314.825z"/>
	</g>
	<g>
		<path d="M254.648,243.487c-3.451-0.001-6.562-2.08-7.882-5.268c-1.32-3.188-0.591-6.858,1.849-9.298l116.933-116.937
			l-24.825-24.825L223.79,204.095c-3.332,3.332-8.735,3.332-12.067,0c-3.332-3.332-3.332-8.735,0-12.067L334.69,69.058
			c3.386-3.2,8.681-3.2,12.067,0l36.892,36.892c1.601,1.6,2.5,3.77,2.5,6.033c0,2.263-0.899,4.433-2.5,6.033L260.681,240.987
			C259.083,242.59,256.911,243.489,254.648,243.487z"/>
		<path d="M38.206,452.704c-6.873,0.013-13.468-2.715-18.325-7.579l-12.3-12.296c-10.108-10.129-10.108-26.529,0-36.658
			l167.25-167.25c3.332-3.332,8.735-3.332,12.067,0s3.332,8.735,0,12.067l-167.25,167.25c-3.45,3.462-3.45,9.063,0,12.525
			l12.3,12.296c3.462,3.45,9.063,3.45,12.525,0l167.25-167.246c3.332-3.332,8.735-3.332,12.067,0c3.332,3.332,3.332,8.735,0,12.067
			L56.54,445.125C51.681,449.99,45.083,452.718,38.206,452.704L38.206,452.704z"/>
		<path d="M396.064,138.962c-2.263,0-4.434-0.899-6.033-2.5l-55.567-55.566c-4.802-4.8-7.5-11.312-7.5-18.102
			s2.698-13.302,7.5-18.102l25.05-25.05c10.131-9.667,26.069-9.667,36.2,0l55.567,55.567c1.601,1.6,2.5,3.77,2.5,6.033
			c0,2.263-0.899,4.433-2.5,6.033l-49.183,49.187C400.498,138.063,398.328,138.962,396.064,138.962L396.064,138.962z
			 M377.615,29.212c-2.264-0.006-4.437,0.894-6.033,2.5l-25.05,25.05c-1.601,1.599-2.5,3.769-2.5,6.031
			c0,2.263,0.899,4.432,2.5,6.031l49.533,49.538l37.117-37.121l-49.533-49.534C382.052,30.102,379.879,29.203,377.615,29.212z"/>
		<path d="M488.273,224.908c-6.271,0.01-12.287-2.479-16.717-6.917l-81.525-81.53c-3.3-3.338-3.284-8.714,0.035-12.032
			s8.695-3.334,12.032-0.034l81.525,81.529c2.3,2.283,5.914,2.567,8.542,0.671c2.628-1.896,3.499-5.415,2.058-8.317L437.615,85.058
			c-1.375-2.729-1.187-5.984,0.494-8.536c1.681-2.552,4.598-4.01,7.647-3.824c3.05,0.186,5.767,1.989,7.125,4.726l56.608,113.217
			c3.666,7.346,3.267,16.068-1.055,23.048C504.112,220.67,496.483,224.915,488.273,224.908L488.273,224.908z"/>
		<path d="M389.915,83.624c-2.263,0.002-4.433-0.896-6.033-2.496l-6.15-6.146c-3.302-3.338-3.289-8.715,0.03-12.036
			s8.697-3.338,12.036-0.038l6.15,6.146c2.441,2.441,3.171,6.111,1.851,9.301C396.478,81.544,393.367,83.624,389.915,83.624
			L389.915,83.624z"/>
		<path d="M266.948,329.566c-2.263,0-4.434-0.899-6.033-2.5l-86.309-86.308c-9.984-10.003-9.984-26.201,0-36.204l12.75-12.754
			c10.005-9.983,26.203-9.983,36.208,0l86.3,86.308c1.601,1.6,2.5,3.77,2.5,6.033c0,2.263-0.899,4.433-2.5,6.033l-36.883,36.892
			C271.382,328.667,269.211,329.567,266.948,329.566L266.948,329.566z M205.465,201.37c-2.266-0.004-4.439,0.894-6.042,2.496
			l-12.75,12.754c-3.325,3.337-3.325,8.734,0,12.071l80.275,80.275l24.817-24.825l-80.267-80.275
			C209.898,202.266,207.727,201.368,205.465,201.37L205.465,201.37z"/>
		<path d="M297.69,393.662c-4.528,0.015-8.874-1.784-12.067-4.996l-37.125-37.121c-3.201-3.201-5-7.542-5-12.069
			c0-4.527,1.799-8.868,5-12.069l49.533-49.529c10.002-9.983,26.198-9.983,36.2,0l25.058,25.05
			c9.973,10.005,9.977,26.191,0.009,36.2l-49.542,49.538C306.563,391.877,302.218,393.676,297.69,393.662z M297.69,376.6
			l-6.033,6.033l6.042-6.025L297.69,376.6z M316.131,287.449c-2.263-0.002-4.433,0.896-6.033,2.496l-49.533,49.533l37.117,37.112
			l49.542-49.525c3.327-3.339,3.323-8.74-0.009-12.075l-25.05-25.046C320.565,288.345,318.394,287.447,316.131,287.449z"/>
		<path d="M266.948,412.108c-4.528,0.015-8.874-1.784-12.067-4.996l-24.825-24.825c-6.659-6.667-6.659-17.467,0-24.133
			l18.558-18.562c3.386-3.2,8.681-3.2,12.067,0l36.891,36.892c1.601,1.6,2.5,3.77,2.5,6.033s-0.899,4.433-2.5,6.033l-18.558,18.562
			C275.821,410.322,271.476,412.121,266.948,412.108L266.948,412.108z M266.948,395.045l-6.033,6.033l6.042-6.025L266.948,395.045z
			 M254.648,357.691l-12.525,12.529l24.817,24.817l12.534-12.521L254.648,357.691z"/>
		<path d="M223.906,421.791c-3.451-0.001-6.562-2.08-7.882-5.268c-1.32-3.188-0.591-6.858,1.849-9.298l24.591-24.592
			c3.332-3.332,8.735-3.332,12.067,0c3.332,3.332,3.332,8.734,0,12.067l-24.592,24.592
			C228.341,420.894,226.17,421.794,223.906,421.791L223.906,421.791z"/>
		<path d="M180.865,499.591c-17.519,0.01-33.317-10.538-40.023-26.723c-6.705-16.185-2.996-34.816,9.398-47.198l18.442-18.446
			c3.386-3.2,8.681-3.2,12.067,0c3.51,3.342,9.024,3.342,12.533,0l6.142-6.146c6.823-6.507,17.554-6.505,24.375,0.004l12.292,12.292
			c6.707,6.733,6.71,17.62,0.009,24.358l-6.158,6.154c-3.456,3.46-3.456,9.065,0,12.525c1.601,1.6,2.5,3.77,2.5,6.033
			c0,2.263-0.899,4.433-2.5,6.033l-18.45,18.446C203.373,495.052,192.352,499.611,180.865,499.591z M175.723,424.317l-13.417,13.421
			c-6.631,6.63-9.221,16.294-6.795,25.352c2.426,9.058,9.501,16.133,18.558,18.56c9.057,2.427,18.722-0.162,25.353-6.792
			l13.425-13.425c-4.779-9.937-2.764-21.808,5.025-29.612l6.15-6.15l-12.3-12.525l-6.375,6.146
			C197.469,426.944,185.685,428.943,175.723,424.317L175.723,424.317z"/>
		<path d="M340.723,304.97c-3.451-0.001-6.562-2.08-7.882-5.268c-1.32-3.188-0.591-6.858,1.849-9.298l30.742-30.742
			c2.156-2.155,5.297-2.997,8.242-2.208s5.244,3.089,6.033,6.033c0.789,2.944-0.053,6.086-2.208,8.242l-30.742,30.742
			C345.158,304.074,342.987,304.973,340.723,304.97L340.723,304.97z"/>
		<path d="M389.915,292.675c-2.264,0.003-4.435-0.897-6.033-2.5l-36.892-36.891c-3.332-3.332-3.332-8.735,0-12.067
			c3.332-3.332,8.735-3.332,12.067,0l36.892,36.892c2.44,2.441,3.169,6.11,1.849,9.298
			C396.476,290.595,393.366,292.674,389.915,292.675L389.915,292.675z"/>
	</g>
</g>
<g>
</g>
<g>
</g>
<g>
</g>
<g>
</g>
<g>
</g>
<g>
</g>
<g>
</g>
<g>
</g>
<g>
</g>
<g>
</g>
<g>
</g>
<g>
</g>
<g>
</g>
<g>
</g>
<g>
</g>
</svg>
