<?xml version="1.0" encoding="iso-8859-1"?>
<!-- Generator: Adobe Illustrator 19.0.0, SVG Export Plug-In . SVG Version: 6.00 Build 0)  -->
<svg version="1.1" id="Capa_1" xmlns="http://www.w3.org/2000/svg" xmlns:xlink="http://www.w3.org/1999/xlink" x="0px" y="0px"
	 viewBox="0 0 512.012 512.012" style="enable-background:new 0 0 512.012 512.012;" xml:space="preserve">
<g transform="translate(0 -1)">
	<g transform="translate(1 2)">
		
			<rect x="282.489" y="2.033" transform="matrix(0.7071 0.7071 -0.7071 0.7071 236.425 -150.3708)" style="fill:#CFD8DC;" width="34.475" height="416.343"/>
		<path style="fill:#02A9F4;" d="M203.685,342.731l-36.523-36.523l49.15-49.15c3.332-3.333,8.736-3.333,12.068,0l24.455,24.455
			c3.332,3.332,3.332,8.736,0,12.068L203.685,342.731z"/>
		<path style="fill:#00838F;" d="M214.475,347.595c-3.874,1.797-7.513,4.061-10.837,6.741c-8.664,7.746-15.138,17.634-18.773,28.672
			c-3.495,9.698-6.094,19.695-7.765,29.867c-3.153,22.971-13.979,44.202-30.72,60.245c-11.29,11.42-24.913,20.268-39.936,25.941
			c-18.172,6.249-38.214,3.728-54.272-6.827c-4.387-2.75-8.452-5.985-12.117-9.643l-12.715-12.715
			c-3.658-3.665-6.892-7.73-9.643-12.117c-0.42-0.595-0.791-1.223-1.109-1.877c-9.625-15.738-11.721-34.951-5.717-52.395
			c5.673-15.023,14.521-28.646,25.941-39.936c8.947-8.993,19.329-16.434,30.72-22.016c9.4-4.232,19.333-7.161,29.525-8.704
			c10.172-1.671,20.169-4.27,29.867-7.765c11.038-3.635,20.926-10.109,28.672-18.773c2.68-3.324,4.944-6.964,6.741-10.837
			c2.681-4.94,7.594-8.271,13.176-8.933c5.582-0.662,11.137,1.428,14.899,5.605l12.544,12.544l14.848,14.848
			c4.177,3.762,6.266,9.317,5.605,14.899C222.746,340.001,219.415,344.914,214.475,347.595z"/>
		<path style="fill:#00BCD4;" d="M194.763,324.64c-3.874,1.797-7.513,4.061-10.837,6.741c-8.664,7.746-15.138,17.634-18.773,28.672
			c-3.495,9.698-6.094,19.695-7.765,29.867c-1.544,10.192-4.472,20.126-8.704,29.525c-5.582,11.391-13.023,21.773-22.016,30.72
			c-11.29,11.42-24.912,20.269-39.936,25.941c-18.172,6.249-38.214,3.728-54.272-6.827c-4.387-2.75-8.452-5.985-12.117-9.643
			l-3.755-3.755c-9.625-15.738-11.721-34.951-5.717-52.395c5.673-15.023,14.521-28.646,25.941-39.936
			c8.947-8.993,19.329-16.434,30.72-22.016c9.4-4.232,19.333-7.161,29.525-8.704c10.172-1.671,20.169-4.27,29.867-7.765
			c11.038-3.635,20.926-10.109,28.672-18.773c2.68-3.324,4.944-6.964,6.741-10.837c2.681-4.94,7.594-8.271,13.176-8.933
			c5.582-0.662,11.137,1.428,14.899,5.605l12.544,12.544C205.559,312.439,202.071,320.94,194.763,324.64L194.763,324.64z"/>
		<polygon style="fill:#9E9E9E;" points="478.044,7.541 502.39,31.887 471.951,74.502 441.522,92.764 417.167,68.41 435.429,37.98 
					"/>
		<path style="fill:#02A9F4;" d="M124.96,421.493l-72.789,70.741c-4.387-2.75-8.452-5.985-12.117-9.643l-12.715-12.715
			c-3.658-3.665-6.892-7.73-9.643-12.117l70.741-72.789c6.516-6.567,16.046-9.147,24.984-6.764
			c8.938,2.383,15.92,9.364,18.303,18.303S131.527,414.978,124.96,421.493L124.96,421.493z"/>
	</g>
	<g>
		<path d="M87.69,513.012c-19.839-0.211-38.788-8.264-52.708-22.4L22.323,477.95c-20.2-19.448-27.383-48.796-18.45-75.375
			c6.066-16.196,15.58-30.879,27.883-43.034c9.621-9.708,20.819-17.715,33.117-23.679c10.083-4.6,20.753-7.786,31.708-9.467
			c9.664-1.571,19.167-4.011,28.392-7.292c9.637-3.132,18.287-8.73,25.092-16.238c2.207-2.823,4.075-5.896,5.567-9.154
			c3.471-7.163,10.229-12.173,18.092-13.413c8.714-1.378,17.559,1.527,23.758,7.804l27.35,27.342l0,0
			c6.278,6.197,9.182,15.042,7.8,23.754c-1.238,7.864-6.246,14.624-13.408,18.1c-3.261,1.49-6.335,3.358-9.158,5.567
			c-7.508,6.802-13.107,15.449-16.242,25.083c-3.271,9.234-5.711,18.741-7.292,28.408c-1.677,10.953-4.86,21.622-9.458,31.704
			c-5.965,12.298-13.973,23.494-23.683,33.112c-12.152,12.308-26.836,21.825-43.034,27.892
			C103.089,511.694,95.418,513.029,87.69,513.012z M178.056,297.008c-0.508,0-1.015,0.042-1.517,0.125
			c-2.412,0.355-4.496,1.872-5.575,4.058c-2.079,4.485-4.686,8.705-7.767,12.571c-8.701,9.833-19.843,17.196-32.3,21.346
			c-10.168,3.635-20.644,6.341-31.3,8.087c-9.436,1.422-18.633,4.131-27.333,8.05c-10.563,5.131-20.18,12.016-28.442,20.362
			c-10.543,10.39-18.703,22.946-23.917,36.8c-6.675,20.348-1.038,42.721,14.483,57.475l12.658,12.662
			c14.759,15.514,37.128,21.149,57.475,14.479c13.856-5.209,26.413-13.37,36.8-23.917c8.346-8.259,15.232-17.873,20.367-28.433
			c3.916-8.701,6.622-17.898,8.042-27.333c1.751-10.659,4.46-21.139,8.092-31.312c4.152-12.454,11.513-23.593,21.342-32.296
			c3.862-3.089,8.085-5.698,12.575-7.771c2.19-1.077,3.708-3.164,4.058-5.579c0.477-3.273-0.652-6.575-3.033-8.871l-27.35-27.342
			C183.476,298.186,180.831,297.049,178.056,297.008L178.056,297.008z"/>
		<path d="M223.381,334.604L223.381,334.604c-2.263,0-4.434-0.899-6.033-2.5l-36.517-36.525c-1.601-1.6-2.5-3.77-2.5-6.033
			s0.899-4.433,2.5-6.033l30.483-30.488c3.193-3.212,7.538-5.012,12.067-5h0.017c4.528-0.011,8.871,1.793,12.058,5.008l24.45,24.446
			c3.201,3.201,5,7.542,5,12.069c0,4.527-1.799,8.868-5,12.069l-30.492,30.487C227.816,333.705,225.645,334.604,223.381,334.604
			L223.381,334.604z M198.931,289.546l24.45,24.458l24.458-24.458L223.39,265.1L198.931,289.546z M229.415,259.058l-6.05,6.021
			l0.017,0.009L229.415,259.058z"/>
		<path d="M253.823,291.991c-2.264,0.003-4.435-0.897-6.033-2.5l-24.35-24.346c-1.601-1.6-2.5-3.77-2.5-6.033s0.899-4.433,2.5-6.033
			l188.7-188.7c1.6-1.601,3.77-2.5,6.033-2.5s4.433,0.899,6.033,2.5l24.35,24.35c1.601,1.6,2.5,3.77,2.5,6.033
			c0,2.263-0.899,4.433-2.5,6.033l-188.7,188.696C258.258,291.094,256.087,291.994,253.823,291.991z M241.54,259.112l12.283,12.279
			l176.633-176.63l-12.283-12.283L241.54,259.112z"/>
		<path d="M442.523,103.296c-2.263,0.001-4.434-0.899-6.033-2.5l-24.35-24.35c-2.769-2.769-3.298-7.067-1.283-10.425l18.258-30.437
			c0.601-1.005,1.404-1.875,2.358-2.554l42.608-30.434c3.392-2.433,8.048-2.047,10.992,0.913l24.35,24.35
			c2.949,2.949,3.334,7.598,0.908,10.992l-30.433,42.608c-0.678,0.954-1.546,1.757-2.55,2.358l-30.433,18.263
			C445.588,102.874,444.07,103.295,442.523,103.296z M428.915,69.087l14.933,14.929l23.192-13.921l25.208-35.283l-14.133-14.125
			l-35.275,25.2L428.915,69.087z"/>
		<path d="M54.465,503.516c-3.451-0.001-6.562-2.08-7.882-5.268c-1.32-3.188-0.591-6.858,1.849-9.298l71.525-71.521
			c3.254-3.237,5.083-7.637,5.083-12.227s-1.829-8.99-5.083-12.227c-6.831-6.558-17.619-6.558-24.45,0l-71.525,71.521
			c-3.332,3.332-8.735,3.332-12.067,0c-3.332-3.332-3.332-8.735,0-12.067l71.525-71.521c8.672-8.716,21.34-12.133,33.219-8.96
			c11.879,3.173,21.156,12.451,24.328,24.33c3.171,11.879-0.247,24.547-8.963,33.218l-71.525,71.521
			C58.9,502.619,56.728,503.519,54.465,503.516L54.465,503.516z"/>
	</g>
</g>
<g>
</g>
<g>
</g>
<g>
</g>
<g>
</g>
<g>
</g>
<g>
</g>
<g>
</g>
<g>
</g>
<g>
</g>
<g>
</g>
<g>
</g>
<g>
</g>
<g>
</g>
<g>
</g>
<g>
</g>
</svg>
