<?xml version="1.0" encoding="iso-8859-1"?>
<!-- Generator: Adobe Illustrator 19.0.0, SVG Export Plug-In . SVG Version: 6.00 Build 0)  -->
<svg version="1.1" id="Capa_1" xmlns="http://www.w3.org/2000/svg" xmlns:xlink="http://www.w3.org/1999/xlink" x="0px" y="0px"
	 viewBox="0 0 511.999 511.999" style="enable-background:new 0 0 511.999 511.999;" xml:space="preserve">
<g>
	<g transform="translate(1 1)">
		<g>
			<path style="fill:#CFD8DC;" d="M478.156,136.339l6.269-0.801c8.75-1.46,15.607-8.316,17.067-17.067l0.774-6.062
				c1.21-5.943-2.586-11.754-8.514-13.035l-5.461-1.173l-4.667-4.667l-4.667-4.667l-1.173-5.461
				c-1.281-5.928-7.092-9.724-13.035-8.514l-6.062,0.774c-8.75,1.46-15.607,8.317-17.067,17.067l-0.801,6.269l-23.57,24.702
				l-12.068,12.068c-3.201,3.201-4.999,7.542-4.999,12.068s1.798,8.867,4.999,12.068l12.068,12.068
				c3.201,3.201,7.542,4.999,12.068,4.999s8.867-1.798,12.068-4.999l12.068-12.068L478.156,136.339z"/>
			<path style="fill:#CFD8DC;" d="M176.192,425.103l23.834-23.834c6.665-6.665,6.665-17.471,0-24.136l0,0
				c-6.665-6.665-17.471-6.665-24.136,0l-10.74,10.74L176.192,425.103z"/>
		</g>
		<path style="fill:#283593;" d="M477.571,135.791l-24.149,24.149l-84.48-84.48c-19.988-19.968-52.374-19.968-72.363,0l-1.109,1.109
			L139.651,232.303l-4.352-4.437l-19.712-19.712l168.875-168.96c0.639-0.672,1.324-1.299,2.048-1.877
			c26.925-24.817,68.63-23.989,94.549,1.877L477.571,135.791z"/>
		<path style="fill:#3F51B5;" d="M454.872,149.701l-5.803,5.888l-80.128-80.128c-19.988-19.968-52.374-19.968-72.363,0l-1.109,1.109
			c-8.189,2.369-15.646,6.773-21.675,12.8L135.299,227.866l-19.712-19.712l168.875-168.96c0.639-0.672,1.324-1.299,2.048-1.877
			c24.955-9.161,52.959-3.001,71.765,15.787L454.872,149.701z"/>
		<path style="fill:#0377BC;" d="M151.768,220.271l-24.149-24.149c-6.674-6.656-17.475-6.656-24.149,0l-86.016,86.016
			c-3.437,3.428-6.086,7.563-7.765,12.117l77.909-77.909c6.674-6.656,17.475-6.656,24.149,0l24.149,24.149
			c3.934,3.933,5.688,9.546,4.693,15.019l11.179-11.093C158.424,237.747,158.424,226.945,151.768,220.271L151.768,220.271z
			 M173.955,410.735l-44.373-115.456c-3.014-7.792-3.044-16.422-0.085-24.235l-8.107,8.021c-9.548,9.554-12.56,23.842-7.68,36.437
			l44.373,115.456c3.014,7.792,3.044,16.422,0.085,24.235l8.107-8.107C175.791,437.551,178.8,423.306,173.955,410.735
			L173.955,410.735z"/>
		<g>
			<path style="fill:#02A9F4;" d="M137.261,258.842c-3.457,3.445-6.109,7.612-7.765,12.203l6.4-6.4
				c2.491-2.47,4.135-5.667,4.693-9.131L137.261,258.842z"/>
			<path style="fill:#02A9F4;" d="M158.083,430.959l-44.373-115.456c-4.88-12.595-1.868-26.883,7.68-36.437l8.107-8.021
				c1.656-4.591,4.308-8.758,7.765-12.203l3.328-3.328c0.995-5.473-0.759-11.086-4.693-15.019l-24.149-24.149
				c-6.674-6.656-17.475-6.656-24.149,0L9.688,294.255c-3.206,8.376-2.93,17.686,0.768,25.856l66.816,150.357
				c4.554,10.279,13.879,17.654,24.93,19.717c11.051,2.064,22.41-1.45,30.366-9.392l25.6-25.6
				C161.127,447.381,161.097,438.751,158.083,430.959z M130.605,434.458c-2.744,2.791-6.244,4.718-10.069,5.547
				c-9.448,1.962-18.972-2.996-22.784-11.861l-37.973-88.661c-1.293-2.98-1.679-6.274-1.109-9.472
				c0.537-3.52,2.181-6.778,4.693-9.301l9.131-9.131c4.126-4.104,10.059-5.825,15.741-4.564c5.682,1.261,10.33,5.329,12.334,10.793
				l34.731,95.488C137.969,420.663,136.14,428.91,130.605,434.458L130.605,434.458z"/>
		</g>
	</g>
	<g>
		<path d="M152.753,229.781c-2.264,0.003-4.435-0.897-6.033-2.5l-24.134-24.133c-1.601-1.6-2.5-3.77-2.5-6.033
			s0.899-4.433,2.5-6.033L279.469,34.198c14.399-14.409,33.934-22.504,54.304-22.504c20.37,0,39.905,8.096,54.304,22.504
			l96.546,96.542c1.601,1.6,2.5,3.77,2.5,6.033s-0.899,4.433-2.5,6.033l-24.138,24.138c-1.6,1.601-3.77,2.5-6.033,2.5
			c-2.263,0-4.434-0.899-6.033-2.5l-84.475-84.475c-16.671-16.644-43.671-16.644-60.342,0L158.786,227.281
			C157.188,228.884,155.016,229.784,152.753,229.781z M140.686,197.114l12.067,12.067L291.536,70.402
			c23.334-23.311,61.141-23.311,84.475,0l78.442,78.442l12.071-12.071l-90.512-90.508c-11.199-11.207-26.394-17.504-42.237-17.504
			c-15.844,0-31.038,6.297-42.238,17.504L140.686,197.114z"/>
		<path d="M430.315,186.498c-6.789,0.011-13.303-2.683-18.1-7.487l-12.067-12.067c-9.984-10.003-9.984-26.201,0-36.204
			l12.067-12.067c1.6-1.601,3.77-2.5,6.033-2.5s4.433,0.899,6.033,2.5l36.204,36.204c1.601,1.6,2.5,3.77,2.5,6.033
			c0,2.263-0.899,4.433-2.5,6.033L448.42,179.01C443.621,183.815,437.106,186.51,430.315,186.498L430.315,186.498z M418.249,136.773
			l-6.033,6.033c-3.325,3.337-3.325,8.734,0,12.071l12.066,12.067c3.337,3.325,8.734,3.325,12.071,0l6.033-6.033L418.249,136.773z"
			/>
		<path d="M109.461,500.306c-16.862-0.007-32.141-9.936-38.996-25.342L3.632,324.581c-7.099-16.141-3.602-34.982,8.817-47.5
			l85.999-86c10.002-9.988,26.203-9.988,36.204,0l24.133,24.133c9.984,10.003,9.984,26.201,0,36.204l-14.483,14.483
			c-7.148,7.158-9.416,17.853-5.787,27.296l44.408,115.475c6.047,15.737,2.266,33.558-9.65,45.483l-33.65,33.65
			C131.625,495.808,120.775,500.304,109.461,500.306L109.461,500.306z M116.553,200.652c-2.264-0.004-4.437,0.894-6.038,2.496
			l-86,86c-7.45,7.511-9.549,18.815-5.292,28.5l66.838,150.383c3.425,7.708,10.427,13.234,18.719,14.775
			c8.293,1.54,16.812-1.103,22.777-7.067l33.65-33.65c7.147-7.157,9.416-17.849,5.792-27.292l-44.413-115.475
			c-6.045-15.738-2.264-33.56,9.65-45.488l14.483-14.483c3.325-3.337,3.325-8.734,0-12.071l-24.133-24.133
			C120.986,201.547,118.815,200.649,116.553,200.652z"/>
		<path d="M201.028,386.664c-3.451-0.001-6.562-2.08-7.882-5.268c-1.32-3.188-0.591-6.858,1.849-9.298l205.154-205.154
			c3.334-3.32,8.727-3.315,12.054,0.012c3.327,3.327,3.333,8.72,0.013,12.054L207.061,384.164
			C205.463,385.767,203.291,386.667,201.028,386.664L201.028,386.664z"/>
		<path d="M117.336,449.939c-11.49,0-21.874-6.845-26.404-17.404L52.92,343.844c-4.155-9.618-2.003-20.799,5.425-28.187l9.087-9.083
			c6.186-6.187,15.104-8.787,23.646-6.892c8.542,1.894,15.525,8.02,18.516,16.242l34.721,95.483
			c3.782,10.487,1.181,22.215-6.679,30.121h-0.004C132.251,446.913,124.95,449.94,117.336,449.939z M85.469,316.131
			c-2.246,0.002-4.397,0.906-5.971,2.508l-9.083,9.083c-2.477,2.464-3.194,6.193-1.808,9.4l38.008,88.688
			c1.524,3.553,4.711,6.119,8.507,6.85c3.796,0.731,7.708-0.468,10.443-3.201c3.189-3.208,4.243-7.966,2.708-12.221l-34.721-95.483
			c-0.972-2.757-3.311-4.808-6.171-5.413C86.754,316.204,86.113,316.132,85.469,316.131L85.469,316.131z"/>
		<path d="M177.19,434.635c-3.451-0.001-6.562-2.08-7.882-5.268c-1.32-3.188-0.591-6.858,1.849-9.298l23.838-23.834
			c2.167-2.154,3.018-5.302,2.229-8.254c-0.788-2.952-3.094-5.258-6.047-6.045c-2.952-0.787-6.1,0.064-8.253,2.232l-10.742,10.737
			c-3.332,3.332-8.735,3.332-12.067,0c-3.332-3.332-3.332-8.735,0-12.067l10.742-10.742c6.464-6.482,15.898-9.019,24.742-6.654
			c8.844,2.365,15.752,9.272,18.118,18.116c2.366,8.843-0.17,18.277-6.651,24.742l-23.842,23.834
			C181.625,433.738,179.454,434.638,177.19,434.635L177.19,434.635z"/>
		<path d="M479.157,145.873c-2.263,0.001-4.434-0.898-6.033-2.5l-37.338-37.338c-1.867-1.867-2.765-4.493-2.433-7.113l0.8-6.267
			c1.987-12.591,11.863-22.467,24.454-24.454l6.059-0.771c10.336-1.729,20.213,4.948,22.462,15.183l0.646,3l5.771,5.775l3.004,0.646
			c10.232,2.251,16.905,12.125,15.179,22.459l-0.775,6.063c-1.986,12.59-11.86,22.464-24.45,24.45l-6.267,0.8
			C479.878,145.851,479.518,145.873,479.157,145.873z M450.815,96.927l31.416,31.416l2.112-0.271c4.889-0.968,8.711-4.79,9.68-9.679
			l0.779-6.067c0.4-3.129-1.283-3.487-1.838-3.604l-5.471-1.179c-1.605-0.346-3.076-1.147-4.237-2.308l-9.333-9.333
			c-1.163-1.163-1.966-2.638-2.313-4.246l-1.171-5.463c-0.121-0.55-0.538-2.238-3.608-1.837l-6.063,0.775
			c-4.891,0.97-8.714,4.793-9.683,9.683L450.815,96.927z"/>
	</g>
</g>
<g>
</g>
<g>
</g>
<g>
</g>
<g>
</g>
<g>
</g>
<g>
</g>
<g>
</g>
<g>
</g>
<g>
</g>
<g>
</g>
<g>
</g>
<g>
</g>
<g>
</g>
<g>
</g>
<g>
</g>
</svg>
