<?xml version="1.0" encoding="iso-8859-1"?>
<!-- Generator: Adobe Illustrator 19.0.0, SVG Export Plug-In . SVG Version: 6.00 Build 0)  -->
<svg version="1.1" id="Capa_1" xmlns="http://www.w3.org/2000/svg" xmlns:xlink="http://www.w3.org/1999/xlink" x="0px" y="0px"
	 viewBox="0 0 512 512" style="enable-background:new 0 0 512 512;" xml:space="preserve">
<g>
	<g transform="translate(1 3)">
		<g>
			<path style="fill:#CFD8DC;" d="M203.8,274.333l-8.533,12.8l29.067,43.6c3.165,4.748,8.494,7.6,14.2,7.6h32.932
				c5.706,0,11.035-2.852,14.2-7.6l29.067-43.6l-8.533-12.8H203.8z"/>
			<path style="fill:#CFD8DC;" d="M263.533,500.467h-17.067c-4.713,0-8.533-3.821-8.533-8.533v-31.55
				c0-1.685,0.499-3.332,1.433-4.733L255,432.2l15.633,23.45c0.935,1.402,1.433,3.049,1.433,4.733v31.55
				C272.067,496.646,268.246,500.467,263.533,500.467z"/>
			<polygon style="fill:#CFD8DC;" points="331.8,56.733 357.4,56.733 306.2,73.8 280.6,73.8 			"/>
			<path style="fill:#CFD8DC;" d="M451.267,39.667c-0.028,9.414-7.652,17.039-17.067,17.067h-25.6
				c9.414-0.028,17.039-7.653,17.067-17.067c-0.068-9.398-7.669-16.999-17.067-17.067h25.6
				C443.598,22.668,451.199,30.269,451.267,39.667L451.267,39.667z"/>
		</g>
		<g>
			<path style="fill:#F5F5F5;" d="M425.667,39.667c-0.028,9.414-7.652,17.039-17.067,17.067h-76.8L280.6,73.8h-76.8l-51.2-17.067
				H75.8c-9.414-0.028-17.039-7.653-17.067-17.067C58.801,30.269,66.403,22.668,75.8,22.6h76.8l51.2,17.067h102.4L357.4,22.6h51.2
				C417.998,22.668,425.599,30.269,425.667,39.667z"/>
			<polygon style="fill:#F5F5F5;" points="357.4,22.6 306.2,39.667 280.6,39.667 331.8,22.6 			"/>
		</g>
		<rect x="229.4" y="90.867" style="fill:#CFD8DC;" width="51.2" height="68.267"/>
		<path style="fill:#D84315;" d="M203.8,142.067h102.4c9.426,0,17.067,7.641,17.067,17.067v128H186.733v-128
			C186.733,149.708,194.374,142.067,203.8,142.067z"/>
		<path style="fill:#FF5722;" d="M203.8,142.067h76.8c9.426,0,17.067,7.641,17.067,17.067v128H186.733v-128
			C186.733,149.708,194.374,142.067,203.8,142.067z"/>
		<path style="fill:#D84315;" d="M220.867,22.6h68.267c9.426,0,17.067,7.641,17.067,17.067v51.2c0,9.426-7.641,17.067-17.067,17.067
			h-68.267c-9.426,0-17.067-7.641-17.067-17.067v-51.2C203.8,30.241,211.441,22.6,220.867,22.6z"/>
		<path style="fill:#FF5722;" d="M220.867,22.6h42.667c9.426,0,17.067,7.641,17.067,17.067v51.2c0,9.426-7.641,17.067-17.067,17.067
			h-42.667c-9.426,0-17.067-7.641-17.067-17.067v-51.2C203.8,30.241,211.441,22.6,220.867,22.6z"/>
	</g>
	<g>
		<path d="M290.133,119.467h-68.267c-14.132-0.015-25.585-11.468-25.6-25.6v-51.2c0.015-14.132,11.468-25.585,25.6-25.6h68.267
			c14.132,0.015,25.585,11.468,25.6,25.6v51.2C315.718,107.999,304.265,119.451,290.133,119.467z M221.867,34.133
			c-4.71,0.006-8.527,3.823-8.533,8.533v51.2c0.006,4.71,3.823,8.527,8.533,8.533h68.267c4.71-0.006,8.527-3.823,8.533-8.533v-51.2
			c-0.006-4.71-3.823-8.527-8.533-8.533H221.867z"/>
		<path d="M153.6,68.267H76.8c-14.138,0-25.6-11.462-25.6-25.6s11.462-25.6,25.6-25.6h76.8c4.713,0,8.533,3.821,8.533,8.533v34.133
			C162.133,64.446,158.313,68.267,153.6,68.267z M76.8,34.133c-4.713,0-8.533,3.821-8.533,8.533S72.087,51.2,76.8,51.2h68.267
			V34.133H76.8z"/>
		<path d="M153.6,85.333c-4.713,0-8.533-3.82-8.533-8.533V8.533c0-4.713,3.82-8.533,8.533-8.533s8.533,3.821,8.533,8.533V76.8
			C162.133,81.513,158.313,85.333,153.6,85.333z"/>
		<path d="M204.8,85.333c-0.918-0.001-1.829-0.149-2.7-0.438l-51.2-17.067c-3.484-1.162-5.834-4.423-5.833-8.096V25.6
			c0.002-2.743,1.321-5.317,3.546-6.921c2.225-1.604,5.085-2.041,7.687-1.175l51.2,17.067c3.484,1.162,5.834,4.423,5.833,8.096V76.8
			C213.33,81.511,209.511,85.33,204.8,85.333z M162.133,53.583l34.133,11.379V48.817l-34.133-11.379V53.583z"/>
		<path d="M435.2,68.267h-76.8c-4.713,0-8.533-3.821-8.533-8.533V25.6c0-4.713,3.82-8.533,8.533-8.533h76.8
			c14.138,0,25.6,11.462,25.6,25.6S449.339,68.267,435.2,68.267z M366.933,51.2H435.2c4.713,0,8.533-3.821,8.533-8.533
			s-3.821-8.533-8.533-8.533h-68.267V51.2z"/>
		<path d="M358.4,85.333c-4.713,0-8.533-3.82-8.533-8.533V8.533c0-4.713,3.82-8.533,8.533-8.533s8.533,3.821,8.533,8.533V76.8
			C366.933,81.513,363.113,85.333,358.4,85.333z"/>
		<path d="M307.2,85.333c-4.711-0.004-8.53-3.822-8.533-8.533V42.667c0-3.673,2.349-6.934,5.833-8.096l51.2-17.067
			c2.602-0.866,5.462-0.429,7.687,1.175c2.225,1.604,3.544,4.178,3.546,6.921v34.133c0,3.673-2.349,6.934-5.833,8.096l-51.2,17.067
			C309.029,85.185,308.118,85.333,307.2,85.333L307.2,85.333z M315.733,48.817v16.146l34.133-11.379V37.438L315.733,48.817z"/>
		<path d="M281.6,153.6h-51.2c-4.713,0-8.533-3.821-8.533-8.533v-34.133c0-4.713,3.82-8.533,8.533-8.533h51.2
			c4.713,0,8.533,3.821,8.533,8.533v34.133C290.133,149.779,286.313,153.6,281.6,153.6z M238.933,136.533h34.133v-17.067h-34.133
			V136.533z"/>
		<path d="M324.267,298.667H187.733c-4.713,0-8.533-3.821-8.533-8.533v-128c0.015-14.132,11.468-25.585,25.6-25.6h102.4
			c14.132,0.015,25.585,11.468,25.6,25.6v128C332.8,294.846,328.98,298.667,324.267,298.667z M196.267,281.6h119.467V162.133
			c-0.006-4.71-3.823-8.527-8.533-8.533H204.8c-4.71,0.006-8.527,3.823-8.533,8.533V281.6z"/>
		<path d="M272.467,349.867h-32.933c-8.562,0.009-16.559-4.271-21.3-11.4l-29.066-43.6c-1.746-2.618-1.909-5.985-0.424-8.76
			c1.485-2.775,4.377-4.507,7.524-4.507h119.467c3.147,0,6.039,1.732,7.524,4.507s1.322,6.142-0.424,8.76l-29.067,43.6
			C289.025,345.596,281.028,349.876,272.467,349.867z M212.213,298.667L232.434,329c1.581,2.376,4.246,3.802,7.1,3.8h32.933
			c2.854,0.002,5.519-1.424,7.1-3.8l20.221-30.333H212.213z"/>
		<rect x="247.467" y="341.333" width="17.067" height="93.867"/>
		<path d="M264.533,512h-17.067c-9.422-0.009-17.057-7.645-17.067-17.067v-31.55c-0.003-3.37,0.995-6.665,2.867-9.467l15.633-23.45
			c1.672-2.242,4.304-3.562,7.1-3.562c2.796,0,5.428,1.321,7.1,3.562l15.633,23.45c1.872,2.802,2.87,6.097,2.867,9.467v31.55
			C281.591,504.355,273.955,511.991,264.533,512L264.533,512z M256,450.583l-8.533,12.8v31.55h17.079l-0.012-31.55L256,450.583z"/>
		<path d="M273.067,76.8h-34.133c-4.713,0-8.533-3.82-8.533-8.533c0-4.713,3.821-8.533,8.533-8.533h34.133
			c4.713,0,8.533,3.821,8.533,8.533C281.6,72.98,277.78,76.8,273.067,76.8z"/>
		<path d="M221.867,264.533c-4.713,0-8.533-3.821-8.533-8.533v-76.8c0-4.713,3.821-8.533,8.533-8.533
			c4.713,0,8.533,3.821,8.533,8.533V256C230.4,260.713,226.579,264.533,221.867,264.533z"/>
		<path d="M256,264.533c-4.713,0-8.533-3.821-8.533-8.533v-76.8c0-4.713,3.821-8.533,8.533-8.533c4.713,0,8.533,3.821,8.533,8.533
			V256C264.533,260.713,260.713,264.533,256,264.533z"/>
		<path d="M290.133,264.533c-4.713,0-8.533-3.821-8.533-8.533v-76.8c0-4.713,3.821-8.533,8.533-8.533
			c4.713,0,8.533,3.821,8.533,8.533V256C298.667,260.713,294.846,264.533,290.133,264.533z"/>
	</g>
</g>
<g>
</g>
<g>
</g>
<g>
</g>
<g>
</g>
<g>
</g>
<g>
</g>
<g>
</g>
<g>
</g>
<g>
</g>
<g>
</g>
<g>
</g>
<g>
</g>
<g>
</g>
<g>
</g>
<g>
</g>
</svg>
