<?xml version="1.0" encoding="iso-8859-1"?>
<!-- Generator: Adobe Illustrator 19.0.0, SVG Export Plug-In . SVG Version: 6.00 Build 0)  -->
<svg version="1.1" id="Capa_1" xmlns="http://www.w3.org/2000/svg" xmlns:xlink="http://www.w3.org/1999/xlink" x="0px" y="0px"
	 viewBox="0 0 504.025 504.025" style="enable-background:new 0 0 504.025 504.025;" xml:space="preserve">
<g>
	<g transform="translate(5 1)">
		<path style="fill:#F44335;" d="M263.799,60.188V24.18c0-9.271-7.516-16.787-16.787-16.787s-16.787,7.516-16.787,16.787v36.008
			H263.799z"/>
		<polygon style="fill:#02A9F4;" points="294.519,150.921 294.519,151.005 397.985,443.852 383.909,494.633 266.485,171.905 
			227.456,171.905 110.115,494.213 95.93,443.852 199.338,150.837 199.338,150.753 		"/>
		<circle style="fill:#C52828;" cx="247.012" cy="116.508" r="58.754"/>
		<ellipse style="fill:#F44335;" cx="234.422" cy="116.508" rx="46.164" ry="58.754"/>
		<g>
			<circle style="fill:#FFEB3A;" cx="247.012" cy="116.508" r="25.18"/>
			<path style="fill:#FFEB3A;" d="M230.225,292.77h33.574c9.271,0,16.787,7.516,16.787,16.787l0,0
				c0,9.271-7.516,16.787-16.787,16.787h-33.574c-9.271,0-16.787-7.516-16.787-16.787l0,0
				C213.438,300.286,220.954,292.77,230.225,292.77z"/>
		</g>
	</g>
	<g>
		<path d="M252.012,184.656c-37.085,0-67.148-30.063-67.148-67.148s30.063-67.148,67.148-67.148s67.148,30.063,67.148,67.148
			C319.117,154.575,289.079,184.613,252.012,184.656L252.012,184.656z M252.012,67.148c-27.813,0-50.361,22.547-50.361,50.361
			s22.547,50.361,50.361,50.361s50.361-22.547,50.361-50.361C302.343,89.707,279.813,67.178,252.012,67.148L252.012,67.148z"/>
		<path d="M252.012,151.082c-18.542,0-33.574-15.031-33.574-33.574s15.031-33.574,33.574-33.574s33.574,15.031,33.574,33.574
			C285.566,136.042,270.546,151.062,252.012,151.082L252.012,151.082z M252.012,100.721c-9.271,0-16.787,7.516-16.787,16.787
			s7.516,16.787,16.787,16.787s16.787-7.516,16.787-16.787C268.789,108.241,261.279,100.732,252.012,100.721z"/>
		<path d="M115.119,503.607c-0.107,0-0.213,0-0.316-0.008c-3.64-0.134-6.778-2.601-7.766-6.107l-14.184-50.361
			c-0.471-1.668-0.414-3.44,0.164-5.074L196.34,149.27c1.242-3.943,5.171-6.393,9.258-5.774c4.087,0.619,7.114,4.124,7.132,8.258
			c0.001,0.979-0.161,1.951-0.48,2.877L109.729,445.139l6.406,22.738L224.57,170.033c1.023-2.819,3.474-4.878,6.427-5.4
			c2.954-0.522,5.961,0.572,7.889,2.87c1.928,2.298,2.482,5.45,1.455,8.268L123,498.082
			C121.796,501.397,118.646,503.605,115.119,503.607z"/>
		<path d="M388.906,504.025c-3.528-0.002-6.678-2.21-7.885-5.525L263.594,175.771c-1.568-4.353,0.681-9.153,5.029-10.735
			c4.348-1.581,9.155,0.654,10.75,4.997l108.455,298.074l6.357-22.951L291.607,154.803c-1.04-2.908-0.403-6.152,1.661-8.449
			c2.064-2.298,5.221-3.278,8.223-2.555c3.002,0.724,5.366,3.035,6.157,6.021l103.25,292.238c0.568,1.621,0.628,3.377,0.172,5.033
			l-14.074,50.779c-0.969,3.52-4.106,6.007-7.754,6.147C389.127,504.025,389.016,504.025,388.906,504.025z"/>
		<path d="M268.799,69.582c-2.226,0.001-4.362-0.884-5.936-2.458c-1.574-1.574-2.458-3.709-2.458-5.936V25.18
			c0-4.636-3.758-8.393-8.393-8.393c-4.636,0-8.393,3.758-8.393,8.393v36.008c0,4.636-3.758,8.393-8.393,8.393
			c-4.636,0-8.393-3.758-8.393-8.393V25.18c0-13.907,11.274-25.18,25.18-25.18c13.907,0,25.18,11.274,25.18,25.18v36.008
			c0.001,2.226-0.884,4.361-2.458,5.936C273.161,68.698,271.025,69.582,268.799,69.582z"/>
		<path d="M268.799,335.738h-33.574c-13.907,0-25.18-11.274-25.18-25.18c0-13.907,11.274-25.18,25.18-25.18h33.574
			c13.907,0,25.18,11.274,25.18,25.18C293.979,324.464,282.706,335.738,268.799,335.738L268.799,335.738z M235.225,302.164
			c-4.636,0-8.393,3.758-8.393,8.393c0,4.636,3.758,8.393,8.393,8.393h33.574c4.636,0,8.393-3.758,8.393-8.393
			c0-4.636-3.758-8.393-8.393-8.393H235.225z"/>
		<path d="M148.352,318.951H67.357c-4.636,0-8.393-3.758-8.393-8.393c0-4.636,3.758-8.393,8.393-8.393h80.996
			c4.636,0,8.393,3.758,8.393,8.393C156.746,315.193,152.988,318.951,148.352,318.951L148.352,318.951z"/>
		<path d="M218.438,318.951h-36.09c-4.636,0-8.393-3.758-8.393-8.393c0-4.636,3.758-8.393,8.393-8.393h36.09
			c4.636,0,8.393,3.758,8.393,8.393C226.832,315.193,223.074,318.951,218.438,318.951z"/>
		<path d="M321.594,318.951h-36.008c-4.636,0-8.393-3.758-8.393-8.393c0-4.636,3.758-8.393,8.393-8.393h36.008
			c4.636,0,8.393,3.758,8.393,8.393C329.987,315.193,326.229,318.951,321.594,318.951z"/>
		<path d="M436.668,318.951h-81.082c-4.636,0-8.393-3.758-8.393-8.393c0-4.636,3.758-8.393,8.393-8.393h81.082
			c4.636,0,8.393,3.758,8.393,8.393C445.061,315.193,441.304,318.951,436.668,318.951z"/>
		<path d="M109.324,335.738c-2.226,0.001-4.361-0.884-5.936-2.458c-1.574-1.574-2.458-3.709-2.458-5.936V293.77
			c0-4.636,3.758-8.393,8.393-8.393c4.636,0,8.393,3.758,8.393,8.393v33.574c0.001,2.226-0.884,4.361-2.458,5.936
			C113.685,334.854,111.55,335.738,109.324,335.738z"/>
		<path d="M394.701,335.738c-2.226,0.001-4.361-0.884-5.936-2.458c-1.574-1.574-2.458-3.709-2.458-5.936V293.77
			c0-4.636,3.758-8.393,8.393-8.393s8.393,3.758,8.393,8.393v33.574c0.001,2.226-0.883,4.362-2.457,5.936
			S396.927,335.739,394.701,335.738L394.701,335.738z"/>
	</g>
</g>
<g>
</g>
<g>
</g>
<g>
</g>
<g>
</g>
<g>
</g>
<g>
</g>
<g>
</g>
<g>
</g>
<g>
</g>
<g>
</g>
<g>
</g>
<g>
</g>
<g>
</g>
<g>
</g>
<g>
</g>
</svg>
