<?xml version="1.0" encoding="iso-8859-1"?>
<!-- Generator: Adobe Illustrator 19.0.0, SVG Export Plug-In . SVG Version: 6.00 Build 0)  -->
<svg version="1.1" id="Capa_1" xmlns="http://www.w3.org/2000/svg" xmlns:xlink="http://www.w3.org/1999/xlink" x="0px" y="0px"
	 viewBox="0 0 512.02 512.02" style="enable-background:new 0 0 512.02 512.02;" xml:space="preserve">
<g transform="translate(-1 -1)">
	<g transform="translate(2 2)">
		<g>
			<polygon style="fill:#CFD8DC;" points="340.594,157.489 339.997,157.916 297.544,171.825 285.341,135.473 327.88,121.564 
				331.378,122.076 			"/>
			<polygon style="fill:#CFD8DC;" points="387.954,178.652 388.466,182.151 374.472,224.689 338.12,212.487 352.029,170.375 
				352.626,169.521 			"/>
		</g>
		<path style="fill:#607D8B;" d="M502.045,35.633l-20.053,59.989c-1.661,5.083-4.496,9.702-8.277,13.483l-54.869,54.869
			c-8.286,8.322-19.204,13.509-30.89,14.677c-12.498,1.397-25.073-1.853-35.329-9.131c0-0.023-0.008-0.045-0.024-0.061
			c-0.016-0.016-0.038-0.025-0.061-0.024c-4.635-3.27-8.676-7.311-11.946-11.947c-14.51-20.498-12.208-48.456,5.46-66.304
			l54.87-54.869c3.781-3.78,8.4-6.616,13.483-8.277l59.989-20.053c3.083-0.992,6.462-0.205,8.789,2.048l8.363,8.448l8.448,8.363
			C502.251,29.171,503.038,32.55,502.045,35.633L502.045,35.633z"/>
		<path style="fill:#CFD8DC;" d="M502.045,35.633l-20.053,59.989c-1.661,5.083-4.496,9.702-8.277,13.483l-54.869,54.869
			c20.054-20.119,20.054-52.67,0-72.789l72.704-72.704l8.448,8.363C502.251,29.171,503.038,32.55,502.045,35.633L502.045,35.633z"/>
		<circle style="fill:#BDC3C7;" cx="382.455" cy="127.653" r="17.152"/>
		<g>
			<path style="fill:#00BCD4;" d="M303.645,170.033c-72.789,24.235-151.637,90.965-151.637,90.965l-115.2,115.2
				c-6.699,6.65-17.515,6.63-24.19-0.045c-6.675-6.675-6.694-17.491-0.043-24.19l97.023-97.024
				c47.446-47.531,113.493-83.797,139.947-97.365c6.844-3.472,10.541-11.075,9.045-18.603l-0.085-0.597
				c-0.91-4.459-0.01-9.097,2.504-12.891s6.433-6.432,10.894-7.333l6.059-1.195c4.246-0.846,8.456,1.607,9.815,5.717l3.668,11.008
				L303.645,170.033z"/>
			<path style="fill:#00BCD4;" d="M393.074,232.071l-1.194,6.059c-0.901,4.461-3.539,8.381-7.333,10.894
				c-3.794,2.513-8.432,3.414-12.892,2.503l-0.597-0.085c-7.528-1.496-15.131,2.201-18.603,9.045
				c-13.567,26.453-49.833,92.501-97.365,139.947l-97.024,97.024c-6.697,6.663-17.523,6.649-24.203-0.031
				c-6.68-6.68-6.694-17.506-0.031-24.203l115.2-115.2c0,0,66.731-78.848,90.965-151.637l36.352,12.203l11.008,3.669
				C391.468,223.615,393.92,227.825,393.074,232.071L393.074,232.071z"/>
		</g>
	</g>
	<g>
		<path d="M384.438,189.542c-24.263,0.021-46.147-14.586-55.435-37.001c-9.288-22.415-4.149-48.219,13.018-65.365
			c3.332-3.332,8.735-3.332,12.067,0c3.332,3.332,3.332,8.735,0,12.067c-12.275,12.275-15.948,30.737-9.304,46.775
			c6.643,16.039,22.294,26.496,39.654,26.496c17.36,0,33.011-10.457,39.654-26.496s2.971-34.5-9.304-46.775
			c-3.308-3.336-3.296-8.719,0.026-12.041c3.322-3.322,8.704-3.334,12.041-0.026c17.167,17.146,22.306,42.95,13.018,65.365
			C430.585,174.956,408.702,189.563,384.438,189.542L384.438,189.542z"/>
		<path d="M420.822,101.742c-3.451-0.001-6.562-2.08-7.882-5.268c-1.32-3.188-0.591-6.858,1.849-9.298l66.725-66.725l-2.35-2.35
			l-60.092,20.008c-3.793,1.271-7.241,3.402-10.075,6.225l-54.908,54.908c-3.332,3.332-8.735,3.332-12.067,0
			c-3.332-3.332-3.332-8.735,0-12.067l54.908-54.908c4.707-4.694,10.437-8.233,16.742-10.342l60.05-20.017
			c6.145-2.079,12.937-0.478,17.508,4.125l8.383,8.383c1.601,1.6,2.5,3.77,2.5,6.033c0,2.263-0.899,4.433-2.5,6.033l-72.758,72.758
			C425.257,100.845,423.085,101.745,420.822,101.742z"/>
		<path d="M420.822,174.509c-3.451-0.001-6.562-2.08-7.882-5.268c-1.32-3.188-0.591-6.858,1.849-9.298l54.908-54.908
			c2.823-2.834,4.954-6.282,6.225-10.075l20.016-60.05l-2.375-2.375l-66.708,66.708c-3.332,3.332-8.735,3.332-12.067,0
			c-3.332-3.332-3.332-8.735,0-12.067l72.758-72.758c1.6-1.601,3.77-2.5,6.033-2.5c2.263,0,4.433,0.899,6.033,2.5l8.383,8.383
			c4.6,4.569,6.202,11.356,4.133,17.5l-20.025,60.058c-2.108,6.304-5.648,12.034-10.342,16.742l-54.908,54.908
			C425.257,173.612,423.085,174.511,420.822,174.509L420.822,174.509z"/>
		<path d="M384.438,155.275c-10.388,0.001-19.754-6.256-23.729-15.853c-3.975-9.597-1.776-20.644,5.571-27.988
			c10.164-9.696,26.153-9.696,36.317,0c4.818,4.815,7.525,11.347,7.525,18.158c0,6.811-2.707,13.344-7.525,18.158l0,0v0.009
			C397.79,152.587,391.252,155.294,384.438,155.275z M384.438,120.975c-3.484-0.003-6.627,2.094-7.961,5.313
			c-1.334,3.219-0.596,6.924,1.869,9.387c3.402,3.269,8.777,3.273,12.183,0.009v-0.009c2.462-2.464,3.197-6.167,1.864-9.385
			C391.061,123.073,387.921,120.976,384.438,120.975L384.438,120.975z"/>
		<path d="M457.197,77.492c-2.264,0.003-4.435-0.897-6.033-2.5l-12.126-12.125c-3.332-3.332-3.332-8.735,0-12.067
			c3.332-3.332,8.735-3.332,12.067,0l12.125,12.125c2.44,2.44,3.169,6.11,1.849,9.298C463.759,75.412,460.648,77.491,457.197,77.492
			L457.197,77.492z"/>
		<path d="M293.48,144.192c-4.183-0.001-7.749-3.035-8.419-7.164c-0.671-4.129,1.751-8.136,5.719-9.461l36.383-12.125
			c4.464-1.475,9.279,0.94,10.768,5.4c1.488,4.459-0.913,9.282-5.368,10.784L296.18,143.75
			C295.31,144.042,294.398,144.191,293.48,144.192z"/>
		<path d="M26.688,391.742c-10.389,0.007-19.757-6.248-23.733-15.846c-3.976-9.598-1.775-20.646,5.575-27.987l97.017-97.017
			C153.939,202.5,221.055,165.617,247.672,152c3.431-1.767,5.284-5.586,4.55-9.375c-1.474-6.747-0.186-13.803,3.576-19.594
			c3.762-5.791,9.686-9.836,16.449-11.231l6.075-1.217c8.464-1.686,16.86,3.189,19.592,11.375l13.1,39.292l28.275-9.433
			c2.894-0.975,6.088-0.329,8.375,1.694c2.287,2.023,3.319,5.114,2.705,8.106c-0.614,2.991-2.781,5.426-5.68,6.384l-36.358,12.133
			h-0.017c-70.325,23.442-148,88.717-148.783,89.375L44.847,384.234C40.034,389.053,33.499,391.755,26.688,391.742L26.688,391.742z
			 M281.722,127.35l-6.125,1.183c-4.667,0.935-7.695,5.473-6.767,10.142c2.464,11.434-3.014,23.105-13.383,28.517
			c-25.9,13.25-91.158,49.092-137.833,95.767l-97.016,97.017c-3.347,3.368-3.34,8.808,0.017,12.167
			c3.356,3.359,8.797,3.37,12.167,0.025l115.209-115.209c3.65-3.133,75.883-63.85,146.875-90.175L281.722,127.35z"/>
		<path d="M378.372,229.084c-2.742-0.003-5.315-1.323-6.918-3.548c-1.603-2.225-2.039-5.084-1.174-7.685l12.125-36.383
			c1.501-4.455,6.324-6.856,10.784-5.368c4.459,1.488,6.874,6.304,5.4,10.768l-12.125,36.383
			C385.303,226.734,382.043,229.084,378.372,229.084L378.372,229.084z"/>
		<path d="M147.963,513.008c-10.388,0.011-19.759-6.241-23.737-15.838c-3.978-9.597-1.779-20.645,5.57-27.987l115.209-115.209
			c0.175-0.258,65.45-77.933,88.892-148.258v-0.017l12.133-36.358c0.958-2.9,3.393-5.066,6.384-5.68
			c2.991-0.614,6.083,0.417,8.106,2.705c2.023,2.287,2.669,5.482,1.694,8.375l-9.434,28.276l39.3,13.108
			c8.18,2.734,13.05,11.125,11.366,19.583l-1.217,6.075c-2.807,13.894-16.32,22.902-30.225,20.15
			c-3.949-0.962-8.049,0.859-9.983,4.433c-13.608,26.608-50.492,93.725-98.883,142.117L166.122,505.5
			C161.309,510.319,154.774,513.021,147.963,513.008z M347.247,219.167c-26.333,70.992-87.025,143.2-89.692,146.35L141.863,481.25
			c-3.345,3.37-3.334,8.81,0.025,12.167c3.359,3.356,8.799,3.364,12.167,0.017l97.017-97.016
			c46.675-46.675,82.517-111.933,95.758-137.825c5.257-10.224,16.645-15.736,27.925-13.517c2.307,0.58,4.752,0.202,6.775-1.05
			c2.024-1.251,3.455-3.269,3.966-5.592l1.217-6.075L347.247,219.167z"/>
	</g>
</g>
<g>
</g>
<g>
</g>
<g>
</g>
<g>
</g>
<g>
</g>
<g>
</g>
<g>
</g>
<g>
</g>
<g>
</g>
<g>
</g>
<g>
</g>
<g>
</g>
<g>
</g>
<g>
</g>
<g>
</g>
</svg>
