<?xml version="1.0" encoding="iso-8859-1"?>
<!-- Generator: Adobe Illustrator 19.0.0, SVG Export Plug-In . SVG Version: 6.00 Build 0)  -->
<svg version="1.1" id="Capa_1" xmlns="http://www.w3.org/2000/svg" xmlns:xlink="http://www.w3.org/1999/xlink" x="0px" y="0px"
	 viewBox="0 0 511.889 511.889" style="enable-background:new 0 0 511.889 511.889;" xml:space="preserve">
<g>
	<g transform="translate(1)">
		<g>
			<path style="fill:#CFD8DC;" d="M399.49,236.645c-0.196-14.35-8.119-27.477-20.723-34.339l36.668-42.64
				c8.684,12.809,22.452,21.27,37.803,23.231l15.092,21.629l-51.2,42.667L399.49,236.645z"/>
			<path style="fill:#CFD8DC;" d="M268.105,105.26c13.742,1.69,26.236,8.808,34.698,19.767l41.804-35.593
				c-11.761-9.613-19.806-23.022-22.753-37.922l-15.656-17.654l-59.733,51.2L268.105,105.26z"/>
		</g>
		<path style="fill:#4E342E;" d="M338.623,202.989l-10.24,20.565c-8.196,16.432-20.118,30.721-34.816,41.728l-55.723,41.813
			c-11.673,8.731-22.271,18.814-31.573,30.037L86.463,485.016c-6.063,7.307-14.924,11.721-24.409,12.16s-18.715-3.139-25.427-9.856
			l-3.071-3.072l-6.571-6.485l-9.558-9.643c-6.716-6.711-10.294-15.942-9.855-25.426c0.438-9.485,4.853-18.345,12.159-24.408
			l147.883-119.808c11.223-9.302,21.306-19.9,30.037-31.573l41.812-55.723c11.007-14.698,25.297-26.62,41.729-34.816l13.141-6.485
			l7.424-3.755L338.623,202.989z"/>
		<path style="fill:#795548;" d="M314.73,190.274l-10.24,20.48c-8.196,16.432-20.118,30.721-34.816,41.728l-55.723,41.813
			c-11.653,8.755-22.248,18.836-31.573,30.037L62.57,472.216c-7.1,8.543-17.951,13.043-29.013,12.032l-6.571-6.485l-9.558-9.643
			c-6.716-6.711-10.294-15.942-9.855-25.426c0.438-9.485,4.853-18.345,12.159-24.408l147.883-119.808
			c11.223-9.302,21.306-19.9,30.037-31.573l41.812-55.723c11.007-14.698,25.297-26.62,41.729-34.816l13.141-6.485L314.73,190.274z"
			/>
		<circle style="fill:#607D8B;" cx="357.659" cy="147.064" r="59.119"/>
		<path style="fill:#37474F;" d="M429.142,278.267l-29.613-29.613c-3.332-3.332-3.332-8.736,0-12.068l53.625-53.625
			c3.332-3.332,8.736-3.332,12.068,0l29.613,29.613c9.997,9.997,9.997,26.207,0,36.204l-29.489,29.489
			c-4.801,4.801-11.312,7.498-18.102,7.498C440.455,285.765,433.943,283.068,429.142,278.267L429.142,278.267z"/>
		<g>
			<path style="fill:#607D8B;" d="M408.85,261.93l-10.661-10.661c-3.332-3.332-3.332-8.736,0-12.068l53.625-53.625
				c3.333-3.333,8.736-3.333,12.068,0l10.661,10.661c9.997,9.997,9.997,26.207,0,36.204l-29.489,29.489
				C435.057,271.928,418.848,271.928,408.85,261.93L408.85,261.93z"/>
			<path style="fill:#607D8B;" d="M304.124,21.878l17.668,17.668c3.332,3.332,3.332,8.736,0,12.068l-53.625,53.625
				c-3.333,3.332-8.736,3.332-12.068,0l-17.668-17.668c-9.997-9.997-9.997-26.207,0-36.204l29.489-29.489
				C277.918,11.88,294.127,11.88,304.124,21.878L304.124,21.878z"/>
		</g>
	</g>
	<g>
		<path d="M358.688,214.721c-27.363-0.002-52.032-16.485-62.504-41.766c-10.472-25.28-4.685-54.38,14.662-73.73l0,0
			c21.653-21.647,55.144-26.053,81.659-10.744s39.443,46.519,31.52,76.093C416.103,194.149,389.306,214.716,358.688,214.721z
			 M322.913,111.292c-17.065,17.065-19.7,43.808-6.292,63.875s39.123,27.868,61.42,18.634c22.297-9.235,34.966-32.934,30.259-56.604
			c-4.707-23.67-25.478-40.72-49.612-40.722C345.272,96.482,332.406,101.81,322.913,111.292L322.913,111.292z"/>
		<path d="M454.247,191.429c-0.421,0-0.842-0.03-1.258-0.092c-17.687-2.33-33.541-12.092-43.583-26.837
			c-2.669-3.884-1.684-9.197,2.2-11.867c3.884-2.669,9.197-1.684,11.867,2.2c7.337,10.858,19.012,18.012,32.017,19.621
			c4.421,0.653,7.589,4.607,7.263,9.064C462.426,187.976,458.716,191.426,454.247,191.429L454.247,191.429z"/>
		<path d="M400.48,245.179c-4.509-0.007-8.236-3.52-8.508-8.021c-0.069-11.424-6.328-21.912-16.35-27.396
			c-2.685-1.469-4.377-4.264-4.435-7.324c-0.057-3.06,1.529-5.917,4.157-7.485c2.628-1.569,5.895-1.61,8.561-0.107
			c15.185,8.245,24.77,24.012,25.1,41.287c0.284,4.702-3.298,8.745-8,9.029C400.83,245.175,400.655,245.179,400.48,245.179z"/>
		<path d="M345.597,97.967c-1.878,0.002-3.704-0.619-5.192-1.766c-13.491-10.95-22.691-26.305-25.983-43.366
			c-0.719-4.652,2.465-9.008,7.115-9.737c4.651-0.728,9.013,2.446,9.751,7.095c2.63,12.727,9.513,24.179,19.517,32.475
			c2.899,2.228,4.057,6.055,2.878,9.516C352.505,95.644,349.253,97.97,345.597,97.967z"/>
		<path d="M303.813,133.562c-2.778,0.006-5.385-1.344-6.983-3.617c-7.036-8.903-17.266-14.711-28.517-16.192
			c-4.671-0.454-8.099-4.595-7.673-9.268c0.426-4.674,4.547-8.126,9.223-7.727c16.238,1.923,31.003,10.35,40.917,23.354
			c1.835,2.604,2.068,6.013,0.603,8.841C309.918,131.782,306.999,133.559,303.813,133.562L303.813,133.562z"/>
		<path d="M448.272,294.296c-9.06,0.026-17.754-3.575-24.142-10l-29.608-29.612c-6.659-6.667-6.659-17.467,0-24.133l53.625-53.625
			c3.187-3.211,7.526-5.011,12.05-5h0.017c4.529-0.012,8.874,1.788,12.067,5l29.608,29.612c6.403,6.4,10,15.082,10,24.135
			c0,9.053-3.597,17.735-10,24.135l-29.483,29.488C466.02,290.719,457.329,294.32,448.272,294.296L448.272,294.296z
			 M406.588,242.616l29.608,29.612c6.672,6.654,17.47,6.654,24.142,0l29.483-29.488c3.201-3.201,5-7.542,5-12.069
			c0-4.527-1.799-8.868-5-12.069l-29.608-29.612L406.588,242.616z"/>
		<path d="M263.13,116.229c-4.527,0.013-8.872-1.784-12.067-4.992v-0.004l-17.667-17.671c-6.403-6.4-10-15.082-10-24.135
			s3.597-17.735,10-24.135l29.492-29.488c13.506-12.892,34.76-12.892,48.267,0l17.667,17.667c6.658,6.668,6.658,17.469,0,24.137
			l-53.625,53.625C272.004,114.445,267.658,116.244,263.13,116.229L263.13,116.229z M263.13,99.162l0.009,0.009l53.617-53.629
			l-17.667-17.671c-6.755-6.442-17.378-6.442-24.133,0l-29.492,29.488c-3.201,3.201-5,7.542-5,12.069s1.799,8.868,5,12.069
			L263.13,99.162z"/>
		<path d="M61.514,505.754c-11.217,0.001-21.976-4.448-29.917-12.371l-19.233-19.229C3.96,465.73-0.51,454.159,0.046,442.274
			s6.089-22.988,15.242-30.59l147.933-119.858c10.679-8.857,20.271-18.948,28.575-30.063l41.817-55.683
			c11.828-15.737,27.146-28.514,44.75-37.325l20.55-10.271c2.729-1.375,5.984-1.187,8.536,0.494s4.01,4.598,3.824,7.647
			c-0.186,3.05-1.989,5.767-4.726,7.125l-20.55,10.271c-15.235,7.621-28.492,18.677-38.725,32.296l-41.808,55.671
			c-9.129,12.215-19.675,23.303-31.417,33.033L26.105,424.883c-5.429,4.546-8.701,11.161-9.019,18.234
			c-0.318,7.073,2.346,13.955,7.344,18.97l19.233,19.229c5.025,5.008,11.925,7.673,19.012,7.342
			c7.087-0.33,13.709-3.626,18.246-9.08l119.742-147.796c9.752-11.785,20.875-22.363,33.133-31.512l55.625-41.783
			c13.624-10.236,24.684-23.497,32.308-38.737l10.275-20.546c2.116-4.2,7.232-5.896,11.438-3.792
			c4.206,2.103,5.919,7.213,3.829,11.426l-10.275,20.546c-8.813,17.611-21.596,32.935-37.342,44.763l-55.642,41.796
			c-11.153,8.322-21.275,17.944-30.15,28.663L94.13,490.392c-7.606,9.187-18.728,14.747-30.642,15.317
			C62.83,505.737,62.172,505.754,61.514,505.754z"/>
	</g>
</g>
<g>
</g>
<g>
</g>
<g>
</g>
<g>
</g>
<g>
</g>
<g>
</g>
<g>
</g>
<g>
</g>
<g>
</g>
<g>
</g>
<g>
</g>
<g>
</g>
<g>
</g>
<g>
</g>
<g>
</g>
</svg>
