<?xml version="1.0" encoding="iso-8859-1"?>
<!-- Generator: Adobe Illustrator 19.0.0, SVG Export Plug-In . SVG Version: 6.00 Build 0)  -->
<svg version="1.1" id="Capa_1" xmlns="http://www.w3.org/2000/svg" xmlns:xlink="http://www.w3.org/1999/xlink" x="0px" y="0px"
	 viewBox="0 0 512.047 512.047" style="enable-background:new 0 0 512.047 512.047;" xml:space="preserve">
<g>
	<g transform="translate(1 1)">
		<path style="fill:#CFD8DC;" d="M496.634,137.408l-17.067-17.067c1.086,1.199,1.652,2.781,1.572,4.398
			c-0.08,1.616-0.799,3.135-1.999,4.221l-22.869,22.869c-12.456-10.352-28.094-16.107-44.289-16.299
			c-23.782-0.157-46.607,9.361-63.232,26.368c-19.526,18.87-28.986,45.858-25.515,72.789c0.54,4.529-1.3,9.016-4.865,11.861
			c-37.631,31.317-74.837,50.859-101.033,53.589l16.725,17.152c26.197-2.645,63.573-22.187,101.375-53.675
			c3.565-2.846,5.405-7.332,4.864-11.861c-3.471-26.931,5.989-53.919,25.515-72.789c16.625-17.007,39.45-26.524,63.232-26.368
			c16.195,0.192,31.832,5.946,44.289,16.299l22.869-22.869c1.2-1.086,1.919-2.604,1.999-4.221
			C498.286,140.189,497.721,138.607,496.634,137.408L496.634,137.408z"/>
		<path style="fill:#F5F5F5;" d="M479.568,120.341L366.757,7.53l-7.083,69.291c-0.987,8.443-5.802,15.963-13.056,20.395
			c-24.285,15.634-46.778,33.892-67.072,54.443c-46.677,46.677-76.715,97.024-80.299,129.963l18.092,18.517
			c26.196-2.731,63.402-22.272,101.033-53.589c3.565-2.846,5.405-7.332,4.865-11.861c-3.471-26.931,5.989-53.919,25.515-72.789
			c16.625-17.007,39.45-26.525,63.232-26.368c16.195,0.192,31.832,5.946,44.289,16.299l22.869-22.869
			c1.2-1.086,1.919-2.604,1.999-4.221C481.219,123.122,480.654,121.54,479.568,120.341z M297.978,222.4
			c-2.611,11.517-7.327,22.452-13.909,32.256c-5.02,4.563-12.245,5.77-18.476,3.087c-6.231-2.684-10.318-8.762-10.452-15.545
			c-0.245-4.458,1.433-8.807,4.608-11.947c4.696-3.765,10.048-6.63,15.787-8.448c5.717-2.219,11.776-4.096,16.384-5.376
			c1.7-0.534,3.556-0.085,4.825,1.166C298.012,218.843,298.487,220.692,297.978,222.4z"/>
		<path style="fill:#D1D4D1;" d="M193.53,329.322c-0.575,0.028-1.151-0.03-1.708-0.171c-0.549-0.115-1.091-0.258-1.625-0.429
			c-0.5-0.254-0.984-0.538-1.45-0.85c-0.464-0.29-0.892-0.634-1.275-1.025c-0.787-0.822-1.425-1.775-1.883-2.817
			c-0.408-1.031-0.609-2.133-0.592-3.242c-0.027-0.546,0.029-1.092,0.167-1.621c0.092-0.554,0.234-1.098,0.425-1.625
			c0.237-0.511,0.525-0.996,0.858-1.45c0.245-0.495,0.595-0.932,1.025-1.279c0.404-0.393,0.83-0.763,1.275-1.108
			c0.447-0.319,0.934-0.577,1.45-0.767c0.519-0.237,1.064-0.409,1.625-0.513c2.799-0.541,5.684,0.355,7.683,2.388
			c0.433,0.366,0.807,0.798,1.108,1.279c0.335,0.437,0.594,0.927,0.767,1.45c0.26,0.509,0.432,1.058,0.508,1.625
			c0.104,0.534,0.162,1.077,0.175,1.621c-0.014,1.115-0.246,2.216-0.683,3.242c-0.391,1.075-1.034,2.041-1.875,2.817
			C197.932,328.449,195.775,329.342,193.53,329.322z"/>
		<path style="fill:#4E342E;" d="M236.026,333.162c-1.28-8.96-6.913-21.248-22.357-36.779c-2.832-2.869-5.823-5.575-8.96-8.107
			c7.206,7.794,12.135,17.417,14.251,27.819c1.15,9.322-5.244,17.898-14.507,19.456c-12.339,2.897-23.698,8.989-32.939,17.664
			L74.234,470.634c-7.706,9.31-19.147,14.718-31.233,14.763c-6.068-0.005-12.054-1.407-17.493-4.096
			c-3.016-1.503-5.924-3.214-8.703-5.12c6.601,9.433,15.461,17.061,25.77,22.187c5.44,2.689,11.425,4.091,17.493,4.096
			c12.085-0.045,23.526-5.453,31.232-14.763l97.28-117.419c9.241-8.675,20.601-14.767,32.94-17.664
			C230.783,351.06,237.176,342.484,236.026,333.162z"/>
		<path style="fill:#795548;" d="M218.959,316.096c-2.115-10.402-7.045-20.024-14.251-27.819
			c-7.794-7.206-17.416-12.135-27.818-14.251c-9.323-1.151-17.899,5.243-19.456,14.507c-2.897,12.339-8.99,23.699-17.665,32.939
			l-117.419,97.28c-14.398,11.819-18.81,31.972-10.667,48.725c1.503,3.017,3.214,5.925,5.121,8.704
			c2.779,1.906,5.687,3.617,8.703,5.12c5.44,2.689,11.425,4.091,17.493,4.096c12.085-0.045,23.526-5.453,31.232-14.763
			l97.28-117.419c9.241-8.675,20.601-14.767,32.94-17.664C213.716,333.993,220.109,325.418,218.959,316.096z M73.38,461.077
			c-3.236,3.237-7.625,5.056-12.203,5.056c-4.577,0-8.967-1.819-12.203-5.056c-6.739-6.739-6.739-17.666,0-24.405
			c6.739-6.739,17.666-6.739,24.405,0c3.237,3.236,5.056,7.625,5.056,12.203S76.618,457.841,73.38,461.077L73.38,461.077z"/>
	</g>
	<g>
		<path d="M65.388,512.047c-7.422-0.003-14.743-1.721-21.392-5.021C28.972,499.553,16.8,487.377,9.33,472.351
			c-9.993-20.251-4.677-44.72,12.817-59l117.241-97.117v0.004c7.134-8.024,12.185-17.68,14.708-28.117
			c2.562-13.63,15.288-22.914,29.05-21.192c16.098,3.674,30.62,12.351,41.483,24.787l0,0c12.439,10.864,21.118,25.389,24.792,41.492
			c1.722,13.762-7.562,26.487-21.192,29.05c-10.689,2.582-20.546,7.842-28.642,15.283l-96.583,116.663
			C93.757,505.468,79.962,512.012,65.388,512.047L65.388,512.047z M179.513,283.73c-4.399,0.209-8.039,3.492-8.7,7.846
			c-3.238,13.961-10.115,26.815-19.933,37.254L33.03,426.493c-11.379,9.248-14.866,25.127-8.408,38.292
			c5.808,11.675,15.267,21.136,26.942,26.946c13.165,6.45,29.04,2.964,38.292-8.408l97.125-117.254
			c10.507-10.136,23.569-17.23,37.792-20.525c4.811-0.685,8.233-5.033,7.767-9.871c-0.933-6.367-5.15-17.063-19.975-31.888l0,0
			c-14.817-14.817-25.517-19.038-31.883-19.971C180.294,283.759,179.904,283.731,179.513,283.73L179.513,283.73z"/>
		<path d="M66.372,475.718c-12.281-0.009-22.845-8.692-25.233-20.738c-2.388-12.046,4.066-24.102,15.415-28.795
			c11.349-4.693,24.432-0.717,31.25,9.498c6.818,10.214,5.472,23.822-3.215,32.503C79.761,473.02,73.205,475.731,66.372,475.718z
			 M66.38,441.289c-4.144,0.001-7.709,2.929-8.517,6.994c-0.807,4.064,1.369,8.133,5.198,9.717
			c3.829,1.584,8.244,0.244,10.544-3.202c2.301-3.446,1.847-8.038-1.084-10.967C70.894,442.201,68.684,441.286,66.38,441.289
			L66.38,441.289z"/>
		<path d="M194.272,330.664c-2.284,0.007-4.472-0.919-6.059-2.562c-1.605-1.57-2.499-3.726-2.475-5.971
			c-0.025-2.27,0.867-4.455,2.475-6.059c3.389-3.158,8.644-3.158,12.033,0c1.627,1.597,2.548,3.779,2.558,6.059
			C202.69,326.795,198.936,330.549,194.272,330.664L194.272,330.664z"/>
		<path d="M235.03,326.864c-4.543-0.003-8.288-3.565-8.517-8.103s3.138-8.459,7.658-8.918c24.75-2.529,60.95-21.883,96.85-51.771
			c1.243-0.99,1.921-2.527,1.817-4.112c-3.82-29.579,6.533-59.227,27.933-80c18.273-18.669,43.361-29.09,69.483-28.862
			c15.438,0.195,30.485,4.885,43.3,13.496l16.108-16.108L374.447,27.264l-5.242,51.425c-1.316,11.064-7.606,20.925-17.084,26.783
			c-23.737,15.286-45.724,33.132-65.567,53.217c-43.8,43.8-74.358,92.821-77.858,124.887c-0.33,3.031-2.253,5.655-5.043,6.884
			c-2.79,1.229-6.024,0.877-8.483-0.925c-2.46-1.802-3.771-4.778-3.441-7.809c3.95-36.246,35.667-88.013,82.758-135.104
			c20.756-21,43.758-39.653,68.592-55.625c5.041-3.068,8.41-8.266,9.15-14.121l7.059-69.212c0.337-3.276,2.528-6.066,5.631-7.17
			s6.564-0.324,8.894,2.003l129.875,129.875c5.57,5.864,5.346,15.128-0.5,20.717l-22.642,22.646
			c-3.157,3.192-8.216,3.481-11.716,0.671c-10.955-9.099-24.718-14.132-38.958-14.246c-21.436,0.018-41.973,8.612-57.033,23.867
			c-17.593,16.959-26.158,41.222-23.108,65.467c0.974,7.473-1.974,14.919-7.8,19.7c-38.967,32.446-77.617,52.725-106.025,55.625
			C235.615,326.85,235.323,326.865,235.03,326.864z"/>
		<path d="M273.605,268.839c-14.182-0.063-25.744-11.389-26.1-25.567c-0.187-6.747,2.414-13.274,7.192-18.042
			c2.033-2.033,8.217-8.212,35.942-16.046c4.671-1.356,9.71-0.063,13.151,3.376c3.44,3.439,4.737,8.477,3.383,13.149l0,0
			c-2.637,13.018-8.118,25.292-16.05,35.946C286.472,266.287,280.167,268.872,273.605,268.839L273.605,268.839z M288.822,227.53
			c-7.882,1.9-15.355,5.211-22.059,9.771c-1.473,1.493-2.268,3.525-2.2,5.621c0.065,2.328,1.03,4.54,2.692,6.171
			c3.127,3.384,8.402,3.604,11.8,0.492C283.615,242.883,286.924,235.411,288.822,227.53L288.822,227.53z"/>
	</g>
</g>
<g>
</g>
<g>
</g>
<g>
</g>
<g>
</g>
<g>
</g>
<g>
</g>
<g>
</g>
<g>
</g>
<g>
</g>
<g>
</g>
<g>
</g>
<g>
</g>
<g>
</g>
<g>
</g>
<g>
</g>
</svg>
