<?xml version="1.0" encoding="iso-8859-1"?>
<!-- Generator: Adobe Illustrator 19.0.0, SVG Export Plug-In . SVG Version: 6.00 Build 0)  -->
<svg version="1.1" id="Capa_1" xmlns="http://www.w3.org/2000/svg" xmlns:xlink="http://www.w3.org/1999/xlink" x="0px" y="0px"
	 viewBox="0 0 512.043 512.043" style="enable-background:new 0 0 512.043 512.043;" xml:space="preserve">
<g transform="translate(-1)">
	<g transform="translate(2 1)">
		<path style="fill:#CFD8DC;" d="M494.659,155.498l-19.115,12.459L233.965,325.567l-17.067-17.067l-32.427-32.427L298.648,100.97
			l55.893-85.589c2.816-4.349,7.446-7.194,12.598-7.74s10.276,1.263,13.942,4.924l41.131,41.131l58.196,58.197l17.067,17.067
			c3.662,3.665,5.472,8.789,4.926,13.941C501.853,148.053,499.009,152.682,494.659,155.498z"/>
		<path style="fill:#F5F5F5;" d="M477.593,138.431l-19.115,12.459L216.899,308.501l-32.427-32.427L298.648,100.97l55.893-85.589
			c2.816-4.349,7.446-7.194,12.598-7.74s10.276,1.263,13.942,4.924l41.131,41.131l58.196,58.197
			c3.662,3.665,5.472,8.789,4.926,13.941C484.787,130.986,481.942,135.616,477.593,138.431z"/>
		<path style="fill:#4E342E;" d="M236.013,333.162c-1.28-8.96-6.913-21.248-22.357-36.779c-2.832-2.869-5.823-5.575-8.96-8.107
			c7.206,7.794,12.135,17.417,14.251,27.819c1.15,9.322-5.244,17.898-14.507,19.456c-12.339,2.897-23.698,8.989-32.939,17.664
			L74.222,470.634c-7.706,9.31-19.147,14.718-31.233,14.763c-6.068-0.005-12.054-1.407-17.493-4.096
			c-3.016-1.503-5.924-3.214-8.703-5.12c6.601,9.433,15.461,17.061,25.77,22.187c5.44,2.689,11.425,4.091,17.493,4.096
			c12.085-0.045,23.526-5.453,31.232-14.763l97.28-117.419c9.241-8.675,20.601-14.767,32.94-17.664
			C230.77,351.059,237.164,342.484,236.013,333.162z"/>
		<path style="fill:#795548;" d="M218.947,316.095c-2.115-10.402-7.045-20.024-14.251-27.819
			c-7.794-7.206-17.416-12.135-27.818-14.251c-9.323-1.151-17.899,5.243-19.456,14.507c-2.897,12.339-8.99,23.699-17.665,32.939
			l-117.419,97.28C7.94,430.57,3.529,450.723,11.672,467.477c1.503,3.017,3.214,5.925,5.121,8.704
			c2.779,1.906,5.687,3.617,8.703,5.12c5.44,2.689,11.425,4.091,17.493,4.096c12.085-0.045,23.526-5.453,31.232-14.763
			l97.28-117.419c9.241-8.675,20.601-14.767,32.94-17.664C213.704,333.993,220.097,325.418,218.947,316.095z M73.368,461.077
			c-3.236,3.237-7.625,5.056-12.203,5.056s-8.967-1.819-12.203-5.056c-6.739-6.739-6.739-17.666,0-24.405
			c6.739-6.739,17.666-6.739,24.405,0c3.237,3.236,5.056,7.625,5.056,12.203C78.424,453.451,76.605,457.841,73.368,461.077
			L73.368,461.077z"/>
		<path style="fill:#D1D4D1;" d="M189.251,329.322c-0.575,0.028-1.151-0.029-1.708-0.171c-0.549-0.115-1.091-0.258-1.625-0.429
			c-0.5-0.254-0.984-0.538-1.45-0.85c-0.464-0.29-0.892-0.634-1.275-1.025c-0.787-0.822-1.425-1.775-1.883-2.817
			c-0.408-1.031-0.609-2.133-0.592-3.242c-0.027-0.546,0.029-1.092,0.167-1.621c0.092-0.554,0.234-1.097,0.425-1.625
			c0.237-0.511,0.525-0.996,0.858-1.45c0.245-0.495,0.595-0.932,1.025-1.279c0.404-0.393,0.83-0.763,1.275-1.108
			c0.447-0.319,0.934-0.577,1.45-0.767c0.519-0.237,1.064-0.409,1.625-0.512c2.799-0.541,5.684,0.355,7.683,2.388
			c0.433,0.367,0.807,0.798,1.108,1.279c0.335,0.437,0.594,0.927,0.767,1.45c0.26,0.509,0.432,1.058,0.508,1.625
			c0.104,0.534,0.162,1.077,0.175,1.621c-0.014,1.115-0.246,2.216-0.683,3.242c-0.391,1.075-1.034,2.041-1.875,2.817
			C193.653,328.449,191.496,329.342,189.251,329.322L189.251,329.322z"/>
		<path style="fill:#FDD834;" d="M494.659,155.498l-19.115,12.459l-17.067-17.067l19.115-12.459
			c4.349-2.816,7.194-7.445,7.74-12.598s-1.264-10.276-4.926-13.941l17.067,17.067c3.662,3.665,5.472,8.789,4.926,13.941
			S499.009,152.682,494.659,155.498z"/>
		<path style="fill:#FFEB3A;" d="M477.593,138.431l-19.115,12.459l-25.259-25.259c-6.75-6.713-17.655-6.713-24.405,0l-18.347,18.261
			c-3.219,3.236-7.595,5.056-12.16,5.056c-4.565,0-8.941-1.82-12.16-5.056c-3.258-3.15-5.078-7.5-5.035-12.032v-0.085
			c-0.045-4.582,1.772-8.986,5.035-12.203l24.32-24.405c4.92-4.908,6.411-12.291,3.782-18.724
			c-2.629-6.433-8.865-10.658-15.814-10.716h-0.171c-4.549-0.005-8.911,1.807-12.117,5.035l-36.608,36.608
			c-3.236,3.237-7.625,5.056-12.203,5.056c-4.577,0-8.967-1.819-12.203-5.056l-6.144-6.144l-0.341-0.256l3.841-5.888l52.052-79.701
			c2.816-4.349,7.446-7.194,12.598-7.74c5.152-0.547,10.276,1.263,13.942,4.924l41.131,41.131l58.196,58.197
			c3.662,3.665,5.472,8.789,4.926,13.941C484.787,130.986,481.942,135.616,477.593,138.431L477.593,138.431z"/>
	</g>
	<g>
		<path d="M62.159,512.043c-7.431-0.004-14.76-1.724-21.417-5.025c-15.048-7.482-27.241-19.674-34.725-34.721
			c-10.002-20.282-4.676-44.783,12.842-59.083l117.433-97.279v0.004c7.148-8.038,12.208-17.711,14.733-28.167
			c2.558-13.655,15.308-22.956,29.092-21.221c16.124,3.681,30.668,12.371,41.55,24.825l0,0
			c12.452,10.88,21.142,25.421,24.825,41.542c1.725,13.782-7.574,26.527-21.225,29.092c-10.707,2.589-20.58,7.859-28.692,15.312
			L99.834,494.18C90.57,505.457,76.754,512.008,62.159,512.043L62.159,512.043z M176.484,283.351
			c-4.418,0.208-8.076,3.503-8.742,7.875c-3.24,13.98-10.127,26.851-19.958,37.304L29.743,426.355
			c-11.404,9.266-14.898,25.18-8.425,38.371c5.816,11.698,15.294,21.175,26.992,26.992c13.193,6.473,29.107,2.979,38.375-8.425
			l97.283-117.446c10.526-10.148,23.607-17.251,37.85-20.554c4.828-0.687,8.26-5.05,7.792-9.904
			c-0.933-6.375-5.167-17.1-20.008-31.946c-14.85-14.85-25.575-19.075-31.95-20.004C177.265,283.38,176.875,283.351,176.484,283.351
			z"/>
		<path d="M63.159,475.659c-10.43,0.008-19.836-6.271-23.828-15.906s-1.784-20.727,5.595-28.098l0,0v-0.004
			c10.203-9.736,26.257-9.734,36.458,0.004c7.378,7.37,9.588,18.459,5.597,28.094C82.991,469.384,73.588,475.664,63.159,475.659
			L63.159,475.659z M63.151,441.168c-2.311-0.004-4.529,0.915-6.158,2.554v0.004c-2.93,2.939-3.376,7.539-1.066,10.987
			c2.31,3.448,6.734,4.784,10.567,3.192c3.833-1.592,6.007-5.67,5.195-9.739C70.875,444.095,67.301,441.166,63.151,441.168
			L63.151,441.168z"/>
		<path d="M191.251,330.322c-0.575,0.028-1.151-0.029-1.708-0.171c-0.549-0.115-1.091-0.258-1.625-0.429
			c-0.5-0.254-0.984-0.538-1.45-0.85c-0.464-0.29-0.892-0.634-1.275-1.025c-0.787-0.822-1.425-1.775-1.883-2.817
			c-0.408-1.031-0.609-2.133-0.592-3.242c-0.027-0.546,0.029-1.092,0.167-1.621c0.092-0.554,0.234-1.097,0.425-1.625
			c0.237-0.511,0.525-0.996,0.858-1.45c0.245-0.495,0.595-0.932,1.025-1.279c0.404-0.393,0.83-0.763,1.275-1.108
			c0.447-0.319,0.934-0.577,1.45-0.767c0.519-0.237,1.064-0.409,1.625-0.512c2.799-0.541,5.684,0.355,7.683,2.388
			c0.433,0.367,0.807,0.798,1.108,1.279c0.335,0.437,0.594,0.927,0.767,1.45c0.26,0.509,0.432,1.058,0.508,1.625
			c0.104,0.534,0.162,1.077,0.175,1.621c-0.014,1.115-0.246,2.216-0.683,3.242c-0.391,1.075-1.034,2.041-1.875,2.817
			C195.653,329.449,193.496,330.342,191.251,330.322L191.251,330.322z"/>
		<path d="M236.009,335.097c-3.778,0.005-7.109-2.475-8.188-6.095c-1.079-3.62,0.35-7.519,3.513-9.584l260.692-170.05
			c2.202-1.438,3.636-3.795,3.9-6.412c0.289-2.587-0.627-5.163-2.483-6.988L377.076,19.593c-1.833-1.845-4.405-2.758-6.992-2.483
			c-2.625,0.269-4.987,1.712-6.425,3.925L193.626,281.701c-2.579,3.938-7.86,5.045-11.803,2.473
			c-3.943-2.571-5.06-7.85-2.497-11.798L349.368,11.705c4.233-6.504,11.174-10.753,18.892-11.564
			c7.718-0.811,15.39,1.902,20.883,7.385l116.367,116.371c5.479,5.491,8.192,13.158,7.385,20.873s-5.047,14.655-11.544,18.894
			l-19.175,12.454L240.668,333.709C239.283,334.614,237.664,335.096,236.009,335.097L236.009,335.097z"/>
		<path d="M477.884,177.863c-2.264,0.003-4.435-0.897-6.033-2.5l-42.692-42.692c-3.447-3.296-8.878-3.296-12.325,0l-18.3,18.295
			c-10.201,9.742-26.258,9.742-36.458,0c-4.839-4.834-7.558-11.393-7.558-18.233c0-6.84,2.719-13.399,7.558-18.233l24.392-24.392
			c1.638-1.633,2.558-3.85,2.558-6.163s-0.921-4.53-2.558-6.163c-3.445-3.301-8.878-3.303-12.325-0.004l-36.6,36.592
			c-10.201,9.742-26.258,9.742-36.458,0l-6.1-6.1c-3.332-3.332-3.332-8.735,0-12.067c3.332-3.332,8.735-3.332,12.067,0l6.1,6.1
			c3.447,3.296,8.878,3.296,12.325,0l36.6-36.592c10.201-9.742,26.258-9.742,36.458,0c4.839,4.834,7.558,11.393,7.558,18.233
			s-2.719,13.399-7.558,18.233l-24.392,24.392c-1.638,1.633-2.558,3.85-2.558,6.163c0,2.313,0.921,4.53,2.558,6.163
			c3.445,3.301,8.878,3.303,12.325,0.004l18.3-18.295c10.201-9.742,26.258-9.742,36.458,0l42.692,42.692
			c2.44,2.44,3.169,6.11,1.849,9.298C484.446,175.783,481.336,177.862,477.884,177.863L477.884,177.863z"/>
	</g>
</g>
<g>
</g>
<g>
</g>
<g>
</g>
<g>
</g>
<g>
</g>
<g>
</g>
<g>
</g>
<g>
</g>
<g>
</g>
<g>
</g>
<g>
</g>
<g>
</g>
<g>
</g>
<g>
</g>
<g>
</g>
</svg>
