<?xml version="1.0" encoding="iso-8859-1"?>
<!-- Generator: Adobe Illustrator 19.0.0, SVG Export Plug-In . SVG Version: 6.00 Build 0)  -->
<svg version="1.1" id="Capa_1" xmlns="http://www.w3.org/2000/svg" xmlns:xlink="http://www.w3.org/1999/xlink" x="0px" y="0px"
	 viewBox="0 0 511.99 511.99" style="enable-background:new 0 0 511.99 511.99;" xml:space="preserve">
<g>
	<g transform="translate(0 1)">
		<path style="fill:#424242;" d="M498.332,209.422L307.698,400.056c-20.38,20.309-53.348,20.309-73.728,0l-5.717-5.717
			L110.919,277.006c-20.31-20.38-20.31-53.348,0-73.728L301.554,12.643c4.288-4.341,10.566-6.065,16.469-4.523
			c3.119,0.66,5.971,2.235,8.192,4.523L498.332,184.76c3.278,3.266,5.12,7.703,5.12,12.331
			C503.452,201.718,501.61,206.155,498.332,209.422z"/>
		<path style="fill:#9E9E9E;" d="M479.474,194.147L288.839,384.782c-15.977,16.005-40.459,19.867-60.587,9.557L110.919,277.006
			c-20.31-20.38-20.31-53.348,0-73.728L301.554,12.643c4.288-4.341,10.566-6.065,16.469-4.523l161.451,161.451
			c3.277,3.249,5.12,7.673,5.12,12.288C484.594,186.474,482.75,190.897,479.474,194.147z"/>
		<path style="fill:#37474F;" d="M332.359,375.395l-24.661,24.661c-20.38,20.309-53.348,20.309-73.728,0l-11.093-11.093
			L110.919,277.006c-20.31-20.38-20.31-53.348,0-73.728l24.661-24.661L332.359,375.395z"/>
		<path style="fill:#607D8B;" d="M315.719,356.792l-24.661,24.661c-17.658,17.57-45.257,20.248-65.963,6.4L113.138,275.896
			c-20.31-20.38-20.31-53.348,0-73.728l23.979-23.979L315.719,356.792z"/>
		<path style="fill:#4E342E;" d="M197.02,363.107L67.911,492.302c-13.597,13.596-35.641,13.596-49.237,0
			c-13.597-13.597-13.597-35.641,0-49.237l128.768-128.768l0.427-0.341L197.02,363.107z"/>
		<path style="fill:#795548;" d="M179.186,346.04L50.076,475.235c-10.006,10.032-25.106,12.971-38.144,7.424
			c-6.382-13.292-3.68-29.164,6.741-39.595l128.768-128.768L179.186,346.04z"/>
		<polygon style="fill:#CFD8DC;" points="393.799,313.955 375.282,332.472 363.164,344.59 332.359,375.395 135.58,178.616 
			166.386,147.811 178.503,135.694 196.85,117.347 197.02,117.176 		"/>
		<polygon style="fill:#F5F5F5;" points="376.391,296.12 315.122,357.39 136.519,178.787 167.324,147.982 179.442,135.864 
			197.788,117.518 		"/>
		<path style="fill:#FDD834;" d="M498.332,209.422l-12.288,12.288l-18.432-18.432c-1.031-1.047-2.21-1.938-3.499-2.645l0.512-0.939
			l12.288-12.288c5.874-5.812,6.804-14.971,2.219-21.845l19.2,19.2c3.278,3.266,5.12,7.703,5.12,12.331
			C503.452,201.718,501.61,206.155,498.332,209.422z"/>
		<path style="fill:#FFEB3A;" d="M481.076,190.99l-12.288,12.288l-0.512,0.939c-6.789-4.114-15.516-3.019-21.077,2.645
			l-43.093,43.008c-3.232,3.303-7.667,5.151-12.288,5.12c-5.58-0.011-10.816-2.699-14.077-7.228
			c-3.261-4.528-4.151-10.346-2.393-15.642c0.805-2.588,2.242-4.934,4.181-6.827l30.72-30.72c3.278-3.266,5.12-7.703,5.12-12.331
			c0-4.627-1.842-9.064-5.12-12.331c-4.514-4.503-11.162-6.116-17.237-4.181c-2.763,0.745-5.289,2.185-7.339,4.181l-6.144,6.144
			c-3.25,3.275-7.674,5.118-12.288,5.12c-5.58-0.012-10.815-2.7-14.076-7.228c-3.261-4.528-4.151-10.346-2.393-15.641
			c0.825-2.578,2.259-4.92,4.181-6.827l55.296-55.296l73.045,72.96C487.88,176.018,486.949,185.178,481.076,190.99z"/>
	</g>
	<g>
		<path d="M270.831,424.848c-16.11,0.043-31.569-6.36-42.929-17.783l0,0L104.915,284.073
			c-11.386-11.385-17.783-26.827-17.783-42.929c0-16.102,6.397-31.544,17.783-42.929L295.544,7.581
			c10.132-10.108,26.535-10.108,36.667,0L504.39,179.765c4.863,4.862,7.596,11.457,7.596,18.333c0,6.877-2.732,13.472-7.596,18.333
			L313.761,407.065C302.4,418.488,286.942,424.891,270.831,424.848L270.831,424.848z M239.968,394.998
			c17.057,17.017,44.668,17.017,61.725,0l190.63-190.633c1.662-1.662,2.596-3.916,2.596-6.267c0-2.35-0.934-4.605-2.596-6.267
			L320.144,19.648c-3.466-3.45-9.068-3.45-12.533,0L116.981,210.281c-17.044,17.045-17.044,44.68,0,61.725L239.968,394.998z"/>
		<path d="M43.306,511.99c-11.496,0.03-22.527-4.54-30.633-12.692l0,0c-16.892-16.926-16.892-44.332,0-61.258l129.137-129.133
			c1.6-1.601,3.77-2.5,6.033-2.5c2.263,0,4.433,0.899,6.033,2.5l49.196,49.192c1.601,1.6,2.5,3.77,2.5,6.033s-0.899,4.433-2.5,6.033
			L73.935,499.298C65.831,507.45,54.802,512.021,43.306,511.99L43.306,511.99z M147.844,327.006L24.74,450.106
			c-10.233,10.259-10.233,26.866,0,37.125l0,0c10.388,9.917,26.737,9.917,37.125,0l123.108-123.1L147.844,327.006z"/>
		<path d="M43.331,477.173c-2.269,0.019-4.452-0.872-6.059-2.475c-0.796-0.782-1.432-1.71-1.875-2.733
			c-0.42-1.057-0.624-2.188-0.6-3.325c-0.022-2.245,0.872-4.403,2.475-5.975c0.76-0.821,1.694-1.462,2.734-1.875
			c1.558-0.675,3.286-0.856,4.95-0.517c0.596,0.175,1.108,0.341,1.621,0.517c0.51,0.202,0.996,0.459,1.45,0.767
			c0.481,0.301,0.913,0.675,1.279,1.108c1.626,1.563,2.549,3.719,2.558,5.975c-0.004,1.142-0.234,2.273-0.679,3.325
			c-0.414,1.04-1.056,1.974-1.879,2.733C47.742,476.313,45.579,477.209,43.331,477.173L43.331,477.173z"/>
		<path d="M332.323,384.965c-2.264,0.003-4.435-0.897-6.033-2.5L129.51,185.681c-1.601-1.6-2.5-3.77-2.5-6.033
			c0-2.263,0.899-4.433,2.5-6.033l61.496-61.492c1.6-1.601,3.77-2.5,6.033-2.5c2.263,0,4.433,0.899,6.033,2.5l196.779,196.783
			c1.601,1.6,2.5,3.77,2.5,6.033s-0.899,4.433-2.5,6.033l-61.496,61.492C336.758,384.068,334.587,384.967,332.323,384.965z
			 M147.61,179.648l184.713,184.717l49.429-49.425L197.04,130.223L147.61,179.648z"/>
		<path d="M369.223,348.064c-2.264,0.003-4.435-0.897-6.033-2.5L166.406,148.79c-3.332-3.332-3.332-8.735,0-12.067
			s8.735-3.332,12.067,0l196.783,196.775c2.44,2.441,3.169,6.11,1.849,9.298C375.785,345.984,372.674,348.064,369.223,348.064
			L369.223,348.064z"/>
		<path d="M387.669,260.923c-10.486-0.001-19.939-6.317-23.952-16.005c-4.013-9.687-1.796-20.838,5.618-28.254l30.75-30.75
			c3.434-3.466,3.421-9.055-0.029-12.504c-3.45-3.45-9.039-3.463-12.504-0.029l-6.15,6.15c-10.123,10.124-26.536,10.125-36.66,0.002
			c-10.124-10.123-10.125-26.536-0.002-36.66l55.346-55.35c3.386-3.2,8.681-3.2,12.067,0l92.237,92.242
			c4.863,4.862,7.596,11.457,7.596,18.333c0,6.877-2.732,13.472-7.596,18.333l-12.296,12.3c-3.386,3.2-8.681,3.2-12.067,0
			l-18.45-18.45c-3.464-3.45-9.065-3.45-12.529,0l-43.046,43.042C401.153,258.206,394.55,260.943,387.669,260.923L387.669,260.923z
			 M393.819,153.731c10.487-0.006,19.944,6.308,23.958,15.997c4.014,9.688,1.794,20.841-5.625,28.253l-30.75,30.75
			c-3.454,3.461-3.454,9.064,0,12.525c3.505,3.35,9.025,3.35,12.529,0l43.05-43.042c10.127-10.117,26.535-10.117,36.663,0
			l12.417,12.417l6.263-6.267c1.662-1.662,2.596-3.916,2.596-6.267c0-2.35-0.934-4.605-2.596-6.267l-86.204-86.208l-49.313,49.317
			c-3.459,3.46-3.458,9.068,0.002,12.527c3.46,3.459,9.068,3.458,12.527-0.002l6.15-6.15
			C380.345,156.45,386.943,153.721,393.819,153.731L393.819,153.731z"/>
	</g>
</g>
<g>
</g>
<g>
</g>
<g>
</g>
<g>
</g>
<g>
</g>
<g>
</g>
<g>
</g>
<g>
</g>
<g>
</g>
<g>
</g>
<g>
</g>
<g>
</g>
<g>
</g>
<g>
</g>
<g>
</g>
</svg>
