<?xml version="1.0" encoding="iso-8859-1"?>
<!-- Generator: Adobe Illustrator 19.0.0, SVG Export Plug-In . SVG Version: 6.00 Build 0)  -->
<svg version="1.1" id="Capa_1" xmlns="http://www.w3.org/2000/svg" xmlns:xlink="http://www.w3.org/1999/xlink" x="0px" y="0px"
	 viewBox="0 0 504.534 504.534" style="enable-background:new 0 0 504.534 504.534;" xml:space="preserve">
<g>
	<g transform="translate(1 1)">
		<path style="fill:#CFD8DC;" d="M495.139,455.144c-13.3,6.208-27.793,9.444-42.471,9.485c-4.239,0.016-8.474-0.265-12.674-0.839
			c10.379-1.297,20.49-4.214,29.965-8.645L300.663,92.127l17.207-17.123L495.139,455.144z"/>
		<path style="fill:#F5F5F5;" d="M469.959,455.144c-9.475,4.431-19.586,7.348-29.965,8.645c-34.37-4.324-64.107-26.008-78.73-57.411
			l-43.394-92.999l-18.885,13.429l-6.295-13.429l-116.501,82.927L7.396,105.977l21.823-12.674c7.846-4.58,16.466-7.681,25.432-9.149
			c31.014-5.257,62.031,9.298,77.807,36.511l12.674,21.739l-36.26,21.151c-5.784,3.343-10,8.851-11.717,15.308
			c-1.717,6.457-0.793,13.331,2.568,19.105l27.447,47.087l2.098,3.693c1.119,1.931,2.962,3.336,5.121,3.903
			c2.159,0.567,4.454,0.25,6.378-0.881l14.521-8.393c3.953-2.384,5.292-7.48,3.022-11.499l-8.477-14.521
			c-2.313-4.013-0.966-9.141,3.022-11.499l3.022-1.763l16.619-9.652l2.182-1.259l8.897,15.276L300.663,92.127L469.959,455.144z"/>
		<path style="fill:#C52828;" d="M317.87,75.005v352.525c0.005,17.81-7.068,34.892-19.662,47.486
			c-12.594,12.594-29.676,19.667-47.486,19.662c-4.224-0.005-8.438-0.398-12.59-1.175c-31.666-6.041-54.568-33.736-54.557-65.972
			V75.005c-0.011-32.237,22.891-59.932,54.557-65.972c4.152-0.777,8.366-1.17,12.59-1.175c17.816-0.024,34.909,7.043,47.507,19.641
			C310.827,40.096,317.894,57.189,317.87,75.005L317.87,75.005z"/>
		<path style="fill:#F44335;" d="M292.69,75.005v352.525c0.011,32.237-22.892,59.931-54.557,65.972
			c-31.666-6.041-54.568-33.736-54.557-65.972V75.005c-0.011-32.237,22.891-59.932,54.557-65.972
			C269.816,15.044,292.733,42.756,292.69,75.005z"/>
		<polygon style="fill:#E91E63;" points="284.296,234.48 267.509,234.48 267.509,217.693 233.935,217.693 233.935,234.48 
			217.149,234.48 217.149,268.054 233.935,268.054 233.935,284.841 267.509,284.841 267.509,268.054 284.296,268.054 		"/>
	</g>
	<g>
		<path d="M184.583,418.373c-2.992,0.005-5.76-1.585-7.262-4.172l-176.181-303c-1.122-1.924-1.431-4.216-0.861-6.369
			s1.974-3.99,3.902-5.107l21.828-12.68c40.081-23.196,91.374-9.602,114.705,30.402l12.672,21.73
			c2.329,4.007,0.976,9.143-3.025,11.484l-36.262,21.148c-3.864,2.223-6.683,5.896-7.83,10.204
			c-1.148,4.308-0.53,8.896,1.716,12.747l29.541,50.771l14.557-8.418l-8.492-14.525c-4.614-7.989-1.96-18.202,5.959-22.934
			l21.918-12.729c4.007-2.323,9.138-0.963,11.467,3.041l8.893,15.279c1.508,2.592,1.519,5.791,0.029,8.393
			c-1.49,2.602-4.256,4.211-7.254,4.221c-2.999,0.01-5.775-1.58-7.283-4.172l-4.672-8.033l-14.582,8.467l8.492,14.533
			c4.525,8.006,1.876,18.159-5.984,22.934l-14.599,8.442c-3.847,2.246-8.429,2.87-12.736,1.734s-7.985-3.94-10.223-7.791
			l-29.549-50.779c-4.483-7.703-5.716-16.874-3.426-25.488c2.29-8.614,7.914-15.962,15.631-20.422l28.984-16.902l-8.451-14.484
			c-18.663-32.008-59.7-42.89-91.771-24.336l-14.565,8.459l171.959,295.738c1.51,2.595,1.519,5.799,0.023,8.402
			C190.357,416.764,187.585,418.37,184.583,418.373L184.583,418.373z"/>
		<path d="M251.722,504.07c-41.701-0.046-75.495-33.84-75.541-75.541V76.005c0-41.72,33.821-75.541,75.541-75.541
			s75.541,33.821,75.541,75.541v352.525C327.218,470.231,293.424,504.025,251.722,504.07z M251.722,17.251
			c-32.433,0.039-58.715,26.321-58.754,58.754v352.525c0,32.449,26.305,58.754,58.754,58.754s58.754-26.305,58.754-58.754V76.005
			C310.437,43.572,284.155,17.29,251.722,17.251L251.722,17.251z"/>
		<path d="M268.509,294.234h-33.574c-2.226,0.001-4.362-0.883-5.936-2.457c-1.574-1.574-2.458-3.71-2.457-5.936v-8.393h-8.393
			c-2.226,0.001-4.362-0.883-5.936-2.457c-1.574-1.574-2.458-3.71-2.457-5.936V235.48c-0.001-2.226,0.883-4.362,2.457-5.936
			c1.574-1.574,3.71-2.458,5.936-2.457h8.393v-8.393c-0.001-2.226,0.883-4.362,2.457-5.936c1.574-1.574,3.71-2.458,5.936-2.457
			h33.574c2.226-0.001,4.362,0.883,5.936,2.457c1.574,1.574,2.458,3.71,2.457,5.936v8.393h8.393
			c2.226-0.001,4.362,0.883,5.936,2.457c1.574,1.574,2.458,3.71,2.457,5.936v33.574c0.001,2.226-0.883,4.362-2.457,5.936
			c-1.574,1.574-3.71,2.458-5.936,2.457h-8.393v8.393c0.001,2.226-0.883,4.362-2.457,5.936
			C272.871,293.352,270.736,294.236,268.509,294.234z M243.329,277.447h16.787v-8.393c-0.001-2.226,0.883-4.362,2.457-5.936
			c1.574-1.574,3.71-2.458,5.936-2.457h8.393v-16.787h-8.393c-2.226,0.001-4.362-0.883-5.936-2.457
			c-1.574-1.574-2.458-3.71-2.457-5.936v-8.393h-16.787v8.393c0.001,2.226-0.883,4.362-2.457,5.936
			c-1.574,1.574-3.71,2.458-5.936,2.457h-8.393v16.787h8.393c2.226-0.001,4.362,0.883,5.936,2.457
			c1.574,1.574,2.458,3.71,2.457,5.936V277.447z"/>
		<path d="M453.665,474.021c-42.427-0.112-80.984-24.682-99.008-63.09l-43.393-93c-1.268-2.718-0.99-5.905,0.73-8.362
			s4.619-3.81,7.607-3.549c2.987,0.261,5.609,2.095,6.877,4.813l43.393,93c20.084,43.374,70.011,64.176,114.951,47.893
			L311.263,79.554c-1.96-4.201-0.144-9.196,4.057-11.156c4.201-1.96,9.196-0.144,11.156,4.057l177.271,380.139
			c0.942,2.02,1.043,4.333,0.278,6.427c-0.764,2.094-2.33,3.799-4.352,4.737C485.256,470.455,469.561,473.956,453.665,474.021z"/>
	</g>
</g>
<g>
</g>
<g>
</g>
<g>
</g>
<g>
</g>
<g>
</g>
<g>
</g>
<g>
</g>
<g>
</g>
<g>
</g>
<g>
</g>
<g>
</g>
<g>
</g>
<g>
</g>
<g>
</g>
<g>
</g>
</svg>
