<?xml version="1.0" encoding="iso-8859-1"?>
<!-- Generator: Adobe Illustrator 19.0.0, SVG Export Plug-In . SVG Version: 6.00 Build 0)  -->
<svg version="1.1" id="Capa_1" xmlns="http://www.w3.org/2000/svg" xmlns:xlink="http://www.w3.org/1999/xlink" x="0px" y="0px"
	 viewBox="0 0 512 512" style="enable-background:new 0 0 512 512;" xml:space="preserve">
<g>
	<g transform="translate(1 1)">
		<path style="fill:#CFD8DC;" d="M434.456,25.197C432.92,66.925,416.707,174.36,297.24,255.427h-84.48
			C93.293,174.36,77.08,66.925,75.544,25.197c-0.155-4.627,1.573-9.119,4.79-12.449c3.217-3.329,7.647-5.211,12.277-5.215h324.779
			c4.63,0.004,9.06,1.886,12.276,5.215C432.883,16.078,434.611,20.57,434.456,25.197z"/>
		<path style="fill:#F5F5F5;" d="M409.112,25.197c-1.536,41.728-17.749,149.163-137.216,230.229H212.76
			C93.293,174.36,77.08,66.925,75.544,25.197c-0.155-4.627,1.573-9.119,4.79-12.449c3.217-3.329,7.647-5.211,12.277-5.215h299.435
			c4.63,0.004,9.06,1.886,12.277,5.215S409.267,20.57,409.112,25.197z"/>
		<path style="fill:#283593;" d="M302.104,451.437l-8.619-108.117l-3.413-42.411c-0.61-7.626,1.375-15.233,5.632-21.589l3.499-5.291
			c3.932-5.859,3.106-13.693-1.963-18.603c-11.181-11.235-26.39-17.534-42.24-17.493c-3.637-0.01-7.267,0.333-10.837,1.024
			c11.901,2.162,22.858,7.908,31.403,16.469c5.069,4.909,5.895,12.744,1.963,18.603l-3.499,5.291
			c-4.257,6.356-6.242,13.964-5.632,21.589l3.413,42.411l8.619,108.117c1.83,23.256-13.566,44.375-36.267,49.749
			c3.548,0.861,7.187,1.291,10.837,1.28c13.187-0.005,25.773-5.518,34.717-15.208C298.662,477.569,303.152,464.583,302.104,451.437
			L302.104,451.437z"/>
		<path style="fill:#3F51B5;" d="M271.811,343.32l-3.413-42.411c-0.61-7.626,1.375-15.233,5.632-21.589l3.499-5.291
			c3.933-5.859,3.106-13.693-1.963-18.603c-8.545-8.561-19.502-14.307-31.403-16.469c-11.901,2.162-22.857,7.908-31.403,16.469
			c-5.048,4.919-5.873,12.738-1.963,18.603l3.499,5.291c4.257,6.356,6.242,13.964,5.632,21.589l-3.413,42.411l-8.619,108.117
			c-1.829,23.256,13.566,44.375,36.267,49.749c22.701-5.374,38.096-26.493,36.267-49.749L271.811,343.32z M255,468.333
			c-9.426,0-17.067-7.641-17.067-17.067S245.574,434.2,255,434.2s17.067,7.641,17.067,17.067S264.426,468.333,255,468.333z"/>
		<path style="fill:#FDD834;" d="M434.456,25.197c-0.171,4.693-0.513,10.24-1.195,16.469h-25.344
			c0.683-6.229,1.024-11.776,1.195-16.469c0.155-4.627-1.573-9.119-4.79-12.449s-7.647-5.211-12.277-5.215h25.344
			c4.63,0.004,9.06,1.886,12.276,5.215C432.883,16.078,434.611,20.57,434.456,25.197L434.456,25.197z"/>
		<path style="fill:#FFEB3A;" d="M409.112,25.197c-0.171,4.693-0.512,10.24-1.195,16.469h-16.384
			c-9.414,0.028-17.039,7.652-17.067,17.067V75.8c0.034,7.071-4.316,13.424-10.922,15.948c-6.605,2.524-14.084,0.693-18.774-4.599
			c-2.878-3.075-4.466-7.138-4.437-11.349V58.733c0.034-7.071-4.317-13.423-10.922-15.948c-6.605-2.524-14.083-0.693-18.774,4.598
			c-2.878,3.075-4.466,7.138-4.437,11.349v51.2c0.034,7.071-4.316,13.424-10.922,15.948c-6.605,2.524-14.084,0.693-18.774-4.599
			c-2.878-3.075-4.466-7.138-4.437-11.349v-51.2c-0.027-9.414-7.652-17.039-17.067-17.067h-8.533
			c-2.936-0.026-5.825,0.74-8.363,2.219c-5.371,3.014-8.698,8.69-8.704,14.848V75.8c0.034,7.071-4.316,13.424-10.922,15.948
			s-14.084,0.693-18.774-4.599c-2.878-3.075-4.466-7.138-4.437-11.349V58.733c-0.028-9.414-7.652-17.039-17.067-17.067H76.739
			c-0.683-6.229-1.024-11.776-1.195-16.469c-0.155-4.627,1.573-9.119,4.79-12.449c3.217-3.329,7.647-5.211,12.277-5.215h299.435
			c4.63,0.004,9.06,1.886,12.277,5.215S409.267,20.57,409.112,25.197z"/>
	</g>
	<g>
		<path d="M213.75,264.958c-1.707,0.002-3.374-0.512-4.783-1.475C86.529,180.367,69.617,70.067,68.029,26.505
			c-0.253-6.946,2.333-13.696,7.161-18.696S86.674-0.01,93.625,0H256c4.713,0,8.533,3.821,8.533,8.533s-3.821,8.533-8.533,8.533
			H93.625c-2.327-0.011-4.556,0.933-6.167,2.612c-1.61,1.654-2.467,3.898-2.371,6.204c1.492,40.963,17.483,144.75,133.463,223.483
			c3.1,2.106,4.464,5.988,3.361,9.569C220.808,262.518,217.498,264.961,213.75,264.958L213.75,264.958z"/>
		<path d="M298.25,264.958c-3.748,0.003-7.058-2.441-8.161-6.022c-1.103-3.582,0.261-7.464,3.361-9.569
			C409.429,170.633,425.421,66.846,426.913,25.879c0.096-2.305-0.762-4.547-2.371-6.2c-1.611-1.679-3.84-2.624-6.167-2.612H256
			c-4.713,0-8.533-3.821-8.533-8.533S251.287,0,256,0h162.375c6.95-0.01,13.605,2.808,18.433,7.807
			c4.828,4.999,7.414,11.748,7.163,18.693c-1.587,43.567-18.5,153.867-140.937,236.983
			C301.624,264.446,299.957,264.96,298.25,264.958L298.25,264.958z"/>
		<path d="M256,512c-15.573,0.001-30.438-6.506-41.002-17.948c-10.564-11.442-15.865-26.779-14.623-42.302l12.042-150.508
			c0.449-5.728-1.032-11.441-4.208-16.229l-3.521-5.288c-6.164-9.277-4.857-21.627,3.113-29.408
			c26.676-26.585,69.84-26.551,96.475,0.075c7.917,7.782,9.191,20.09,3.038,29.329l-3.521,5.292
			c-3.176,4.788-4.658,10.501-4.208,16.229l12.045,150.508c1.241,15.524-4.062,30.86-14.626,42.301
			C286.438,505.493,271.573,512,256,512L256,512z M256,247.467c-13.587-0.038-26.625,5.36-36.208,14.992
			c-2.149,2.045-2.526,5.334-0.896,7.813l3.521,5.283c5.294,7.981,7.761,17.506,7.008,27.054l-12.042,150.5
			c-1.16,14.532,5.936,28.485,18.363,36.106c12.427,7.622,28.081,7.622,40.508,0c12.427-7.622,19.523-21.575,18.363-36.106
			l-12.042-150.5c-0.753-9.548,1.714-19.073,7.008-27.054l3.521-5.288c1.62-2.44,1.275-5.688-0.821-7.733
			C282.69,252.861,269.623,247.435,256,247.467L256,247.467z"/>
		<path d="M256,477.867c-14.138,0-25.6-11.462-25.6-25.6c0-14.138,11.462-25.6,25.6-25.6c14.139,0,25.6,11.462,25.6,25.6
			C281.585,466.399,270.132,477.851,256,477.867L256,477.867z M256,443.733c-4.713,0-8.533,3.82-8.533,8.533
			s3.821,8.533,8.533,8.533c4.713,0,8.533-3.82,8.533-8.533C264.527,447.556,260.71,443.74,256,443.733z"/>
		<path d="M256,281.6c-2.259-0.033-4.422-0.917-6.059-2.475c-0.341-0.429-0.683-0.854-1.025-1.279
			c-0.324-0.476-0.583-0.993-0.771-1.538c-0.246-0.484-0.417-1.002-0.508-1.538c-0.1-0.563-0.157-1.133-0.171-1.704
			c0.031-2.259,0.915-4.423,2.475-6.059c2.042-2.014,4.953-2.878,7.762-2.304c0.535,0.091,1.053,0.263,1.538,0.508
			c0.544,0.187,1.062,0.447,1.538,0.771c0.447,0.316,0.874,0.658,1.28,1.025c1.558,1.636,2.441,3.8,2.475,6.059
			c-0.016,0.571-0.073,1.141-0.171,1.704c-0.095,0.535-0.268,1.053-0.512,1.538c-0.187,0.544-0.447,1.062-0.771,1.538
			c-0.337,0.425-0.679,0.85-1.021,1.279c-0.429,0.341-0.854,0.683-1.279,1.021c-0.476,0.324-0.993,0.583-1.538,0.771
			c-0.485,0.245-1.003,0.418-1.538,0.512C257.141,281.527,256.572,281.584,256,281.6L256,281.6z"/>
		<path d="M290.133,136.533c-14.132-0.015-25.585-11.468-25.6-25.6v-51.2c-0.006-4.71-3.823-8.527-8.533-8.533h-8.533
			c-4.71,0.006-8.527,3.823-8.533,8.533V76.8c0,14.138-11.462,25.6-25.6,25.6s-25.6-11.462-25.6-25.6V59.733
			c-0.006-4.71-3.823-8.527-8.533-8.533H76.8V34.133h102.4c14.132,0.015,25.585,11.468,25.6,25.6V76.8
			c0,4.713,3.821,8.533,8.533,8.533s8.533-3.821,8.533-8.533V59.733c0.015-14.132,11.468-25.585,25.6-25.6H256
			c14.132,0.015,25.585,11.468,25.6,25.6v51.2c0,4.713,3.821,8.533,8.533,8.533c4.713,0,8.533-3.821,8.533-8.533v-51.2
			c0-14.138,11.461-25.6,25.6-25.6c14.138,0,25.6,11.462,25.6,25.6V76.8c0,4.713,3.821,8.533,8.533,8.533s8.533-3.821,8.533-8.533
			V59.733c0.015-14.132,11.468-25.585,25.6-25.6H435.2V51.2h-42.667c-4.71,0.006-8.527,3.823-8.533,8.533V76.8
			c0,14.138-11.462,25.6-25.6,25.6c-14.138,0-25.6-11.462-25.6-25.6V59.733c0-4.713-3.82-8.533-8.533-8.533
			s-8.533,3.821-8.533,8.533v51.2C315.718,125.065,304.266,136.518,290.133,136.533L290.133,136.533z"/>
	</g>
</g>
<g>
</g>
<g>
</g>
<g>
</g>
<g>
</g>
<g>
</g>
<g>
</g>
<g>
</g>
<g>
</g>
<g>
</g>
<g>
</g>
<g>
</g>
<g>
</g>
<g>
</g>
<g>
</g>
<g>
</g>
</svg>
