<?xml version="1.0" encoding="iso-8859-1"?>
<!-- Generator: Adobe Illustrator 19.0.0, SVG Export Plug-In . SVG Version: 6.00 Build 0)  -->
<svg version="1.1" id="Capa_1" xmlns="http://www.w3.org/2000/svg" xmlns:xlink="http://www.w3.org/1999/xlink" x="0px" y="0px"
	 viewBox="0 0 512.008 512.008" style="enable-background:new 0 0 512.008 512.008;" xml:space="preserve">
<g transform="translate(-1)">
	<g transform="translate(1 1)">
		<path style="fill:#607D8B;" d="M168.973,337.014c20.738,38.564,8.914,86.566-27.363,111.087
			c-36.277,24.52-85.227,17.596-113.279-16.023s-26.099-83.018,4.521-114.318s79.964-34.336,114.191-7.028L168.973,337.014z"/>
		<path style="fill:#009688;" d="M141.837,359.627c8.593,23.354-0.88,49.503-22.438,61.933s-48.935,7.529-64.841-11.609
			C38.651,390.813,38.838,363.002,55,344.08c16.162-18.922,43.602-23.455,64.991-10.736"/>
		<path style="fill:#558B30;" d="M315.746,64.373v125.269l-153.6,136.533l-12.032-12.032l-5.035-5.035l-115.371-94.72
			c-4.625-3.537-7.131-9.187-6.647-14.989c0.484-5.803,3.889-10.96,9.036-13.683L285.112,52.256l5.632-2.987
			c5.288-2.789,11.652-2.604,16.769,0.487S315.755,58.395,315.746,64.373L315.746,64.373z"/>
		<path style="fill:#8BC34A;" d="M290.146,64.373v125.269L150.114,314.144l-5.035-5.035l-115.371-94.72
			c-4.625-3.537-7.131-9.187-6.647-14.989c0.484-5.803,3.889-10.96,9.036-13.683L285.112,52.256
			C288.364,55.445,290.182,59.819,290.146,64.373z"/>
		<path style="fill:#CFD8DC;" d="M503.415,88.751c-1.105,9.027-8.866,15.751-17.958,15.558h-30.926
			c-3.992,0-7.857,1.399-10.924,3.954L104.802,390.518c-7.263,5.968-17.982,4.949-23.99-2.28c-6.009-7.229-5.05-17.954,2.145-24.003
			L425.714,78.107c6.138-5.124,13.879-7.93,21.874-7.93h38.825c4.778,0.033,9.327,2.054,12.553,5.579
			C502.192,79.28,503.804,83.989,503.415,88.751z"/>
		<path style="fill:#00695C;" d="M315.746,64.373v5.803l-25.6,14.336L42.68,223.776l-0.597,0.768l-0.341-0.256l-12.032-9.899
			c-3.91-3-6.339-7.539-6.666-12.456c-0.327-4.918,1.48-9.738,4.959-13.229c1.24-1.157,2.615-2.16,4.096-2.987L290.744,49.269
			c5.288-2.789,11.652-2.604,16.769,0.487S315.755,58.395,315.746,64.373z"/>
		<path style="fill:#009688;" d="M290.146,78.709v5.803L42.68,223.776l-0.939,0.512l-12.032-9.899c-3.91-3-6.339-7.539-6.666-12.456
			c-0.327-4.918,1.48-9.738,4.959-13.229L265.144,63.605c5.288-2.789,11.652-2.604,16.769,0.487
			C287.03,67.184,290.155,72.731,290.146,78.709z"/>
	</g>
	<g>
		<path d="M95.063,472.243c-2.871,0-5.751-0.132-8.642-0.396c-39.977-3.599-73.237-32.229-82.745-71.226
			s6.843-79.722,40.678-101.317s77.658-19.277,109.025,5.768c2.379,1.907,3.56,4.938,3.098,7.952
			c-0.462,3.014-2.497,5.552-5.338,6.658c-2.841,1.107-6.056,0.614-8.435-1.293c-30.803-24.566-75.202-21.827-102.753,6.337
			s-29.311,72.612-4.073,102.867c25.238,30.255,69.281,36.495,101.93,14.441c32.649-22.053,43.305-65.241,24.662-99.95
			c-1.454-2.679-1.369-5.931,0.225-8.531c1.593-2.599,4.452-4.151,7.5-4.071c3.048,0.08,5.821,1.78,7.275,4.46
			c15.637,29.044,14.874,64.167-2.011,92.504C158.575,454.783,128.049,472.172,95.063,472.243z"/>
		<path d="M95.034,438.092c-1.846,0-3.7-0.085-5.563-0.254c-24.432-2.221-45.02-19.157-51.909-42.703
			c-6.89-23.545,1.321-48.909,20.702-63.949c19.381-15.041,45.988-16.699,67.087-4.181c2.621,1.557,4.213,4.394,4.175,7.443
			c-0.038,3.049-1.699,5.846-4.358,7.338s-5.912,1.451-8.534-0.106c-15.072-8.95-34.085-7.768-47.933,2.979
			c-13.848,10.747-19.711,28.873-14.782,45.694c4.929,16.822,19.648,28.916,37.107,30.489c11.262,1.081,22.487-2.407,31.154-9.679
			c13.856-11.58,18.927-30.626,12.663-47.563c-1.615-4.409,0.635-9.294,5.035-10.931c4.4-1.637,9.297,0.589,10.956,4.981
			c8.785,23.716,1.689,50.394-17.716,66.612C122.447,433.214,108.961,438.111,95.034,438.092L95.034,438.092z"/>
		<path d="M146.075,318.643c-1.974,0.002-3.888-0.683-5.413-1.938L25.292,221.984c-6.834-5.351-10.493-13.8-9.72-22.446
			c0.772-8.646,5.871-16.312,13.545-20.367l258.641-136.45c7.934-4.186,17.48-3.911,25.16,0.725
			c7.679,4.636,12.37,12.955,12.362,21.925v99.671c0,4.713-3.82,8.533-8.533,8.533s-8.533-3.821-8.533-8.533V65.372
			c0.007-2.99-1.554-5.766-4.114-7.312c-2.56-1.546-5.743-1.637-8.386-0.238L37.08,194.264c-2.576,1.366-4.278,3.95-4.516,6.856
			c-0.238,2.906,1.021,5.732,3.341,7.499l115.592,94.896c2.787,2.288,3.835,6.08,2.619,9.474
			C152.899,316.382,149.681,318.646,146.075,318.643z"/>
		<path d="M94.897,403.939c-10.781,0.011-20.413-6.737-24.086-16.873c-3.673-10.136-0.6-21.487,7.686-28.386l342.75-286.125
			c7.675-6.398,17.349-9.905,27.341-9.913h38.825c7.166,0.033,13.994,3.054,18.836,8.337c4.843,5.282,7.261,12.346,6.672,19.488
			v0.004c-1.49,13.44-12.941,23.553-26.463,23.371H455.53c-1.995,0.003-3.926,0.703-5.458,1.979L111.267,398.076
			C106.658,401.874,100.869,403.947,94.897,403.939L94.897,403.939z M448.588,79.709c-5.997,0.004-11.803,2.11-16.408,5.95
			L89.425,371.785c-1.956,1.629-3.085,4.046-3.079,6.592c-0.015,1.983,0.668,3.908,1.929,5.438c3.05,3.62,8.443,4.118,12.104,1.117
			l338.767-282.225c4.602-3.828,10.398-5.925,16.383-5.929h30.929c4.653,0.169,8.705-3.15,9.454-7.746
			c0.257-2.488-0.634-4.958-2.421-6.708c-1.578-1.674-3.779-2.62-6.079-2.613H448.588z"/>
		<path d="M43.688,233.309c-3.882,0.004-7.277-2.613-8.262-6.367c-0.985-3.754,0.687-7.701,4.07-9.604l273.067-153.6
			c2.658-1.51,5.921-1.483,8.554,0.072c2.633,1.555,4.232,4.399,4.194,7.456c-0.039,3.057-1.71,5.86-4.381,7.347l-273.067,153.6
			C46.59,232.934,45.151,233.311,43.688,233.309z"/>
		<path d="M330.646,361.347c-6.77-0.013-13.329-2.352-18.579-6.625l-77.488-62.637c-3.666-2.964-4.235-8.338-1.271-12.004
			c2.964-3.666,8.338-4.235,12.004-1.271l77.483,62.638c3.652,3.011,8.703,3.669,13.004,1.696
			c6.303-2.872,9.111-10.291,6.288-16.617l-44.459-97.792c-1.932-4.286-0.033-9.326,4.246-11.273s9.326-0.066,11.288,4.206
			l44.459,97.792c6.698,14.884,0.134,32.384-14.7,39.192C339.072,360.424,334.884,361.343,330.646,361.347L330.646,361.347z"/>
	</g>
</g>
<g>
</g>
<g>
</g>
<g>
</g>
<g>
</g>
<g>
</g>
<g>
</g>
<g>
</g>
<g>
</g>
<g>
</g>
<g>
</g>
<g>
</g>
<g>
</g>
<g>
</g>
<g>
</g>
<g>
</g>
</svg>
