<?xml version="1.0" encoding="iso-8859-1"?>
<!-- Generator: Adobe Illustrator 19.0.0, SVG Export Plug-In . SVG Version: 6.00 Build 0)  -->
<svg version="1.1" id="Capa_1" xmlns="http://www.w3.org/2000/svg" xmlns:xlink="http://www.w3.org/1999/xlink" x="0px" y="0px"
	 viewBox="0 0 511.98 511.98" style="enable-background:new 0 0 511.98 511.98;" xml:space="preserve">
<g>
	<g transform="translate(1 1)">
		<path style="fill:#607D8B;" d="M499.992,42.073l-170.069,345.6c-2.439,4.954-7.112,8.431-12.558,9.344
			c-5.445,0.913-10.998-0.849-14.919-4.736L166.51,256.345l-48.811-48.811c-3.887-3.922-5.65-9.474-4.736-14.919
			c0.913-5.445,4.391-10.119,9.344-12.558l345.6-170.069c5.173-2.518,11.078-3.093,16.64-1.621
			c4.139,0.997,7.921,3.124,10.923,6.144C502.706,21.79,504.523,32.862,499.992,42.073L499.992,42.073z"/>
		<path style="fill:#CFD8DC;" d="M482.926,25.006l-170.069,345.6c-2.439,4.954-7.112,8.431-12.558,9.344
			c-5.445,0.913-10.998-0.849-14.919-4.736L166.51,256.345l-48.811-48.811c-3.887-3.922-5.65-9.474-4.736-14.919
			c0.913-5.445,4.391-10.119,9.344-12.558l345.6-170.069c5.173-2.518,11.078-3.093,16.64-1.621
			C486.019,13.928,485.443,19.833,482.926,25.006z"/>
		<path style="fill:#4E342E;" d="M252.611,257.369c-7.141-7.145-16.959-10.954-27.051-10.496c0.597,0.512,1.195,1.024,1.792,1.621
			c13.598,13.634,14.161,35.521,1.28,49.835L67.438,477.358c-9.937,11.078-24.402,16.99-39.253,16.043
			c20.19,14.393,47.973,11.306,64.512-7.168l161.195-179.029C266.772,292.89,266.209,271.002,252.611,257.369L252.611,257.369z"/>
		<path style="fill:#795548;" d="M227.352,248.494c-0.597-0.597-1.195-1.109-1.792-1.621c-8.451,0.256-16.532,3.525-22.784,9.216
			L23.747,417.283c-9.968,8.955-15.816,21.615-16.171,35.01C7.221,465.688,12.39,478.64,21.87,488.11
			c1.943,1.948,4.056,3.719,6.315,5.291c14.851,0.947,29.317-4.965,39.253-16.043l161.195-179.029
			C241.513,284.015,240.951,262.127,227.352,248.494z M70.424,463.875c-6.74,6.656-17.58,6.656-24.32,0
			c-1.838-1.793-3.189-4.025-3.925-6.485c-2.257-6.203-0.727-13.152,3.925-17.835c0.926-0.915,1.957-1.717,3.072-2.389
			c7.406-4.643,17.119-2.982,22.561,3.859S76.614,457.703,70.424,463.875L70.424,463.875z"/>
	</g>
	<g>
		<path d="M315.421,406.813c-6.776,0.005-13.271-2.706-18.033-7.525l-65.817-65.817c-3.32-3.334-3.315-8.727,0.012-12.054
			c3.327-3.327,8.72-3.333,12.054-0.012l65.817,65.817c1.965,1.959,4.754,2.853,7.492,2.4s5.091-2.196,6.321-4.683l170.058-345.65
			c2.909-5.915,1.736-13.025-2.92-17.691c-4.656-4.666-11.763-5.855-17.684-2.959L127.046,188.713
			c-2.489,1.229-4.234,3.581-4.687,6.319c-0.454,2.738,0.44,5.528,2.4,7.493l65.817,65.817c2.156,2.155,2.997,5.297,2.208,8.242
			c-0.789,2.944-3.089,5.244-6.033,6.033c-2.944,0.789-6.086-0.053-8.242-2.208l-65.817-65.817
			c-5.898-5.831-8.575-14.176-7.167-22.35c1.358-8.168,6.566-15.182,13.992-18.846L465.159,3.338
			c12.481-6.141,27.487-3.653,37.318,6.188s12.303,24.85,6.149,37.324L338.584,392.467c-3.665,7.423-10.679,12.629-18.846,13.987
			C318.311,406.693,316.868,406.813,315.421,406.813z"/>
		<path d="M57.367,511.979c-15.214,0.048-29.811-6.007-40.525-16.808l-0.033-0.033C5.677,484.004-0.393,468.787,0.021,453.048
			C0.436,437.31,7.298,422.432,19,411.9l179.05-161.146c17.684-15.917,44.733-15.206,61.557,1.618s17.535,43.873,1.618,61.557
			l-161.146,179.05c-10.493,11.755-25.393,18.628-41.146,18.979C58.409,511.975,57.888,511.979,57.367,511.979z M227.975,256.333
			c-6.836-0.006-13.432,2.525-18.508,7.104L30.417,424.583c-8.224,7.4-13.046,17.853-13.337,28.913
			c-0.291,11.059,3.973,21.752,11.796,29.575l0.033,0.033c7.823,7.822,18.516,12.087,29.575,11.796
			c11.059-0.291,21.513-5.114,28.913-13.337l161.146-179.05c7.31-8.122,9.156-19.785,4.71-29.767
			C248.807,262.763,238.903,256.333,227.975,256.333L227.975,256.333z"/>
		<path d="M59.288,478.396c-10.397-0.001-19.77-6.264-23.748-15.87c-3.978-9.606-1.779-20.662,5.573-28.013
			c10.176-9.703,26.18-9.701,36.354,0.004c10.033,10.04,10.033,26.31,0,36.35h-0.004v0.004
			C72.653,475.706,66.108,478.416,59.288,478.396L59.288,478.396z M59.288,444.054c-3.493-0.001-6.642,2.103-7.979,5.33
			c-1.337,3.227-0.599,6.942,1.871,9.412c3.413,3.272,8.798,3.274,12.212,0.004l0.004-0.004c2.468-2.471,3.206-6.185,1.869-9.411
			C65.928,446.159,62.78,444.055,59.288,444.054L59.288,444.054z"/>
		<path d="M447.83,72.683c-2.256-0.011-4.412-0.935-5.975-2.562c-0.433-0.367-0.807-0.798-1.108-1.279
			c-0.258-0.425-0.513-0.937-0.767-1.45c-0.171-0.513-0.341-1.025-0.513-1.621c-0.1-0.535-0.157-1.077-0.171-1.621
			c0.008-2.28,0.93-4.463,2.558-6.059c0.78-0.797,1.706-1.435,2.729-1.879c3.2-1.266,6.846-0.53,9.304,1.879
			c1.606,1.605,2.497,3.789,2.475,6.059c0.028,0.546-0.03,1.093-0.171,1.621c-0.093,0.552-0.237,1.095-0.429,1.621
			c-0.232,0.511-0.517,0.997-0.85,1.45c-0.245,0.495-0.595,0.932-1.025,1.279C452.292,71.75,450.111,72.673,447.83,72.683z"/>
		<path d="M423.592,96.917c-2.266,0-4.441-0.888-6.059-2.475c-1.606-1.605-2.497-3.789-2.475-6.059
			c-0.007-2.267,0.882-4.445,2.475-6.059c3.389-3.158,8.644-3.158,12.033,0c1.615,1.605,2.534,3.782,2.558,6.059
			c-0.008,2.28-0.93,4.463-2.558,6.059c-0.804,0.768-1.725,1.402-2.729,1.879C425.806,96.731,424.703,96.933,423.592,96.917z"/>
		<path d="M399.275,121.238c-2.27,0.024-4.455-0.867-6.06-2.473c-1.606-1.606-2.497-3.79-2.473-6.06
			c0.013-0.573,0.07-1.144,0.171-1.708c0.091-0.535,0.263-1.053,0.508-1.538c0.189-0.543,0.448-1.059,0.772-1.534
			c0.341-0.429,0.683-0.854,1.021-1.279c3.423-3.158,8.697-3.158,12.12,0c0.368,0.404,0.709,0.831,1.021,1.279
			c0.317,0.492,0.602,1.005,0.854,1.533c0.182,0.501,0.325,1.015,0.429,1.538c0.141,0.558,0.199,1.134,0.171,1.708
			c0.006,2.267-0.883,4.444-2.475,6.059C403.697,120.32,401.534,121.204,399.275,121.238L399.275,121.238z"/>
		<path d="M375.038,145.471c-0.569,0.014-1.139-0.014-1.704-0.084c-0.512-0.171-1.112-0.341-1.621-0.513
			c-0.513-0.258-1.025-0.513-1.454-0.771c-0.465-0.323-0.893-0.694-1.279-1.108c-1.602-1.571-2.496-3.727-2.475-5.971
			c-0.017-0.571,0.012-1.142,0.087-1.708c0.171-0.513,0.341-1.108,0.513-1.621c0.254-0.512,0.508-1.025,0.767-1.45
			c0.301-0.482,0.675-0.915,1.108-1.283c0.387-0.413,0.815-0.784,1.279-1.108c0.429-0.254,0.942-0.513,1.454-0.767
			c0.508-0.171,1.108-0.341,1.621-0.513c2.796-0.5,5.66,0.39,7.679,2.388c0.433,0.368,0.807,0.801,1.108,1.283
			c0.258,0.425,0.513,0.937,0.767,1.45c0.171,0.513,0.341,1.108,0.513,1.621c0.104,0.564,0.162,1.135,0.171,1.708
			C383.491,141.69,379.703,145.438,375.038,145.471L375.038,145.471z"/>
		<path d="M350.717,169.792c-1.115-0.014-2.216-0.246-3.242-0.683c-1.055-0.393-2.014-1.003-2.817-1.792
			c-3.335-3.349-3.33-8.766,0.013-12.108c3.343-3.342,8.76-3.346,12.108-0.009c0.789,0.802,1.4,1.762,1.792,2.817
			c0.906,2.066,0.906,4.417,0,6.483c-0.393,1.054-1.004,2.014-1.792,2.817c-0.816,0.771-1.772,1.379-2.817,1.792
			C352.936,169.546,351.833,169.778,350.717,169.792L350.717,169.792z"/>
		<path d="M326.4,194.113c-1.116-0.013-2.219-0.245-3.246-0.683c-1.038-0.415-1.971-1.057-2.729-1.879
			c-1.626-1.562-2.549-3.716-2.558-5.971c0.008-2.28,0.93-4.463,2.558-6.059c3.389-3.158,8.644-3.158,12.033,0
			c1.606,1.605,2.497,3.789,2.475,6.059c0.022,2.244-0.872,4.4-2.475,5.971C330.863,193.18,328.681,194.103,326.4,194.113
			L326.4,194.113z"/>
		<path d="M302.163,218.346c-1.136,0.009-2.263-0.193-3.325-0.596c-1.005-0.477-1.928-1.111-2.733-1.879
			c-1.571-1.628-2.457-3.797-2.475-6.059c0.018-2.237,0.906-4.38,2.475-5.975c0.76-0.821,1.694-1.462,2.733-1.875
			c3.222-1.301,6.909-0.564,9.383,1.875c1.57,1.594,2.458,3.737,2.475,5.975c-0.032,2.259-0.916,4.423-2.475,6.059
			C306.607,217.463,304.43,218.353,302.163,218.346L302.163,218.346z"/>
		<path d="M277.846,242.667c-3.45-0.015-6.554-2.097-7.878-5.282c-1.324-3.186-0.608-6.855,1.815-9.31
			c2.05-2.003,4.956-2.865,7.767-2.304c0.536,0.091,1.054,0.264,1.538,0.513c0.543,0.185,1.059,0.443,1.533,0.767
			c0.449,0.315,0.877,0.657,1.283,1.025c3.3,3.365,3.3,8.752,0,12.117l-1.283,1.025c-0.474,0.324-0.99,0.581-1.533,0.767
			c-0.485,0.245-1.003,0.418-1.538,0.513C278.987,242.594,278.418,242.651,277.846,242.667L277.846,242.667z"/>
	</g>
</g>
<g>
</g>
<g>
</g>
<g>
</g>
<g>
</g>
<g>
</g>
<g>
</g>
<g>
</g>
<g>
</g>
<g>
</g>
<g>
</g>
<g>
</g>
<g>
</g>
<g>
</g>
<g>
</g>
<g>
</g>
</svg>
