<?xml version="1.0" encoding="iso-8859-1"?>
<!-- Generator: Adobe Illustrator 19.0.0, SVG Export Plug-In . SVG Version: 6.00 Build 0)  -->
<svg version="1.1" id="Capa_1" xmlns="http://www.w3.org/2000/svg" xmlns:xlink="http://www.w3.org/1999/xlink" x="0px" y="0px"
	 viewBox="0 0 512 512" style="enable-background:new 0 0 512 512;" xml:space="preserve">
<g>
	<g transform="translate(1 1)">
		<path style="fill:#CFD8DC;" d="M41.667,58.733h-25.6c-4.707,0.014-8.52,3.826-8.533,8.533V101.4
			c0.014,4.707,3.826,8.52,8.533,8.533H459.8c4.707-0.014,8.52-3.826,8.533-8.533V67.267c-0.014-4.707-3.826-8.52-8.533-8.533
			H41.667z"/>
		<path style="fill:#37474F;" d="M306.2,391.533V485.4c-0.028,9.414-7.652,17.039-17.067,17.067h-68.267
			c-9.414-0.028-17.039-7.653-17.067-17.067v-93.867c0.298-11.245,5.279-21.855,13.739-29.269
			c6.732-7.153,10.903-16.336,11.861-26.112v-38.485c0.012-7.766,5.277-14.541,12.8-16.469c1.384-0.413,2.822-0.615,4.267-0.597
			h17.067c9.414,0.028,17.039,7.652,17.067,17.067v38.485c0.958,9.776,5.129,18.959,11.861,26.112
			C300.921,369.678,305.902,380.288,306.2,391.533z"/>
		<g>
			<path style="fill:#607D8B;" d="M280.6,391.533V485.4c-0.028,9.414-7.652,17.039-17.067,17.067h-42.667
				c-9.414-0.028-17.039-7.653-17.067-17.067v-93.867c0.298-11.245,5.279-21.855,13.739-29.269
				c6.732-7.153,10.903-16.336,11.861-26.112v-38.485c0.012-7.766,5.277-14.541,12.8-16.469c7.523,1.928,12.788,8.703,12.8,16.469
				v38.485c0.958,9.776,5.129,18.959,11.861,26.112C275.321,369.678,280.302,380.288,280.6,391.533z"/>
			<path style="fill:#607D8B;" d="M280.6,297.667V331.8h-51.2v-34.133c0.028-9.414,7.652-17.039,17.067-17.067h17.067
				C272.948,280.628,280.573,288.252,280.6,297.667z"/>
		</g>
		<path style="fill:#CFD8DC;" d="M255,297.667V331.8h-25.6v-34.133c0-9.387,3.84-17.067,8.533-17.067h8.533
			C251.16,280.6,255,288.28,255,297.667z"/>
		<path style="fill:#FFB301;" d="M75.8,7.533h324.267c18.851,0,34.133,15.282,34.133,34.133V127
			c0,18.851-15.282,34.133-34.133,34.133H75.8c-18.851,0-34.133-15.282-34.133-34.133V41.667C41.667,22.815,56.949,7.533,75.8,7.533
			z"/>
		<path style="fill:#FEC108;" d="M75.8,7.533h298.667c18.851,0,34.133,15.282,34.133,34.133V127
			c0,18.851-15.282,34.133-34.133,34.133H75.8c-18.851,0-34.133-15.282-34.133-34.133V41.667C41.667,22.815,56.949,7.533,75.8,7.533
			z"/>
	</g>
	<g>
		<path d="M401.067,170.667H76.8C53.247,170.639,34.161,151.553,34.133,128V42.667C34.161,19.114,53.247,0.028,76.8,0h324.267
			c23.553,0.028,42.639,19.114,42.667,42.667V128C443.706,151.553,424.619,170.639,401.067,170.667z M76.8,17.067
			c-14.132,0.015-25.585,11.468-25.6,25.6V128c0.015,14.132,11.468,25.585,25.6,25.6h324.267c14.132-0.015,25.585-11.468,25.6-25.6
			V42.667c-0.015-14.132-11.468-25.585-25.6-25.6H76.8z"/>
		<path d="M460.8,119.467h-25.6c-4.713,0-8.533-3.821-8.533-8.533c0-4.713,3.82-8.533,8.533-8.533h25.6V68.267h-25.6
			c-4.713,0-8.533-3.821-8.533-8.533s3.82-8.533,8.533-8.533h25.6c9.422,0.009,17.057,7.645,17.067,17.067V102.4
			C477.857,111.822,470.222,119.457,460.8,119.467L460.8,119.467z"/>
		<path d="M42.667,119.467h-25.6C7.645,119.457,0.009,111.822,0,102.4V68.267C0.009,58.845,7.645,51.209,17.067,51.2h25.6
			c4.713,0,8.533,3.821,8.533,8.533s-3.821,8.533-8.533,8.533h-25.6V102.4h25.6c4.713,0,8.533,3.821,8.533,8.533
			C51.2,115.646,47.379,119.467,42.667,119.467z"/>
		<path d="M281.6,345.683c-4.713,0-8.533-3.82-8.533-8.533v-38.483c-0.006-4.71-3.823-8.527-8.533-8.533h-17.067
			c-4.71,0.006-8.527,3.823-8.533,8.533v38.483c0,4.713-3.821,8.533-8.533,8.533s-8.533-3.82-8.533-8.533v-38.483
			c0.015-14.132,11.468-25.585,25.6-25.6h17.067c14.132,0.015,25.585,11.468,25.6,25.6v38.483c0,2.263-0.899,4.434-2.499,6.034
			C286.034,344.784,283.863,345.683,281.6,345.683z"/>
		<path d="M256,512h-34.133c-14.132-0.015-25.585-11.468-25.6-25.6v-93.867c0.298-13.602,6.251-26.464,16.429-35.492
			c5.26-5.873,8.504-13.273,9.259-21.121c0.679-4.664,5.011-7.895,9.675-7.217c4.665,0.679,7.896,5.01,7.217,9.675
			c-1.153,11.689-6.239,22.64-14.425,31.063c-6.739,5.826-10.755,14.19-11.088,23.092V486.4c0.006,4.71,3.823,8.527,8.533,8.533H256
			c4.713,0,8.533,3.821,8.533,8.533C264.533,508.18,260.713,512,256,512L256,512z"/>
		<path d="M290.133,512H256c-4.713,0-8.533-3.82-8.533-8.533c0-4.713,3.821-8.533,8.533-8.533h34.133
			c4.71-0.006,8.527-3.823,8.533-8.533v-93.867c-0.328-8.882-4.328-17.23-11.046-23.05c-8.208-8.429-13.308-19.396-14.467-31.104
			c-0.439-3.017,0.765-6.04,3.158-7.929c2.394-1.889,5.613-2.358,8.446-1.229c2.833,1.128,4.848,3.682,5.287,6.7
			c0.759,7.867,4.018,15.283,9.3,21.163c10.157,9.022,16.095,21.868,16.387,35.45V486.4
			C315.718,500.532,304.265,511.985,290.133,512L290.133,512z"/>
		<path d="M281.6,341.333h-51.2c-4.713,0-8.533-3.82-8.533-8.533s3.82-8.533,8.533-8.533h51.2c4.713,0,8.533,3.82,8.533,8.533
			S286.313,341.333,281.6,341.333z"/>
		<path d="M256,290.133c-4.713,0-8.533-3.821-8.533-8.533v-6.338c0.066-20.209,14.245-37.623,34.021-41.783l193.033-39.938
			c11.866-2.496,20.374-12.945,20.413-25.071V102.4c-0.006-4.71-3.823-8.527-8.533-8.533h-17.067c-4.713,0-8.533-3.821-8.533-8.533
			s3.821-8.533,8.533-8.533H486.4c14.132,0.015,25.585,11.468,25.6,25.6v66.071c-0.066,20.209-14.245,37.623-34.021,41.783
			l-193.033,39.938c-11.866,2.496-20.374,12.945-20.413,25.071v6.338C264.533,286.313,260.713,290.133,256,290.133z"/>
		<path d="M85.333,59.733c-3.451-0.001-6.562-2.08-7.882-5.268c-1.32-3.188-0.591-6.858,1.849-9.298l8.533-8.533
			c3.341-3.281,8.701-3.256,12.012,0.054S103.18,45.359,99.9,48.7l-8.533,8.533C89.768,58.836,87.597,59.736,85.333,59.733z"/>
		<path d="M128,59.733c-3.451-0.001-6.562-2.08-7.882-5.268c-1.32-3.188-0.591-6.858,1.849-9.298l8.533-8.533
			c3.341-3.281,8.701-3.256,12.012,0.054c3.311,3.311,3.335,8.671,0.054,12.012l-8.533,8.533
			C132.435,58.836,130.264,59.736,128,59.733z"/>
		<path d="M170.667,59.733c-3.451-0.001-6.562-2.08-7.882-5.268c-1.32-3.188-0.591-6.858,1.849-9.298l8.533-8.533
			c3.341-3.281,8.701-3.256,12.012,0.054c3.311,3.311,3.335,8.671,0.054,12.012l-8.533,8.533
			C175.102,58.836,172.93,59.736,170.667,59.733z"/>
		<path d="M213.333,59.733c-3.451-0.001-6.562-2.08-7.882-5.268c-1.32-3.188-0.591-6.858,1.849-9.298l8.533-8.533
			c3.341-3.281,8.701-3.256,12.012,0.054c3.311,3.311,3.335,8.671,0.054,12.012l-8.533,8.533
			C217.768,58.836,215.597,59.736,213.333,59.733L213.333,59.733z"/>
		<path d="M256,59.733c-3.451-0.001-6.562-2.08-7.882-5.268c-1.32-3.188-0.591-6.858,1.849-9.298l8.533-8.533
			c3.341-3.281,8.701-3.256,12.012,0.054s3.335,8.671,0.054,12.012l-8.533,8.533C260.435,58.836,258.264,59.736,256,59.733z"/>
		<path d="M298.667,59.733c-3.451-0.001-6.562-2.08-7.882-5.268c-1.32-3.188-0.591-6.858,1.849-9.298l8.533-8.533
			c3.341-3.281,8.701-3.256,12.012,0.054s3.335,8.671,0.054,12.012l-8.533,8.533C303.102,58.836,300.93,59.736,298.667,59.733z"/>
		<path d="M341.333,59.733c-3.451-0.001-6.562-2.08-7.882-5.268c-1.32-3.188-0.591-6.858,1.849-9.298l8.533-8.533
			c3.341-3.281,8.701-3.256,12.012,0.054c3.311,3.311,3.335,8.671,0.054,12.012l-8.533,8.533
			C345.768,58.836,343.597,59.736,341.333,59.733z"/>
		<path d="M384,59.733c-3.451-0.001-6.562-2.08-7.882-5.268c-1.32-3.188-0.591-6.858,1.849-9.298l8.533-8.533
			c3.341-3.281,8.701-3.256,12.012,0.054s3.335,8.671,0.054,12.012l-8.533,8.533C388.435,58.836,386.264,59.736,384,59.733z"/>
		<path d="M85.333,136.533c-3.451-0.001-6.562-2.08-7.882-5.268c-1.32-3.188-0.591-6.858,1.849-9.298l8.533-8.533
			c3.341-3.281,8.701-3.256,12.012,0.054s3.335,8.671,0.054,12.012l-8.533,8.533C89.768,135.636,87.597,136.536,85.333,136.533z"/>
		<path d="M128,136.533c-3.451-0.001-6.562-2.08-7.882-5.268c-1.32-3.188-0.591-6.858,1.849-9.298l8.533-8.533
			c3.341-3.281,8.701-3.256,12.012,0.054c3.311,3.311,3.335,8.671,0.054,12.012l-8.533,8.533
			C132.435,135.636,130.264,136.536,128,136.533z"/>
		<path d="M170.667,136.533c-3.451-0.001-6.562-2.08-7.882-5.268c-1.32-3.188-0.591-6.858,1.849-9.298l8.533-8.533
			c3.341-3.281,8.701-3.256,12.012,0.054c3.311,3.311,3.335,8.671,0.054,12.012l-8.533,8.533
			C175.102,135.636,172.93,136.536,170.667,136.533z"/>
		<path d="M213.333,136.533c-3.451-0.001-6.562-2.08-7.882-5.268c-1.32-3.188-0.591-6.858,1.849-9.298l8.533-8.533
			c3.341-3.281,8.701-3.256,12.012,0.054c3.311,3.311,3.335,8.671,0.054,12.012l-8.533,8.533
			C217.768,135.636,215.597,136.536,213.333,136.533L213.333,136.533z"/>
		<path d="M256,136.533c-3.451-0.001-6.562-2.08-7.882-5.268c-1.32-3.188-0.591-6.858,1.849-9.298l8.533-8.533
			c3.341-3.281,8.701-3.256,12.012,0.054s3.335,8.671,0.054,12.012l-8.533,8.533C260.435,135.636,258.264,136.536,256,136.533z"/>
		<path d="M298.667,136.533c-3.451-0.001-6.562-2.08-7.882-5.268c-1.32-3.188-0.591-6.858,1.849-9.298l8.533-8.533
			c3.341-3.281,8.701-3.256,12.012,0.054s3.335,8.671,0.054,12.012l-8.533,8.533C303.102,135.636,300.93,136.536,298.667,136.533z"
			/>
		<path d="M341.333,136.533c-3.451-0.001-6.562-2.08-7.882-5.268c-1.32-3.188-0.591-6.858,1.849-9.298l8.533-8.533
			c3.341-3.281,8.701-3.256,12.012,0.054c3.311,3.311,3.335,8.671,0.054,12.012l-8.533,8.533
			C345.768,135.636,343.597,136.536,341.333,136.533z"/>
		<path d="M384,136.533c-3.451-0.001-6.562-2.08-7.882-5.268c-1.32-3.188-0.591-6.858,1.849-9.298l8.533-8.533
			c3.341-3.281,8.701-3.256,12.012,0.054s3.335,8.671,0.054,12.012l-8.533,8.533C388.435,135.636,386.264,136.536,384,136.533z"/>
	</g>
</g>
<g>
</g>
<g>
</g>
<g>
</g>
<g>
</g>
<g>
</g>
<g>
</g>
<g>
</g>
<g>
</g>
<g>
</g>
<g>
</g>
<g>
</g>
<g>
</g>
<g>
</g>
<g>
</g>
<g>
</g>
</svg>
