<?xml version="1.0" encoding="iso-8859-1"?>
<!-- Generator: Adobe Illustrator 19.0.0, SVG Export Plug-In . SVG Version: 6.00 Build 0)  -->
<svg version="1.1" id="Capa_1" xmlns="http://www.w3.org/2000/svg" xmlns:xlink="http://www.w3.org/1999/xlink" x="0px" y="0px"
	 viewBox="0 0 512.034 512.034" style="enable-background:new 0 0 512.034 512.034;" xml:space="preserve">
<g transform="translate(-1)">
	<g transform="translate(2 1)">
		<path style="fill:#CFD8DC;" d="M315.33,129.544c5.317,0,10.25,2.772,13.014,7.315c2.764,4.542,2.96,10.197,0.517,14.92
			L215.927,366.344h-0.256c-12.67-0.008-25.308,1.279-37.717,3.84l-0.853-3.84l124.816-228.788
			C304.574,132.621,309.726,129.544,315.33,129.544z"/>
		<path style="fill:#4E342E;" d="M502.497,428.211l-29.952-10.325l-122.368-42.24c9.404-2.78,17.213-9.375,21.527-18.182
			c4.314-8.807,4.739-19.019,1.172-28.154l-50.091-128.085c-5.036-12.923-4.604-27.337,1.196-39.936
			c0.018-0.181,0.076-0.356,0.17-0.512l6.059-12.8l37.973-80.64c3.597-7.833,10.077-13.977,18.09-17.152
			c9.06-3.645,19.246-3.241,27.989,1.109l7.425,3.755c16.48,8.235,23.463,28.053,15.787,44.8l-24.832,53.76
			c-7.99,17.278-8.392,37.111-1.108,54.699l85.929,207.787v0.085L502.497,428.211z"/>
		<path style="fill:#795548;" d="M372.876,329.309l-50.092-128.085c-5.036-12.923-4.604-27.337,1.196-39.936
			c0.018-0.181,0.076-0.356,0.17-0.512l6.059-12.8l37.973-80.64c3.597-7.833,10.077-13.977,18.09-17.152
			c0.768,0.341,1.622,0.683,2.389,1.109l7.425,3.755c16.48,8.235,23.463,28.053,15.787,44.8l-24.832,53.76
			c-7.99,17.278-8.392,37.111-1.108,54.699l85.929,207.787v0.085l0.683,1.707l-122.368-42.24c9.404-2.78,17.213-9.375,21.527-18.182
			C376.019,348.656,376.444,338.444,372.876,329.309z"/>
		<path style="fill:#D84315;" d="M120.118,322.739c-1.49,3.281-3.171,6.473-5.035,9.557c-6.587,8.983-12.71,18.296-18.347,27.904
			c-3.686,8.116-4.988,17.113-3.754,25.941l7.935,11.605l-64.511,7.339c0.426-1.024,0.768-2.048,1.109-3.072
			c0.866-2.116,1.607-4.282,2.219-6.485c3.705-11.611,3.037-24.175-1.877-35.328c-5.607-9.607-11.703-18.92-18.263-27.904
			c-1.896-3.066-3.577-6.26-5.033-9.557c-8.619-19.2-10.837-43.52,2.645-61.099c9.395-11.238,22.741-18.446,37.291-20.139
			c4.233-0.677,8.513-1.019,12.8-1.024c19.056-0.986,37.514,6.812,50.091,21.163C130.956,279.219,128.651,303.539,120.118,322.739z"
			/>
		<path style="fill:#FF5722;" d="M94.518,322.739c-1.49,3.281-3.171,6.473-5.035,9.557c-6.587,8.983-12.71,18.296-18.347,27.904
			c-3.686,8.116-4.988,17.113-3.754,25.941l7.935,11.605l-37.802,4.267c0.866-2.116,1.607-4.282,2.219-6.485
			c3.705-11.611,3.037-24.175-1.877-35.328c-5.607-9.607-11.703-18.92-18.263-27.904c-1.896-3.066-3.577-6.26-5.033-9.557
			c-8.619-19.2-10.837-43.52,2.645-61.099c9.395-11.238,22.741-18.446,37.291-20.139c14.556,1.673,27.909,8.884,37.291,20.139
			C105.356,279.219,103.051,303.539,94.518,322.739z"/>
		<path style="fill:#607D8B;" d="M502.497,428.211v34.133H7.564v-35.328c0.022-6.819,4.074-12.979,10.325-15.701L151.35,366.6
			c11.685-4.971,23.833-8.773,36.267-11.349c12.409-2.561,25.047-3.848,37.717-3.84h8.789c19.498,0.004,38.875,3.056,57.429,9.045
			l199.083,51.456C497.705,414.199,502.494,420.781,502.497,428.211z"/>
		<rect x="7.564" y="428.211" style="fill:#81CCB8;" width="494.933" height="34.133"/>
		<rect x="7.564" y="428.211" style="fill:#607D8B;" width="494.933" height="34.133"/>
		<rect x="7.564" y="428.211" style="fill:#CFD8DC;" width="469.333" height="34.133"/>
	</g>
	<g>
		<path d="M38.405,414.619c-2.84,0.001-5.493-1.411-7.08-3.766c-1.586-2.355-1.897-5.345-0.829-7.976
			c1.166-2.847,2.178-5.754,3.033-8.708c3.157-9.617,2.658-20.061-1.4-29.333c-2.754-5.39-6.016-10.505-9.742-15.275
			c-2.75-3.767-5.592-7.667-8.117-11.883c-2.089-3.38-3.938-6.902-5.533-10.542c-11.492-25.583-10.125-51.667,3.7-69.683
			c14.15-16.513,35.137-25.56,56.858-24.508c4.713,0,8.533,3.821,8.533,8.533c0,4.713-3.82,8.533-8.533,8.533
			c-16.423-1.004-32.4,5.578-43.35,17.858c-11.675,15.225-8.483,37.042-1.6,52.367c1.307,2.972,2.822,5.849,4.533,8.608
			c2.167,3.625,4.658,7.05,7.3,10.667c4.385,5.643,8.206,11.703,11.408,18.092c5.781,13.005,6.616,27.673,2.35,41.25
			c-1.023,3.542-2.233,7.028-3.625,10.442C45.006,412.512,41.879,414.617,38.405,414.619L38.405,414.619z"/>
		<path d="M94.972,395.677c-4.298-0.002-7.923-3.202-8.458-7.467c-1.45-10.419,0.105-21.035,4.483-30.6
			c3.261-6.426,7.128-12.526,11.55-18.217c2.617-3.592,5.092-6.983,7.242-10.525c1.7-2.813,3.234-5.723,4.592-8.717
			c3.267-7.358,12.967-33.233-1.75-52.292c-12.392-16.108-34.433-17.85-43.333-17.85c-4.713,0-8.533-3.821-8.533-8.533
			c0-4.713,3.82-8.533,8.533-8.533c21.723-1.083,42.722,7.962,56.858,24.492c13.808,17.9,15.225,43.983,3.767,69.767
			c-1.646,3.626-3.505,7.151-5.567,10.558c-2.5,4.117-5.308,7.967-8.017,11.683c-3.769,4.821-7.08,9.982-9.892,15.417
			c-2.994,6.644-4.035,14.003-3,21.217c0.589,4.676-2.724,8.944-7.4,9.533C95.69,395.654,95.331,395.676,94.972,395.677z"/>
		<path d="M504.497,471.877H9.564c-2.264,0.001-4.435-0.897-6.035-2.498c-1.601-1.601-2.499-3.772-2.498-6.035v-35.325
			c0.023-10.206,6.074-19.435,15.425-23.525l134.183-44.984c12.005-5.094,24.486-8.985,37.258-11.617
			c12.974-2.675,26.187-4.02,39.433-4.016h8.792c20.387,0.003,40.648,3.191,60.05,9.45l198.6,51.325
			c10.814,3.295,18.218,13.253,18.258,24.558v34.133c0.001,2.264-0.897,4.435-2.498,6.035
			C508.932,470.98,506.761,471.879,504.497,471.877L504.497,471.877z M18.097,454.811h477.867v-25.6
			c-0.003-3.738-2.417-7.047-5.975-8.192L291.422,369.71c-17.862-5.792-36.522-8.75-55.3-8.766h-8.792
			c-12.091-0.003-24.15,1.226-35.992,3.667c-11.885,2.467-23.496,6.101-34.667,10.85L22.597,420.402
			c-2.797,1.508-4.529,4.44-4.5,7.617V454.811z"/>
		<path d="M189.605,364.786c-3.999-0.007-7.458-2.788-8.325-6.692l-0.85-3.842c-0.44-1.996-0.151-4.083,0.817-5.883l115.15-213.858
			c6.188-11.488,20.48-15.84,32.021-9.752c11.541,6.088,16.017,20.342,10.029,31.935L235.172,356.336
			c-1.471,2.83-4.394,4.607-7.583,4.608c-12.177-0.016-24.323,1.213-36.25,3.667C190.768,364.726,190.188,364.785,189.605,364.786
			L189.605,364.786z M317.33,139.077c-2.468-0.003-4.738,1.352-5.908,3.525l-109.242,202.9c6.696-0.87,13.433-1.39,20.183-1.558
			L323.28,148.852c1.075-2.076,0.989-4.563-0.226-6.561C321.838,140.294,319.669,139.076,317.33,139.077L317.33,139.077z"/>
		<path d="M504.497,437.744c-3.441-0.001-6.546-2.067-7.875-5.242l-5.033-12.033c-0.1-0.233-0.183-0.475-0.267-0.725
			l-85.675-207.175c-8.157-19.796-7.704-42.094,1.25-61.542l24.825-53.758c5.661-12.558,0.45-27.348-11.833-33.584l-7.475-3.775
			c-6.155-3.072-13.29-3.528-19.786-1.264c-6.496,2.264-11.802,7.056-14.714,13.289l-43.825,93.009
			c-0.099,0.306-0.216,0.607-0.35,0.9c-4.81,10.502-5.171,22.503-1,33.275l50.083,128.083c4.507,11.363,3.971,24.106-1.475,35.05
			c-5.374,10.944-15.089,19.135-26.783,22.583c-4.518,1.298-9.234-1.303-10.548-5.816c-1.313-4.513,1.272-9.239,5.781-10.567
			c7.097-2.108,12.987-7.092,16.242-13.742c3.307-6.652,3.629-14.397,0.883-21.3l-50.083-128.075
			c-5.782-14.924-5.359-31.54,1.175-46.15c0.14-0.419,0.307-0.828,0.5-1.225l43.95-93.258c4.862-10.406,13.722-18.405,24.569-22.18
			c10.847-3.776,22.759-3.007,33.031,2.13l7.475,3.775c20.674,10.216,29.416,35.065,19.692,55.975l-24.842,53.783
			c-6.967,15.129-7.318,32.477-0.967,47.875l85.925,207.775c0.093,0.215,0.174,0.435,0.242,0.658l4.783,11.425
			c1.103,2.634,0.814,5.646-0.769,8.023C510.02,436.319,507.353,437.746,504.497,437.744z"/>
		<path d="M504.497,437.744H9.564c-4.713,0-8.533-3.821-8.533-8.533s3.821-8.533,8.533-8.533h494.933
			c4.713,0,8.533,3.82,8.533,8.533S509.21,437.744,504.497,437.744z"/>
	</g>
</g>
<g>
</g>
<g>
</g>
<g>
</g>
<g>
</g>
<g>
</g>
<g>
</g>
<g>
</g>
<g>
</g>
<g>
</g>
<g>
</g>
<g>
</g>
<g>
</g>
<g>
</g>
<g>
</g>
<g>
</g>
</svg>
