<?xml version="1.0" encoding="iso-8859-1"?>
<!-- Generator: Adobe Illustrator 19.0.0, SVG Export Plug-In . SVG Version: 6.00 Build 0)  -->
<svg version="1.1" id="Capa_1" xmlns="http://www.w3.org/2000/svg" xmlns:xlink="http://www.w3.org/1999/xlink" x="0px" y="0px"
	 viewBox="0 0 512.006 512.006" style="enable-background:new 0 0 512.006 512.006;" xml:space="preserve">
<g transform="translate(-1 -1)">
	<g transform="translate(2 1)">
		<path style="fill:#CFD8DC;" d="M281.971,55.489h38.114c10.13,0,19.737,4.5,26.222,12.282l63.231,75.878
			c7.668,9.201,11.867,20.8,11.867,32.777v31.127L281.971,55.489z"/>
		<path style="fill:#F57C00;" d="M451.273,453.484v20.139c-0.014,4.707-3.826,8.519-8.533,8.533H101.406
			c-37.657-0.11-68.156-30.61-68.267-68.267v-68.267l0.597,0.085c-37.363-68.319-34.556-151.563,7.326-217.209
			s116.189-103.274,193.89-98.183c10.981,0.676,21.885,2.275,32.597,4.779l164.779,179.712c0.341,2.731,0.683,5.547,0.939,8.363
			c5.035,52.656-9.753,105.296-41.472,147.627c-8.132,11.031-6.097,26.516,4.608,35.072l49.835,39.851
			C449.284,447.107,451.247,450.136,451.273,453.484z"/>
		<path style="fill:#FF9801;" d="M425.673,453.484v20.139c-0.014,4.707-3.826,8.519-8.533,8.533H101.406
			c-37.657-0.11-68.156-30.61-68.267-68.267v-68.267l0.597,0.085c-35.11-64.16-34.917-141.83,0.51-205.815
			S135.402,34.524,208.414,30.23c0.341,0,0.597,0.085,0.939,0.085c10.981,0.676,21.885,2.275,32.597,4.779l164.779,179.712
			c0.341,2.731,0.683,5.547,0.939,8.363c5.035,52.656-9.753,105.296-41.472,147.627c-8.132,11.031-6.097,26.516,4.608,35.072
			l49.835,39.851C423.684,447.107,425.647,450.136,425.673,453.484z"/>
		<path style="fill:#37474F;" d="M357.406,243.222H84.339c0-75.405,61.128-136.533,136.533-136.533S357.406,167.817,357.406,243.222
			L357.406,243.222z"/>
		<path style="fill:#607D8B;" d="M331.806,243.222H84.339c0-75.435,55.37-136.533,123.733-136.533S331.806,167.787,331.806,243.222z
			"/>
		<path style="fill:#FDD834;" d="M357.406,243.222c0,75.405-61.128,136.533-136.533,136.533S84.339,318.627,84.339,243.222H357.406z
			"/>
		<g>
			<path style="fill:#FFEB3A;" d="M331.806,243.222c0,75.435-55.371,136.533-123.733,136.533S84.339,318.657,84.339,243.222H331.806
				z"/>
			<polygon style="fill:#FFEB3A;" points="297.673,174.956 297.673,209.089 144.073,209.089 144.073,174.956 161.139,174.956 
				161.139,157.889 280.606,157.889 280.606,174.956 			"/>
		</g>
	</g>
	<g>
		<path d="M444.74,491.689H103.406c-42.396-0.048-76.752-34.404-76.8-76.8v-67.146C-10.87,276.648-6.982,190.847,36.771,123.432
			S157.303,17.524,237.498,22.797c11.45,0.708,22.821,2.376,33.992,4.987c2.97,0.692,5.345,2.917,6.229,5.835
			c0.884,2.919,0.144,6.087-1.942,8.312s-5.201,3.166-8.17,2.47c-10.245-2.394-20.674-3.923-31.175-4.571
			c-74.606-4.925-145.97,31.186-186.191,94.214S7.33,277.008,43.223,342.597c1.22,2.231,1.385,4.889,0.45,7.254v65.037
			c0.038,32.974,26.759,59.695,59.733,59.733H444.74v-20.137c-0.649-0.301-1.263-0.672-1.833-1.104l-49.833-39.85
			c-14.37-11.398-17.073-32.157-6.1-46.854c30.367-40.679,44.547-91.185,39.792-141.725c-0.242-2.742-0.575-5.454-0.9-8.087
			c-0.576-4.671,2.74-8.926,7.41-9.51c4.67-0.584,8.931,2.725,9.523,7.394c0.358,2.833,0.708,5.746,0.967,8.667
			c5.132,54.741-10.238,109.437-43.133,153.492c-5.437,7.344-4.045,17.681,3.142,23.325l49.142,39.296
			c5.485,2.975,8.899,8.717,8.892,14.958v20.137C461.795,484.043,454.161,491.678,444.74,491.689z"/>
		<path d="M434.331,224.339c-2.393,0.004-4.677-1-6.292-2.767L263.256,41.86c-3.156-3.478-2.909-8.853,0.554-12.027
			s8.839-2.953,12.03,0.494l164.784,179.713c2.285,2.495,2.88,6.105,1.518,9.202C440.778,222.338,437.715,224.337,434.331,224.339
			L434.331,224.339z"/>
		<path d="M504.473,491.689c-2.263,0.001-4.434-0.898-6.035-2.499c-1.6-1.6-2.499-3.771-2.499-6.035v-25.6h-42.667
			c-4.713,0-8.533-3.82-8.533-8.533s3.821-8.533,8.533-8.533h51.2c2.263-0.001,4.434,0.898,6.035,2.499
			c1.6,1.6,2.499,3.771,2.499,6.035v34.133c0.001,2.263-0.898,4.434-2.499,6.035C508.907,490.791,506.736,491.689,504.473,491.689z"
			/>
		<path d="M222.873,389.289c-80.118,0-145.067-64.949-145.067-145.067S142.755,99.155,222.873,99.155S367.94,164.104,367.94,244.222
			C367.85,324.303,302.954,389.199,222.873,389.289L222.873,389.289z M222.873,116.222c-70.692,0-128,57.308-128,128
			s57.308,128,128,128s128-57.308,128-128C350.794,173.562,293.533,116.301,222.873,116.222z"/>
		<path d="M359.406,252.756H86.339c-4.713,0-8.533-3.821-8.533-8.533s3.821-8.533,8.533-8.533h273.067
			c4.713,0,8.533,3.82,8.533,8.533S364.119,252.756,359.406,252.756z"/>
		<path d="M282.606,167.422H163.139c-4.713,0-8.533-3.821-8.533-8.533c0-4.713,3.821-8.533,8.533-8.533h119.467
			c4.713,0,8.533,3.821,8.533,8.533C291.139,163.602,287.319,167.422,282.606,167.422z"/>
		<path d="M299.673,218.622h-153.6c-2.263,0.001-4.434-0.898-6.035-2.499c-1.6-1.6-2.499-3.771-2.499-6.035v-34.133
			c0-4.713,3.821-8.533,8.533-8.533c4.713,0,8.533,3.821,8.533,8.533v25.6h136.533v-25.6c0-4.713,3.821-8.533,8.533-8.533
			c4.713,0,8.533,3.821,8.533,8.533v34.133c0.001,2.263-0.898,4.434-2.499,6.035C304.107,217.724,301.936,218.623,299.673,218.622
			L299.673,218.622z"/>
		<path d="M163.139,184.489h-17.067c-4.713,0-8.533-3.821-8.533-8.533c0-4.713,3.821-8.533,8.533-8.533h8.533v-8.533
			c0-4.713,3.821-8.533,8.533-8.533s8.533,3.821,8.533,8.533v17.067c0.001,2.263-0.898,4.434-2.499,6.035
			C167.574,183.591,165.403,184.489,163.139,184.489L163.139,184.489z"/>
		<path d="M299.673,184.489h-17.067c-2.263,0.001-4.434-0.898-6.035-2.499c-1.6-1.6-2.499-3.771-2.499-6.035v-17.067
			c0-4.713,3.82-8.533,8.533-8.533s8.533,3.821,8.533,8.533v8.533h8.533c4.713,0,8.533,3.821,8.533,8.533
			C308.206,180.668,304.386,184.489,299.673,184.489L299.673,184.489z"/>
		<path d="M427.673,217.085c-2.263,0.001-4.434-0.898-6.035-2.499c-1.6-1.6-2.499-3.771-2.499-6.035v-31.125
			c-0.006-9.981-3.505-19.646-9.892-27.317l-63.233-75.875c-4.854-5.844-12.061-9.221-19.658-9.212H288.24
			c-4.713,0-8.533-3.821-8.533-8.533s3.821-8.533,8.533-8.533h38.117c12.666-0.015,24.68,5.613,32.775,15.354l63.233,75.875
			c8.934,10.742,13.83,24.27,13.841,38.242v31.125c0.001,2.263-0.898,4.434-2.499,6.035
			C432.107,216.186,429.936,217.085,427.673,217.085z"/>
		<path d="M372.206,461.822c-2.264,0.003-4.435-0.897-6.033-2.5l-21.333-21.333c-3.281-3.341-3.256-8.701,0.054-12.012
			s8.671-3.335,12.012-0.054l21.333,21.333c2.44,2.44,3.169,6.11,1.849,9.298S375.657,461.821,372.206,461.822z"/>
		<path d="M329.539,461.822c-2.264,0.003-4.435-0.897-6.033-2.5l-21.333-21.333c-3.281-3.341-3.256-8.701,0.054-12.012
			c3.311-3.311,8.671-3.335,12.012-0.054l21.333,21.333c2.44,2.44,3.169,6.11,1.849,9.298
			C336.101,459.742,332.99,461.821,329.539,461.822z"/>
		<path d="M286.873,461.822c-2.264,0.003-4.435-0.897-6.033-2.5l-21.333-21.333c-3.281-3.341-3.256-8.701,0.054-12.012
			c3.311-3.311,8.671-3.335,12.012-0.054l21.333,21.333c2.44,2.44,3.169,6.11,1.849,9.298S290.324,461.821,286.873,461.822z"/>
		<path d="M244.206,461.822c-2.264,0.003-4.435-0.897-6.033-2.5l-21.333-21.333c-3.281-3.341-3.256-8.701,0.054-12.012
			c3.311-3.311,8.671-3.335,12.012-0.054l21.333,21.333c2.44,2.44,3.169,6.11,1.849,9.298
			C250.768,459.742,247.657,461.821,244.206,461.822z"/>
		<path d="M201.539,461.822c-2.264,0.003-4.435-0.897-6.033-2.5l-21.333-21.333c-3.281-3.341-3.256-8.701,0.054-12.012
			c3.311-3.311,8.671-3.335,12.012-0.054l21.333,21.333c2.44,2.44,3.169,6.11,1.849,9.298
			C208.101,459.742,204.99,461.821,201.539,461.822z"/>
		<path d="M158.873,461.822c-2.264,0.003-4.435-0.897-6.033-2.5l-21.333-21.333c-3.281-3.341-3.256-8.701,0.054-12.012
			c3.311-3.311,8.671-3.335,12.012-0.054l21.333,21.333c2.44,2.44,3.169,6.11,1.849,9.298
			C165.434,459.742,162.324,461.821,158.873,461.822z"/>
		<path d="M116.206,461.822c-2.264,0.003-4.435-0.897-6.033-2.5L88.84,437.989c-3.281-3.341-3.256-8.701,0.054-12.012
			s8.671-3.335,12.012-0.054l21.333,21.333c2.44,2.44,3.169,6.11,1.849,9.298S119.657,461.821,116.206,461.822z"/>
	</g>
</g>
<g>
</g>
<g>
</g>
<g>
</g>
<g>
</g>
<g>
</g>
<g>
</g>
<g>
</g>
<g>
</g>
<g>
</g>
<g>
</g>
<g>
</g>
<g>
</g>
<g>
</g>
<g>
</g>
<g>
</g>
</svg>
