<?xml version="1.0" encoding="iso-8859-1"?>
<!-- Generator: Adobe Illustrator 19.0.0, SVG Export Plug-In . SVG Version: 6.00 Build 0)  -->
<svg version="1.1" id="Capa_1" xmlns="http://www.w3.org/2000/svg" xmlns:xlink="http://www.w3.org/1999/xlink" x="0px" y="0px"
	 viewBox="0 0 512 512" style="enable-background:new 0 0 512 512;" xml:space="preserve">
<g>
	<g transform="translate(1 1)">
		<path style="fill:#F5F5F5;" d="M383,502.467h-8.533c-9.426,0-17.067-7.641-17.067-17.067V289.134h34.133v204.8
			C391.534,498.647,387.713,502.467,383,502.467z"/>
		<path style="fill:#37474F;" d="M440.6,185.966L406.126,34.072c-3.569-15.511-17.364-26.511-33.28-26.539h-25.6
			c15.916,0.027,29.711,11.028,33.28,26.539L415,185.966c1.434,6.183,2.15,12.511,2.133,18.859V280.6
			c0.002,9.053-3.593,17.737-9.995,24.139s-15.085,9.997-24.139,9.995h25.6c9.053,0.003,17.737-3.593,24.139-9.995
			c6.402-6.402,9.997-15.085,9.995-24.139v-75.776C442.75,198.477,442.035,192.149,440.6,185.966L440.6,185.966z"/>
		<path style="fill:#607D8B;" d="M415,185.966L380.526,34.072c-3.569-15.511-17.364-26.511-33.28-26.539h-76.629
			c-10.323-0.002-20.559,1.878-30.208,5.547L29.55,93.038c-13.244,5.047-22.001,17.742-22.016,31.915V280.6
			c-0.002,9.053,3.593,17.737,9.995,24.139s15.085,9.997,24.139,9.995H383c9.053,0.003,17.737-3.593,24.139-9.995
			s9.997-15.085,9.995-24.139v-75.776C417.15,198.477,416.435,192.149,415,185.966z M289.134,144.067
			c0.002,9.053-3.593,17.737-9.995,24.139c-6.402,6.402-15.085,9.997-24.139,9.995H76.056c-9.564-0.007-17.316-7.759-17.323-17.323
			v-0.085c0.013-7.347,4.667-13.883,11.605-16.299l186.709-64.939l7.509-2.645c1.932-0.746,3.987-1.122,6.059-1.109h1.451
			c9.414,0.028,17.039,7.652,17.067,17.067V144.067z"/>
		<path style="fill:#00838F;" d="M383,272.067H272.067c-9.426,0-17.067-7.641-17.067-17.067v-25.6
			c0-9.426,7.641-17.067,17.067-17.067H383c9.426,0,17.067,7.641,17.067,17.067V255C400.067,264.426,392.426,272.067,383,272.067z"
			/>
		<path style="fill:#00BCD4;" d="M357.4,272.067h-76.8c-9.426,0-17.067-7.641-17.067-17.067v-25.6
			c0-9.426,7.641-17.067,17.067-17.067h76.8c9.426,0,17.067,7.641,17.067,17.067V255C374.467,264.426,366.826,272.067,357.4,272.067
			z"/>
	</g>
	<g>
		<path d="M409.6,324.267H42.667C19.114,324.239,0.028,305.153,0,281.6V125.959c0.063-17.707,11.003-33.555,27.537-39.892
			L238.35,6.1c10.634-4.039,21.916-6.106,33.292-6.1h102.179c19.95-0.083,37.265,13.74,41.604,33.213l34.508,151.829
			c1.55,6.826,2.332,13.804,2.333,20.804V281.6C452.239,305.153,433.153,324.239,409.6,324.267z M271.642,17.067
			c-9.309-0.006-18.54,1.686-27.242,4.992L33.587,102.025c-9.92,3.802-16.483,13.31-16.521,23.933V281.6
			c0.015,14.132,11.468,25.585,25.6,25.6H409.6c14.132-0.015,25.585-11.468,25.6-25.6v-75.754
			c-0.001-5.728-0.641-11.439-1.908-17.025L398.784,36.996c-2.603-11.684-12.992-19.978-24.962-19.929H271.642z"/>
		<path d="M256,187.734H77.054c-14.272-0.017-25.837-11.583-25.854-25.854v-0.058c0.006-11.006,6.973-20.805,17.367-24.425
			L262.754,69.85c2.831-1.069,5.836-1.606,8.863-1.583h1.45c14.132,0.015,25.585,11.468,25.6,25.6v51.2
			C298.639,168.62,279.553,187.706,256,187.734z M271.617,85.334c-1.009-0.012-2.011,0.166-2.954,0.525L74.171,153.517
			c-3.534,1.231-5.902,4.562-5.904,8.304v0.058c0.005,4.851,3.936,8.782,8.788,8.787H256c14.132-0.015,25.585-11.468,25.6-25.6
			v-51.2c-0.006-4.71-3.823-8.527-8.533-8.533H271.617z"/>
		<path d="M384,512h-8.533c-14.132-0.015-25.585-11.468-25.6-25.6V315.734c0-4.713,3.82-8.533,8.533-8.533h34.133
			c4.713,0,8.533,3.821,8.533,8.533v179.2C401.057,504.355,393.422,511.991,384,512z M366.934,324.267V486.4
			c0.006,4.71,3.823,8.527,8.533,8.533H384V324.267H366.934z"/>
		<path d="M298.667,375.467h-128c-2.037,0-4.007-0.729-5.554-2.054l-59.733-51.2c-2.315-1.984-3.395-5.053-2.834-8.05
			c0.561-2.997,2.678-5.467,5.554-6.479c2.876-1.013,6.073-0.414,8.388,1.57l57.338,49.146H294.1l31.6-47.4
			c1.677-2.57,4.605-4.041,7.668-3.853c3.063,0.188,5.789,2.005,7.14,4.76c1.351,2.755,1.119,6.023-0.608,8.56l-34.133,51.2
			C304.184,374.041,301.52,375.467,298.667,375.467L298.667,375.467z"/>
		<path d="M503.467,375.467h-332.8c-4.713,0-8.533-3.82-8.533-8.533s3.821-8.533,8.533-8.533h332.8c4.713,0,8.533,3.82,8.533,8.533
			S508.18,375.467,503.467,375.467z"/>
		<path d="M384,281.6H273.067c-14.132-0.015-25.585-11.468-25.6-25.6v-25.6c0.015-14.132,11.468-25.585,25.6-25.6H384
			c14.132,0.015,25.585,11.468,25.6,25.6V256C409.585,270.132,398.132,281.585,384,281.6L384,281.6z M273.067,221.867
			c-4.71,0.006-8.527,3.823-8.533,8.533V256c0.006,4.71,3.823,8.527,8.533,8.533H384c4.71-0.006,8.527-3.823,8.533-8.533v-25.6
			c-0.006-4.71-3.823-8.527-8.533-8.533H273.067z"/>
		<path d="M162.134,281.6c-4.713,0-8.533-3.82-8.533-8.533v-59.733c0-4.713,3.821-8.533,8.533-8.533c4.713,0,8.533,3.82,8.533,8.533
			v59.733C170.667,277.78,166.846,281.6,162.134,281.6z"/>
		<path d="M128,281.6c-4.713,0-8.533-3.82-8.533-8.533v-59.733c0-4.713,3.821-8.533,8.533-8.533c4.713,0,8.533,3.82,8.533,8.533
			v59.733C136.534,277.78,132.713,281.6,128,281.6z"/>
		<path d="M93.867,281.6c-4.713,0-8.533-3.82-8.533-8.533v-59.733c0-4.713,3.821-8.533,8.533-8.533c4.713,0,8.533,3.82,8.533,8.533
			v59.733C102.4,277.78,98.58,281.6,93.867,281.6z"/>
		<path d="M59.734,281.6c-4.713,0-8.533-3.82-8.533-8.533v-59.733c0-4.713,3.821-8.533,8.533-8.533s8.533,3.82,8.533,8.533v59.733
			C68.267,277.78,64.446,281.6,59.734,281.6z"/>
	</g>
</g>
<g>
</g>
<g>
</g>
<g>
</g>
<g>
</g>
<g>
</g>
<g>
</g>
<g>
</g>
<g>
</g>
<g>
</g>
<g>
</g>
<g>
</g>
<g>
</g>
<g>
</g>
<g>
</g>
<g>
</g>
</svg>
