<?xml version="1.0" encoding="iso-8859-1"?>
<!-- Generator: Adobe Illustrator 19.0.0, SVG Export Plug-In . SVG Version: 6.00 Build 0)  -->
<svg version="1.1" id="Capa_1" xmlns="http://www.w3.org/2000/svg" xmlns:xlink="http://www.w3.org/1999/xlink" x="0px" y="0px"
	 viewBox="0 0 512.01 512.01" style="enable-background:new 0 0 512.01 512.01;" xml:space="preserve">
<g>
	<g transform="translate(1 1)">
		<path style="fill:#CFD8DC;" d="M468.333,225.054c0.061,62.042-42.968,115.806-103.516,129.34
			c-60.548,13.534-122.373-16.792-148.734-72.956c-26.36-56.163-10.185-123.1,38.913-161.028s117.949-36.677,165.636,3.012
			C450.834,148.536,468.312,185.775,468.333,225.054L468.333,225.054z"/>
		<path style="fill:#F5F5F5;" d="M451.267,207.988c0.024,51.307-29.639,97.995-76.096,119.77
			c-46.457,21.775-101.318,14.705-140.736-18.138c-43.767-52.529-40.26-129.764,8.087-178.111s125.582-51.854,178.111-8.087
			C440.467,147.133,451.314,177.074,451.267,207.988L451.267,207.988z"/>
		<circle style="fill:#CFD8DC;" cx="336.067" cy="225.054" r="76.8"/>
		<path style="fill:#607D8B;" d="M453.315,350.238c-35.925,7.174-61.786,38.715-61.781,75.349h110.933v-59.733
			c0.019-4.169-1.535-8.191-4.352-11.264L453.315,350.238z"/>
		<path style="fill:#CFD8DC;" d="M439.057,350.238c-27.11,6.997-47.524,38.059-47.524,75.349h85.333v-59.733
			c0.064-4.009-1.104-7.941-3.348-11.264L439.057,350.238z"/>
		<g>
			<path style="fill:#607D8B;" d="M24.6,451.188h34.133v42.667c0,4.713-3.821,8.533-8.533,8.533H33.133
				c-4.713,0-8.533-3.821-8.533-8.533V451.188z"/>
			<path style="fill:#607D8B;" d="M451.267,451.188H485.4v42.667c0,4.713-3.82,8.533-8.533,8.533H459.8
				c-4.713,0-8.533-3.821-8.533-8.533V451.188z"/>
			<path style="fill:#607D8B;" d="M41.667,374.388H203.8c9.426,0,17.067,7.641,17.067,17.067v51.2H24.6v-51.2
				C24.6,382.029,32.241,374.388,41.667,374.388z"/>
		</g>
		<g>
			<path style="fill:#CFD8DC;" d="M41.667,374.388H178.2c9.426,0,17.067,7.641,17.067,17.067v51.2H24.6v-51.2
				C24.6,382.029,32.241,374.388,41.667,374.388z"/>
			<path style="fill:#CFD8DC;" d="M16.067,425.588h486.4v25.6c0,4.713-3.821,8.533-8.533,8.533H16.067
				c-4.713,0-8.533-3.82-8.533-8.533v-17.067C7.533,429.408,11.354,425.588,16.067,425.588z"/>
		</g>
		<path style="fill:#F5F5F5;" d="M16.067,425.588h460.8v25.6c0,4.713-3.821,8.533-8.533,8.533H16.067
			c-4.713,0-8.533-3.82-8.533-8.533v-17.067C7.533,429.408,11.354,425.588,16.067,425.588z"/>
		<path style="fill:#F3D55B;" d="M451.267,340.254l-0.256-0.256"/>
		<path style="fill:#FF5722;" d="M220.616,41.353L158.028,8.386c-3.315-1.54-7.245-0.769-9.733,1.91l-7.459,7.459
			c-3.315,2.941-3.639,8.004-0.725,11.343l53.086,53.086L221.5,53.88c1.9-1.599,2.921-4.011,2.746-6.488
			C224.072,44.914,222.722,42.67,220.616,41.353L220.616,41.353z"/>
		<path style="fill:#FFB301;" d="M476.269,314.654l-25.259,25.344L229.4,118.388l-11.008-11.008l-25.173-25.173l24.149-24.149
			l10.752,10.752l16.896,16.896c61.967-40.419,143.173-35.1,199.339,13.056c3.243,2.73,6.315,5.547,9.387,8.618
			C508.917,162.644,518.284,248.826,476.269,314.654z"/>
		<path style="fill:#FEC108;" d="M459.288,297.844l-25.173,25.259L229.4,118.388l-11.008-11.008l-25.173-25.173l24.064-24.064
			l10.752,10.752c0.023,0.001,0.045-0.008,0.061-0.024c0.016-0.016,0.025-0.038,0.024-0.061l16.896,16.896
			c61.967-40.419,143.173-35.1,199.339,13.056C492.971,154.451,499.052,235.525,459.288,297.844L459.288,297.844z"/>
		<circle style="fill:#607D8B;" cx="476.867" cy="340.254" r="25.6"/>
	</g>
	<g>
		<path d="M494.933,469.254H17.067C7.645,469.245,0.009,461.609,0,452.188v-17.067c0.009-9.422,7.645-17.057,17.067-17.067h486.4
			c4.713,0,8.533,3.82,8.533,8.533v25.6C511.991,461.609,504.355,469.245,494.933,469.254L494.933,469.254z M17.067,435.121v17.067
			h477.879l-0.009-17.067H17.067z"/>
		<path d="M51.2,511.921H34.133c-9.422-0.009-17.057-7.645-17.067-17.067v-34.133c0-4.713,3.821-8.533,8.533-8.533h34.133
			c4.713,0,8.533,3.82,8.533,8.533v34.133C68.257,504.276,60.622,511.912,51.2,511.921L51.2,511.921z M34.133,469.254v25.6h17.079
			l-0.009-25.6H34.133z"/>
		<path d="M477.867,511.921H460.8c-9.422-0.009-17.057-7.645-17.067-17.067v-34.133c0-4.713,3.82-8.533,8.533-8.533H486.4
			c4.713,0,8.533,3.82,8.533,8.533v34.133C494.924,504.276,487.288,511.912,477.867,511.921L477.867,511.921z M460.8,469.254v25.6
			h17.079l-0.009-25.6H460.8z"/>
		<path d="M503.467,435.121H392.533c-4.713,0-8.533-3.82-8.533-8.533s3.82-8.533,8.533-8.533h102.4v-51.2
			c0.02-2.036-0.735-4.004-2.112-5.504c-2.066-2.248-2.773-5.428-1.854-8.34s3.322-5.11,6.304-5.766
			c2.982-0.656,6.086,0.332,8.142,2.589c4.251,4.648,6.602,10.722,6.588,17.021v59.733C512,431.301,508.18,435.121,503.467,435.121z
			"/>
		<path d="M392.533,435.121c-4.713,0-8.533-3.82-8.533-8.533c0.061-40.683,28.771-75.693,68.654-83.721
			c2.995-0.605,6.085,0.438,8.102,2.733c2.017,2.296,2.652,5.494,1.666,8.387c-0.986,2.892-3.443,5.036-6.442,5.622
			c-31.905,6.424-54.868,34.434-54.913,66.979C401.067,431.301,397.246,435.121,392.533,435.121z"/>
		<path d="M452.267,349.788c-2.264,0.003-4.435-0.897-6.033-2.5L213.359,114.413c-1.601-1.601-2.501-3.772-2.5-6.036
			c0.001-2.264,0.902-4.435,2.504-6.035c63.139-63.145,163.702-68.599,233.301-12.654s85.89,155.33,37.794,230.567
			c-1.643,2.568-4.532,4.064-7.577,3.925c-3.046-0.139-5.785-1.893-7.188-4.6c-1.402-2.707-1.253-5.957,0.39-8.525
			c42.526-66.528,29.36-154.243-30.824-205.354s-148.874-49.895-207.635,2.845L458.3,335.221c2.44,2.44,3.169,6.11,1.849,9.298
			C458.828,347.708,455.718,349.787,452.267,349.788z"/>
		<path d="M337.067,366.854c-56.945,0.001-108.284-34.299-130.079-86.909s-9.754-113.167,30.509-153.437
			c2.149-2.169,5.294-3.024,8.245-2.242c2.951,0.782,5.26,3.081,6.054,6.029c0.794,2.948-0.048,6.096-2.208,8.254
			c-31.276,31.254-43.497,76.822-32.058,119.532s44.799,76.07,87.509,87.509c42.71,11.439,88.278-0.782,119.532-32.058
			c2.158-2.16,5.306-3.002,8.254-2.208c2.948,0.794,5.247,3.103,6.029,6.054c0.782,2.952-0.073,6.096-2.242,8.245
			C410.248,352.08,374.416,366.921,337.067,366.854z"/>
		<path d="M337.067,311.388c-34.516,0.02-65.641-20.766-78.846-52.656c-13.205-31.89-5.885-68.595,18.541-92.981
			c2.156-2.155,5.297-2.997,8.242-2.208s5.244,3.089,6.033,6.033c0.789,2.944-0.053,6.086-2.208,8.242
			c-17.282,17.224-24.048,42.366-17.747,65.938c6.302,23.571,24.713,41.982,48.284,48.284c23.571,6.302,48.714-0.465,65.938-17.747
			c3.332-3.332,8.735-3.332,12.067,0c3.332,3.332,3.332,8.735,0,12.067C381.421,302.423,359.705,311.437,337.067,311.388z"/>
		<path d="M194.196,91.717c-2.264,0.003-4.435-0.897-6.033-2.5l-53.088-53.087c-6.242-6.67-5.92-17.131,0.721-23.404l7.467-7.467
			c5.147-5.3,13.122-6.679,19.75-3.417l62.579,32.962c4.324,2.266,7.296,6.472,7.987,11.304c0.754,5.455-1.117,10.945-5.046,14.804
			l-28.304,28.304C198.63,90.82,196.459,91.719,194.196,91.717z M147.867,24.788l46.329,46.329l21.983-21.983l-61.125-32.196
			L147.867,24.788z"/>
		<path d="M230.4,127.921c-2.264,0.003-4.435-0.897-6.033-2.5l-36.184-36.183c-1.601-1.6-2.5-3.77-2.5-6.033s0.899-4.433,2.5-6.033
			l24.15-24.146c1.6-1.601,3.77-2.5,6.033-2.5c2.263,0,4.433,0.899,6.033,2.5l27.65,27.646c2.156,2.156,2.997,5.297,2.208,8.242
			c-0.789,2.945-3.089,5.245-6.033,6.034c-2.945,0.789-6.086-0.053-8.242-2.208l-21.617-21.612l-12.083,12.079l30.15,30.15
			c2.44,2.44,3.169,6.11,1.849,9.298C236.962,125.841,233.851,127.92,230.4,127.921z"/>
		<path d="M221.867,435.121H25.6c-4.713,0-8.533-3.82-8.533-8.533v-34.133c0.015-14.132,11.468-25.585,25.6-25.6H204.8
			c14.132,0.015,25.585,11.468,25.6,25.6v34.133c0,2.263-0.899,4.434-2.499,6.034C226.3,434.222,224.13,435.121,221.867,435.121z
			 M34.133,418.054h179.2v-25.6c-0.006-4.71-3.823-8.527-8.533-8.533H42.667c-4.71,0.006-8.527,3.823-8.533,8.533V418.054z"/>
		<path d="M477.867,375.388c-18.851,0-34.133-15.282-34.133-34.133c0-18.851,15.282-34.133,34.133-34.133
			c18.851,0,34.133,15.282,34.133,34.133C511.978,360.097,496.709,375.366,477.867,375.388L477.867,375.388z M477.867,324.188
			c-9.426,0-17.067,7.641-17.067,17.067c0,9.426,7.641,17.067,17.067,17.067c9.426,0,17.067-7.641,17.067-17.067
			C494.924,331.833,487.288,324.197,477.867,324.188L477.867,324.188z"/>
	</g>
</g>
<g>
</g>
<g>
</g>
<g>
</g>
<g>
</g>
<g>
</g>
<g>
</g>
<g>
</g>
<g>
</g>
<g>
</g>
<g>
</g>
<g>
</g>
<g>
</g>
<g>
</g>
<g>
</g>
<g>
</g>
</svg>
