<?xml version="1.0" encoding="iso-8859-1"?>
<!-- Generator: Adobe Illustrator 19.0.0, SVG Export Plug-In . SVG Version: 6.00 Build 0)  -->
<svg version="1.1" id="Capa_1" xmlns="http://www.w3.org/2000/svg" xmlns:xlink="http://www.w3.org/1999/xlink" x="0px" y="0px"
	 viewBox="0 0 512 512" style="enable-background:new 0 0 512 512;" xml:space="preserve">
<g>
	<g transform="translate(1 1)">
		<rect x="365.933" y="45.933" style="fill:#D84315;" width="76.8" height="44.314"/>
		<g>
			<rect x="374.467" y="45.933" style="fill:#FF5722;" width="42.667" height="44.314"/>
			<path style="fill:#FF5722;" d="M485.4,81.714h-42.667V45.936h25.6c9.426,0,17.067,7.641,17.067,17.067V81.714z"/>
		</g>
		<polygon style="fill:#02A9F4;" points="186.733,225.133 152.771,284.525 111.384,284.525 111.384,225.133 		"/>
		<path style="fill:#D84315;" d="M479.683,118.467h-33.195l5.717,4.267l-271.36,361.813c-6.444,8.598-16.562,13.657-27.307,13.653
			h33.195c10.745,0.004,20.863-5.055,27.307-13.653L485.4,122.733L479.683,118.467z"/>
		<path style="fill:#FF5722;" d="M446.488,118.467H357.4c-9.414-0.028-17.039-7.653-17.067-17.067L331.8,80.067v-8.533
			c-0.014-4.707-3.826-8.519-8.533-8.533H306.2l-34.133-25.6l-17.835,11.52L33.133,191v42.667
			c0.028,9.414,7.653,17.039,17.067,17.067h1.963c11.183,0.005,21.653,5.492,28.02,14.685c6.367,9.193,7.822,20.924,3.895,31.395
			L34.413,429.421c-5.721,15.178,0.065,32.285,13.824,40.875l36.352,22.699c5.416,3.412,11.689,5.217,18.091,5.205h50.859
			c10.745,0.004,20.863-5.055,27.307-13.653l271.36-361.813L446.488,118.467z M255,263.192
			c-0.002,14.083-4.353,27.822-12.459,39.339L173.08,400.92c-9.818,13.914-28.655,17.992-43.349,9.387
			c-1.582-0.866-3.07-1.896-4.437-3.072c-13.399-11.195-15.686-30.921-5.205-44.885l45.312-60.416
			c2.424-3.232,2.814-7.557,1.007-11.17c-1.807-3.614-5.5-5.896-9.541-5.896c-1.373,0.014-2.744-0.101-4.096-0.341
			C138.013,282.499,127.013,269.896,127,255c0.078-16.462,13.404-29.788,29.867-29.867h64c9.053-0.003,17.737,3.593,24.139,9.995
			s9.997,15.085,9.995,24.139V263.192z"/>
		<path style="fill:#AD1457;" d="M255,191H24.6c-9.426,0-17.067-7.641-17.067-17.067V28.867c0-9.426,7.641-17.067,17.067-17.067H255
			c9.426,0,17.067,7.641,17.067,17.067v145.067C272.067,183.359,264.426,191,255,191z"/>
		<path style="fill:#E91E63;" d="M229.4,191H24.6c-9.426,0-17.067-7.641-17.067-17.067V28.867c0-9.426,7.641-17.067,17.067-17.067
			h204.8c9.426,0,17.067,7.641,17.067,17.067v145.067C246.467,183.359,238.826,191,229.4,191z"/>
		<path style="fill:#0377BC;" d="M485.4,122.733H348.867c-9.426,0-17.067-7.641-17.067-17.067v-25.6h153.6
			c9.426,0,17.067,7.641,17.067,17.067v8.533C502.467,115.092,494.826,122.733,485.4,122.733z"/>
		<path style="fill:#02A9F4;" d="M459.8,122.733H348.867c-9.426,0-17.067-7.641-17.067-17.067v-25.6h128
			c9.426,0,17.067,7.641,17.067,17.067v8.533C476.867,115.092,469.226,122.733,459.8,122.733z"/>
		<path style="fill:#F4F4F4;" d="M237.933,54.467v93.867c-0.014,4.707-3.826,8.519-8.533,8.533h-63.488
			c-2.907-0.013-5.61-1.499-7.179-3.947c-1.569-2.448-1.79-5.524-0.587-8.171l10.155-22.016l7.936-17.067l15.701-34.133
			l9.557-20.651c1.135-2.388,3.307-4.119,5.888-4.693c0.61-0.174,1.243-0.26,1.877-0.256H229.4
			C234.107,45.947,237.919,49.76,237.933,54.467z"/>
		<path style="fill:#02A9F4;" d="M84.333,11.8V191H24.6c-9.414-0.028-17.039-7.653-17.067-17.067V28.867
			C7.561,19.452,15.186,11.828,24.6,11.8H84.333z"/>
		<circle style="fill:#F4F4F4;" cx="348.867" cy="216.6" r="17.067"/>
	</g>
	<g>
		<path d="M256,200.533H25.6c-14.132-0.015-25.585-11.468-25.6-25.6V29.867c0.015-14.132,11.468-25.585,25.6-25.6H256
			c14.132,0.015,25.585,11.468,25.6,25.6v145.067C281.585,189.065,270.132,200.518,256,200.533z M25.6,21.333
			c-4.71,0.006-8.527,3.823-8.533,8.533v145.067c0.006,4.71,3.823,8.527,8.533,8.533H256c4.71-0.006,8.527-3.823,8.533-8.533V29.867
			c-0.006-4.71-3.823-8.527-8.533-8.533H25.6z"/>
		<path d="M187.733,507.733h-84.079c-7.996,0.003-15.832-2.244-22.612-6.483L44.75,478.566
			C27.578,467.772,20.338,446.41,27.408,427.4l49.704-132.546c2.949-7.861,1.855-16.668-2.927-23.569
			c-4.782-6.901-12.644-11.018-21.04-11.018H51.2c-14.132-0.015-25.585-11.468-25.6-25.6V192c0-4.713,3.821-8.533,8.533-8.533
			s8.533,3.82,8.533,8.533v42.667c0.006,4.71,3.823,8.527,8.533,8.533h1.946c13.993,0,27.097,6.862,35.068,18.363
			c7.971,11.501,9.795,26.18,4.882,39.283L43.392,433.392c-4.243,11.406,0.101,24.223,10.404,30.7l36.292,22.683
			c4.068,2.544,8.769,3.893,13.567,3.892h84.079c8.054-0.018,15.634-3.809,20.479-10.242l261.121-348.158H349.867
			c-14.132-0.015-25.585-11.468-25.6-25.6V72.533H307.2c-1.847-0.001-3.644-0.6-5.121-1.708l-34.133-25.6
			c-3.769-2.828-4.532-8.176-1.704-11.946c2.828-3.769,8.177-4.532,11.946-1.704l31.858,23.892h14.221
			c9.422,0.009,17.057,7.645,17.067,17.067v34.133c0.006,4.71,3.823,8.527,8.533,8.533H486.4c3.233-0.001,6.188,1.826,7.634,4.717
			c1.445,2.892,1.132,6.352-0.809,8.937L221.867,490.667C213.789,501.386,201.156,507.702,187.733,507.733z"/>
		<path d="M486.4,132.267H349.867c-14.132-0.015-25.585-11.468-25.6-25.6v-25.6c0-4.713,3.82-8.533,8.533-8.533h153.6
			c14.132,0.015,25.585,11.468,25.6,25.6v8.533C511.985,120.799,500.532,132.251,486.4,132.267L486.4,132.267z M341.333,89.6v17.067
			c0.006,4.71,3.823,8.527,8.533,8.533H486.4c4.71-0.006,8.527-3.823,8.533-8.533v-8.533c-0.006-4.71-3.823-8.527-8.533-8.533
			H341.333z"/>
		<path d="M147.337,424.333c-15.651,0.011-29.965-8.824-36.971-22.82c-7.006-13.996-5.501-30.749,3.887-43.272l45.321-60.429
			c0.484-0.647,0.561-1.511,0.2-2.234c-0.361-0.722-1.1-1.179-1.908-1.179c-21.208,0-38.4-17.192-38.4-38.4s17.192-38.4,38.4-38.4
			h64c23.553,0.028,42.639,19.114,42.667,42.667v3.933c0.025,15.864-4.888,31.342-14.058,44.288l-69.429,98.362
			C173.317,417.808,160.747,424.328,147.337,424.333z M157.867,234.667c-11.782,0-21.333,9.551-21.333,21.333
			s9.551,21.333,21.333,21.333c7.273-0.002,13.923,4.107,17.175,10.613c3.252,6.506,2.549,14.291-1.817,20.108l-45.321,60.429
			c-5.243,6.996-6.314,16.273-2.801,24.279c3.512,8.006,11.063,13.501,19.761,14.38s17.196-2.993,22.24-10.134l69.429-98.363
			c7.132-10.068,10.954-22.107,10.933-34.446v-3.933c-0.015-14.132-11.468-25.585-25.6-25.6H157.867z"/>
		<path d="M349.867,243.2c-14.138,0-25.6-11.462-25.6-25.6c0-14.139,11.462-25.6,25.6-25.6c14.138,0,25.6,11.462,25.6,25.6
			C375.451,231.732,363.999,243.185,349.867,243.2z M349.867,209.067c-4.713,0-8.533,3.821-8.533,8.533s3.821,8.533,8.533,8.533
			c4.713,0,8.533-3.82,8.533-8.533C358.394,212.89,354.577,209.073,349.867,209.067z"/>
		<path d="M409.6,166.4h-8.533c-4.713,0-8.533-3.82-8.533-8.533s3.82-8.533,8.533-8.533h8.533c4.713,0,8.533,3.821,8.533,8.533
			S414.313,166.4,409.6,166.4z"/>
		<path d="M366.933,166.4H358.4c-4.713,0-8.533-3.82-8.533-8.533s3.82-8.533,8.533-8.533h8.533c4.713,0,8.533,3.821,8.533,8.533
			S371.646,166.4,366.933,166.4z"/>
		<path d="M145.058,507.733c-3.209-0.003-6.144-1.806-7.598-4.666c-1.454-2.86-1.181-6.294,0.707-8.888l194.729-267.775
			c2.773-3.811,8.11-4.652,11.921-1.879c3.811,2.773,4.652,8.11,1.879,11.921L151.967,504.221
			C150.361,506.432,147.791,507.739,145.058,507.733L145.058,507.733z"/>
		<path d="M486.4,89.6c-4.713,0-8.533-3.821-8.533-8.533V64c-0.006-4.71-3.823-8.527-8.533-8.533h-25.6
			c-4.713,0-8.533-3.821-8.533-8.533s3.821-8.533,8.533-8.533h25.6c14.132,0.015,25.585,11.468,25.6,25.6v17.067
			c0,2.263-0.899,4.434-2.499,6.034C490.834,88.701,488.663,89.6,486.4,89.6z"/>
		<path d="M443.733,89.6h-76.8c-4.713,0-8.533-3.821-8.533-8.533V46.933c0-4.713,3.82-8.533,8.533-8.533h76.8
			c4.713,0,8.533,3.821,8.533,8.533v34.133C452.267,85.779,448.446,89.6,443.733,89.6z M375.467,72.533H435.2V55.467h-59.733V72.533
			z"/>
		<path d="M230.4,166.4h-63.462c-5.82,0-11.238-2.966-14.376-7.868c-3.137-4.902-3.561-11.064-1.124-16.349l43.329-93.867
			c2.797-6.036,8.839-9.904,15.492-9.917H230.4c9.422,0.009,17.057,7.645,17.067,17.067v93.867
			C247.457,158.755,239.822,166.391,230.4,166.4z M210.258,55.467l-43.325,93.867H230.4V55.467H210.258z"/>
		<path d="M85.333,200.533c-4.713,0-8.533-3.821-8.533-8.533V12.8c0-4.713,3.821-8.533,8.533-8.533s8.533,3.821,8.533,8.533V192
			C93.867,196.713,90.046,200.533,85.333,200.533z"/>
		<path d="M153.591,294.4c-3.04-0.004-5.849-1.624-7.373-4.254s-1.535-5.873-0.027-8.512l34.133-59.733
			c2.338-4.092,7.55-5.513,11.642-3.175c4.092,2.338,5.513,7.55,3.175,11.642L161.008,290.1
			C159.489,292.763,156.657,294.404,153.591,294.4L153.591,294.4z"/>
		<rect x="187.733" y="72.533" width="51.2" height="17.067"/>
		<rect x="170.667" y="106.667" width="68.267" height="17.067"/>
	</g>
</g>
<g>
</g>
<g>
</g>
<g>
</g>
<g>
</g>
<g>
</g>
<g>
</g>
<g>
</g>
<g>
</g>
<g>
</g>
<g>
</g>
<g>
</g>
<g>
</g>
<g>
</g>
<g>
</g>
<g>
</g>
</svg>
