<?xml version="1.0" encoding="iso-8859-1"?>
<!-- Generator: Adobe Illustrator 19.0.0, SVG Export Plug-In . SVG Version: 6.00 Build 0)  -->
<svg version="1.1" id="Capa_1" xmlns="http://www.w3.org/2000/svg" xmlns:xlink="http://www.w3.org/1999/xlink" x="0px" y="0px"
	 viewBox="0 0 512 512" style="enable-background:new 0 0 512 512;" xml:space="preserve">
<g>
	<g transform="translate(0 1)">
		<path style="fill:#607D8B;" d="M307.2,272.069h145.067c28.277,0,51.2-22.923,51.2-51.2V24.602c0-9.426-7.641-17.067-17.067-17.067
			H25.6c-9.426,0-17.067,7.641-17.067,17.067v196.267c0,28.277,22.923,51.2,51.2,51.2H307.2z"/>
		<path style="fill:#CFD8DC;" d="M291.752,272.069h137.563c27.537-0.75,49.263-23.662,48.552-51.2V24.602
			c0.237-9.179-7.005-16.816-16.184-17.067H24.717c-9.179,0.25-16.421,7.887-16.184,17.067v196.267
			c-0.712,27.538,21.015,50.45,48.552,51.2H291.752z"/>
		<path style="fill:#424242;" d="M503.467,195.269v25.6c-0.022,28.268-22.932,51.178-51.2,51.2H59.733
			c-28.268-0.022-51.178-22.932-51.2-51.2v-25.6H503.467z"/>
		<path style="fill:#9E9E9E;" d="M477.867,195.269v25.6c0.69,27.53-21.024,50.428-48.552,51.2H57.085
			c-27.528-0.772-49.242-23.67-48.552-51.2v-25.6H477.867z"/>
		<path style="fill:#0377BC;" d="M307.2,263.535v35.413c-0.015,9.179-1.872,18.261-5.461,26.709
			c-8.117,20.995-12.059,43.372-11.605,65.877v75.349c0.284,17.94-12.999,33.21-30.805,35.413
			c-9.585,0.944-19.123-2.208-26.259-8.678c-7.136-6.469-11.205-15.653-11.202-25.285v-76.8
			c0.454-22.505-3.488-44.882-11.605-65.877c-3.589-8.448-5.446-17.53-5.461-26.709v-35.413
			c0.055-18.828,15.305-34.078,34.133-34.133h34.133C291.895,229.457,307.145,244.707,307.2,263.535z"/>
		<path style="fill:#02A9F4;" d="M281.6,263.535v35.413c0.028,9.062-1.353,18.073-4.096,26.709
			c-6.131,21.41-9.064,43.609-8.704,65.877v75.349c0,17.835-9.813,33.707-23.125,35.413c-15.189,1.963-28.075-13.995-28.075-33.963
			v-76.8c0.36-22.268-2.573-44.467-8.704-65.877c-2.743-8.637-4.124-17.648-4.096-26.709v-35.413c0-18.773,11.52-34.133,25.6-34.133
			H256C270.08,229.402,281.6,244.762,281.6,263.535z"/>
		<path style="fill:#00838F;" d="M290.304,383.514c-0.085,2.56-0.171,5.291-0.171,8.021v75.349
			c0.284,17.94-12.999,33.21-30.805,35.413c-9.585,0.944-19.123-2.208-26.259-8.678c-7.136-6.469-11.205-15.653-11.202-25.285v-76.8
			c0-2.731-0.085-5.461-0.171-8.021h0.341c-0.085-1.536-0.171-3.157-0.171-4.779c0-25.941,15.275-46.933,34.133-46.933
			c18.859,0,34.133,20.992,34.133,46.933c0,1.621-0.085,3.243-0.171,4.779H290.304z"/>
		<path style="fill:#00BCD4;" d="M264.875,383.514c-0.085,2.56-0.085,5.291-0.085,8.021v75.349c0,17.835-8.192,33.707-19.371,35.413
			c-12.715,1.963-23.467-13.995-23.467-33.963v-76.8c0-2.731,0-5.461-0.085-8.021h0.256c-0.085-1.536-0.171-3.157-0.171-4.779
			c0-25.941,9.557-46.933,21.419-46.933c11.861,0,21.419,20.992,21.419,46.933c0,1.621-0.085,3.243-0.171,4.779H264.875z"/>
	</g>
	<g>
		<path d="M452.267,281.602H307.2c-4.713,0-8.533-3.82-8.533-8.533s3.82-8.533,8.533-8.533h145.067
			c23.553-0.028,42.639-19.114,42.667-42.667V25.602c-0.005-4.711-3.822-8.529-8.533-8.533H25.6
			c-4.711,0.005-8.529,3.822-8.533,8.533v196.267c0.028,23.553,19.114,42.639,42.667,42.667H204.8c4.713,0,8.533,3.82,8.533,8.533
			s-3.821,8.533-8.533,8.533H59.733C26.759,281.564,0.038,254.843,0,221.869V25.602C0.015,11.47,11.468,0.017,25.6,0.002h460.8
			c14.132,0.015,25.585,11.468,25.6,25.6v196.267C511.962,254.843,485.241,281.564,452.267,281.602z"/>
		<path d="M503.467,204.802H8.533c-4.713,0-8.533-3.821-8.533-8.533c0-4.713,3.821-8.533,8.533-8.533h494.933
			c4.713,0,8.533,3.821,8.533,8.533C512,200.982,508.18,204.802,503.467,204.802z"/>
		<path d="M256.092,511.998c-11.332,0.028-22.209-4.455-30.231-12.459s-12.529-18.871-12.527-30.203v-76.8
			c0.484-21.394-3.245-42.674-10.975-62.629c-3.993-9.483-6.063-19.665-6.092-29.954v-35.417
			c0.028-23.553,19.114-42.639,42.667-42.667h34.133c23.553,0.028,42.639,19.114,42.667,42.667v35.417
			c-0.029,10.291-2.099,20.474-6.092,29.958c-7.73,19.953-11.46,41.232-10.975,62.625v75.346
			c0.235,22.319-16.358,41.242-38.517,43.925C258.792,511.935,257.442,511.998,256.092,511.998z M238.933,238.935
			c-14.132,0.015-25.585,11.468-25.6,25.6v35.417c0.029,8.043,1.658,16.001,4.792,23.408c8.587,22.031,12.758,45.535,12.275,69.175
			v76.8c-0.003,7.232,3.054,14.127,8.414,18.981c5.36,4.854,12.523,7.215,19.719,6.498c13.426-1.793,23.359-13.391,23.067-26.933
			v-75.346c-0.483-23.639,3.687-47.142,12.275-69.171c3.133-7.409,4.762-15.368,4.792-23.412v-35.417
			c-0.015-14.132-11.468-25.585-25.6-25.6H238.933z"/>
		<path d="M238.933,290.135c-2.263,0.001-4.434-0.898-6.035-2.499c-1.6-1.6-2.499-3.771-2.499-6.035v-8.533
			c0-4.713,3.821-8.533,8.533-8.533c4.713,0,8.533,3.82,8.533,8.533v8.533c0.001,2.263-0.898,4.434-2.499,6.035
			C243.368,289.237,241.197,290.136,238.933,290.135L238.933,290.135z"/>
		<path d="M273.067,290.135c-2.263,0.001-4.434-0.898-6.035-2.499s-2.499-3.771-2.499-6.035v-8.533c0-4.713,3.82-8.533,8.533-8.533
			s8.533,3.82,8.533,8.533v8.533c0.001,2.263-0.898,4.434-2.499,6.035C277.501,289.237,275.33,290.136,273.067,290.135
			L273.067,290.135z"/>
		<path d="M256,477.869c-2.27,0.022-4.453-0.87-6.058-2.475c-1.605-1.605-2.497-3.788-2.475-6.058
			c-0.032-1.121,0.203-2.233,0.683-3.246c0.433-1.033,1.039-1.984,1.792-2.813c3.421-3.158,8.695-3.158,12.117,0
			c0.753,0.829,1.359,1.78,1.792,2.813c0.438,1.027,0.67,2.13,0.683,3.246c0.022,2.27-0.87,4.453-2.475,6.058
			C260.453,476.999,258.27,477.891,256,477.869L256,477.869z"/>
		<path d="M289.975,393.048c-0.158,0-0.317-0.004-0.467-0.012c-4.708-0.255-8.318-4.276-8.067-8.983
			c0.083-1.388,0.158-2.854,0.158-4.317c0-20.817-11.725-38.4-25.6-38.4c-13.875,0-25.6,17.583-25.6,38.4
			c0,1.463,0.075,2.929,0.158,4.317c0.252,4.708-3.359,8.729-8.067,8.983c-4.667,0.152-8.625-3.402-8.975-8.058
			c-0.092-1.687-0.183-3.462-0.183-5.242c0-30.583,19.142-55.467,42.667-55.467c23.525,0,42.667,24.883,42.667,55.467
			c0,1.779-0.092,3.554-0.183,5.242C298.241,389.5,294.504,393.044,289.975,393.048z"/>
		<path d="M170.667,238.935H51.2c-4.713,0-8.533-3.821-8.533-8.533c0-4.713,3.821-8.533,8.533-8.533h119.467
			c4.713,0,8.533,3.821,8.533,8.533C179.2,235.115,175.38,238.935,170.667,238.935z"/>
		<path d="M460.8,238.935H341.333c-4.713,0-8.533-3.821-8.533-8.533c0-4.713,3.82-8.533,8.533-8.533H460.8
			c4.713,0,8.533,3.821,8.533,8.533C469.333,235.115,465.513,238.935,460.8,238.935z"/>
	</g>
</g>
<g>
</g>
<g>
</g>
<g>
</g>
<g>
</g>
<g>
</g>
<g>
</g>
<g>
</g>
<g>
</g>
<g>
</g>
<g>
</g>
<g>
</g>
<g>
</g>
<g>
</g>
<g>
</g>
<g>
</g>
</svg>
