<?xml version="1.0" encoding="iso-8859-1"?>
<!-- Generator: Adobe Illustrator 19.0.0, SVG Export Plug-In . SVG Version: 6.00 Build 0)  -->
<svg version="1.1" id="Capa_1" xmlns="http://www.w3.org/2000/svg" xmlns:xlink="http://www.w3.org/1999/xlink" x="0px" y="0px"
	 viewBox="0 0 511.998 511.998" style="enable-background:new 0 0 511.998 511.998;" xml:space="preserve">
<g>
	<g transform="translate(1 1)">
		<path style="fill:#283593;" d="M502.466,83.49c-0.799,14.742-7.031,28.666-17.493,39.083
			c-18.887,18.882-47.933,23.116-71.424,10.411L127.17,419.362c4.488,24.953-7.111,50.048-29.024,62.799
			s-49.462,10.435-68.939-5.796l15.104-6.997c18.881,2.059,37.626-4.909,50.578-18.801c12.951-13.892,18.59-33.079,15.214-51.77
			l286.379-286.379c23.491,12.705,52.537,8.471,71.424-10.411c1.365-1.365,2.645-2.73,3.84-4.181L502.466,83.49z"/>
		<path style="fill:#3F51B5;" d="M460.055,103.287l11.691-5.461c-1.195,1.451-2.475,2.816-3.84,4.181
			c-18.887,18.882-47.933,23.116-71.424,10.411L110.103,398.796c3.376,18.69-2.263,37.878-15.214,51.77
			c-12.951,13.892-31.697,20.86-50.578,18.801l28.757-13.312c8.634-4.087,12.365-14.366,8.363-23.04l-8.533-18.091
			c-1.935-4.153-5.44-7.368-9.745-8.936c-4.305-1.568-9.057-1.362-13.21,0.573L7.532,426.359
			c0.713-12.792,5.497-25.021,13.653-34.901c1.195-1.451,2.475-2.816,3.84-4.181c18.887-18.882,47.933-23.116,71.424-10.411
			L382.828,90.487c-4.428-24.935,7.182-49.982,29.071-62.718c21.889-12.737,49.401-10.454,68.892,5.716L436.93,53.794
			c-8.634,4.087-12.365,14.366-8.363,23.04l3.328,7.083l5.205,11.008c1.929,4.158,5.434,7.377,9.741,8.946
			S455.903,105.23,460.055,103.287z"/>
	</g>
	<g>
		<path d="M443.374,149.908c-11.499-0.018-22.812-2.905-32.912-8.4c-2.682-1.451-4.387-4.224-4.471-7.272
			c-0.084-3.049,1.464-5.911,4.063-7.508s5.851-1.687,8.534-0.236c13.139,7.091,28.695,8.181,42.694,2.991
			c13.999-5.19,25.086-16.157,30.426-30.1l-27.021,12.642c-6.213,2.899-13.322,3.21-19.764,0.866s-11.689-7.152-14.586-13.366
			l-8.471-18.092c-5.941-12.912-0.41-28.202,12.417-34.325l29.667-13.8c-17.523-7.628-37.822-4.995-52.819,6.852
			s-22.258,30.985-18.893,49.798c0.564,3.008-0.525,6.088-2.856,8.071c-2.33,1.984-5.545,2.567-8.424,1.53
			c-2.879-1.037-4.982-3.537-5.512-6.551c-5.124-28.473,8.101-57.112,33.099-71.675c24.998-14.563,56.434-11.942,78.676,6.559
			c2.242,1.871,3.371,4.76,2.992,7.656s-2.214,5.397-4.863,6.627l-43.8,20.375c-4.349,2.091-6.224,7.278-4.217,11.667l8.471,18.1
			c0.983,2.112,2.766,3.746,4.956,4.54s4.606,0.684,6.715-0.307l42.375-19.816c2.715-1.27,5.897-1.022,8.382,0.652
			c2.486,1.674,3.911,4.53,3.755,7.523C509.873,121.295,479.823,149.763,443.374,149.908L443.374,149.908z"/>
		<path d="M68.803,500.024c-16.107-0.015-31.695-5.703-44.025-16.067c-2.242-1.871-3.371-4.76-2.992-7.656
			c0.379-2.896,2.214-5.397,4.863-6.627l43.8-20.375c4.349-2.091,6.224-7.278,4.217-11.667l-8.471-18.1
			c-0.983-2.112-2.766-3.746-4.956-4.54c-2.19-0.794-4.606-0.684-6.715,0.307l-42.375,19.816c-2.715,1.27-5.897,1.022-8.382-0.652
			c-2.486-1.674-3.911-4.53-3.755-7.523c1.281-22.382,13.38-42.739,32.427-54.561s42.659-13.631,63.285-4.847L377.807,85.449
			c3.332-3.332,8.735-3.332,12.067,0c3.332,3.332,3.332,8.735,0,12.067L103.507,383.883c-2.67,2.668-6.774,3.268-10.096,1.475
			c-13.139-7.091-28.695-8.181-42.694-2.991s-25.086,16.157-30.426,30.1l27.021-12.642c6.213-2.899,13.322-3.21,19.764-0.866
			c6.442,2.344,11.689,7.152,14.586,13.366l8.471,18.092c5.941,12.912,0.41,28.202-12.417,34.325l-29.667,13.8
			c17.523,7.628,37.822,4.995,52.819-6.852c14.997-11.847,22.258-30.985,18.893-49.798c-0.5-2.758,0.384-5.585,2.367-7.567
			l286.363-286.358c3.332-3.332,8.735-3.332,12.067,0c3.332,3.332,3.332,8.735,0,12.067L137.22,423.374
			c2.146,19.478-4.081,38.95-17.13,53.569C107.042,491.562,88.399,499.952,68.803,500.024z"/>
	</g>
</g>
<g>
</g>
<g>
</g>
<g>
</g>
<g>
</g>
<g>
</g>
<g>
</g>
<g>
</g>
<g>
</g>
<g>
</g>
<g>
</g>
<g>
</g>
<g>
</g>
<g>
</g>
<g>
</g>
<g>
</g>
</svg>
