<?xml version="1.0" encoding="iso-8859-1"?>
<!-- Generator: Adobe Illustrator 19.0.0, SVG Export Plug-In . SVG Version: 6.00 Build 0)  -->
<svg version="1.1" id="Capa_1" xmlns="http://www.w3.org/2000/svg" xmlns:xlink="http://www.w3.org/1999/xlink" x="0px" y="0px"
	 viewBox="0 0 512.022 512.022" style="enable-background:new 0 0 512.022 512.022;" xml:space="preserve">
<g transform="translate(-1 -1)">
	<g transform="translate(18 2)">
		<g>
			<path style="fill:#607D8B;" d="M271.375,359.523l53.171,13.293c9.276,2.345,19.111,0.648,27.064-4.67l9.041-6.048
				c2.68-1.805,4.104-4.975,3.671-8.177c-0.432-3.202-2.645-5.882-5.707-6.912l-107.539-35.806l-1.796-0.599"/>
			<path style="fill:#607D8B;" d="M209.103,349.584l76.762,148.375c1.262,2.387,3.582,4.033,6.252,4.435
				c2.67,0.402,5.372-0.489,7.28-2.399l5.628-5.628c9.755-9.739,12.643-24.415,7.305-37.124l-40.956-97.719l-20.298-48.321
				l-0.719-1.677L209.103,349.584z"/>
		</g>
		<path style="fill:#2296F3;" d="M479.195,22.915l-38.315,60.16l5.888,5.888c6.656,6.674,6.656,17.475,0,24.149l-17.835,17.835
			l8.96,9.045c5.358,5.346,7.451,13.147,5.488,20.457c-1.963,7.31-7.683,13.013-14.998,14.956
			c-7.315,1.942-15.111-0.173-20.442-5.546c5.41,5.338,7.545,13.166,5.594,20.512s-7.688,13.083-15.034,15.034
			c-7.346,1.951-15.174-0.184-20.512-5.594c5.41,5.338,7.545,13.166,5.594,20.512c-1.951,7.346-7.688,13.083-15.034,15.034
			c-7.346,1.951-15.174-0.184-20.512-5.594c5.373,5.331,7.488,13.126,5.546,20.442c-1.942,7.315-7.646,13.035-14.956,14.998
			c-7.31,1.963-15.111-0.13-20.457-5.488l-9.045-8.96L255.28,304.6l-41.813,41.813c-6.674,6.656-17.476,6.656-24.149,0l-4.011-4.011
			l-43.691-43.691c-6.656-6.674-6.656-17.475,0-24.149L374.917,41.262c6.674-6.656,17.476-6.656,24.149,0l5.888,5.888l60.16-38.229
			c3.323-2.151,7.696-1.688,10.496,1.109L478,12.419C480.78,15.219,481.274,19.562,479.195,22.915z"/>
		<path style="fill:#F5F5F5;" d="M479.153,22.938l-38.267,60.134L404.96,47.146l60.134-38.267c3.348-2.131,7.727-1.65,10.534,1.156
			l2.369,2.369C480.803,15.211,481.284,19.59,479.153,22.938z"/>
		<polygon style="fill:#CFD8DC;" points="428.933,130.947 405.04,154.84 355.973,203.992 255.28,304.6 183.429,232.75 
			357.083,59.096 		"/>
		
			<rect x="176.082" y="132.429" transform="matrix(-0.7071 0.7071 -0.7071 -0.7071 631.9716 82.6685)" style="fill:#F5F5F5;" width="245.565" height="79.582"/>
		<g>
			<path style="fill:#1566C0;" d="M447.024,113.198l-41.813,41.813l-0.171-0.171l23.893-23.893l-15.957-15.957l30.037-29.952
				l4.011,4.011C453.68,95.722,453.68,106.524,447.024,113.198L447.024,113.198z"/>
			<path style="fill:#1566C0;" d="M254.981,306.435l-15.957-15.957l-53.632,53.717l4.011,4.011c6.674,6.656,17.476,6.656,24.149,0
				L254.981,306.435z"/>
		</g>
	</g>
	<g>
		<path d="M219.38,361.972c-6.794,0.016-13.312-2.684-18.104-7.5l-47.713-47.717c-4.803-4.801-7.501-11.314-7.5-18.105
			c0.001-6.791,2.7-13.303,7.504-18.103L386.896,37.222c10-9.992,26.204-9.992,36.204,0l47.712,47.708
			c9.983,10.005,9.983,26.203,0,36.208L237.48,354.472C232.69,359.288,226.172,361.989,219.38,361.972z M404.997,46.797
			c-2.263-0.007-4.434,0.89-6.033,2.492L165.63,282.622c-1.601,1.6-2.5,3.77-2.5,6.033c0,2.263,0.899,4.433,2.5,6.033l47.717,47.717
			c3.371,3.233,8.692,3.233,12.062,0l233.338-233.333c3.329-3.337,3.329-8.738,0-12.075l-47.713-47.709
			C409.434,47.686,407.26,46.789,404.997,46.797L404.997,46.797z"/>
		<path d="M446.913,141.505c-2.264,0.003-4.435-0.897-6.033-2.5l-71.854-71.85c-3.332-3.332-3.332-8.735,0-12.067
			c3.332-3.332,8.735-3.332,12.067,0l71.854,71.85c2.44,2.44,3.169,6.11,1.849,9.298
			C453.475,139.425,450.364,141.504,446.913,141.505L446.913,141.505z"/>
		<path d="M458.888,93.605c-2.263-0.001-4.433-0.9-6.033-2.5L416.926,55.18c-1.831-1.83-2.732-4.392-2.45-6.965
			c0.282-2.573,1.717-4.879,3.9-6.269L478.509,3.68c6.718-4.31,15.533-3.341,21.154,2.325l2.367,2.367
			c5.67,5.614,6.639,14.43,2.325,21.142v0.009l-38.267,60.133c-1.39,2.182-3.695,3.616-6.267,3.9
			C459.511,93.588,459.2,93.605,458.888,93.605z M436.509,50.63L457.4,71.513l32.525-51.108l-2.329-2.334L436.509,50.63z"/>
		<path d="M273.267,315.147c-2.264,0.003-4.435-0.897-6.033-2.5l-71.85-71.85c-3.332-3.332-3.332-8.735,0-12.067
			c3.332-3.332,8.735-3.332,12.067,0l71.85,71.85c2.44,2.44,3.169,6.11,1.849,9.298
			C279.829,313.066,276.718,315.146,273.267,315.147L273.267,315.147z"/>
		<path d="M39.467,470.088c-6.76,0.015-13.245-2.674-18.013-7.467l-11.97-11.975c-2.155-2.155-2.997-5.297-2.208-8.242
			c0.789-2.944,3.089-5.244,6.033-6.033s6.086,0.053,8.242,2.208l11.975,11.975c3.32,3.183,8.559,3.183,11.879,0l132.017-132.008
			c3.337-3.3,8.713-3.285,12.032,0.034c3.319,3.319,3.334,8.695,0.035,12.032L57.475,462.622
			C52.71,467.415,46.226,470.104,39.467,470.088z"/>
		<path d="M311.442,513.022c-0.884-0.001-1.767-0.068-2.642-0.2c-5.34-0.826-9.974-4.13-12.496-8.908l-76.779-148.408
			c-2.156-4.184-0.518-9.324,3.662-11.489c4.18-2.165,9.323-0.537,11.496,3.639l76.763,148.375l5.542-5.7
			c7.316-7.288,9.478-18.285,5.467-27.8l-61.942-147.641c-1.2-2.803-0.813-6.033,1.015-8.474c1.828-2.441,4.818-3.721,7.846-3.358
			c3.027,0.362,5.632,2.312,6.831,5.116l21.037,50.042l40.958,97.725c6.701,15.902,3.084,34.28-9.142,46.458l-5.625,5.633
			C320.262,511.227,315.945,513.024,311.442,513.022L311.442,513.022z"/>
		<path d="M350.809,384.372c-3.49,0-6.966-0.431-10.35-1.283l-53.154-13.292c-2.961-0.736-5.303-2.997-6.143-5.93
			c-0.84-2.933-0.05-6.091,2.073-8.282c2.122-2.192,5.253-3.083,8.212-2.338l53.171,13.292c6.939,1.756,14.296,0.49,20.25-3.483
			l9.037-6.05l-109.329-36.308c-4.469-1.493-6.881-6.327-5.387-10.796c1.493-4.469,6.327-6.881,10.796-5.387l109.329,36.392
			c6.152,2.061,10.599,7.44,11.467,13.87c0.868,6.43-1.993,12.795-7.379,16.413l-9.046,6.05
			C367.384,381.892,359.19,384.374,350.809,384.372z"/>
		<path d="M351.109,276.447c-7.885,0.022-15.451-3.114-21.008-8.708l-8.975-8.975c-1.601-1.6-2.5-3.77-2.5-6.033
			c0-2.263,0.899-4.433,2.5-6.033l29.938-29.942c1.6-1.6,3.77-2.5,6.033-2.5l0,0c2.263,0.001,4.433,0.9,6.033,2.5l8.98,8.983
			c8.491,8.496,11.03,21.269,6.434,32.367C373.947,269.203,363.12,276.441,351.109,276.447L351.109,276.447z M339.23,252.73
			l2.942,2.942c4.995,4.783,12.872,4.783,17.867,0h0.004c2.372-2.368,3.704-5.582,3.704-8.933s-1.333-6.565-3.704-8.933l-2.946-2.95
			L339.23,252.73z"/>
		<path d="M381.046,246.488c-7.878,0.015-15.437-3.11-21.004-8.684l-8.979-8.983c-1.601-1.6-2.5-3.77-2.5-6.033
			c0-2.263,0.899-4.433,2.5-6.033L381,186.813c3.386-3.2,8.681-3.2,12.067,0l8.983,8.983c8.501,8.491,11.045,21.269,6.446,32.368
			C403.897,239.265,393.061,246.498,381.046,246.488L381.046,246.488z M369.163,222.789l2.946,2.95
			c4.939,4.922,12.93,4.915,17.86-0.015s4.937-12.921,0.015-17.86l-2.95-2.95L369.163,222.789z"/>
		<path d="M410.984,216.547c-7.876,0.015-15.434-3.11-21-8.683L381,198.88c-1.601-1.6-2.5-3.77-2.5-6.033
			c0-2.263,0.899-4.433,2.5-6.033l29.938-29.933c1.6-1.601,3.77-2.5,6.033-2.5c2.263,0,4.433,0.899,6.033,2.5l8.983,8.983
			c8.499,8.49,11.042,21.266,6.443,32.364C433.832,209.326,422.997,216.557,410.984,216.547L410.984,216.547z M399.1,192.847
			l2.95,2.95c5.003,4.767,12.867,4.767,17.871,0c4.925-4.937,4.925-12.929,0-17.867l-2.95-2.95L399.1,192.847z"/>
		<path d="M440.925,186.63c-7.882,0.022-15.446-3.111-21.004-8.7l-8.983-8.983c-1.601-1.6-2.5-3.77-2.5-6.033
			c0-2.263,0.899-4.433,2.5-6.033l29.942-29.942c1.6-1.6,3.77-2.5,6.033-2.5l0,0c2.263,0.001,4.433,0.9,6.033,2.5l8.979,8.983
			c8.494,8.495,11.036,21.27,6.439,32.369C463.768,179.39,452.939,186.628,440.925,186.63z M429.038,162.914l2.95,2.95
			c4.936,4.935,12.938,4.934,17.873-0.002c4.935-4.936,4.934-12.938-0.002-17.873l-2.946-2.95L429.038,162.914z"/>
	</g>
</g>
<g>
</g>
<g>
</g>
<g>
</g>
<g>
</g>
<g>
</g>
<g>
</g>
<g>
</g>
<g>
</g>
<g>
</g>
<g>
</g>
<g>
</g>
<g>
</g>
<g>
</g>
<g>
</g>
<g>
</g>
</svg>
