<?xml version="1.0" encoding="iso-8859-1"?>
<!-- Generator: Adobe Illustrator 19.0.0, SVG Export Plug-In . SVG Version: 6.00 Build 0)  -->
<svg version="1.1" id="Capa_1" xmlns="http://www.w3.org/2000/svg" xmlns:xlink="http://www.w3.org/1999/xlink" x="0px" y="0px"
	 viewBox="0 0 512 512" style="enable-background:new 0 0 512 512;" xml:space="preserve">
<g>
	<g transform="translate(0 1)">
		<g>
			<polygon style="fill:#F5F5F5;" points="128,468.333 128,502.467 162.133,502.467 162.133,468.333 162.133,442.733 
				162.133,118.467 128,118.467 128,442.733 			"/>
			<polygon style="fill:#F5F5F5;" points="375.467,306.2 392.533,306.2 409.6,263.533 409.6,246.467 358.4,246.467 358.4,263.533 
							"/>
		</g>
		<path style="fill:#00695C;" d="M59.66,24.6H435.2c28.277,0,51.2,22.923,51.2,51.2v34.133c0,9.426-7.641,17.067-17.067,17.067
			H34.06c-4.713,0-8.533-3.821-8.533-8.533V58.733C25.527,39.882,40.809,24.6,59.66,24.6z"/>
		<path style="fill:#009688;" d="M59.733,24.6H409.6c28.277,0,51.2,22.923,51.2,51.2v34.133c0,9.426-7.641,17.067-17.067,17.067
			h-409.6c-4.713,0-8.533-3.821-8.533-8.533V58.733C25.6,39.882,40.882,24.6,59.733,24.6z"/>
		<path style="fill:#2E7D32;" d="M230.4,135.533H110.933c-4.713,0-8.533-3.821-8.533-8.533V16.067c0-4.713,3.821-8.533,8.533-8.533
			H230.4c4.713,0,8.533,3.82,8.533,8.533V127C238.933,131.713,235.113,135.533,230.4,135.533z"/>
		<path style="fill:#4CAF50;" d="M204.826,135.533h-92.442c-4.713,0-8.533-3.821-8.533-8.533V16.067
			c0-4.713,3.821-8.533,8.533-8.533h92.442c4.713,0,8.533,3.82,8.533,8.533V127C213.359,131.713,209.538,135.533,204.826,135.533z"
			/>
		<rect x="366.933" y="152.6" style="fill:#F5F5F5;" width="34.133" height="85.333"/>
		<path style="fill:#CFD8DC;" d="M409.6,263.533h-51.2c-4.713,0-8.533-3.821-8.533-8.533v-17.067c0-4.713,3.82-8.533,8.533-8.533
			h51.2c4.713,0,8.533,3.821,8.533,8.533V255C418.133,259.713,414.313,263.533,409.6,263.533z"/>
		<path style="fill:#2E7D32;" d="M256,442.733l85.333-8.533v-34.133h-76.8c-4.713,0-8.533,3.821-8.533,8.533V442.733z"/>
		<path style="fill:#4CAF50;" d="M256,442.733l59.733-8.533v-34.133h-53.76c-3.299,0-5.973,3.821-5.973,8.533V442.733z"/>
		<path style="fill:#00695C;" d="M341.333,434.2L281.6,468.333H119.467c-4.713,0-8.533-3.82-8.533-8.533v-17.067
			c0-4.713,3.821-8.533,8.533-8.533H341.333z"/>
		<path style="fill:#009688;" d="M298.667,434.2l-48.672,34.133H117.886c-4.253-0.479-7.343-4.271-6.953-8.533v-17.067
			c-0.39-4.262,2.7-8.055,6.953-8.533H298.667z"/>
		<circle style="fill:#CFD8DC;" cx="384" cy="127" r="34.133"/>
		<path style="fill:#607D8B;" d="M239.181,271.816L239.181,271.816c-3.201-3.201-4.999-7.542-4.999-12.068
			c0-4.526,1.798-8.867,4.999-12.068l24.136-24.136c3.332-3.332,8.736-3.332,12.068,0l12.068,12.068
			c3.332,3.333,3.332,8.736,0,12.068l-24.136,24.136C256.652,278.481,245.846,278.481,239.181,271.816L239.181,271.816z"/>
	</g>
	<g>
		<path d="M469.333,136.533h-51.2v-17.067h51.2c4.71-0.006,8.527-3.823,8.533-8.533V76.8c-0.028-23.553-19.114-42.639-42.667-42.667
			H238.933V17.067H435.2c32.974,0.037,59.696,26.759,59.733,59.733v34.133C494.918,125.065,483.465,136.518,469.333,136.533
			L469.333,136.533z"/>
		<rect x="238.933" y="119.467" width="110.933" height="17.067"/>
		<path d="M230.4,145.067H110.933c-9.422-0.009-17.057-7.645-17.067-17.067V17.067C93.876,7.645,101.512,0.009,110.933,0H230.4
			c9.422,0.009,17.057,7.645,17.067,17.067V128C247.457,137.422,239.822,145.057,230.4,145.067z M110.933,17.067V128H230.4V17.067
			H110.933z"/>
		<path d="M401.067,238.933h-34.133c-4.713,0-8.533-3.821-8.533-8.533v-72.875h17.067v64.341h17.067v-64.341H409.6V230.4
			C409.6,235.113,405.78,238.933,401.067,238.933z"/>
		<path d="M170.667,435.2H153.6V145.067h-17.067V435.2h-17.067V136.533c0-4.713,3.821-8.533,8.533-8.533h34.133
			c4.713,0,8.533,3.821,8.533,8.533V435.2z"/>
		<path d="M162.133,512H128c-4.713,0-8.533-3.82-8.533-8.533v-34.133h17.067v25.6H153.6v-25.6h17.067v34.133
			C170.667,508.18,166.846,512,162.133,512z"/>
		<path d="M298.667,68.267h-25.6c-4.713,0-8.533-3.821-8.533-8.533s3.82-8.533,8.533-8.533h25.6c4.713,0,8.533,3.821,8.533,8.533
			S303.38,68.267,298.667,68.267z"/>
		<path d="M298.667,102.4h-25.6c-4.713,0-8.533-3.821-8.533-8.533c0-4.713,3.82-8.533,8.533-8.533h25.6
			c4.713,0,8.533,3.821,8.533,8.533C307.2,98.579,303.38,102.4,298.667,102.4z"/>
		<path d="M409.6,273.067h-51.2c-9.422-0.009-17.057-7.645-17.067-17.067v-17.067c0.009-9.422,7.645-17.057,17.067-17.067h51.2
			c9.422,0.009,17.057,7.645,17.067,17.067V256C426.657,265.422,419.022,273.057,409.6,273.067L409.6,273.067z M358.4,238.933V256
			h51.2v-17.067H358.4z"/>
		<path d="M392.533,315.733h-17.067c-3.489-0.002-6.626-2.125-7.925-5.363l-17.067-42.667c-1.051-2.63-0.729-5.609,0.858-7.954
			c1.588-2.345,4.235-3.75,7.067-3.75h51.2c2.832,0.001,5.479,1.405,7.067,3.75c1.588,2.345,1.909,5.324,0.858,7.954l-17.067,42.667
			C399.159,313.609,396.022,315.732,392.533,315.733L392.533,315.733z M381.246,298.667h5.508l10.242-25.6h-25.992L381.246,298.667z
			"/>
		<path d="M384,358.4c-4.713,0-8.533-3.821-8.533-8.533V307.2c0-4.713,3.821-8.533,8.533-8.533s8.533,3.82,8.533,8.533v42.667
			C392.533,354.579,388.713,358.4,384,358.4z"/>
		<path d="M460.8,409.6H290.133c-4.713,0-8.533-3.821-8.533-8.533s3.821-8.533,8.533-8.533H460.8c4.713,0,8.533,3.82,8.533,8.533
			S465.513,409.6,460.8,409.6z"/>
		<path d="M341.333,443.733H256c-4.713,0-8.533-3.821-8.533-8.533v-25.6c0.009-9.422,7.645-17.057,17.067-17.067h76.8
			c4.713,0,8.533,3.82,8.533,8.533V435.2C349.867,439.913,346.046,443.733,341.333,443.733z M264.533,426.667H332.8V409.6h-68.267
			V426.667z"/>
		<path d="M281.6,477.867H119.467c-9.422-0.009-17.057-7.645-17.067-17.067v-17.067c0.009-9.422,7.645-17.057,17.067-17.067h221.867
			c3.869,0.001,7.253,2.604,8.246,6.343c0.993,3.739-0.654,7.678-4.013,9.598l-59.733,34.133
			C284.544,477.479,283.085,477.867,281.6,477.867L281.6,477.867z M119.467,443.733V460.8h159.867l29.867-17.067H119.467z"/>
		<path d="M384,170.667c-23.564,0-42.667-19.103-42.667-42.667S360.436,85.333,384,85.333c23.564,0,42.667,19.103,42.667,42.667
			C426.639,151.553,407.553,170.639,384,170.667z M384,102.4c-14.138,0-25.6,11.462-25.6,25.6c0,14.139,11.462,25.6,25.6,25.6
			c14.138,0,25.6-11.462,25.6-25.6C409.585,113.868,398.132,102.415,384,102.4z"/>
		<path d="M251.25,286.333c-6.788,0.013-13.301-2.679-18.1-7.479l-0.004-0.004c-9.975-10.007-9.975-26.197,0-36.204l24.142-24.137
			c6.669-6.647,17.458-6.649,24.129-0.004l12.075,12.075c6.649,6.668,6.651,17.459,0.004,24.129l-24.142,24.142
			C264.554,283.652,258.04,286.345,251.25,286.333L251.25,286.333z M245.217,266.784c3.336,3.328,8.737,3.326,12.071-0.004
			l24.137-24.133l-12.071-12.071l-24.137,24.137C241.892,258.049,241.892,263.447,245.217,266.784L245.217,266.784z"/>
		<path d="M281.421,239.113c-3.451-0.001-6.562-2.08-7.882-5.268c-1.32-3.188-0.591-6.858,1.849-9.298l102.579-102.579
			c3.341-3.281,8.701-3.256,12.012,0.054c3.311,3.311,3.335,8.671,0.054,12.012L287.454,236.612
			C285.856,238.215,283.684,239.115,281.421,239.113L281.421,239.113z"/>
		<path d="M102.4,136.533H34.133c-9.422-0.009-17.057-7.645-17.067-17.067V59.733c0.028-23.553,19.114-42.639,42.667-42.667H102.4
			c4.713,0,8.533,3.821,8.533,8.533V128C110.933,132.713,107.113,136.533,102.4,136.533z M59.733,34.133
			c-14.132,0.015-25.585,11.468-25.6,25.6v59.733h59.733V34.133H59.733z"/>
	</g>
</g>
<g>
</g>
<g>
</g>
<g>
</g>
<g>
</g>
<g>
</g>
<g>
</g>
<g>
</g>
<g>
</g>
<g>
</g>
<g>
</g>
<g>
</g>
<g>
</g>
<g>
</g>
<g>
</g>
<g>
</g>
</svg>
