<?xml version="1.0" encoding="iso-8859-1"?>
<!-- Generator: Adobe Illustrator 19.0.0, SVG Export Plug-In . SVG Version: 6.00 Build 0)  -->
<svg version="1.1" id="Capa_1" xmlns="http://www.w3.org/2000/svg" xmlns:xlink="http://www.w3.org/1999/xlink" x="0px" y="0px"
	 viewBox="0 0 511.998 511.998" style="enable-background:new 0 0 511.998 511.998;" xml:space="preserve">
<g>
	<g transform="translate(1 1)">
		<path style="fill:#795548;" d="M307.151,93.746l6.084-6.084c10.083-10.07,26.418-10.065,36.495,0.012
			c10.076,10.076,10.082,26.412,0.012,36.495l-6.084,6.084l-97.35,97.35l-194.7,194.7c-6.52,6.528-16.028,9.08-24.941,6.694
			s-15.874-9.347-18.26-18.26c-2.386-8.912,0.166-18.421,6.694-24.941l194.7-194.7L307.151,93.746z"/>
		<path style="fill:#607D8B;" d="M265.891,223.823c0,0,60.917,85.255,30.422,164.278l0.061-0.183
			c33.099,27.988,98.567,11.074,149.007-39.366c35.594-35.594,54.516-78.732,52.691-112.561h-0.973
			c-79.097-18.253-158.194-85.181-158.194-85.181L265.891,223.823z"/>
		<path style="fill:#4E342E;" d="M307.052,93.642l36.687,36.687c6.665,6.665,6.665,17.471,0,24.136l-73.192,73.192
			c-6.665,6.665-17.471,6.665-24.136,0l-36.687-36.687c-6.665-6.665-6.665-17.471,0-24.136l73.192-73.192
			C289.581,86.977,300.387,86.977,307.052,93.642z"/>
		<path style="fill:#795548;" d="M306.692,90.895l19.086,19.086c6.665,6.665,6.665,17.471,0,24.136l-73.192,73.192
			c-6.665,6.665-17.471,6.665-24.136,0l-19.086-19.086c-6.665-6.665-6.665-17.471,0-24.136l73.192-73.192
			C289.221,84.23,300.027,84.23,306.692,90.895z"/>
		<path style="fill:#CFD8DC;" d="M445.371,348.593c-50.432,50.432-115.883,67.328-148.992,39.339
			c2.853-7.491,4.996-15.233,6.4-23.125c32.768-0.683,72.704-19.371,106.07-52.736c25.069-23.86,42.676-54.481,50.688-88.149
			c12.183,4.983,24.737,9.006,37.547,12.032h1.024C499.899,269.83,480.955,312.924,445.371,348.593z"/>
	</g>
	<g>
		<path d="M502.375,249.79c-0.648,0.002-1.294-0.071-1.925-0.217c-80.192-18.5-158.5-84.2-161.792-86.983
			c-3.575-3.048-4.014-8.413-0.981-12.002c3.033-3.588,8.396-4.049,11.997-1.032c0.775,0.658,78.5,65.825,154.608,83.383
			c4.228,0.974,7.052,4.965,6.564,9.276S506.713,249.787,502.375,249.79L502.375,249.79z"/>
		<path d="M301.584,401.899c-2.813-0.002-5.445-1.389-7.035-3.709c-1.591-2.32-1.936-5.275-0.923-7.899
			c28.5-73.875-28.825-155.425-29.408-156.242c-1.771-2.48-2.085-5.717-0.823-8.491c1.262-2.774,3.908-4.664,6.942-4.958
			c3.034-0.294,5.993,1.053,7.765,3.533c2.6,3.633,63.225,89.933,31.441,172.309C308.274,399.731,305.11,401.901,301.584,401.899z"
			/>
		<path d="M342.334,415.007c-16.735,0.582-33.124-4.849-46.2-15.308c-3.576-3.048-4.014-8.413-0.981-12.002
			c3.033-3.588,8.396-4.05,11.997-1.032c29.458,24.9,91.125,7.458,137.467-38.883c32.733-32.733,51.967-73.375,50.2-106.067
			c-0.187-3.059,1.28-5.984,3.844-7.663c2.564-1.679,5.832-1.855,8.561-0.46c2.729,1.395,4.502,4.145,4.644,7.207
			c2.008,37.383-19.133,83-55.183,119.05C421.159,395.374,378.017,415.007,342.334,415.007z"/>
		<path d="M307.967,378.599c-4.681,0.002-8.49-3.766-8.538-8.447c-0.048-4.681,3.683-8.526,8.363-8.62
			c31.991-0.65,69.492-19.433,100.317-50.25c23.801-22.686,40.564-51.747,48.283-83.708c0.915-4.612,5.388-7.616,10.003-6.715
			c4.615,0.9,7.632,5.364,6.747,9.982c-8.385,35.291-26.776,67.412-52.966,92.508c-33.867,33.858-75.75,54.508-112.033,55.25
			H307.967z"/>
		<path d="M259.475,242.216c-6.786,0.016-13.299-2.671-18.1-7.467v-0.009l-36.708-36.708c-9.983-10.005-9.983-26.203,0-36.208
			l73.217-73.208c10.131-9.667,26.069-9.667,36.2,0l36.708,36.708c4.802,4.8,7.5,11.311,7.5,18.1s-2.698,13.3-7.5,18.1
			l-73.217,73.216C272.774,239.538,266.262,242.227,259.475,242.216L259.475,242.216z M253.442,222.666
			c1.6,1.601,3.77,2.5,6.033,2.5c2.263,0,4.433-0.899,6.033-2.5l73.217-73.208c1.601-1.598,2.5-3.767,2.5-6.029
			s-0.899-4.431-2.5-6.029l-36.708-36.717c-3.373-3.225-8.686-3.225-12.058,0l-73.225,73.208c-3.325,3.338-3.325,8.736,0,12.075
			L253.442,222.666z"/>
		<path d="M34.359,439.374c-13.892,0.013-26.423-8.349-31.742-21.182s-2.378-27.608,7.45-37.426l194.7-194.7
			c3.332-3.332,8.735-3.332,12.067,0c3.332,3.332,3.332,8.735,0,12.067l-194.7,194.7c-6.721,6.754-6.707,17.674,0.032,24.41
			c6.739,6.736,17.658,6.747,24.41,0.024l194.7-194.7c3.338-3.296,8.711-3.28,12.029,0.038s3.334,8.69,0.038,12.029l-194.7,194.7
			C52.207,435.778,43.467,439.393,34.359,439.374z"/>
		<path d="M344.659,139.782c-3.451-0.001-6.562-2.08-7.882-5.268c-1.321-3.188-0.591-6.858,1.849-9.298l6.083-6.083
			c4.386-4.362,6.106-10.735,4.51-16.712c-1.596-5.976-6.265-10.643-12.242-12.237c-5.977-1.594-12.35,0.128-16.71,4.516
			l-6.083,6.083c-2.156,2.155-5.297,2.997-8.242,2.208c-2.944-0.789-5.244-3.089-6.033-6.033c-0.789-2.944,0.053-6.086,2.208-8.242
			l6.083-6.083c13.42-13.364,35.125-13.342,48.518,0.049c13.393,13.391,13.418,35.096,0.057,48.518l-6.083,6.083
			C349.094,138.885,346.922,139.785,344.659,139.782z"/>
	</g>
</g>
<g>
</g>
<g>
</g>
<g>
</g>
<g>
</g>
<g>
</g>
<g>
</g>
<g>
</g>
<g>
</g>
<g>
</g>
<g>
</g>
<g>
</g>
<g>
</g>
<g>
</g>
<g>
</g>
<g>
</g>
</svg>
