<?xml version="1.0" encoding="iso-8859-1"?>
<!-- Generator: Adobe Illustrator 19.0.0, SVG Export Plug-In . SVG Version: 6.00 Build 0)  -->
<svg version="1.1" id="Capa_1" xmlns="http://www.w3.org/2000/svg" xmlns:xlink="http://www.w3.org/1999/xlink" x="0px" y="0px"
	 viewBox="0 0 511.966 511.966" style="enable-background:new 0 0 511.966 511.966;" xml:space="preserve">
<g>
	<g transform="translate(0 1)">
		<path style="fill:#4E342E;" d="M352.766,168.918l-10.497,20.907c-8.291,16.685-20.394,31.185-35.328,42.325l-56.491,42.411
			c-11.865,8.879-22.635,19.134-32.084,30.549L88.659,463.318c-6.164,7.41-15.164,11.883-24.793,12.321
			c-9.629,0.438-18.998-3.198-25.81-10.017l-9.727-9.728l-1.367-1.365l-8.448-8.363c-6.808-6.824-10.428-16.2-9.974-25.829
			c0.455-9.629,4.942-18.621,12.363-24.774l158.209-129.792c11.428-9.377,21.66-20.125,30.465-32l42.496-56.491
			c11.137-14.96,25.636-27.09,42.325-35.413l20.139-10.069l0.768-0.341L352.766,168.918z"/>
		<path style="fill:#795548;" d="M335.7,152.961l-10.497,20.907c-8.291,16.685-20.393,31.185-35.328,42.325l-56.491,42.496
			c-11.883,8.825-22.656,19.054-32.084,30.464L71.592,447.361c-10.98,13.232-30.058,16.297-44.63,7.168l-8.448-8.363
			c-6.808-6.824-10.428-16.2-9.974-25.829c0.455-9.629,4.942-18.621,12.363-24.774l158.209-129.792
			c11.428-9.377,21.66-20.125,30.465-32l42.496-56.491c11.137-14.96,25.636-27.09,42.325-35.413l20.139-10.069L335.7,152.961z"/>
		<path style="fill:#607D8B;" d="M460.797,159.958l-57.259,54.016l-5.717-7.083c-3.084-8.857-7.769-17.072-13.824-24.235
			c-4.609-5.153-10.249-9.281-16.554-12.117c-5.292-2.475-9.984-3.755-13.398-5.632l-36.779-36.779l8.79-25.003
			c2.476-7.066,0.177-14.924-5.717-19.541c-5.82-4.532-12.149-8.37-18.859-11.435c-5.451-2.522-11.327-3.998-17.323-4.352
			c-17.588,0.086-34.52,6.683-47.531,18.517c-6.873,5.754-16.992,5.348-23.381-0.939l-0.085-0.085
			c-3.429-3.389-5.279-8.061-5.1-12.879c0.179-4.818,2.37-9.34,6.04-12.465c5.15-4.225,10.596-8.075,16.298-11.52
			c0.085-0.171,0.171-0.171,0.256-0.171c16.548-10.572,35.929-15.841,55.552-15.104c28.756,1.451,52.65,19.541,64.939,30.891
			c3.668,3.372,8.616,4.99,13.568,4.437l9.643-1.109c2.609-0.247,5.195,0.657,7.083,2.475l30.892,30.891
			c1.853,1.866,2.762,4.469,2.474,7.083l-1.28,11.264c-0.45,4.981,1.188,9.926,4.523,13.653c2.973,3.158,6.198,6.069,9.643,8.704
			c6.982,5.714,15.235,9.665,24.064,11.52L460.797,159.958z"/>
		<path style="fill:#37474F;" d="M493.139,222.422l-30.721,30.72c-10.157,10.155-26.622,10.155-36.778,0l-30.549-30.635
			c-1.402-1.362-2.278-3.175-2.475-5.12c-0.342-2.645,0.573-5.298,2.475-7.168l55.125-55.125c1.625-1.639,3.837-2.56,6.144-2.56
			s4.519,0.922,6.144,2.56l21.845,21.845l8.789,8.704C503.293,195.8,503.293,212.265,493.139,222.422L493.139,222.422z"/>
		<path style="fill:#607D8B;" d="M478.803,205.355l-30.72,30.72c-10.157,10.155-26.622,10.155-36.779,0l-18.688-18.688
			c-0.342-2.645,0.573-5.298,2.475-7.168l55.125-55.125c1.625-1.639,3.837-2.56,6.144-2.56s4.519,0.922,6.144,2.56l21.845,21.845
			C488.474,186.655,486.278,197.903,478.803,205.355L478.803,205.355z"/>
	</g>
	<g>
		<path d="M446.781,268.926c-9.155,0.017-17.94-3.617-24.408-10.096l-30.625-30.625c-6.7-6.719-6.7-17.593,0-24.313l55.183-55.188
			c6.718-6.708,17.599-6.708,24.317,0l30.625,30.625c13.458,13.489,13.458,35.327,0,48.817l-30.683,30.683
			C464.721,265.309,455.936,268.942,446.781,268.926L446.781,268.926z M459.181,160.771l-55.367,55.188l30.625,30.804
			c6.823,6.8,17.861,6.8,24.683,0l30.683-30.683c6.808-6.819,6.808-17.864,0-24.683L459.181,160.771z"/>
		<path d="M62.306,485.213c-11.35-0.002-22.237-4.503-30.275-12.517L12.514,453.18c-8.505-8.524-13.03-20.234-12.467-32.263
			c0.563-12.028,6.162-23.265,15.426-30.958l158.242-129.746c10.862-9.002,20.616-19.263,29.058-30.566l42.45-56.525
			c11.99-15.959,27.523-28.915,45.375-37.846l20.858-10.43c4.213-2.09,9.323-0.378,11.426,3.829
			c2.103,4.206,0.407,9.321-3.792,11.438l-20.858,10.429c-15.481,7.742-28.952,18.975-39.35,32.812l-42.442,56.513
			c-9.259,12.392-19.956,23.642-31.867,33.513L26.323,403.13c-5.548,4.635-8.895,11.387-9.227,18.609
			c-0.331,7.222,2.384,14.251,7.485,19.375l19.517,19.517c5.127,5.108,12.165,7.825,19.394,7.489s13.984-3.697,18.614-9.259
			L211.797,300.68c9.885-11.933,21.152-22.648,33.567-31.921l56.475-42.417c13.846-10.4,25.087-23.875,32.833-39.362l10.425-20.854
			c1.358-2.737,4.075-4.54,7.125-4.726s5.967,1.272,7.647,3.824s1.869,5.807,0.494,8.536l-10.425,20.854
			c-8.936,17.858-21.899,33.396-37.867,45.388l-56.483,42.425c-11.326,8.458-21.606,18.232-30.625,29.117L95.281,469.713
			c-7.694,9.271-18.932,14.879-30.967,15.454C63.639,485.196,62.972,485.213,62.306,485.213z"/>
		<path d="M398.697,217.538c-3.558,0.005-6.744-2.202-7.992-5.533c-9.583-25.525-22.158-30.317-32.275-34.167
			c-2.62-0.928-5.173-2.035-7.642-3.312c-0.704-0.388-1.349-0.873-1.917-1.442l-36.742-36.75c-2.324-2.319-3.109-5.767-2.017-8.862
			l8.808-25.084c1.259-3.584,0.081-7.572-2.925-9.896c-8.772-7.708-19.655-12.604-31.242-14.054
			c-15.53,0.225-30.436,6.149-41.883,16.646c-7.933,6.56-18.993,7.812-28.191,3.19c-9.198-4.622-14.796-14.243-14.267-24.523
			c0.344-7.105,3.673-13.735,9.167-18.254c21.384-19.155,49.275-29.424,77.975-28.708c31.708,1.6,57.617,21.421,70.242,33.092
			c1.858,1.715,4.372,2.532,6.883,2.238l9.633-1.079c5.195-0.603,10.38,1.21,14.067,4.921l30.867,30.867
			c3.702,3.69,5.519,8.868,4.933,14.063l-1.258,11.246c-0.331,2.488,0.463,4.994,2.167,6.838c7.705,8.628,17.798,14.775,29,17.662
			c3.147,0.534,5.732,2.78,6.7,5.822c0.968,3.041,0.158,6.369-2.1,8.624l-53.958,53.958
			C403.131,216.639,400.961,217.538,398.697,217.538L398.697,217.538z M359.989,160.071c1.333,0.629,2.859,1.188,4.517,1.817
			c16.236,5.224,29.6,16.91,36.942,32.304l35.433-35.437c-8.991-4.558-17.134-10.624-24.075-17.933
			c-5.238-5.496-7.75-13.044-6.85-20.583l1.258-11.246l-30.892-30.958l-9.75,1.042c-7.432,0.84-14.862-1.594-20.358-6.667
			c-10.925-10.1-33.192-27.25-59.542-28.579c-24.447-0.379-48.132,8.511-66.292,24.883c-1.772,1.455-2.834,3.6-2.917,5.892
			c-0.198,3.569,1.763,6.908,4.976,8.474c3.213,1.566,7.051,1.054,9.741-1.299c14.651-13.137,33.638-20.399,53.316-20.392
			c15.143,1.496,29.449,7.649,40.95,17.613c8.828,6.818,12.286,18.531,8.575,29.05l-7.025,20.012L359.989,160.071z"/>
	</g>
</g>
<g>
</g>
<g>
</g>
<g>
</g>
<g>
</g>
<g>
</g>
<g>
</g>
<g>
</g>
<g>
</g>
<g>
</g>
<g>
</g>
<g>
</g>
<g>
</g>
<g>
</g>
<g>
</g>
<g>
</g>
</svg>
