<?xml version="1.0" encoding="iso-8859-1"?>
<!-- Generator: Adobe Illustrator 19.0.0, SVG Export Plug-In . SVG Version: 6.00 Build 0)  -->
<svg version="1.1" id="Capa_1" xmlns="http://www.w3.org/2000/svg" xmlns:xlink="http://www.w3.org/1999/xlink" x="0px" y="0px"
	 viewBox="0 0 511.972 511.972" style="enable-background:new 0 0 511.972 511.972;" xml:space="preserve">
<g>
	<g transform="translate(1)">
		<polygon style="fill:#FFB301;" points="302.01,246.931 210.874,338.067 169.316,391.656 162.916,398.056 143.29,381.757 
			110.18,354.365 115.983,348.648 121.103,343.443 174.692,301.885 247.738,228.84 260.708,215.955 265.828,210.749 		"/>
		<path style="fill:#FEC108;" d="M278.884,234.131l-91.136,91.136l-37.035,47.787l-4.523,5.803l-6.4,6.4l-33.109-27.392l3.499-3.499
			l5.717-5.803l5.205-5.12l53.589-41.557l73.045-73.045l-1.536-1.536c-2.671-2.783-3.16-7.006-1.195-10.325l5.973-10.752
			l9.728,9.728L278.884,234.131z"/>
		<path style="fill:#37474F;" d="M490.682,251.197L454.5,287.379c-13.315,13.312-34.899,13.312-48.213,0l-24.149-24.149
			L249.444,130.536l-30.123-30.123c-1.093-1.08-2.092-2.25-2.987-3.499c-9.216-12.544-3.157-26.539,9.045-38.741l36.181-36.181
			c13.312-13.312,28.843-19.371,42.155-5.973l30.208,30.123l156.757,156.757C503.994,216.247,503.994,237.85,490.682,251.197z"/>
		<path style="fill:#607D8B;" d="M474.127,234.131l-36.181,36.181c-13.348,13.312-34.951,13.312-48.299,0l-24.064-24.149
			L232.89,113.469l-16.555-16.555c-9.216-12.544-3.157-26.539,9.045-38.741l36.181-36.181c13.312-13.312,28.843-19.371,42.155-5.973
			l30.208,30.123l143.189,143.189C487.47,202.907,486.194,222.049,474.127,234.131L474.127,234.131z"/>
		<path style="fill:#FFB301;" d="M344.164,240.872l-48.469,26.88c-3.331,1.976-7.577,1.45-10.325-1.28l-11.947-11.947l-7.509-7.424
			l-12.203-12.203l-5.973-6.059l-1.536-1.536c-2.671-2.783-3.16-7.006-1.195-10.325l5.973-10.752l17.152-31.061l3.669-6.656
			l24.149,24.149l24.149,24.064L344.164,240.872z"/>
		<path style="fill:#4E342E;" d="M169.316,391.656L66.831,494.141c-6.674,6.656-17.476,6.656-24.149,0l-8.107-8.107l-16.043-15.957
			c-6.656-6.674-6.656-17.475,0-24.149l88.149-88.064l3.499-3.499l5.717-5.803l5.205-5.12l29.611,29.611L169.316,391.656z"/>
		<path style="fill:#FEC108;" d="M321.124,228.072l-47.701,26.453l-7.509-7.424l-12.203-12.203l-5.973-6.059l-1.536-1.536
			c-2.671-2.783-3.16-7.006-1.195-10.325l5.973-10.752l17.152-31.061l4.693,4.693l24.149,24.149L321.124,228.072z"/>
		<path style="fill:#795548;" d="M146.191,378.856L43.706,481.341c-2.47,2.491-5.667,4.135-9.131,4.693l-16.043-15.957
			c-6.656-6.674-6.656-17.475,0-24.149l88.149-88.064l3.499-3.499l5.717-5.803L146.191,378.856z"/>
		<path style="fill:#37474F;" d="M466.618,178.835l-84.48,84.395c-6.674,6.656-17.476,6.656-24.149,0L249.444,154.685
			c-0.809-0.821-1.551-1.705-2.218-2.645l-0.085-0.171c-4.35-6.767-3.391-15.651,2.304-21.333l84.48-84.395
			c6.674-6.656,17.475-6.656,24.149,0l94.122,94.123l14.421,14.421C473.274,161.359,473.274,172.161,466.618,178.835z"/>
		<path style="fill:#607D8B;" d="M449.978,161.768l-84.395,84.395c-6.674,6.656-17.475,6.656-24.149,0l-94.208-94.123l-0.085-0.171
			c-4.35-6.767-3.391-15.651,2.304-21.333l84.48-84.395c6.674-6.656,17.475-6.656,24.149,0l94.123,94.123
			C456.617,147.059,455.693,156.019,449.978,161.768z"/>
	</g>
	<g>
		<path d="M431.399,305.872c-11.31,0.021-22.162-4.464-30.158-12.463l-24.125-24.129c-2.156-2.156-2.997-5.297-2.208-8.242
			c0.789-2.944,3.089-5.244,6.033-6.033c2.945-0.789,6.086,0.053,8.242,2.208l24.125,24.125c10.002,9.97,26.184,9.968,36.183-0.004
			l36.183-36.183c9.967-10,9.967-26.179,0-36.179l-24.125-24.121c-3.296-3.338-3.279-8.711,0.038-12.029
			c3.317-3.317,8.691-3.334,12.029-0.038l24.125,24.121c16.625,16.667,16.625,43.645,0,60.313l-36.183,36.187
			C453.563,301.407,442.71,305.893,431.399,305.872L431.399,305.872z"/>
		<path d="M250.475,139.105c-2.264,0.003-4.435-0.897-6.033-2.5l-30.15-30.154c-15.108-15.104-12.858-35.396,6.025-54.283
			l36.191-36.183c6.798-7.465,15.62-12.792,25.392-15.334c10.595-2.218,21.574,1.317,28.883,9.3l30.158,30.154
			c3.332,3.332,3.332,8.735,0,12.067c-3.332,3.332-8.735,3.332-12.067,0l-30.158-30.154c-3.224-3.919-8.362-5.715-13.325-4.658
			c-6.492,1.929-12.316,5.632-16.817,10.691l-36.192,36.184c-18.083,18.092-9.008,27.167-6.025,30.15l30.15,30.154
			c2.44,2.44,3.169,6.11,1.849,9.298C257.036,137.025,253.926,139.104,250.475,139.105L250.475,139.105z"/>
		<path d="M288.091,281.714c-4.495,0.016-8.814-1.75-12.008-4.912l-39.15-39.158c-5.398-5.497-6.475-13.917-2.633-20.596
			l26.8-48.396c1.298-2.344,3.622-3.943,6.276-4.316c2.654-0.374,5.329,0.521,7.224,2.416l48.25,48.246l0,0l24.125,24.125
			c1.895,1.895,2.79,4.57,2.416,7.224c-0.373,2.654-1.972,4.978-4.316,6.276l-48.475,26.85
			C294.005,280.943,291.073,281.715,288.091,281.714L288.091,281.714z M270.541,186.831l-21.358,38.562l7.325,7.696l31.633,31.637
			l38.767-21.538L270.541,186.831z"/>
		<path d="M166.041,404.455c-2.263-0.001-4.433-0.9-6.033-2.5l-48.242-48.246c-1.733-1.732-2.638-4.126-2.483-6.572
			s1.354-4.707,3.292-6.207l53.2-41.229l72.633-72.642c1.6-1.601,3.77-2.5,6.033-2.5c2.263,0,4.433,0.899,6.033,2.5l36.192,36.183
			c1.601,1.6,2.5,3.77,2.5,6.033c0,2.263-0.899,4.433-2.5,6.033l-72.642,72.646l-41.242,53.196
			c-1.502,1.936-3.763,3.134-6.208,3.287C166.4,404.451,166.216,404.455,166.041,404.455z M130.683,348.489l34.55,34.554
			l35.633-45.971c0.219-0.282,0.456-0.551,0.708-0.804l66.992-66.992l-24.125-24.117l-66.983,66.992
			c-0.254,0.255-0.524,0.493-0.808,0.713L130.683,348.489z"/>
		<path d="M51.458,511.972c-6.793,0.018-13.311-2.682-18.1-7.5L9.25,480.364c-9.984-10.003-9.984-26.201,0-36.204l102.516-102.517
			c1.6-1.601,3.77-2.5,6.033-2.5l0,0c2.263,0,4.434,0.899,6.033,2.5l48.242,48.246c1.601,1.6,2.5,3.77,2.5,6.033
			c0,2.263-0.899,4.433-2.5,6.033L69.558,504.472C64.769,509.291,58.251,511.992,51.458,511.972z M117.799,359.743l-96.484,96.483
			c-3.325,3.337-3.325,8.734,0,12.071l24.108,24.108c3.373,3.222,8.683,3.224,12.058,0.004l96.492-96.487L117.799,359.743z"/>
		<path d="M328.874,193.38c-3.451-0.001-6.562-2.08-7.882-5.268c-1.32-3.188-0.591-6.858,1.849-9.298l60.308-60.308
			c3.332-3.332,8.735-3.332,12.067,0c3.332,3.332,3.332,8.735,0,12.067l-60.309,60.308
			C333.309,192.483,331.138,193.383,328.874,193.38L328.874,193.38z"/>
		<path d="M371.091,276.759c-6.789,0.012-13.303-2.683-18.1-7.487L244.449,160.734c-9.984-10.003-9.984-26.201,0-36.204
			l84.416-84.417c10.132-9.674,26.079-9.672,36.208,0.004l108.534,108.538c4.802,4.8,7.5,11.312,7.5,18.102
			s-2.698,13.302-7.5,18.102l-84.417,84.413C384.395,274.077,377.881,276.772,371.091,276.759L371.091,276.759z M346.966,49.68
			c-2.264-0.004-4.436,0.896-6.033,2.5l-84.417,84.417c-3.325,3.337-3.325,8.734,0,12.071l108.541,108.537l0,0
			c3.335,3.325,8.732,3.325,12.067,0l84.417-84.417c1.601-1.599,2.5-3.769,2.5-6.031c0-2.263-0.899-4.432-2.5-6.031L352.999,52.18
			C351.403,50.574,349.23,49.674,346.966,49.68L346.966,49.68z"/>
	</g>
</g>
<g>
</g>
<g>
</g>
<g>
</g>
<g>
</g>
<g>
</g>
<g>
</g>
<g>
</g>
<g>
</g>
<g>
</g>
<g>
</g>
<g>
</g>
<g>
</g>
<g>
</g>
<g>
</g>
<g>
</g>
</svg>
