<?xml version="1.0" encoding="iso-8859-1"?>
<!-- Generator: Adobe Illustrator 19.0.0, SVG Export Plug-In . SVG Version: 6.00 Build 0)  -->
<svg version="1.1" id="Capa_1" xmlns="http://www.w3.org/2000/svg" xmlns:xlink="http://www.w3.org/1999/xlink" x="0px" y="0px"
	 viewBox="0 0 512.011 512.011" style="enable-background:new 0 0 512.011 512.011;" xml:space="preserve">
<g transform="translate(-1 -1)">
	<g transform="translate(2 2)">
		<path style="fill:#795548;" d="M15.12,494.904L15.12,494.904c10.49,10.105,27.184,9.799,37.296-0.684L375.25,171.386
			l-36.612-36.612L15.805,457.608C5.321,467.72,5.015,484.414,15.12,494.904L15.12,494.904z"/>
		<path style="fill:#CFD8DC;" d="M367.509,81.495C285.316,14.068,192.566-10.461,138.563,21.33
			c55.162,4.515,126.189,38.931,192.7,96.411l61.02,61.02c57.481,66.511,91.895,137.538,96.411,192.7
			c31.791-54.002,7.261-146.752-60.165-228.946L367.509,81.495z"/>
		<path style="fill:#FFB301;" d="M326.326,122.707l48.809-48.809c6.742-6.742,17.672-6.742,24.414,0l36.608,36.608
			c6.742,6.742,6.742,17.672,0,24.414l-48.809,48.809c-6.742,6.742-17.672,6.742-24.414,0l-36.608-36.608
			C319.584,140.378,319.584,129.448,326.326,122.707z"/>
		<path style="fill:#FEC108;" d="M322.536,144.546l25.72,25.72c6.797,4.472,15.9,2.881,20.778-3.63l48.816-48.816
			c6.511-4.878,8.102-13.981,3.63-20.778l-25.72-25.72c-6.797-4.472-15.9-2.881-20.778,3.63l-48.816,48.816
			C319.655,128.646,318.065,137.749,322.536,144.546z"/>
	</g>
	<g>
		<path d="M377.138,199.295c-6.846,0.019-13.415-2.703-18.242-7.558l-36.608-36.608c-4.839-4.837-7.558-11.399-7.558-18.242
			c0-6.842,2.719-13.404,7.558-18.242l48.817-48.808c10.083-10.046,26.392-10.046,36.475,0l36.608,36.608
			c10.058,10.078,10.058,26.397,0,36.475l-48.817,48.817C390.549,196.593,383.982,199.315,377.138,199.295z M389.338,79.353
			c-2.313-0.004-4.532,0.914-6.167,2.55l-48.817,48.817c-1.638,1.636-2.558,3.856-2.558,6.171c0,2.315,0.92,4.535,2.558,6.171
			l36.608,36.608c3.451,3.296,8.883,3.296,12.333,0l48.825-48.817c3.4-3.411,3.4-8.93,0-12.342l-36.608-36.608
			C393.876,80.265,391.654,79.347,389.338,79.353z"/>
		<path d="M490.688,381.995c-3.061-0.004-5.885-1.646-7.402-4.305c-1.517-2.658-1.494-5.925,0.06-8.562
			c29.617-50.308,5.183-140.45-59.417-219.208c-2.982-3.645-2.446-9.017,1.197-12.002c3.643-2.985,9.015-2.454,12.004,1.186
			c70.142,85.517,94.625,181.433,60.917,238.692C496.514,380.403,493.713,382.001,490.688,381.995L490.688,381.995z"/>
		<path d="M369.504,92.028c-1.97,0.002-3.879-0.682-5.4-1.933C285.346,25.486,195.196,1.053,144.896,30.678
			c-2.626,1.548-5.878,1.578-8.532,0.078c-2.654-1.5-4.306-4.302-4.333-7.35s1.573-5.88,4.199-7.428
			c57.267-33.725,153.183-9.217,238.692,60.917c2.79,2.286,3.841,6.08,2.625,9.476C376.331,89.766,373.111,92.031,369.504,92.028
			L369.504,92.028z"/>
		<path d="M490.688,381.995c-4.439-0.003-8.135-3.409-8.5-7.834c-4.45-54.391-39.725-124.608-94.367-187.817
			c-1.995-2.307-2.607-5.504-1.606-8.385c1.001-2.881,3.463-5.01,6.458-5.583c2.996-0.574,6.07,0.494,8.064,2.801
			c57.767,66.842,93.65,138.858,98.467,197.583c0.381,4.697-3.112,8.816-7.808,9.208
			C491.155,381.986,490.921,381.995,490.688,381.995z"/>
		<path d="M333.263,128.278c-2.05,0.002-4.032-0.734-5.583-2.075c-63.208-54.642-133.425-89.917-187.817-94.367
			c-4.693-0.394-8.181-4.514-7.794-9.207c0.386-4.694,4.5-8.188,9.194-7.809c58.725,4.817,130.742,40.7,197.583,98.467
			c2.699,2.331,3.664,6.095,2.419,9.437C340.021,126.065,336.829,128.28,333.263,128.278L333.263,128.278z"/>
		<path d="M35.421,513.003C21.5,513.009,8.948,504.626,3.62,491.765s-2.38-27.665,7.468-37.504l311.2-311.2
			c1.6-1.601,3.77-2.5,6.033-2.5c2.263,0,4.433,0.899,6.033,2.5l36.608,36.608c1.601,1.6,2.5,3.77,2.5,6.033
			c0,2.263-0.899,4.433-2.5,6.033l-311.2,311.2C53.311,509.396,44.551,513.018,35.421,513.003z M328.321,161.161L23.154,466.328
			c-4.384,4.384-6.096,10.774-4.491,16.762c1.605,5.989,6.282,10.666,12.271,12.271s12.378-0.107,16.762-4.491l305.167-305.167
			L328.321,161.161z"/>
	</g>
</g>
<g>
</g>
<g>
</g>
<g>
</g>
<g>
</g>
<g>
</g>
<g>
</g>
<g>
</g>
<g>
</g>
<g>
</g>
<g>
</g>
<g>
</g>
<g>
</g>
<g>
</g>
<g>
</g>
<g>
</g>
</svg>
