<?xml version="1.0" encoding="iso-8859-1"?>
<!-- Generator: Adobe Illustrator 19.0.0, SVG Export Plug-In . SVG Version: 6.00 Build 0)  -->
<svg version="1.1" id="Capa_1" xmlns="http://www.w3.org/2000/svg" xmlns:xlink="http://www.w3.org/1999/xlink" x="0px" y="0px"
	 viewBox="0 0 512.006 512.006" style="enable-background:new 0 0 512.006 512.006;" xml:space="preserve">
<g>
	<g transform="translate(1 1)">
		<path style="fill:#607D8B;" d="M467.482,266.608c0.256-5.717,0.341-11.435,0.171-17.067l18.688-11.605
			c8.884-5.523,13.513-15.896,11.691-26.197l-4.437-24.917l-34.987,6.229c-1.707-5.461-3.584-10.837-5.632-16.043l13.568-17.323
			c6.465-8.246,7.275-19.591,2.048-28.672l-12.629-21.931l-30.805,17.835c-3.413-4.523-6.997-8.96-10.752-13.227l6.827-20.821
			c3.297-9.937,0.223-20.88-7.765-27.648l-19.371-16.213l-22.869,27.307c-4.779-3.072-9.557-6.059-14.592-8.704l-0.683-22.016
			c-0.352-10.439-7.002-19.62-16.811-23.211l-23.723-8.704l-12.203,33.621c-5.547-1.365-11.093-2.475-16.64-3.328l-8.107-20.309
			c-3.882-9.708-13.267-16.088-23.723-16.128h-25.259v35.669c-5.632,0.683-11.264,1.621-16.811,2.731l-14.592-16.384
			c-6.917-7.829-17.93-10.607-27.733-6.997l-23.723,8.619l12.203,33.621c-5.035,2.56-9.984,5.291-14.848,8.277l-19.371-10.411
			c-9.176-4.927-20.425-3.778-28.416,2.901L76.826,81.862l22.869,27.307c-3.925,4.181-7.595,8.448-11.093,12.885l-21.675-3.072
			c-10.356-1.539-20.593,3.444-25.771,12.544l-12.629,21.931l30.805,17.835c-1.536,3.499-2.901,7.083-4.267,10.752
			c-0.597,1.707-1.109,3.413-1.707,5.12l-21.504,4.523c-10.216,2.162-18.108,10.29-19.968,20.565l-4.352,25.003l34.987,6.144
			c-0.256,5.717-0.341,11.435-0.171,17.067L23.663,272.07c-8.884,5.523-13.513,15.896-11.691,26.197l4.437,24.917l34.987-6.229
			c1.707,5.461,3.584,10.837,5.632,16.043L43.461,350.32c-6.465,8.246-7.275,19.591-2.048,28.672l12.629,21.931l30.805-17.835
			c3.413,4.523,6.997,8.96,10.752,13.227l-6.827,20.821c-3.296,9.937-0.223,20.88,7.765,27.648l19.371,16.213l22.869-27.307
			c4.779,3.072,9.557,5.973,14.592,8.704l0.683,22.016c0.353,10.439,7.002,19.62,16.811,23.211l23.723,8.704l12.203-33.621
			c5.547,1.366,11.093,2.475,16.64,3.328l8.107,20.309c3.882,9.708,13.267,16.088,23.723,16.128h25.259V466.8
			c5.632-0.683,11.264-1.621,16.811-2.731l14.592,16.384c6.917,7.828,17.93,10.607,27.733,6.997l23.723-8.619l-12.203-33.621
			c5.035-2.56,9.984-5.291,14.848-8.277l19.371,10.411c9.176,4.927,20.425,3.778,28.416-2.901l19.371-16.299l-22.869-27.307
			c3.925-4.181,7.595-8.448,11.093-12.885l21.675,3.072c10.356,1.539,20.593-3.444,25.771-12.544l12.629-21.931l-30.805-17.835
			c1.536-3.499,2.901-7.083,4.267-10.752c0.597-1.707,1.109-3.413,1.707-5.12l21.504-4.523c10.216-2.162,18.108-10.29,19.968-20.565
			l4.352-25.003L467.482,266.608z M255.002,280.603c-10.362,0.035-19.723-6.181-23.712-15.744
			c-3.989-9.563-1.82-20.588,5.495-27.928c7.315-7.339,18.332-9.545,27.909-5.588c9.577,3.957,15.823,13.297,15.823,23.659
			C280.515,269.108,269.107,280.555,255.002,280.603L255.002,280.603z"/>
		<path style="fill:#CFD8DC;" d="M439.237,148.336c-39.034-68-112.349-108.972-190.72-106.581
			c70.79,3.158,134.546,43.765,167.339,106.581c55.382,102.059,22.443,232.533-73.387,291.413
			c-28.228,17.474-60.519,27.297-93.696,28.501c39.475,1.241,78.505-8.635,112.64-28.501
			C463.218,380.648,498.022,250.324,439.237,148.336L439.237,148.336z"/>
		<g>
			<path style="fill:#F4F4F4;" d="M70.767,361.67c-37.539-64.851-38.281-144.647-1.955-210.184S173.201,44.289,248.09,41.755
				c-37.422-1.181-74.357,8.735-106.155,28.501C46.106,129.136,13.167,259.611,68.549,361.67
				c34.78,66.795,104.42,108.096,179.712,106.581C174.611,465.926,107.432,425.586,70.767,361.67z"/>
			<path style="fill:#F4F4F4;" d="M415.855,148.336C383.062,85.52,319.307,44.913,248.517,41.755h-0.427
				c-114.898,4.027-205.947,98.362-205.901,213.33s91.171,209.23,206.072,213.166h0.512c33.177-1.204,65.468-11.027,93.696-28.501
				C438.298,380.87,471.237,250.395,415.855,148.336z M255.002,280.603c-2.223-0.007-4.435-0.323-6.571-0.939
				c-11.171-2.981-18.943-13.099-18.943-24.661c0-11.562,7.772-21.68,18.943-24.661c2.136-0.616,4.348-0.932,6.571-0.939
				c14.138,0,25.6,11.462,25.6,25.6C280.602,269.141,269.14,280.603,255.002,280.603L255.002,280.603z"/>
		</g>
		<path style="fill:#C52828;" d="M255.002,75.803c-1.451,0-2.987,0-4.437,0.085c87.552,2.389,158.037,81.835,158.037,179.115
			s-70.485,176.725-158.037,179.115c1.451,0.085,2.987,0.085,4.437,0.085c98.765-0.289,178.676-80.435,178.676-179.2
			S353.766,76.092,255.002,75.803L255.002,75.803z M162.415,101.83c-53.467,32.531-86.101,90.588-86.101,153.173
			s32.635,120.642,86.101,153.173c-49.781-34.982-79.018-92.337-78.08-153.173C83.397,194.167,112.634,136.811,162.415,101.83
			L162.415,101.83z"/>
		<path style="fill:#CFD8DC;" d="M246.469,434.203c1.365,0,2.731,0,4.096-0.085c-31.159-0.704-61.575-9.655-88.149-25.941
			C187.21,425.04,216.482,434.104,246.469,434.203z M246.469,75.803c-29.986,0.099-59.258,9.162-84.053,26.027
			c26.574-16.286,56.99-25.237,88.149-25.941C249.199,75.803,247.834,75.803,246.469,75.803z"/>
		<path style="fill:#F44335;" d="M250.565,75.888c-31.16,0.704-61.576,9.655-88.149,25.941
			c-49.781,34.982-79.018,92.337-78.08,153.173c-0.938,60.836,28.299,118.191,78.08,153.173
			c26.574,16.286,56.99,25.237,88.149,25.941c87.552-2.389,158.037-81.835,158.037-179.115S338.117,78.278,250.565,75.888z
			 M255.002,280.603c-1.489-0.011-2.974-0.154-4.437-0.427c-12.196-2.178-21.077-12.785-21.077-25.173
			c0-12.389,8.881-22.996,21.077-25.173c1.464-0.273,2.949-0.416,4.437-0.427c14.138,0,25.6,11.462,25.6,25.6
			C280.602,269.141,269.14,280.603,255.002,280.603z"/>
	</g>
	<g>
		<path d="M256.002,443.736c-75.976,0.199-144.582-45.414-173.794-115.55s-13.273-150.964,40.38-204.758
			s134.439-69.946,204.651-40.917s116.005,97.515,116.005,173.491C443.263,359.501,359.5,443.484,256.002,443.736L256.002,443.736z
			 M256.002,85.336c-69.073-0.199-131.456,41.256-158.027,105.014s-12.091,137.246,36.68,186.158s122.217,63.604,186.052,37.217
			c63.834-26.387,105.47-88.65,105.47-157.723C426.207,161.926,350.079,85.578,256.002,85.336z"/>
		<path d="M256.002,290.136c-13.812,0.029-26.28-8.269-31.586-21.022c-5.305-12.752-2.403-27.445,7.354-37.222
			s24.443-12.71,37.207-7.431c12.763,5.279,21.087,17.73,21.087,31.542C290.063,274.826,274.825,290.096,256.002,290.136
			L256.002,290.136z M256.002,238.936c-6.909-0.029-13.154,4.111-15.818,10.486c-2.664,6.375-1.221,13.727,3.654,18.623
			c4.875,4.896,12.222,6.369,18.608,3.732c6.386-2.637,10.552-8.865,10.552-15.774C273.007,246.601,265.404,238.966,256.002,238.936
			L256.002,238.936z"/>
		<path d="M256.36,477.965c-100.366-0.129-188.161-67.58-214.148-164.523s16.3-199.264,103.144-249.577l0,0
			c50.831-29.417,111.282-37.387,168-22.149s105.036,52.431,134.279,103.362c60.955,106.101,24.769,241.512-80.987,303.063
			C333.161,467.64,295.11,477.93,256.36,477.965z M153.906,78.632c-97.623,56.83-131.02,181.833-74.75,279.779
			c26.984,47.001,71.569,81.325,123.908,95.391c52.339,14.066,108.124,6.715,155.033-20.428
			c97.625-56.828,131.025-181.832,74.754-279.78c-26.985-47.001-71.571-81.325-123.911-95.39S200.816,51.489,153.906,78.632
			L153.906,78.632z"/>
		<path d="M281.531,512.003h-25.263c-13.956,0.04-26.51-8.479-31.629-21.463l-6.346-15.904c-1.654-0.292-3.333-0.613-5.054-0.962
			l-9.633,26.542c-0.774,2.129-2.362,3.863-4.415,4.82c-2.053,0.957-4.402,1.059-6.531,0.284l-23.738-8.667
			c-13.126-4.749-22.008-17.047-22.391-31l-0.538-17.138c-1.463-0.842-2.939-1.718-4.429-2.629l-18.088,21.617
			c-1.455,1.739-3.542,2.827-5.8,3.025c-2.258,0.198-4.503-0.511-6.237-1.971l-19.355-16.283
			c-10.708-8.956-14.855-23.546-10.458-36.796l5.333-16.275c-1.092-1.304-2.179-2.642-3.275-4.017L59.322,409.29
			c-1.961,1.136-4.294,1.444-6.483,0.858c-2.189-0.586-4.056-2.019-5.187-3.983l-12.633-21.942
			c-7.002-12.074-5.92-27.2,2.729-38.154l10.604-13.521c-0.608-1.642-1.187-3.262-1.737-4.862l-27.725,4.904
			c-2.23,0.395-4.526-0.112-6.382-1.411c-1.856-1.299-3.118-3.283-3.51-5.514l-4.388-24.95
			c-2.469-13.738,3.713-27.589,15.588-34.925l14.529-9.038c-0.013-1.767-0.003-3.503,0.029-5.208l-27.708-4.9
			c-4.638-0.821-7.734-5.244-6.917-9.883l4.388-24.95c2.364-13.754,12.908-24.659,26.575-27.483l16.725-3.504l0.25-0.704
			c0.508-1.396,1.031-2.786,1.567-4.171l-24.392-14.125c-4.071-2.357-5.467-7.564-3.121-11.642l12.629-21.942
			c6.916-12.122,20.559-18.762,34.367-16.725l16.9,2.442c1.125-1.367,2.242-2.689,3.35-3.967L71.273,88.361
			c-3.016-3.607-2.547-8.975,1.05-12.004l19.35-16.283c10.647-9.024,25.742-10.587,38.013-3.938l15.1,8.117
			c1.471-0.858,2.956-1.7,4.454-2.525l-9.654-26.6c-1.607-4.425,0.673-9.315,5.096-10.929l23.742-8.663
			c13.095-4.829,27.811-1.124,37.058,9.329l11.379,12.763c1.663-0.296,3.356-0.576,5.079-0.842V8.536
			c0-4.713,3.82-8.533,8.533-8.533h25.263c13.956-0.04,26.51,8.479,31.629,21.463l6.346,15.904c1.654,0.292,3.333,0.613,5.054,0.962
			l9.633-26.542c0.774-2.129,2.362-3.863,4.415-4.82c2.053-0.957,4.402-1.06,6.531-0.284l23.737,8.667
			c13.126,4.749,22.008,17.047,22.391,31l0.538,17.137c1.462,0.842,2.939,1.718,4.429,2.629l18.087-21.617
			c1.455-1.739,3.542-2.827,5.8-3.025c2.258-0.198,4.503,0.511,6.237,1.971l19.355,16.283c10.706,8.958,14.852,23.546,10.458,36.796
			l-5.333,16.275c1.083,1.3,2.175,2.639,3.275,4.017l24.367-14.104c1.961-1.136,4.293-1.445,6.482-0.859
			c2.189,0.586,4.054,2.02,5.185,3.984l12.633,21.942c7.005,12.075,5.921,27.205-2.733,38.158l-10.6,13.517
			c0.608,1.642,1.192,3.258,1.742,4.862l27.725-4.904c4.645-0.817,9.073,2.285,9.892,6.929l4.384,24.95
			c2.469,13.736-3.711,27.585-15.584,34.921l-14.533,9.037c0.008,1.754,0,3.49-0.025,5.208l27.7,4.9
			c4.638,0.82,7.736,5.24,6.925,9.879l-4.383,24.946c-2.37,13.756-12.915,24.661-26.583,27.492l-16.725,3.504
			c-0.075,0.229-0.158,0.458-0.242,0.688c-0.508,1.408-1.033,2.804-1.575,4.187l24.392,14.125c4.074,2.355,5.469,7.566,3.117,11.642
			l-12.633,21.942c-6.942,12.091-20.56,18.72-34.358,16.725l-16.9-2.442c-1.125,1.371-2.242,2.695-3.35,3.971l18.092,21.625
			c3.023,3.605,2.553,8.978-1.05,12.004l-19.35,16.283c-10.648,9.017-25.738,10.58-38.008,3.938l-15.1-8.117
			c-1.471,0.858-2.956,1.7-4.454,2.525l9.654,26.6c1.607,4.425-0.673,9.315-5.096,10.929l-23.742,8.663
			c-13.095,4.829-27.811,1.124-37.058-9.329l-11.379-12.763c-1.663,0.296-3.356,0.576-5.079,0.842v28.25
			C290.064,508.182,286.244,512.003,281.531,512.003z M207.764,455.207c0.657-0.001,1.311,0.074,1.95,0.225
			c5.779,1.354,11.013,2.379,16,3.133c2.994,0.455,5.523,2.462,6.646,5.275l8.129,20.375c2.552,6.481,8.814,10.735,15.779,10.721
			h16.729v-27.158c-0.001-4.314,3.218-7.949,7.5-8.471c5.787-0.704,11.05-1.55,16.092-2.579c2.976-0.607,6.05,0.415,8.071,2.683
			l14.6,16.371c4.606,5.212,11.94,7.061,18.467,4.654l15.742-5.742l-9.279-25.563c-1.471-4.051,0.309-8.562,4.15-10.517
			c4.833-2.462,9.612-5.138,14.2-7.946c2.588-1.589,5.826-1.681,8.5-0.242l19.362,10.408c6.114,3.317,13.638,2.537,18.942-1.963
			l12.833-10.804l-17.375-20.775c-2.766-3.305-2.634-8.154,0.308-11.304c3.45-3.683,6.925-7.738,10.617-12.392
			c1.885-2.38,4.896-3.574,7.9-3.133l21.692,3.133c6.888,1.01,13.691-2.304,17.142-8.35l8.383-14.562l-23.45-13.579
			c-3.729-2.158-5.262-6.757-3.575-10.721c1.434-3.392,2.808-6.829,4.075-10.333c0.375-1.017,0.708-2.05,1.042-3.079l0.608-1.854
			c0.963-2.871,3.377-5.015,6.342-5.633l21.525-4.508c6.827-1.423,12.09-6.874,13.275-13.746l2.9-16.55l-26.608-4.704
			c-4.25-0.75-7.27-4.557-7.033-8.867c0.275-5.196,0.341-10.692,0.192-16.329c-0.079-3.028,1.453-5.871,4.025-7.471l18.633-11.587
			c5.938-3.673,9.028-10.603,7.792-17.475l-2.908-16.538l-26.625,4.708c-4.249,0.742-8.387-1.796-9.65-5.921
			c-1.508-4.979-3.275-10.017-5.383-15.396c-1.108-2.814-0.642-6.004,1.225-8.383l13.583-17.317
			c4.336-5.482,4.881-13.057,1.375-19.104l-8.367-14.529l-23.442,13.567c-3.743,2.179-8.526,1.198-11.108-2.279
			c-3.533-4.729-6.892-8.887-10.258-12.713c-1.993-2.27-2.64-5.424-1.7-8.296l6.833-20.837c2.197-6.631,0.127-13.931-5.225-18.421
			l-12.809-10.775l-17.388,20.779c-2.78,3.308-7.589,4.024-11.213,1.671c-4.896-3.196-9.467-5.942-13.975-8.396
			c-2.661-1.449-4.355-4.2-4.45-7.229l-0.688-21.954c-0.188-6.974-4.624-13.123-11.183-15.5l-15.708-5.737l-9.267,25.529
			c-1.485,4.056-5.759,6.37-9.967,5.396c-5.779-1.354-11.013-2.379-16-3.133c-2.994-0.455-5.523-2.462-6.646-5.275l-8.129-20.375
			c-2.552-6.48-8.814-10.735-15.778-10.721h-16.729v27.158c0.001,4.314-3.218,7.949-7.5,8.471c-5.787,0.704-11.05,1.55-16.092,2.579
			c-2.976,0.602-6.048-0.419-8.071-2.683l-14.6-16.371c-4.61-5.206-11.94-7.053-18.467-4.654l-15.742,5.742l9.279,25.563
			c1.471,4.051-0.309,8.562-4.15,10.517c-4.833,2.462-9.612,5.137-14.2,7.946c-2.589,1.585-5.825,1.677-8.5,0.242L121.602,71.17
			c-6.115-3.311-13.635-2.532-18.942,1.963L89.823,83.936l17.383,20.775c2.765,3.305,2.631,8.153-0.312,11.3
			c-3.479,3.725-6.95,7.779-10.612,12.392c-1.887,2.38-4.899,3.575-7.904,3.138l-21.7-3.133c-6.884-1.001-13.68,2.311-17.133,8.35
			L41.16,151.32l23.45,13.579c3.728,2.158,5.263,6.756,3.579,10.721c-1.442,3.388-2.808,6.825-4.075,10.325
			c-0.392,1.075-0.738,2.146-1.087,3.212l-0.558,1.712c-0.96,2.879-3.376,5.032-6.346,5.654l-21.529,4.508
			c-6.826,1.416-12.089,6.866-13.266,13.737l-2.913,16.554l26.621,4.704c4.25,0.753,7.269,4.561,7.033,8.871
			c-0.287,5.204-0.354,10.546-0.204,16.329c0.08,3.026-1.45,5.868-4.021,7.467L29.21,280.282
			c-5.939,3.673-9.029,10.603-7.792,17.475l2.908,16.538l26.625-4.708c4.252-0.746,8.393,1.796,9.654,5.925
			c1.496,4.933,3.258,9.971,5.383,15.392c1.107,2.814,0.639,6.005-1.229,8.383l-13.588,17.317c-4.33,5.486-4.87,13.06-1.363,19.104
			l8.363,14.529l23.433-13.567c3.746-2.172,8.524-1.192,11.113,2.279c3.512,4.7,6.867,8.862,10.254,12.717
			c1.996,2.268,2.642,5.422,1.7,8.292l-6.829,20.837c-2.204,6.631-0.132,13.935,5.225,18.421l12.809,10.775l17.388-20.779
			c2.773-3.32,7.592-4.038,11.213-1.671c4.896,3.196,9.467,5.942,13.975,8.396c2.661,1.449,4.355,4.2,4.45,7.229l0.688,21.954
			c0.188,6.974,4.624,13.123,11.183,15.5l15.708,5.737l9.267-25.529C200.973,457.456,204.177,455.21,207.764,455.207z"/>
	</g>
</g>
<g>
</g>
<g>
</g>
<g>
</g>
<g>
</g>
<g>
</g>
<g>
</g>
<g>
</g>
<g>
</g>
<g>
</g>
<g>
</g>
<g>
</g>
<g>
</g>
<g>
</g>
<g>
</g>
<g>
</g>
</svg>
