<?xml version="1.0" encoding="iso-8859-1"?>
<!-- Generator: Adobe Illustrator 19.0.0, SVG Export Plug-In . SVG Version: 6.00 Build 0)  -->
<svg version="1.1" id="Capa_1" xmlns="http://www.w3.org/2000/svg" xmlns:xlink="http://www.w3.org/1999/xlink" x="0px" y="0px"
	 viewBox="0 0 512.043 512.043" style="enable-background:new 0 0 512.043 512.043;" xml:space="preserve">
<g transform="translate(-1 -1)">
	<g transform="translate(2 1)">
		<polygon style="fill:#0377BC;" points="109.555,340.729 349.402,100.883 410.287,161.538 170.21,401.615 		"/>
		<g>
			<path style="fill:#1566C0;" d="M479.876,140.572c-24.329,23.848-61.3,29.199-91.392,13.227
				c20.674,2.694,41.556-3.127,57.856-16.127c16.299-13.001,26.617-32.066,28.587-52.822v-0.085l12.459-12.459
				c2.288-2.343,5.713-3.173,8.819-2.138c3.107,1.036,5.348,3.755,5.773,7.002C504.673,100.569,496.534,123.918,479.876,140.572
				L479.876,140.572z"/>
			<path style="fill:#1566C0;" d="M139.567,480.881c-16.654,16.657-40.003,24.797-63.403,22.101
				c-4.426-0.474-7.697-4.346-7.424-8.789c16.519-2.362,31.823-10.029,43.605-21.845c17.328-17.353,25.413-41.888,21.797-66.143
				c-3.616-24.255-18.507-45.364-40.143-56.908c17.977,2.125,34.628,10.525,47.019,23.723
				C169.411,403.593,168.773,451.082,139.567,480.881z"/>
		</g>
		<polygon style="fill:#02A9F4;" points="105.8,345.517 340.587,110.731 383.083,153.005 148.075,388.013 		"/>
		<g>
			<path style="fill:#2296F3;" d="M474.927,84.849c-1.97,20.756-12.288,39.821-28.587,52.822
				c-16.299,13.001-37.181,18.822-57.856,16.127c-6.011-3.139-11.555-7.103-16.469-11.776
				c-21.541-20.375-29.532-51.274-20.571-79.537c8.961-28.264,33.295-48.914,62.641-53.156c6.532-0.938,13.158-1.024,19.712-0.256
				c3.252,0.412,5.984,2.644,7.037,5.749c1.053,3.104,0.242,6.538-2.088,8.843l-43.947,43.947c-6.656,6.74-6.656,17.58,0,24.32
				l18.261,18.261l6.059,6.059c6.741,6.656,17.579,6.656,24.32,0L474.927,84.849z"/>
			<path style="fill:#2296F3;" d="M112.345,472.348c-11.783,11.816-27.086,19.483-43.605,21.845c0.102-2.185,1.014-4.254,2.56-5.803
				l43.947-43.947c6.656-6.74,6.656-17.58,0-24.32l-24.32-24.32c-5.62-5.574-14.319-6.596-21.077-2.475
				c-1.171,0.7-2.258,1.53-3.243,2.475L22.66,439.75c-2.306,2.33-5.739,3.14-8.843,2.087c-3.104-1.053-5.336-3.785-5.749-7.037
				c-2.652-23.467,5.561-46.86,22.302-63.518c16.741-16.658,40.175-24.755,63.628-21.986c21.636,11.544,36.527,32.653,40.143,56.908
				C137.759,430.46,129.673,454.994,112.345,472.348z"/>
		</g>
	</g>
	<g>
		<path d="M427.127,172.544c-34.703,0.04-66.008-20.845-79.296-52.903s-5.939-68.966,18.617-93.488l0,0
			c18.439-18.501,44.323-27.559,70.275-24.592c6.49,0.705,11.987,5.1,14.104,11.275c2.237,6.241,0.659,13.213-4.046,17.883
			l-43.958,43.958c-3.356,3.391-3.356,8.851,0,12.242l24.304,24.308c3.386,3.367,8.856,3.367,12.242,0l43.988-43.983
			c4.668-4.706,11.637-6.287,17.879-4.058c6.142,2.09,10.522,7.543,11.237,13.992c2.82,24.303-4.905,48.65-21.221,66.881
			C474.936,162.29,451.593,172.66,427.127,172.544L427.127,172.544z M378.514,38.219c-13.137,13.14-20.403,31.034-20.146,49.614
			s8.016,36.265,21.512,49.036c27.16,25.369,69.501,24.78,95.946-1.333c14.863-14.804,22.119-35.605,19.688-56.442l-44.079,44.2
			c-10.049,10.033-26.326,10.033-36.375,0l-24.304-24.308c-10.021-10.054-10.023-26.319-0.004-36.375l43.963-43.958
			C413.969,16.19,393.244,23.406,378.514,38.219L378.514,38.219z"/>
		<path d="M87.01,513.036c-3.287,0-6.572-0.186-9.837-0.558c-6.448-0.714-11.901-5.092-13.992-11.233
			c-2.227-6.243-0.648-13.211,4.054-17.883l43.988-43.983c3.356-3.391,3.356-8.851,0-12.242l-24.304-24.308
			c-3.386-3.367-8.856-3.367-12.242,0l-43.963,43.958c-4.678,4.685-11.632,6.263-17.875,4.058
			c-6.179-2.116-10.577-7.615-11.283-14.108c-2.974-25.955,6.085-51.844,24.592-70.283l0,0
			c16.397-16.394,38.726-25.462,61.911-25.141c23.185,0.32,45.255,10.001,61.193,26.841c31.669,33.895,30.939,86.743-1.654,119.75
			C131.553,504.012,109.747,513.058,87.01,513.036L87.01,513.036z M80.798,383.244c6.821-0.014,13.366,2.691,18.188,7.517
			l24.304,24.308c10.021,10.054,10.023,26.319,0.004,36.375l-43.992,43.983c20.761,2.49,41.51-4.739,56.229-19.592
			c26.115-26.446,26.701-68.79,1.329-95.95c-12.74-13.548-30.453-21.315-49.05-21.508c-18.608-0.446-36.568,6.847-49.596,20.142
			c-14.826,14.777-22.082,35.521-19.701,56.317l44.096-44.075C67.43,385.934,73.976,383.229,80.798,383.244L80.798,383.244z"/>
		<path d="M162.527,420.819c-3.451-0.001-6.562-2.08-7.882-5.268c-1.32-3.188-0.591-6.858,1.849-9.298l249.758-249.75
			c2.156-2.156,5.297-2.997,8.242-2.208c2.944,0.789,5.244,3.089,6.033,6.033c0.789,2.944-0.053,6.086-2.208,8.242L168.56,418.319
			C166.962,419.922,164.791,420.822,162.527,420.819L162.527,420.819z"/>
		<path d="M101.881,359.936c-3.451-0.001-6.562-2.08-7.882-5.268c-1.32-3.188-0.591-6.858,1.849-9.298L345.36,95.853
			c3.332-3.332,8.735-3.332,12.067,0c3.332,3.332,3.332,8.735,0,12.067L107.915,357.436
			C106.316,359.039,104.145,359.939,101.881,359.936L101.881,359.936z"/>
		<path d="M190.177,344.561c-2.265,0.003-4.438-0.897-6.038-2.5c-10.041-10.047-10.039-26.33,0.004-36.375l121.538-121.533
			c10.18-9.717,26.199-9.717,36.379,0c3.3,3.34,3.283,8.718-0.038,12.036c-3.321,3.319-8.699,3.332-12.036,0.03
			c-3.424-3.267-8.81-3.267-12.233,0L196.21,317.753c-1.623,1.624-2.534,3.826-2.533,6.122c0.001,2.296,0.914,4.497,2.538,6.12
			c2.438,2.442,3.166,6.111,1.845,9.299S193.628,344.56,190.177,344.561L190.177,344.561z"/>
	</g>
</g>
<g>
</g>
<g>
</g>
<g>
</g>
<g>
</g>
<g>
</g>
<g>
</g>
<g>
</g>
<g>
</g>
<g>
</g>
<g>
</g>
<g>
</g>
<g>
</g>
<g>
</g>
<g>
</g>
<g>
</g>
</svg>
