<?xml version="1.0" encoding="iso-8859-1"?>
<!-- Generator: Adobe Illustrator 19.0.0, SVG Export Plug-In . SVG Version: 6.00 Build 0)  -->
<svg version="1.1" id="Capa_1" xmlns="http://www.w3.org/2000/svg" xmlns:xlink="http://www.w3.org/1999/xlink" x="0px" y="0px"
	 viewBox="0 0 511.989 511.989" style="enable-background:new 0 0 511.989 511.989;" xml:space="preserve">
<g>
	<g>
		<path style="fill:#CFD8DC;" d="M392.533,28.839L28.843,392.53l-12.117-12.117c-3.237-3.219-5.056-7.595-5.056-12.16
			c0-4.565,1.82-8.941,5.056-12.16L356.096,16.722c3.219-3.236,7.595-5.056,12.16-5.056c4.565,0,8.941,1.82,12.16,5.056
			L392.533,28.839z"/>
		<path style="fill:#FDD834;" d="M498.432,110.503L110.507,498.428c-3.202,3.236-7.565,5.056-12.117,5.056
			c-4.552,0-8.915-1.821-12.117-5.056l-72.704-72.704c-3.236-3.202-5.056-7.565-5.056-12.117c0-4.552,1.821-8.915,5.056-12.117
			L401.493,13.564c3.202-3.235,7.565-5.056,12.117-5.056s8.915,1.82,12.117,5.056l55.637,55.637l17.067,17.067
			c3.236,3.202,5.056,7.565,5.056,12.117C503.488,102.938,501.668,107.301,498.432,110.503z"/>
		<path style="fill:#FFEB3A;" d="M481.365,93.436L93.44,481.362c-3.202,3.236-7.565,5.056-12.117,5.056
			c-4.552,0-8.915-1.821-12.117-5.056l-55.637-55.637c-3.236-3.202-5.056-7.565-5.056-12.117c0-4.552,1.821-8.915,5.056-12.117
			L401.493,13.564c3.202-3.235,7.565-5.056,12.117-5.056s8.915,1.82,12.117,5.056l55.637,55.637
			c3.236,3.202,5.056,7.565,5.056,12.117C486.421,85.871,484.601,90.234,481.365,93.436z"/>
		<g>
			<path style="fill:#607D8B;" d="M498.432,110.503l-12.117,12.117l-96.939-96.939l12.117-12.117
				c3.202-3.235,7.565-5.056,12.117-5.056s8.915,1.82,12.117,5.056l55.637,55.637l17.067,17.067
				c3.236,3.202,5.056,7.565,5.056,12.117C503.488,102.938,501.668,107.301,498.432,110.503L498.432,110.503z"/>
			<path style="fill:#607D8B;" d="M122.624,486.311l-12.117,12.117c-3.202,3.236-7.565,5.056-12.117,5.056
				c-4.552,0-8.915-1.821-12.117-5.056l-72.704-72.704c-3.236-3.202-5.056-7.565-5.056-12.117c0-4.552,1.821-8.915,5.056-12.117
				l12.117-12.117L122.624,486.311z"/>
		</g>
		<g>
			<path style="fill:#CFD8DC;" d="M481.365,93.436l-12.117,12.117l-79.872-79.872l12.117-12.117
				c3.202-3.235,7.565-5.056,12.117-5.056s8.915,1.82,12.117,5.056l55.637,55.637c3.236,3.202,5.056,7.565,5.056,12.117
				C486.421,85.871,484.601,90.234,481.365,93.436z"/>
			<path style="fill:#CFD8DC;" d="M105.557,469.244L93.44,481.362c-3.202,3.236-7.565,5.056-12.117,5.056
				c-4.552,0-8.915-1.821-12.117-5.056l-55.637-55.637c-3.236-3.202-5.056-7.565-5.056-12.117c0-4.552,1.821-8.915,5.056-12.117
				l12.117-12.117L105.557,469.244z"/>
		</g>
		<g>
			<circle style="fill:#8BC34A;" cx="140.833" cy="371.159" r="34.304"/>
			<circle style="fill:#8BC34A;" cx="371.162" cy="140.84" r="34.304"/>
			<path style="fill:#8BC34A;" d="M322.645,237.82l-12.117,12.117l-12.032,12.117h-0.085l-36.352,36.437h-0.085l-24.149,24.149
				c-3.202,3.236-7.565,5.056-12.117,5.056s-8.915-1.821-12.117-5.056l-24.235-24.235c-3.236-3.202-5.056-7.565-5.056-12.117
				s1.821-8.915,5.056-12.117l12.117-12.117l12.117-12.032l36.437-36.437l12.032-12.117l12.117-12.117
				c3.202-3.236,7.565-5.056,12.117-5.056c4.552,0,8.915,1.821,12.117,5.056l24.235,24.235c3.235,3.202,5.056,7.565,5.056,12.117
				C327.701,230.255,325.881,234.618,322.645,237.82L322.645,237.82z"/>
		</g>
	</g>
	<g>
		<path d="M98.408,511.984c-6.81,0.014-13.343-2.689-18.154-7.508L7.521,431.742c-10.013-10.034-10.013-26.279,0-36.313
			L395.433,7.517c10.032-10.017,26.281-10.017,36.313,0l72.733,72.733c10.013,10.034,10.013,26.279,0,36.313L116.567,504.476
			C111.755,509.296,105.219,511.998,98.408,511.984z M413.592,17.068c-2.285-0.005-4.477,0.9-6.092,2.517L19.587,407.496
			c-3.358,3.365-3.358,8.814,0,12.179l72.733,72.733c3.365,3.358,8.814,3.358,12.179,0l387.913-387.913
			c3.358-3.365,3.358-8.814,0-12.179l-72.733-72.733C418.066,17.968,415.875,17.063,413.592,17.068L413.592,17.068z"/>
		<path d="M140.837,413.975c-19.38-0.001-36.343-13.018-41.358-31.738c-5.015-18.719,3.168-38.474,19.951-48.163
			s37.982-6.899,51.686,6.805l0,0c12.246,12.246,15.909,30.664,9.281,46.664C173.77,403.544,158.156,413.976,140.837,413.975
			L140.837,413.975z M140.837,345.417c-10.414-0.002-19.804,6.27-23.79,15.891c-3.986,9.621-1.783,20.696,5.581,28.059
			c10.191,9.729,26.23,9.729,36.421,0c7.37-7.362,9.576-18.441,5.588-28.064C160.65,351.679,151.255,345.408,140.837,345.417z"/>
		<path d="M371.163,183.634c-19.376-0.001-36.335-13.015-41.349-31.731c-5.014-18.716,3.169-38.466,19.949-48.152
			s37.975-6.894,51.674,6.808l0,0c12.252,12.24,15.919,30.658,9.291,46.658C404.099,173.217,388.481,183.644,371.163,183.634z
			 M371.163,115.084c-12.284,0.001-22.857,8.678-25.253,20.726c-2.396,12.048,4.052,24.111,15.401,28.812
			c11.349,4.701,24.438,0.73,31.263-9.484c6.825-10.214,5.484-23.826-3.202-32.512l0,0
			C384.553,117.779,377.996,115.063,371.163,115.084L371.163,115.084z"/>
		<path d="M225.696,336.209c-6.811,0.014-13.346-2.688-18.158-7.508l-24.242-24.242c-10.012-10.034-10.012-26.279,0-36.312
			l84.854-84.854c10.032-10.017,26.281-10.017,36.312,0l24.242,24.242c10.013,10.034,10.013,26.279,0,36.312L243.85,328.7
			C239.039,333.52,232.505,336.222,225.696,336.209z M286.308,192.842c-2.285-0.005-4.477,0.9-6.092,2.517l-84.854,84.854
			c-3.358,3.365-3.358,8.814,0,12.179l24.242,24.242c3.365,3.358,8.814,3.358,12.179,0l84.855-84.855
			c3.358-3.365,3.358-8.814,0-12.179l-24.242-24.242C290.782,193.743,288.591,192.838,286.308,192.842L286.308,192.842z"/>
		<path d="M256,313.017c-2.264,0.003-4.435-0.897-6.033-2.5l-48.488-48.487c-3.296-3.338-3.279-8.711,0.038-12.029
			c3.317-3.317,8.691-3.334,12.029-0.038l48.487,48.487c2.44,2.44,3.169,6.11,1.849,9.298
			C262.562,310.937,259.451,313.016,256,313.017L256,313.017z"/>
		<path d="M304.487,264.53c-2.264,0.003-4.435-0.897-6.033-2.5l-48.488-48.487c-3.296-3.338-3.28-8.711,0.038-12.029
			c3.317-3.317,8.69-3.334,12.029-0.038l48.488,48.488c2.44,2.44,3.169,6.11,1.849,9.298
			C311.049,262.45,307.939,264.529,304.487,264.53L304.487,264.53z"/>
		<path d="M249.937,270.592c-3.451-0.001-6.562-2.08-7.882-5.268c-1.32-3.188-0.591-6.858,1.849-9.298l12.125-12.125
			c3.332-3.332,8.735-3.332,12.067,0c3.332,3.332,3.332,8.735,0,12.067l-12.125,12.125
			C254.373,269.695,252.201,270.595,249.937,270.592L249.937,270.592z"/>
		<path d="M140.8,379.73c-4.665-0.115-8.419-3.869-8.533-8.533c0.008-2.28,0.93-4.463,2.558-6.059c1.577-1.63,3.749-2.55,6.017-2.55
			c2.268,0,4.439,0.92,6.017,2.55c1.606,1.605,2.497,3.789,2.475,6.059c0.022,2.244-0.872,4.4-2.475,5.971
			c-0.76,0.822-1.694,1.464-2.733,1.879C143.07,379.484,141.942,379.716,140.8,379.73z"/>
		<path d="M371.2,149.33c-2.27,0.022-4.453-0.87-6.058-2.475c-1.605-1.605-2.497-3.788-2.475-6.058
			c-0.028-0.546,0.029-1.093,0.171-1.621c0.1-0.552,0.243-1.095,0.425-1.625c0.254-0.508,0.513-1.021,0.767-1.45
			c0.301-0.482,0.677-0.914,1.112-1.279c3.371-3.2,8.658-3.2,12.029,0c0.436,0.364,0.81,0.796,1.108,1.279
			c0.258,0.429,0.513,0.942,0.771,1.45c0.171,0.512,0.341,1.112,0.513,1.625c0.098,0.535,0.156,1.077,0.171,1.621
			c-0.01,2.281-0.933,4.463-2.562,6.059C375.6,148.458,373.444,149.352,371.2,149.33L371.2,149.33z"/>
		<path d="M122.654,494.855c-2.264,0.003-4.435-0.897-6.033-2.5l-96.979-96.979c-2.155-2.156-2.997-5.297-2.208-8.242
			s3.089-5.244,6.033-6.033c2.944-0.789,6.086,0.053,8.242,2.208l96.979,96.979c2.44,2.44,3.169,6.11,1.849,9.298
			C129.216,492.775,126.105,494.854,122.654,494.855L122.654,494.855z"/>
		<path d="M486.325,131.184c-2.264,0.003-4.435-0.897-6.033-2.5l-96.979-96.979c-3.332-3.332-3.332-8.735,0-12.067
			c3.332-3.332,8.735-3.332,12.067,0l96.979,96.979c2.44,2.44,3.169,6.11,1.849,9.298S489.776,131.183,486.325,131.184
			L486.325,131.184z"/>
		<path d="M25.675,397.875L25.675,397.875c-2.263-0.001-4.433-0.9-6.033-2.5L7.521,383.25C2.705,378.436,0,371.906,0,365.096
			c0-6.809,2.705-13.34,7.521-18.154L346.946,7.517c10.162-9.696,26.15-9.696,36.312,0l12.121,12.121c1.601,1.6,2.5,3.77,2.5,6.033
			s-0.899,4.433-2.5,6.033L31.708,395.375C30.108,396.976,27.938,397.875,25.675,397.875z M365.1,17.063
			c-2.284-0.006-4.476,0.902-6.087,2.521L19.587,359.009c-1.614,1.614-2.521,3.803-2.521,6.085c0,2.282,0.907,4.471,2.521,6.085
			l6.088,6.092l351.6-351.6l-6.087-6.088C369.576,17.964,367.384,17.057,365.1,17.063z"/>
	</g>
</g>
<g>
</g>
<g>
</g>
<g>
</g>
<g>
</g>
<g>
</g>
<g>
</g>
<g>
</g>
<g>
</g>
<g>
</g>
<g>
</g>
<g>
</g>
<g>
</g>
<g>
</g>
<g>
</g>
<g>
</g>
</svg>
