<?xml version="1.0" encoding="iso-8859-1"?>
<!-- Generator: Adobe Illustrator 19.0.0, SVG Export Plug-In . SVG Version: 6.00 Build 0)  -->
<svg version="1.1" id="Capa_1" xmlns="http://www.w3.org/2000/svg" xmlns:xlink="http://www.w3.org/1999/xlink" x="0px" y="0px"
	 viewBox="0 0 512.012 512.012" style="enable-background:new 0 0 512.012 512.012;" xml:space="preserve">
<g transform="translate(0 -1)">
	<g transform="translate(0 2)">
		<g>
			<path style="fill:#CFD8DC;" d="M499.182,38.452l-43.691,53.419L316.228,231.135l18.176,18.176c6.656,6.674,6.656,17.475,0,24.149
				l-12.117,12.117L219.374,182.665l12.117-12.117c6.674-6.656,17.475-6.656,24.149,0l24.235,24.235L419.14,55.519l53.419-43.691
				c7.525-6.141,18.477-5.588,25.344,1.28S505.324,30.927,499.182,38.452z"/>
			<path style="fill:#CFD8DC;" d="M334.404,273.46l-12.117,12.117l-6.571,12.117l-110.933-102.4l3.157-2.731l11.435-9.899
				l12.117-12.117c6.674-6.656,17.475-6.656,24.149,0l66.389,66.389l12.373,12.373C341.059,255.985,341.059,266.786,334.404,273.46
				L334.404,273.46z"/>
		</g>
		<path style="fill:#607D8B;" d="M499.182,38.452l-43.691,53.419L419.14,55.519l53.419-43.691c7.525-6.141,18.477-5.588,25.344,1.28
			S505.324,30.927,499.182,38.452L499.182,38.452z"/>
		<path style="fill:#FF9801;" d="M327.492,334.985c-15.701,10.069-32,19.456-42.581,35.243
			c-9.984,14.848-16.043,31.659-26.965,45.995c-12.28,15.962-25.531,31.152-39.68,45.483
			c-13.966,15.987-31.269,28.716-50.688,37.291c-33.621,12.288-60.245-10.24-84.48-30.635c-1.195-1.024-21.419-19.029-21.163-19.285
			c-0.512,0-18.261-19.968-19.285-21.163c-5.717-6.741-11.605-13.739-16.725-20.992c-0.171-0.171-0.256-0.341-0.341-0.427
			l-0.171-0.171c-13.227-18.517-22.187-38.912-13.397-62.891c8.575-19.419,21.304-36.722,37.291-50.688
			c14.331-14.149,29.521-27.4,45.483-39.68c14.336-10.923,31.147-16.981,45.995-26.965c15.787-10.581,25.173-26.88,35.243-42.581
			c4.199-6.559,11.142-10.865,18.884-11.71c7.742-0.846,15.451,1.86,20.967,7.358l57.941,58.027l47.445,47.36l10.581,10.581
			c5.498,5.516,8.204,13.224,7.358,20.967C338.356,323.843,334.051,330.786,327.492,334.985z"/>
		<path style="fill:#FDD834;" d="M310.169,346.164v0.085c-9.881,6.298-18.456,14.439-25.259,23.979
			c-9.984,14.848-16.043,31.659-26.965,45.995c-12.28,15.962-25.531,31.152-39.68,45.483
			c-13.966,15.987-31.269,28.716-50.688,37.291c-33.621,12.288-60.245-10.24-84.48-30.635c-1.195-1.024-21.419-19.029-21.163-19.285
			c-0.256,0.256-18.261-19.968-19.285-21.163c-5.717-6.741-11.52-13.739-16.725-20.992c2.901,3.243,18.688,20.992,18.944,20.736
			c-0.256,0.256,19.968,18.261,21.163,19.285c24.235,20.395,50.859,42.923,84.48,30.635c19.419-8.574,36.722-21.304,50.688-37.291
			c14.149-14.331,27.4-29.521,39.68-45.483c10.923-14.336,16.981-31.147,26.965-45.995c5.642-8.075,12.661-15.094,20.736-20.736
			c3.552,1.283,6.783,3.321,9.472,5.973L310.169,346.164z"/>
		<path style="fill:#F4F4F4;" d="M317.337,252.041l-12.117,12.117l-6.571,12.117l-90.709-83.712l11.435-9.899l12.117-12.117
			c6.674-6.656,17.475-6.656,24.149,0l66.389,66.389C323.025,242.436,321.273,248.075,317.337,252.041L317.337,252.041z"/>
		<path style="fill:#FFB301;" d="M310.425,313.481c-15.701,10.155-32,19.541-42.581,35.243
			c-9.984,14.848-16.043,31.744-26.965,46.08c-12.259,15.952-25.512,31.114-39.68,45.397c-13.963,16.012-31.264,28.77-50.688,37.376
			c-33.621,12.288-60.245-10.325-84.48-30.72c-1.195-1.024-21.163-18.688-21.163-19.2c-0.512,0-16.128-17.579-18.944-20.736
			c-0.171-0.171-0.256-0.341-0.341-0.427l-0.171-0.171c-13.227-18.517-22.187-38.912-13.397-62.891
			c8.575-19.419,21.304-36.722,37.291-50.688c14.331-14.149,29.521-27.4,45.483-39.68c14.336-10.923,31.147-16.981,45.995-26.965
			c15.787-10.581,25.173-26.88,35.243-42.581c4.199-6.559,11.142-10.865,18.884-11.71c7.742-0.846,15.451,1.86,20.967,7.358
			l57.941,58.027l47.445,47.36C324.504,295.534,320.084,307.334,310.425,313.481z"/>
		<path style="fill:#FFEB3A;" d="M288.58,328.073c-8.075,5.642-15.094,12.661-20.736,20.736
			c-9.984,14.848-16.043,31.659-26.965,45.995c-12.28,15.962-25.531,31.151-39.68,45.483
			c-13.966,15.987-31.269,28.716-50.688,37.291c-33.621,12.288-60.245-10.24-84.48-30.635c-1.195-1.024-21.419-19.029-21.163-19.285
			c-0.256,0.256-16.043-17.493-18.944-20.736c-0.171-0.171-0.256-0.341-0.341-0.427l-0.171-0.171
			c-13.227-18.517-22.187-38.912-13.397-62.891c8.575-19.419,21.304-36.722,37.291-50.688c14.331-14.149,29.521-27.4,45.483-39.68
			c14.336-10.923,31.147-16.981,45.995-26.965c9.54-6.803,17.681-15.378,23.979-25.259h0.085l1.451,1.451v0.085l10.667,10.581
			c9.984,10.061,9.984,26.291,0,36.352l-10.667,10.582c-4.806,4.841-11.355,7.546-18.176,7.509
			c-8.683,0.015-17.004,3.484-23.125,9.643l-20.736,20.651l-36.267,36.352c-4.848,4.808-7.581,11.348-7.595,18.176
			c0,0.939,0.085,1.877,0.171,2.816c0.627,5.824,3.25,11.251,7.424,15.36c10.027,9.984,26.239,9.984,36.267,0l96.939-96.853
			l18.176-18.176c6.551-6.612,17.202-6.726,23.893-0.256c0.085,0,0.256,0.171,0.341,0.256l12.032,12.032
			c3.236,3.202,5.056,7.565,5.056,12.117c0,4.552-1.821,8.915-5.056,12.117l-18.176,18.176l-96.853,96.939
			c-4.789,4.805-7.487,11.307-7.509,18.091c0,0.939,0.085,1.877,0.171,2.816c1.062,9.829,7.676,18.174,17.003,21.453
			c9.327,3.279,19.708,0.909,26.688-6.093l36.352-36.267l20.651-20.736c6.158-6.122,9.628-14.442,9.643-23.125
			c-0.037-6.821,2.669-13.37,7.509-18.176l10.581-10.667C268.754,327.031,279.218,324.705,288.58,328.073z"/>
	</g>
	<g>
		<path d="M148.616,513.011c-28,0-51.212-19.513-70.625-35.829c-7.806-6.162-15.182-12.852-22.075-20.021
			c-7.09-6.783-13.695-14.055-19.767-21.762C15.441,410.765-9.934,380.582,3.991,342.54c8.946-20.637,22.382-39.019,39.329-53.808
			c14.553-14.449,30.012-27.956,46.283-40.438c8.402-6.105,17.326-11.459,26.667-16c6.801-3.382,13.409-7.14,19.792-11.258
			c12.339-9.686,22.535-21.825,29.946-35.65l2.863-4.496c5.593-8.727,14.838-14.45,25.143-15.565
			c10.305-1.115,20.56,2.499,27.89,9.827l115.954,115.954c7.328,7.33,10.942,17.585,9.827,27.89
			c-1.115,10.305-6.838,19.55-15.565,25.143l-4.496,2.863c-13.825,7.411-25.964,17.607-35.65,29.946
			c-4.118,6.383-7.877,12.99-11.258,19.792c-4.541,9.341-9.895,18.264-16,26.667l0,0c-12.482,16.271-25.989,31.731-40.438,46.283
			c-14.79,16.948-33.174,30.384-53.812,39.329C163.476,511.632,156.078,512.983,148.616,513.011L148.616,513.011z M68.562,445.778
			c2.675,2.642,18.167,16.442,20.037,18.029c23.421,19.679,47.237,39.704,76.004,29.188c18.129-6.629,32.267-19.925,47.567-35.329
			c13.936-14.037,26.964-28.948,39.004-44.642l0,0c5.497-7.624,10.318-15.713,14.408-24.175c3.673-7.365,7.757-14.518,12.233-21.425
			c10.946-14.346,24.802-26.215,40.658-34.829l4.429-2.821c4.378-2.804,7.25-7.44,7.811-12.609
			c0.561-5.168-1.249-10.313-4.923-13.991L209.837,187.22c-3.678-3.674-8.823-5.484-13.991-4.923
			c-5.169,0.561-9.805,3.433-12.609,7.811l-2.821,4.429c-8.614,15.856-20.483,29.712-34.829,40.659
			c-6.907,4.476-14.06,8.56-21.425,12.233c-8.462,4.09-16.551,8.911-24.175,14.408c-15.694,12.04-30.604,25.068-44.642,39.004
			c-15.404,15.3-28.7,29.438-35.329,47.562c-10.525,28.763,9.508,52.592,28.879,75.638c1.883,2.229,15.696,17.733,18.338,20.408
			C67.722,444.843,68.167,445.289,68.562,445.778L68.562,445.778z"/>
		<path d="M322.291,296.145c-2.264,0.003-4.435-0.897-6.033-2.5L213.312,190.698c-1.601-1.6-2.5-3.77-2.5-6.033
			s0.899-4.433,2.5-6.033l12.112-12.112c10.153-9.7,26.139-9.7,36.292,0l78.721,78.721h0.004
			c10.001,10.031,9.999,26.263-0.004,36.292l-12.112,12.113C326.726,295.247,324.554,296.147,322.291,296.145L322.291,296.145z
			 M231.412,184.665l90.879,90.879l6.079-6.079c3.351-3.361,3.349-8.8-0.004-12.158l-78.721-78.721c-3.398-3.25-8.752-3.25-12.15,0
			L231.412,184.665z"/>
		<path d="M158.787,461.099c-13.843,0.009-26.327-8.326-31.625-21.114c-5.299-12.789-2.368-27.51,7.425-37.294l115.058-115.058
			c1.614-1.61,2.521-3.796,2.521-6.075s-0.907-4.465-2.521-6.075l-12.112-12.117c-3.398-3.25-8.752-3.25-12.15,0L110.32,378.424
			c-13.365,13.365-35.035,13.365-48.4,0c-13.365-13.365-13.365-35.035,0-48.4l57.009-57.013c7.733-7.773,18.253-12.129,29.217-12.1
			c4.553,0.013,8.923-1.797,12.133-5.025l10.642-10.646c6.687-6.707,6.687-17.56,0-24.267l-12.109-12.107
			c-3.332-3.332-3.332-8.735,0-12.067c3.332-3.332,8.735-3.332,12.067,0l12.108,12.108c13.346,13.373,13.346,35.027,0,48.4
			l-10.642,10.646c-6.403,6.441-15.118,10.051-24.2,10.025c-6.436-0.017-12.612,2.541-17.15,7.104L73.987,342.09
			c-6.701,6.701-6.701,17.566,0,24.267c6.701,6.701,17.566,6.701,24.267,0l115.058-115.058c10.153-9.7,26.139-9.7,36.292,0
			l12.108,12.112c4.815,4.811,7.521,11.339,7.521,18.146c0,6.807-2.706,13.335-7.521,18.146L146.653,414.757
			c-6.701,6.701-6.701,17.566,0,24.267c6.701,6.701,17.566,6.701,24.267,0l57.012-57.008c4.561-4.54,7.117-10.715,7.1-17.15
			c-0.026-9.082,3.584-17.797,10.025-24.2l10.646-10.642c13.372-13.35,35.028-13.35,48.4,0l12.108,12.108
			c3.332,3.332,3.332,8.735,0,12.067s-8.735,3.332-12.067,0l-12.108-12.108c-6.705-6.692-17.562-6.692-24.267,0l-10.646,10.642
			c-3.228,3.211-5.038,7.58-5.025,12.133c0.029,10.963-4.326,21.482-12.096,29.216l-57.017,57.009
			C176.572,457.512,167.863,461.114,158.787,461.099L158.787,461.099z"/>
		<path d="M455.516,102.361c-2.263,0-4.433-0.9-6.033-2.5l-36.333-36.333c-1.704-1.705-2.608-4.051-2.488-6.458
			c0.12-2.407,1.252-4.652,3.117-6.179l53.354-43.654c10.907-8.969,26.844-8.177,36.808,1.829l0.004,0.004
			c10.01,9.962,10.802,25.903,1.829,36.808L462.12,99.232c-1.525,1.867-3.771,3-6.179,3.117
			C455.799,102.357,455.657,102.361,455.516,102.361z M431.882,58.128l23,23l37.683-46.058c3.384-4.132,3.086-10.157-0.691-13.934
			s-9.802-4.076-13.934-0.691L431.882,58.128z"/>
		<path d="M316.236,241.64c-2.264,0.003-4.435-0.897-6.033-2.5l-36.333-36.333c-1.601-1.6-2.5-3.77-2.5-6.033
			c0-2.263,0.899-4.433,2.5-6.033L413.149,51.461c1.6-1.601,3.77-2.5,6.033-2.5s4.433,0.899,6.033,2.5l36.333,36.334
			c1.601,1.6,2.5,3.77,2.5,6.033c0,2.263-0.899,4.433-2.5,6.033L322.27,239.14C320.672,240.743,318.5,241.643,316.236,241.64z
			 M291.97,196.774l24.266,24.266L443.449,93.828l-24.267-24.267L291.97,196.774z"/>
		<path d="M437.349,84.195c-3.451-0.001-6.562-2.08-7.882-5.268c-1.32-3.188-0.591-6.858,1.849-9.298l12.112-12.112
			c3.332-3.332,8.735-3.332,12.067,0c3.332,3.332,3.332,8.735,0,12.067l-12.113,12.112
			C441.784,83.298,439.613,84.197,437.349,84.195L437.349,84.195z"/>
	</g>
</g>
<g>
</g>
<g>
</g>
<g>
</g>
<g>
</g>
<g>
</g>
<g>
</g>
<g>
</g>
<g>
</g>
<g>
</g>
<g>
</g>
<g>
</g>
<g>
</g>
<g>
</g>
<g>
</g>
<g>
</g>
</svg>
