<?xml version="1.0" encoding="iso-8859-1"?>
<!-- Generator: Adobe Illustrator 19.0.0, SVG Export Plug-In . SVG Version: 6.00 Build 0)  -->
<svg version="1.1" id="Capa_1" xmlns="http://www.w3.org/2000/svg" xmlns:xlink="http://www.w3.org/1999/xlink" x="0px" y="0px"
	 viewBox="0 0 511.952 511.952" style="enable-background:new 0 0 511.952 511.952;" xml:space="preserve">
<g>
	<g transform="translate(1 1)">
		<path style="fill:#F5F5F5;" d="M336.339,105.972l-3.412-57.766c-0.63-10.458,3.252-20.685,10.664-28.091
			C355.118,8.58,372.173,4.546,387.647,9.696l41.984,13.954c5.173,1.752,9.077,6.047,10.329,11.363
			c1.252,5.316-0.326,10.902-4.174,14.778c-3.917,3.927-9.612,5.502-14.99,4.144l-30.65-7.617
			c-5.858-1.465-12.055,0.246-16.331,4.51l-4.997,4.997c-3.993,4.037-5.767,9.768-4.753,15.355l6.093,32.661L336.339,105.972z"/>
		<g>
			<path style="fill:#CFD8DC;" d="M373.273,282.937L161.305,494.82c-6.516,6.567-16.046,9.147-24.984,6.764
				c-8.938-2.383-15.92-9.364-18.303-18.303s0.198-18.469,6.764-24.984l202.923-203.008c10.478-10.388,15.98-24.781,15.104-39.509
				l-0.768-12.459l41.643-7.68l3.584-0.683l5.035,26.539C396.453,243.861,389.337,266.835,373.273,282.937z"/>
			<path style="fill:#CFD8DC;" d="M314.991,122.681l-8.363,45.227l-12.459-0.768c-14.728-0.876-29.121,4.626-39.509,15.104
				L51.652,385.167c-4.827,4.874-11.402,7.616-18.261,7.616s-13.435-2.742-18.261-7.616c-4.884-4.818-7.622-11.401-7.595-18.261
				c0.016-1.981,0.245-3.955,0.683-5.888c1.062-4.705,3.462-9.002,6.912-12.373l211.883-211.968
				c16.103-16.064,39.077-23.179,61.44-19.029l13.739,2.645L314.991,122.681z"/>
		</g>
		<g>
			<path style="fill:#F5F5F5;" d="M364.74,257.337L152.772,469.22c-4.818,4.884-11.401,7.622-18.261,7.595
				c-6.109,0.041-12.023-2.143-16.64-6.144c1.081-4.697,3.479-8.99,6.912-12.373l202.923-203.008
				c10.478-10.388,15.98-24.781,15.104-39.509l-0.768-12.459l41.643-7.68l0.085,0.256
				C387.92,218.261,380.804,241.235,364.74,257.337z"/>
			<path style="fill:#F5F5F5;" d="M302.191,120.292l-4.096,22.016l-12.459-0.768c-14.728-0.876-29.121,4.626-39.509,15.104
				L43.119,359.567c-9.446,9.577-24.693,10.211-34.901,1.451c1.062-4.705,3.462-9.002,6.912-12.373l211.883-211.968
				c16.103-16.064,39.077-23.179,61.44-19.029L302.191,120.292z"/>
			<path style="fill:#F5F5F5;" d="M406.11,139.791l32.661,6.093c5.587,1.014,11.318-0.76,15.355-4.753l4.997-4.997
				c4.263-4.276,5.975-10.473,4.51-16.33l-7.617-30.65c-1.73-6.893,1.365-14.092,7.557-17.579c6.192-3.487,13.952-2.402,18.95,2.651
				c1.707,1.717,2.999,3.801,3.778,6.093l13.954,41.984c5.15,15.473,1.116,32.528-10.419,44.056
				c-7.406,7.411-17.633,11.293-28.091,10.664l-57.766-3.412L406.11,139.791z"/>
		</g>
		<path style="fill:#607D8B;" d="M392.887,190.184c-1.724,1.748-3.6,3.338-5.606,4.753c-20.545,15.481-49.354,13.466-67.544-4.724
			c-18.19-18.19-20.205-46.999-4.724-67.544c1.415-2.006,3.005-3.882,4.753-5.606c20.192-20.192,52.93-20.192,73.122,0
			C413.079,137.255,413.079,169.993,392.887,190.184L392.887,190.184z"/>
		<path style="fill:#CFD8DC;" d="M377.387,171.55c-1.723,1.742-3.566,3.36-5.517,4.842c-11.443,9.747-26.478,14.194-41.382,12.241
			c-14.461-2.274-25.804-13.617-28.079-28.078c-1.953-14.904,2.495-29.938,12.241-41.382c1.482-1.951,3.1-3.794,4.842-5.517
			c4.686-4.707,10.087-8.643,16.003-11.661c9.334-5.019,20.027-6.923,30.52-5.432c14.767,2.093,26.372,13.698,28.465,28.465
			c1.49,10.492-0.413,21.186-5.432,30.519C386.03,161.463,382.095,166.865,377.387,171.55z"/>
		<path style="fill:#607D8B;" d="M344.139,165.81c-2.066-2.023-3.573-4.547-4.374-7.325c-1.479-5.147-0.473-10.69,2.719-14.99
			l0.875-1.208c0.237-0.303,0.498-0.588,0.78-0.851c1.537-1.545,3.363-2.772,5.373-3.612c3.601-1.54,7.618-1.815,11.396-0.78
			c2.882,0.757,5.509,2.273,7.605,4.392c2.062,2.024,3.552,4.557,4.32,7.343c1.097,3.784,0.872,7.828-0.637,11.467
			c-0.842,2.083-2.095,3.975-3.683,5.564c-0.265,0.283-0.552,0.546-0.857,0.785l-1.202,0.869c-4.307,3.197-9.861,4.199-15.014,2.708
			C348.67,169.374,346.154,167.872,344.139,165.81L344.139,165.81z"/>
		<g>
			<path style="fill:#C52828;" d="M307.567,348.644L161.305,494.82c-4.834,4.861-11.406,7.595-18.261,7.595
				c-6.855,0-13.428-2.733-18.261-7.595c-2.632-2.522-4.647-5.617-5.888-9.045c-3.692-9.514-1.378-20.312,5.888-27.477
				l145.579-145.493l0.683-0.683L307.567,348.644z"/>
			<path style="fill:#C52828;" d="M197.913,238.905l-0.683,0.768L51.652,385.167c-4.827,4.874-11.402,7.616-18.261,7.616
				s-13.435-2.742-18.261-7.616c-2.632-2.522-4.647-5.617-5.888-9.045c-1.149-2.936-1.728-6.064-1.707-9.216
				c-0.027-6.861,2.71-13.443,7.595-18.261l145.493-145.579l0.683-0.683L197.913,238.905z"/>
		</g>
		<g>
			<path style="fill:#F44335;" d="M290.5,332.943L144.239,479.119c-4.818,4.884-11.401,7.622-18.261,7.595
				c-2.391-0.013-4.771-0.328-7.083-0.939c-3.692-9.514-1.378-20.312,5.888-27.477l145.579-145.493L290.5,332.943z"/>
			<path style="fill:#F44335;" d="M180.847,223.204L34.585,369.465c-6.607,6.665-16.314,9.215-25.344,6.656
				c-1.149-2.936-1.728-6.064-1.707-9.216c-0.027-6.861,2.71-13.443,7.595-18.261l145.493-145.579L180.847,223.204z"/>
		</g>
		<g>
			<path style="fill:#607D8B;" d="M435.823,49.807c-3.941,3.906-9.641,5.461-15.019,4.096l-30.635-7.595
				c-5.493-1.371-11.309,0.067-15.531,3.84v-0.085l-30.464-30.464C355.656,8.424,372.42,4.604,387.609,9.7l41.984,13.909
				c2.329,0.762,4.438,2.08,6.144,3.84C441.908,33.611,441.946,43.598,435.823,49.807L435.823,49.807z"/>
			<path style="fill:#607D8B;" d="M490.351,165.775l-30.464-30.464h-0.085c3.773-4.222,5.211-10.037,3.84-15.531l-7.595-30.635
				c-1.771-6.891,1.305-14.112,7.501-17.61s13.968-2.4,18.953,2.676c1.76,1.706,3.078,3.814,3.84,6.144l13.909,41.984
				C505.346,137.529,501.525,154.293,490.351,165.775L490.351,165.775z"/>
		</g>
	</g>
	<g>
		<path d="M337.343,115.506c-4.517-0.004-8.249-3.525-8.516-8.033l-3.417-57.767c-0.754-12.889,4.03-25.486,13.15-34.625
			c13.853-13.758,34.254-18.579,52.8-12.475l41.958,13.942c7.98,2.687,14.007,9.303,15.94,17.498s-0.502,16.807-6.44,22.777
			c-6.02,6.074-14.807,8.503-23.092,6.383l-30.642-7.608c-2.95-0.736-6.071,0.12-8.233,2.258l-5,5
			c-2.023,2.08-2.909,5.014-2.375,7.867l6.075,32.55c0.541,2.897-0.452,5.868-2.625,7.859c-2.174,1.99-5.22,2.718-8.059,1.925
			c-9.34-2.585-19.277-1.957-28.217,1.783C339.604,115.28,338.479,115.507,337.343,115.506L337.343,115.506z M375.151,17.04
			c-9.189-0.002-18.006,3.632-24.525,10.108c-5.678,5.693-8.655,13.54-8.183,21.567l2.775,46.942
			c5.041-1.034,10.195-1.418,15.334-1.142l-3.875-20.767c-1.51-8.354,1.142-16.919,7.108-22.958l5-5
			c6.401-6.366,15.662-8.928,24.425-6.758l30.642,7.617c3.172,0.809,6.492-0.613,8.095-3.467c1.603-2.854,1.089-6.429-1.253-8.716
			c-0.818-0.804-1.81-1.408-2.9-1.766l-41.842-13.9C382.471,17.63,378.823,17.036,375.151,17.04z"/>
		<path d="M144.051,511.948c-13.906,0.005-26.446-8.369-31.768-21.217c-5.322-12.848-2.377-27.637,7.46-37.466L322.718,250.29
			c8.701-8.716,13.273-20.729,12.567-33.025l-0.733-12.417c-0.164-2.758,1.018-5.424,3.172-7.154c2.154-1.73,5.012-2.309,7.67-1.554
			c12.984,3.678,26.94,1.09,37.742-7c2.355-1.785,5.466-2.224,8.223-1.159c2.757,1.064,4.766,3.48,5.31,6.384l4.992,26.567
			c4.727,25.127-3.268,50.966-21.358,69.033l0,0L168.368,501.89C161.93,508.354,153.175,511.976,144.051,511.948L144.051,511.948z
			 M352.226,214.631l0.092,1.642c0.99,17.158-5.388,33.923-17.533,46.084L131.81,465.331c-3.259,3.242-5.092,7.649-5.092,12.246
			c0,4.597,1.832,9.004,5.092,12.246c6.863,6.517,17.628,6.517,24.492,0l211.933-211.925c14.103-14.085,20.338-34.227,16.658-53.817
			l-2.75-14.625C372.769,213.683,362.476,215.464,352.226,214.631z"/>
		<path d="M34.368,402.265c-13.901-0.007-26.43-8.382-31.75-21.225c-5.32-12.842-2.383-27.625,7.441-37.459l211.925-211.933
			c18.06-18.103,43.906-26.099,69.033-21.358l26.567,4.992c2.904,0.545,5.32,2.554,6.384,5.31c1.064,2.757,0.626,5.868-1.159,8.223
			c-8.088,10.802-10.676,24.758-7,37.742c0.755,2.657,0.176,5.516-1.554,7.67c-1.73,2.154-4.396,3.336-7.154,3.172l-12.425-0.733
			c-12.286-0.659-24.278,3.906-33.017,12.567L58.685,392.206C52.24,398.66,43.489,402.279,34.368,402.265L34.368,402.265z
			 M276.718,126.015c-16.007,0.007-31.355,6.374-42.667,17.7L22.126,355.648c-6.744,6.771-6.744,17.721,0,24.492
			c6.845,6.563,17.647,6.563,24.492,0l202.975-202.975c12.156-12.147,28.919-18.526,46.075-17.533l1.65,0.092
			c-0.833-10.249,0.948-20.543,5.175-29.917l-14.625-2.75C284.191,126.367,280.459,126.018,276.718,126.015L276.718,126.015z"/>
		<path d="M464.876,186.615c-0.875,0-1.75-0.025-2.625-0.075l-57.775-3.417c-2.764-0.163-5.277-1.657-6.741-4.008
			c-1.464-2.35-1.697-5.264-0.626-7.817c3.744-8.939,4.372-18.877,1.783-28.217c-0.793-2.838-0.066-5.885,1.925-8.059
			s4.961-3.166,7.858-2.625l32.658,6.092c2.822,0.521,5.72-0.372,7.758-2.392l5-5c2.137-2.159,2.993-5.277,2.258-8.225
			l-7.617-30.658c-2.112-8.283,0.32-17.066,6.391-23.083c5.95-5.92,14.529-8.361,22.704-6.459
			c8.175,1.902,14.796,7.879,17.521,15.817l14,42.125c6.101,18.539,1.277,38.934-12.483,52.775
			C488.377,181.861,476.871,186.618,464.876,186.615L464.876,186.615z M416.293,166.731l46.95,2.775
			c8.029,0.5,15.884-2.482,21.558-8.183c9.211-9.254,12.441-22.898,8.358-35.3l-13.959-42.008c-1.239-3.694-5.175-5.749-8.915-4.654
			c-3.739,1.096-5.944,4.95-4.994,8.729l7.625,30.658c2.162,8.761-0.399,18.015-6.758,24.417l-5,5
			c-6.017,5.929-14.529,8.584-22.85,7.125l-20.875-3.892C417.71,156.537,417.326,161.69,416.293,166.731z"/>
		<path d="M357.21,214.831c-22.801,0.003-43.641-12.894-53.811-33.302s-7.919-44.812,5.811-63.015
			c1.646-2.321,3.495-4.49,5.525-6.483c5.531-5.546,12.105-9.944,19.342-12.942c12.477-5.217,26.345-6.086,39.375-2.467
			c20.385,5.612,36.304,21.55,41.892,41.941c3.605,13.026,2.724,26.885-2.5,39.35c-2.996,7.221-7.388,13.78-12.925,19.3
			c-2.076,2.105-4.335,4.021-6.75,5.725C382.791,210.702,370.169,214.877,357.21,214.831L357.21,214.831z M357.326,111.49
			c-5.726-0.005-11.395,1.134-16.675,3.35c-5.184,2.139-9.891,5.286-13.85,9.259c-1.393,1.368-2.662,2.857-3.792,4.45
			c-8.218,10.844-10.883,24.91-7.2,38.008c4.144,14.277,15.306,25.44,29.583,29.583c12.984,3.678,26.94,1.09,37.742-7
			c1.688-1.188,3.266-2.524,4.717-3.992c3.963-3.947,7.104-8.64,9.242-13.808c3.757-8.95,4.391-18.904,1.8-28.258
			c-4.015-14.575-15.39-25.969-29.958-30.008C365.155,112.022,361.25,111.489,357.326,111.49L357.326,111.49z"/>
		<path d="M357.26,180.373c-2.418,0-4.824-0.333-7.15-0.992c-4.169-1.187-7.959-3.436-11-6.525l-0.017-0.017
			c-3.102-3.057-5.356-6.868-6.542-11.058c-2.202-7.716-0.673-16.017,4.133-22.442l0.767-1.058c0.47-0.641,0.994-1.24,1.567-1.792
			c2.342-2.373,5.132-4.256,8.208-5.542c5.366-2.295,11.355-2.689,16.975-1.117c4.294,1.153,8.207,3.421,11.342,6.575
			c3.117,3.072,5.368,6.912,6.525,11.133c1.614,5.628,1.255,11.638-1.016,17.034c-1.26,3.101-3.134,5.916-5.508,8.275
			c-0.574,0.594-1.192,1.143-1.85,1.642l-1.267,0.908C368.047,178.662,362.722,180.409,357.26,180.373L357.26,180.373z
			 M351.168,160.781c0.983,1.019,2.211,1.767,3.567,2.175c2.583,0.772,5.378,0.295,7.558-1.292l1.392-1
			c0.679-0.793,1.225-1.691,1.617-2.658c0.782-1.886,0.891-3.984,0.308-5.942c-0.377-1.366-1.114-2.607-2.133-3.592
			c-1.042-1.065-2.356-1.823-3.8-2.192c-1.945-0.537-4.015-0.393-5.867,0.408c-0.988,0.417-1.885,1.023-2.642,1.783l-0.775,1.033
			c-1.635,2.188-2.159,5.013-1.417,7.642C349.375,158.531,350.131,159.784,351.168,160.781L351.168,160.781z"/>
		<path d="M375.61,59.565c-2.264,0.003-4.435-0.897-6.033-2.5l-30.475-30.467c-3.296-3.338-3.279-8.711,0.038-12.029
			s8.691-3.334,12.029-0.038l30.475,30.467c2.44,2.44,3.169,6.11,1.849,9.298C382.172,57.485,379.061,59.564,375.61,59.565
			L375.61,59.565z"/>
		<path d="M491.385,175.348c-2.264,0.003-4.435-0.897-6.033-2.5l-30.467-30.475c-2.155-2.155-2.997-5.297-2.208-8.242
			c0.789-2.944,3.089-5.244,6.033-6.033c2.944-0.789,6.086,0.053,8.242,2.208l30.466,30.475c2.44,2.44,3.169,6.11,1.849,9.298
			C497.946,173.268,494.836,175.347,491.385,175.348L491.385,175.348z"/>
		<path d="M198.893,248.464c-2.264,0.003-4.435-0.897-6.033-2.5l-36.559-36.558c-3.332-3.332-3.332-8.735,0-12.067
			c3.332-3.332,8.735-3.332,12.067,0l36.558,36.558c2.44,2.44,3.169,6.11,1.849,9.298
			C205.455,246.384,202.344,248.463,198.893,248.464L198.893,248.464z"/>
		<path d="M308.576,358.148c-2.264,0.003-4.435-0.897-6.033-2.5l-36.558-36.558c-2.174-2.152-3.029-5.302-2.243-8.258
			c0.787-2.956,3.095-5.264,6.051-6.051c2.956-0.787,6.106,0.069,8.258,2.243l36.558,36.558c2.44,2.44,3.169,6.11,1.849,9.298
			C315.138,356.068,312.028,358.147,308.576,358.148L308.576,358.148z"/>
	</g>
</g>
<g>
</g>
<g>
</g>
<g>
</g>
<g>
</g>
<g>
</g>
<g>
</g>
<g>
</g>
<g>
</g>
<g>
</g>
<g>
</g>
<g>
</g>
<g>
</g>
<g>
</g>
<g>
</g>
<g>
</g>
</svg>
