<?xml version="1.0" encoding="iso-8859-1"?>
<!-- Generator: Adobe Illustrator 19.0.0, SVG Export Plug-In . SVG Version: 6.00 Build 0)  -->
<svg version="1.1" id="Capa_1" xmlns="http://www.w3.org/2000/svg" xmlns:xlink="http://www.w3.org/1999/xlink" x="0px" y="0px"
	 viewBox="0 0 511.975 511.975" style="enable-background:new 0 0 511.975 511.975;" xml:space="preserve">
<g>
	<g transform="translate(1)">
		<path style="fill:#CFD8DC;" d="M501.443,31.373l-7.424,22.272l-24.406,24.491c-2.048,1.963-13.481,12.971-15.956,14.421
			l-27.051,16.213L164.717,370.573l-24.404-24.405L402.2,84.365l-0.085-0.085l16.213-27.051
			c1.451-2.475,12.459-13.909,14.422-15.957l24.49-24.405l22.273-7.424c3.444-1.205,7.186-1.265,10.667-0.171
			c5.425,1.756,9.677,6.01,11.433,11.435v0.085C502.665,24.25,502.606,27.951,501.443,31.373z"/>
		<path style="fill:#E91E63;" d="M203.712,343.727l-36.523-36.523l49.15-49.15c3.332-3.332,8.736-3.332,12.068,0l24.455,24.455
			c3.332,3.332,3.332,8.736,0,12.068L203.712,343.727z"/>
		<path style="fill:#C52828;" d="M214.467,348.557c-3.874,1.797-7.513,4.061-10.837,6.741c-8.664,7.746-15.138,17.634-18.773,28.672
			c-3.495,9.698-6.094,19.695-7.765,29.867c-3.153,22.971-13.979,44.202-30.72,60.245c-11.29,11.42-24.913,20.268-39.936,25.941
			c-18.172,6.249-38.214,3.728-54.272-6.827c-4.387-2.75-8.452-5.985-12.117-9.643L27.331,470.84
			c-3.658-3.665-6.892-7.73-9.643-12.117c-0.42-0.595-0.791-1.223-1.109-1.877c-9.625-15.738-11.721-34.951-5.717-52.395
			c5.673-15.023,14.521-28.646,25.941-39.936c8.947-8.993,19.329-16.434,30.72-22.016c9.4-4.232,19.333-7.161,29.525-8.704
			c10.172-1.671,20.169-4.27,29.867-7.765c11.038-3.635,20.926-10.109,28.672-18.773c2.68-3.324,4.944-6.964,6.741-10.837
			c2.681-4.94,7.594-8.271,13.176-8.933c5.582-0.662,11.137,1.428,14.899,5.605l12.544,12.544l14.848,14.848
			c4.177,3.762,6.266,9.317,5.605,14.899C222.738,340.963,219.407,345.876,214.467,348.557z"/>
		<path style="fill:#F44335;" d="M194.755,325.603c-3.874,1.797-7.513,4.061-10.837,6.741c-8.664,7.746-15.138,17.634-18.773,28.672
			c-3.495,9.697-6.094,19.695-7.765,29.867c-1.544,10.192-4.472,20.126-8.704,29.525c-5.582,11.391-13.023,21.773-22.016,30.72
			c-11.29,11.42-24.912,20.269-39.936,25.941c-18.172,6.249-38.214,3.728-54.272-6.827c-4.387-2.75-8.452-5.985-12.117-9.643
			l-3.755-3.755c-9.625-15.738-11.721-34.951-5.717-52.395c5.673-15.023,14.521-28.646,25.941-39.936
			c8.947-8.993,19.329-16.434,30.72-22.016c9.4-4.232,19.333-7.161,29.525-8.704c10.172-1.671,20.169-4.27,29.867-7.765
			c11.038-3.635,20.926-10.109,28.672-18.773c2.68-3.324,4.944-6.964,6.741-10.837c2.681-4.94,7.594-8.271,13.176-8.933
			c5.582-0.662,11.137,1.428,14.899,5.605l12.544,12.544C205.551,313.401,202.063,321.902,194.755,325.603L194.755,325.603z"/>
		<path style="fill:#E91E63;" d="M124.952,422.456l-72.789,70.741c-4.387-2.75-8.452-5.985-12.117-9.643L27.331,470.84
			c-3.658-3.665-6.892-7.73-9.643-12.117l70.741-72.789c6.516-6.567,16.046-9.147,24.984-6.764
			c8.938,2.383,15.92,9.364,18.303,18.303S131.519,415.94,124.952,422.456L124.952,422.456z"/>
	</g>
	<g>
		<path d="M88.332,511.975c-19.984-0.211-39.072-8.324-53.092-22.566l-12.767-12.763C2.133,457.055-5.102,427.499,3.89,400.729
			c6.111-16.321,15.7-31.117,28.1-43.362c9.691-9.785,20.974-17.852,33.367-23.858c10.16-4.635,20.912-7.843,31.95-9.533
			c9.749-1.589,19.335-4.053,28.642-7.362c9.725-3.159,18.453-8.809,25.317-16.388c2.23-2.852,4.117-5.955,5.625-9.246
			c3.493-7.199,10.288-12.233,18.192-13.479c8.762-1.386,17.655,1.533,23.892,7.842l27.567,27.571l0,0
			c6.312,6.234,9.232,15.129,7.842,23.892c-1.245,7.902-6.278,14.695-13.475,18.188c-3.29,1.507-6.392,3.395-9.242,5.625
			c-7.58,6.867-13.234,15.595-16.4,25.321c-3.303,9.309-5.763,18.896-7.35,28.646c-1.702,11.038-4.913,21.79-9.542,31.954
			c-6.007,12.39-14.075,23.669-23.858,33.358c-12.243,12.402-27.038,21.992-43.358,28.104
			C103.838,510.644,96.114,511.99,88.332,511.975L88.332,511.975z M179.44,294.208c-0.516,0-1.032,0.042-1.542,0.125
			c-2.455,0.359-4.577,1.903-5.675,4.129c-2.094,4.519-4.721,8.772-7.825,12.667c-8.767,9.895-19.985,17.307-32.525,21.492
			c-10.25,3.66-20.81,6.389-31.55,8.154c-9.52,1.43-18.798,4.161-27.575,8.117c-10.657,5.175-20.358,12.121-28.692,20.542
			c-10.637,10.482-18.871,23.149-24.134,37.125c-6.733,20.54-1.044,43.122,14.617,58.021l12.767,12.763
			c14.893,15.669,37.478,21.359,58.017,14.617c13.978-5.257,26.645-13.49,37.125-24.129c8.42-8.331,15.366-18.029,20.542-28.683
			c3.953-8.781,6.687-18.061,8.125-27.583c1.763-10.738,4.488-21.296,8.142-31.546c4.187-12.546,11.606-23.767,21.508-32.533
			c3.893-3.103,8.142-5.73,12.658-7.825c2.223-1.097,3.766-3.217,4.125-5.671c0.485-3.323-0.659-6.676-3.075-9.008l-27.567-27.567
			C184.939,295.4,182.255,294.248,179.44,294.208z"/>
		<path d="M225.132,332.108c-2.264,0.003-4.435-0.897-6.033-2.5l-36.817-36.821c-1.601-1.6-2.5-3.77-2.5-6.033
			s0.899-4.433,2.5-6.033l30.783-30.787c6.667-6.659,17.467-6.659,24.133,0l24.758,24.754c6.64,6.67,6.644,17.451,0.009,24.125
			l-30.8,30.796C229.567,331.211,227.396,332.111,225.132,332.108L225.132,332.108z M200.382,286.754l24.75,24.754l24.758-24.754
			L225.132,262l0,0l-0.009-0.009L200.382,286.754z"/>
		<path d="M255.815,289.15L255.815,289.15c-2.263,0-4.434-0.899-6.033-2.5l-24.542-24.55c-1.601-1.6-2.5-3.77-2.5-6.033
			c0-2.263,0.899-4.433,2.5-6.033L397.065,78.204c3.337-3.304,8.716-3.29,12.036,0.03c3.32,3.32,3.334,8.699,0.031,12.036
			L243.34,256.066l12.475,12.479l165.8-165.796c3.338-3.3,8.714-3.284,12.032,0.035c3.319,3.319,3.334,8.695,0.034,12.032
			L261.848,286.65C260.249,288.251,258.078,289.15,255.815,289.15z"/>
		<path d="M427.657,117.316c-3.837,0.004-7.205-2.554-8.231-6.251c-1.026-3.697,0.541-7.625,3.831-9.599l27.017-16.208
			c1.808-1.267,11.408-10.3,14.3-13.192l23-22.996l6.8-20.392c1.052-3.171,0.225-6.665-2.139-9.026s-5.858-3.187-9.028-2.132
			l-20.392,6.796l-23,22.996c-2.992,3.004-11.933,12.521-13.292,14.467l-16.108,26.85c-1.569,2.614-4.413,4.192-7.462,4.141
			c-3.048-0.052-5.837-1.726-7.317-4.392c-1.479-2.666-1.424-5.918,0.145-8.532l16.217-27.021
			c4.905-6.151,10.158-12.016,15.733-17.567l24.442-24.433c0.935-0.938,2.077-1.644,3.333-2.063l22.3-7.434
			c9.303-3.1,19.56-0.679,26.495,6.253c6.935,6.933,9.36,17.188,6.263,26.493l-7.442,22.304c-0.419,1.255-1.124,2.396-2.058,3.333
			L476.64,84.133c-5.557,5.578-11.424,10.838-17.575,15.754L432.04,116.1C430.717,116.896,429.201,117.316,427.657,117.316z"/>
		<path d="M54.84,502.404c-3.451-0.001-6.562-2.08-7.882-5.268c-1.32-3.188-0.591-6.858,1.849-9.298l72.1-72.108
			c3.291-3.278,5.142-7.732,5.142-12.377s-1.85-9.099-5.142-12.377c-6.917-6.633-17.833-6.633-24.75,0l-72.109,72.108
			c-3.332,3.332-8.735,3.332-12.067,0s-3.332-8.735,0-12.067l72.108-72.108c8.728-8.755,21.468-12.182,33.411-8.988
			s21.271,12.523,24.464,24.466c3.193,11.943-0.235,24.682-8.991,33.41l-72.1,72.108C59.275,501.507,57.104,502.407,54.84,502.404z"
			/>
		<path d="M446.057,74.362c-3.451-0.001-6.562-2.08-7.882-5.268c-1.32-3.188-0.591-6.858,1.849-9.298l48.975-48.971
			c3.337-3.3,8.713-3.285,12.032,0.034c3.319,3.319,3.334,8.694,0.035,12.032L452.09,71.862
			C450.492,73.465,448.32,74.365,446.057,74.362z"/>
	</g>
</g>
<g>
</g>
<g>
</g>
<g>
</g>
<g>
</g>
<g>
</g>
<g>
</g>
<g>
</g>
<g>
</g>
<g>
</g>
<g>
</g>
<g>
</g>
<g>
</g>
<g>
</g>
<g>
</g>
<g>
</g>
</svg>
