<?xml version="1.0" encoding="iso-8859-1"?>
<!-- Generator: Adobe Illustrator 19.0.0, SVG Export Plug-In . SVG Version: 6.00 Build 0)  -->
<svg version="1.1" id="Capa_1" xmlns="http://www.w3.org/2000/svg" xmlns:xlink="http://www.w3.org/1999/xlink" x="0px" y="0px"
	 viewBox="0 0 512.013 512.013" style="enable-background:new 0 0 512.013 512.013;" xml:space="preserve">
<g transform="translate(0 -1)">
	<g transform="translate(1 2)">
		<path style="fill:#1566C0;" d="M485.655,89.296l-26.795,14.421c-5.835,29.508-22.482,55.772-46.677,73.643l-84.309,60.16
			L86.465,478.928c-9.599,9.648-22.657,15.056-36.267,15.019c-1.112,0.028-2.225-0.029-3.328-0.171
			c20.32,13.659,47.469,11.012,64.768-6.315l241.408-241.408l84.309-60.16C491.628,143.653,485.655,89.296,485.655,89.296z"/>
		<path style="fill:#283593;" d="M436.929,186.747l-11.264-20.224l-18.944-34.133l60.928-32.768l17.579-9.472
			C485.228,90.149,491.201,144.507,436.929,186.747z"/>
		<path style="fill:#2296F3;" d="M466.54,9.851l-16.896-0.341l-80.896-1.792c-23.412-1.821-45.056,12.538-52.48,34.816
			l-37.547,112.555c-6.72,20.125-18.026,38.412-33.024,53.419L39.191,415.013c-9.628,9.596-15.04,22.63-15.04,36.224
			c0,13.594,5.412,26.628,15.04,36.224c2.338,2.361,4.911,4.477,7.68,6.315c1.103,0.142,2.216,0.199,3.328,0.171
			c13.609,0.037,26.668-5.371,36.267-15.019L327.873,237.52l84.309-60.16c24.195-17.871,40.842-44.135,46.677-73.643l-51.627,27.733
			l-9.387-16.981l-8.277-14.933c-6.817-12.397-2.313-27.972,10.069-34.816l70.229-38.571c3.625-1.644,5.631-5.576,4.835-9.476
			S470.519,9.942,466.54,9.851z M93.292,457.509c-6.674,6.656-17.476,6.656-24.149,0c-1.773-1.745-3.116-3.877-3.925-6.229
			c-2.309-6.227-0.775-13.228,3.925-17.92c0.863-0.89,1.839-1.665,2.901-2.304c7.341-4.693,17.039-3.101,22.495,3.691
			C99.995,441.54,99.458,451.353,93.292,457.509L93.292,457.509z"/>
		<path style="fill:#464F5D;" d="M407.233,131.451l-0.085,0.085"/>
		<g>
			<path style="fill:#3F51B5;" d="M467.649,99.621c-6.073,26.387-20.864,49.957-41.984,66.901l-18.944-34.133L467.649,99.621z"/>
			<path style="fill:#3F51B5;" d="M338.719,123.123l0.015-0.009c8.329-4.997,19.132-2.297,24.129,6.032l18.115,30.191
				c4.997,8.329,2.297,19.132-6.032,24.129l-0.015,0.009c-8.329,4.997-19.132,2.297-24.129-6.032l-18.115-30.191
				C327.69,138.923,330.39,128.12,338.719,123.123z"/>
			<path style="fill:#3F51B5;" d="M305.518,246.836L142.54,409.814c-6.665,6.665-17.471,6.665-24.136,0l0,0
				c-6.665-6.665-6.665-17.471,0-24.136L281.382,222.7c6.665-6.665,17.471-6.665,24.136,0l0,0
				C312.183,229.365,312.183,240.171,305.518,246.836z"/>
		</g>
	</g>
	<g>
		<path d="M76.382,513.013c-24.164-0.003-45.948-14.561-55.194-36.886s-4.134-48.022,12.953-65.109l206.55-206.554
			c14.042-14.069,24.633-31.2,30.942-50.05L309.14,41.867c8.61-26.052,33.906-42.85,61.258-40.679l97.3,2.125
			c8.002,0.068,14.843,5.777,16.341,13.637c1.689,7.682-2.189,15.505-9.325,18.813l-69.933,38.413
			c-3.976,2.184-6.919,5.86-8.181,10.217s-0.738,9.037,1.456,13.008l47.75,86.35c2.098,3.793,1.019,8.556-2.508,11.075
			l-83.742,59.763L118.632,495.513C107.451,506.756,92.237,513.057,76.382,513.013z M366.132,18.097
			c-18.482-0.131-34.951,11.641-40.809,29.17l-37.508,112.546c-7.149,21.361-19.148,40.775-35.058,56.721l-206.55,206.55
			c-10.793,10.78-15.012,26.5-11.067,41.236c3.945,14.735,15.454,26.245,30.189,30.191s30.456-0.272,41.237-11.064L347.99,242.022
			c0.333-0.333,0.693-0.638,1.075-0.912l78.125-55.758l-44.067-79.692c-4.388-7.939-5.437-17.297-2.915-26.01
			c2.522-8.713,8.407-16.064,16.357-20.432l70.175-38.546c0.192-0.104,0.383-0.2,0.575-0.288l0.142-0.079l-97.9-2.075
			C368.407,18.138,367.265,18.097,366.132,18.097z"/>
		<path d="M82.24,473c-12.208-0.01-22.71-8.641-25.083-20.617c-2.373-11.975,4.043-23.96,15.325-28.624s24.288-0.711,31.065,9.443
			c6.777,10.154,5.438,23.682-3.198,32.31C95.549,470.319,89.032,473.013,82.24,473z M82.24,438.876
			c-4.07,0.005-7.57,2.885-8.36,6.878s1.351,7.988,5.113,9.542c3.762,1.554,8.098,0.235,10.357-3.151
			c2.259-3.386,1.812-7.896-1.068-10.773C86.68,439.769,84.506,438.871,82.24,438.876L82.24,438.876z"/>
		<path d="M438.349,196.413c-3.646,0.001-6.891-2.313-8.076-5.761s-0.05-7.268,2.826-9.509
			c24.653-17.898,40.828-45.175,44.708-75.392l-65.592,35.321c-2.684,1.447-5.936,1.352-8.531-0.249
			c-2.595-1.601-4.139-4.465-4.05-7.512s1.797-5.817,4.481-7.264l78.458-42.25c2.497-1.347,5.501-1.365,8.014-0.047
			c2.513,1.317,4.207,3.798,4.52,6.618c0.267,2.408,5.908,59.579-51.525,104.25C442.086,195.781,440.244,196.413,438.349,196.413
			L438.349,196.413z"/>
		<path d="M366.923,196.517c-9.186,0.015-17.704-4.796-22.433-12.671l-18.116-30.2c-7.383-12.307-3.453-28.266,8.8-35.738
			l0.175-0.112c12.374-7.39,28.395-3.383,35.833,8.963l18.125,30.2c4.835,8.068,4.961,18.112,0.329,26.298
			C385.003,191.443,376.329,196.507,366.923,196.517L366.923,196.517z M344.232,132.372l-0.117,0.079
			c-2.062,1.23-3.549,3.231-4.133,5.561c-0.583,2.329-0.215,4.795,1.025,6.852l18.116,30.2c2.575,4.294,8.143,5.688,12.438,3.113
			c4.294-2.575,5.688-8.143,3.113-12.438l-18.125-30.2v-0.004C353.994,131.295,348.512,129.888,344.232,132.372L344.232,132.372z"/>
		<path d="M131.499,425.338c-10.355,0.005-19.693-6.231-23.656-15.798c-3.963-9.567-1.77-20.579,5.556-27.898l162.967-162.967
			c6.465-6.483,15.9-9.02,24.744-6.654c8.845,2.366,15.753,9.274,18.118,18.118c2.366,8.845-0.172,18.279-6.654,24.744
			L149.607,417.851C144.807,422.656,138.29,425.351,131.499,425.338z M294.465,228.251c-2.262-0.004-4.433,0.893-6.033,2.492
			L125.465,393.709c-2.441,2.443-3.17,6.115-1.847,9.305c1.322,3.19,4.436,5.27,7.889,5.27l0,0c2.264,0.004,4.436-0.896,6.033-2.5
			l162.967-162.966c2.443-2.441,3.173-6.114,1.85-9.304C301.034,230.324,297.919,228.246,294.465,228.251L294.465,228.251z"/>
	</g>
</g>
<g>
</g>
<g>
</g>
<g>
</g>
<g>
</g>
<g>
</g>
<g>
</g>
<g>
</g>
<g>
</g>
<g>
</g>
<g>
</g>
<g>
</g>
<g>
</g>
<g>
</g>
<g>
</g>
<g>
</g>
</svg>
