<?xml version="1.0" encoding="iso-8859-1"?>
<!-- Generator: Adobe Illustrator 19.0.0, SVG Export Plug-In . SVG Version: 6.00 Build 0)  -->
<svg version="1.1" id="Capa_1" xmlns="http://www.w3.org/2000/svg" xmlns:xlink="http://www.w3.org/1999/xlink" x="0px" y="0px"
	 viewBox="0 0 512 512" style="enable-background:new 0 0 512 512;" xml:space="preserve">
<g>
	<g transform="translate(1 1)">
		<path style="fill:#FDD834;" d="M417.133,7.533h-25.6c4.707,0.014,8.519,3.826,8.533,8.533v486.4h25.6v-486.4
			C425.653,11.36,421.84,7.547,417.133,7.533L417.133,7.533z"/>
		<path style="fill:#FFEB3A;" d="M391.533,7.533h-76.8c-4.707,0.014-8.519,3.826-8.533,8.533V383H92.867
			c-4.707,0.014-8.519,3.826-8.533,8.533v102.4c0.014,4.707,3.826,8.519,8.533,8.533h307.2v-486.4
			C400.053,11.36,396.24,7.547,391.533,7.533z M365.933,75.8c-9.426,0-17.067-7.641-17.067-17.067s7.641-17.067,17.067-17.067
			S383,49.308,383,58.733S375.359,75.8,365.933,75.8z"/>
		<path style="fill:#FEC108;" d="M425.667,502.467h-332.8c-4.707-0.014-8.519-3.826-8.533-8.533v-102.4
			c0.014-4.707,3.826-8.519,8.533-8.533H306.2L425.667,502.467z"/>
	</g>
	<g>
		<path d="M426.667,512h-332.8c-9.421-0.011-17.056-7.645-17.067-17.067v-102.4c0.011-9.421,7.645-17.056,17.067-17.067H307.2
			c4.713,0,8.533,3.821,8.533,8.533s-3.82,8.533-8.533,8.533H93.867v102.4h324.267V384c0-4.713,3.82-8.533,8.533-8.533
			s8.533,3.821,8.533,8.533v119.467c0.001,2.263-0.898,4.434-2.499,6.035C431.101,511.102,428.93,512.001,426.667,512L426.667,512z"
			/>
		<path d="M426.667,392.533c-2.263,0.001-4.434-0.898-6.035-2.499c-1.6-1.6-2.499-3.771-2.499-6.035V17.067h-102.4V384
			c0,4.713-3.82,8.533-8.533,8.533s-8.533-3.82-8.533-8.533V17.067C298.677,7.645,306.312,0.011,315.733,0h102.4
			c9.421,0.011,17.056,7.645,17.067,17.067V384c0.001,2.263-0.898,4.434-2.499,6.035
			C431.101,391.635,428.93,392.534,426.667,392.533z"/>
		<path d="M426.667,512c-2.264,0.003-4.435-0.897-6.033-2.5L301.167,390.033c-3.281-3.341-3.256-8.701,0.054-12.012
			c3.311-3.311,8.671-3.335,12.012-0.054L432.7,497.434c2.44,2.44,3.169,6.11,1.849,9.298
			C433.228,509.92,430.118,511.999,426.667,512z"/>
		<path d="M366.933,85.333c-14.138,0-25.6-11.462-25.6-25.6s11.462-25.6,25.6-25.6c14.138,0,25.6,11.462,25.6,25.6
			C392.518,73.865,381.065,85.318,366.933,85.333L366.933,85.333z M366.933,51.2c-4.713,0-8.533,3.821-8.533,8.533
			s3.82,8.533,8.533,8.533s8.533-3.821,8.533-8.533C375.462,55.022,371.644,51.205,366.933,51.2z"/>
		<path d="M256,435.2H119.467c-4.713,0-8.533-3.82-8.533-8.533s3.821-8.533,8.533-8.533H256c4.713,0,8.533,3.82,8.533,8.533
			S260.713,435.2,256,435.2z"/>
		<path d="M256,469.333H119.467c-4.713,0-8.533-3.82-8.533-8.533s3.821-8.533,8.533-8.533H256c4.713,0,8.533,3.82,8.533,8.533
			S260.713,469.333,256,469.333z"/>
		<path d="M298.667,443.733c-2.27,0.021-4.453-0.871-6.059-2.475c-0.754-0.831-1.361-1.783-1.796-2.817
			c-0.906-2.066-0.906-4.417,0-6.483c0.433-1.035,1.04-1.988,1.796-2.817c3.421-3.158,8.695-3.158,12.117,0
			c0.753,0.83,1.359,1.783,1.792,2.817c0.911,2.065,0.911,4.418,0,6.483c-0.435,1.033-1.041,1.985-1.792,2.817
			c-0.849,0.751-1.796,1.382-2.817,1.875C300.877,443.544,299.776,443.748,298.667,443.733z"/>
		<path d="M332.8,477.867c-1.116-0.013-2.219-0.245-3.246-0.683c-2.141-0.78-3.828-2.467-4.608-4.608
			c-0.436-1.026-0.667-2.127-0.68-3.242c0.014-2.263,0.901-4.433,2.475-6.059c3.421-3.158,8.695-3.158,12.117,0
			c0.367,0.403,0.708,0.829,1.021,1.275c0.324,0.477,0.583,0.996,0.771,1.542c0.245,0.483,0.418,1,0.513,1.533
			c0.098,0.565,0.155,1.136,0.171,1.709c-0.014,1.115-0.246,2.216-0.683,3.242c-0.435,1.033-1.041,1.985-1.792,2.817
			c-0.83,0.753-1.783,1.359-2.817,1.792C335.016,477.621,333.915,477.853,332.8,477.867z"/>
		<path d="M298.667,477.867c-2.27,0.021-4.453-0.871-6.059-2.475c-0.754-0.831-1.361-1.783-1.796-2.817
			c-0.436-1.026-0.667-2.127-0.679-3.242c0.031-2.259,0.915-4.423,2.475-6.059c0.405-0.368,0.832-0.71,1.279-1.025
			c0.474-0.324,0.99-0.582,1.533-0.767c0.485-0.246,1.003-0.42,1.538-0.517c2.811-0.558,5.717,0.306,7.767,2.308
			c1.558,1.636,2.441,3.8,2.475,6.059c-0.014,1.115-0.246,2.216-0.683,3.242c-0.435,1.033-1.041,1.985-1.792,2.817
			C303.119,476.996,300.936,477.887,298.667,477.867z"/>
		<path d="M341.333,119.467H307.2c-4.713,0-8.533-3.821-8.533-8.533c0-4.713,3.82-8.533,8.533-8.533h34.133
			c4.713,0,8.533,3.821,8.533,8.533C349.867,115.646,346.046,119.467,341.333,119.467z"/>
		<path d="M324.267,153.6H307.2c-4.713,0-8.533-3.821-8.533-8.533c0-4.713,3.82-8.533,8.533-8.533h17.067
			c4.713,0,8.533,3.821,8.533,8.533C332.8,149.779,328.98,153.6,324.267,153.6z"/>
		<path d="M324.267,187.733H307.2c-4.713,0-8.533-3.82-8.533-8.533s3.82-8.533,8.533-8.533h17.067c4.713,0,8.533,3.821,8.533,8.533
			S328.98,187.733,324.267,187.733z"/>
		<path d="M341.333,221.867H307.2c-4.713,0-8.533-3.821-8.533-8.533s3.82-8.533,8.533-8.533h34.133c4.713,0,8.533,3.82,8.533,8.533
			S346.046,221.867,341.333,221.867z"/>
		<path d="M324.267,256H307.2c-4.713,0-8.533-3.82-8.533-8.533c0-4.713,3.82-8.533,8.533-8.533h17.067
			c4.713,0,8.533,3.821,8.533,8.533C332.8,252.18,328.98,256,324.267,256z"/>
		<path d="M324.267,290.133H307.2c-4.713,0-8.533-3.821-8.533-8.533s3.82-8.533,8.533-8.533h17.067c4.713,0,8.533,3.82,8.533,8.533
			S328.98,290.133,324.267,290.133z"/>
		<path d="M324.267,358.4H307.2c-4.713,0-8.533-3.821-8.533-8.533c0-4.713,3.82-8.533,8.533-8.533h17.067
			c4.713,0,8.533,3.821,8.533,8.533C332.8,354.579,328.98,358.4,324.267,358.4z"/>
		<path d="M341.333,324.267H307.2c-4.713,0-8.533-3.821-8.533-8.533c0-4.713,3.82-8.533,8.533-8.533h34.133
			c4.713,0,8.533,3.821,8.533,8.533C349.867,320.446,346.046,324.267,341.333,324.267z"/>
		<path d="M426.667,119.467h-34.133c-4.713,0-8.533-3.821-8.533-8.533c0-4.713,3.82-8.533,8.533-8.533h34.133
			c4.713,0,8.533,3.821,8.533,8.533C435.2,115.646,431.38,119.467,426.667,119.467z"/>
		<path d="M426.667,153.6H409.6c-4.713,0-8.533-3.821-8.533-8.533c0-4.713,3.821-8.533,8.533-8.533h17.067
			c4.713,0,8.533,3.821,8.533,8.533C435.2,149.779,431.38,153.6,426.667,153.6z"/>
		<path d="M426.667,187.733H409.6c-4.713,0-8.533-3.82-8.533-8.533s3.821-8.533,8.533-8.533h17.067c4.713,0,8.533,3.821,8.533,8.533
			S431.38,187.733,426.667,187.733z"/>
		<path d="M426.667,221.867h-34.133c-4.713,0-8.533-3.821-8.533-8.533s3.82-8.533,8.533-8.533h34.133
			c4.713,0,8.533,3.82,8.533,8.533S431.38,221.867,426.667,221.867z"/>
		<path d="M426.667,256H409.6c-4.713,0-8.533-3.82-8.533-8.533c0-4.713,3.821-8.533,8.533-8.533h17.067
			c4.713,0,8.533,3.821,8.533,8.533C435.2,252.18,431.38,256,426.667,256z"/>
		<path d="M426.667,290.133H409.6c-4.713,0-8.533-3.821-8.533-8.533s3.821-8.533,8.533-8.533h17.067c4.713,0,8.533,3.82,8.533,8.533
			S431.38,290.133,426.667,290.133z"/>
		<path d="M426.667,358.4H409.6c-4.713,0-8.533-3.821-8.533-8.533c0-4.713,3.821-8.533,8.533-8.533h17.067
			c4.713,0,8.533,3.821,8.533,8.533C435.2,354.579,431.38,358.4,426.667,358.4z"/>
		<path d="M426.667,324.267h-34.133c-4.713,0-8.533-3.821-8.533-8.533c0-4.713,3.82-8.533,8.533-8.533h34.133
			c4.713,0,8.533,3.821,8.533,8.533C435.2,320.446,431.38,324.267,426.667,324.267z"/>
		<path d="M426.667,392.533H409.6c-4.713,0-8.533-3.82-8.533-8.533s3.821-8.533,8.533-8.533h17.067c4.713,0,8.533,3.821,8.533,8.533
			S431.38,392.533,426.667,392.533z"/>
		<path d="M426.667,426.667h-34.133c-4.713,0-8.533-3.82-8.533-8.533s3.82-8.533,8.533-8.533h34.133c4.713,0,8.533,3.82,8.533,8.533
			S431.38,426.667,426.667,426.667z"/>
	</g>
</g>
<g>
</g>
<g>
</g>
<g>
</g>
<g>
</g>
<g>
</g>
<g>
</g>
<g>
</g>
<g>
</g>
<g>
</g>
<g>
</g>
<g>
</g>
<g>
</g>
<g>
</g>
<g>
</g>
<g>
</g>
</svg>
