<?xml version="1.0" encoding="iso-8859-1"?>
<!-- Generator: Adobe Illustrator 19.0.0, SVG Export Plug-In . SVG Version: 6.00 Build 0)  -->
<svg version="1.1" id="Capa_1" xmlns="http://www.w3.org/2000/svg" xmlns:xlink="http://www.w3.org/1999/xlink" x="0px" y="0px"
	 viewBox="0 0 512.045 512.045" style="enable-background:new 0 0 512.045 512.045;" xml:space="preserve">
<g transform="translate(0 -1)">
	<g transform="translate(0 2)">
		<path style="fill:#4E342E;" d="M242.244,317.612l-14.678-14.592c4.375,6.648,3.635,15.426-1.792,21.248h0.085l-0.513,0.512
			c-4.223,4.012-9.592,6.607-15.359,7.424c-21.06,3.059-39.553,15.608-50.176,34.048l-12.459,26.965
			c-8.432,14.762-18.792,28.335-30.806,40.363l-0.084,0.085c-16.248,16.214-35.263,29.392-56.149,38.912l-24.576,11.179
			c-6.559,2.957-14.261,1.566-19.371-3.499l-4.011-4.011c0.316,0.571,0.72,1.089,1.196,1.536l19.711,19.712
			c5.109,5.064,12.812,6.456,19.37,3.499l24.577-11.179c20.886-9.52,39.902-22.698,56.149-38.912l0.085-0.085
			c12.014-12.028,22.373-25.601,30.805-40.363l12.459-26.965c10.623-18.44,29.117-30.989,50.177-34.048
			c5.767-0.818,11.136-3.413,15.359-7.424l0.512-0.512h-0.085C248.993,334.728,248.804,324.159,242.244,317.612z"/>
		<path style="fill:#795548;" d="M225.775,324.268h0.085l-0.513,0.512c-4.223,4.012-9.592,6.607-15.359,7.424
			c-21.06,3.059-39.553,15.608-50.176,34.048l-12.459,26.965c-8.432,14.762-18.792,28.335-30.806,40.363l-0.084,0.085
			c-16.248,16.214-35.263,29.392-56.149,38.912l-24.577,11.179c-6.559,2.957-14.261,1.566-19.371-3.499l-4.011-4.011
			c-4.121-5.013-5.016-11.939-2.304-17.835l11.179-24.576c9.52-20.886,22.698-39.902,38.912-56.149l0.085-0.085
			c12.028-12.014,25.601-22.373,40.363-30.805l26.965-12.459c18.471-10.59,31.031-29.1,34.048-50.176
			c0.824-5.826,3.485-11.236,7.596-15.445c6.73-6.632,17.55-6.594,24.233,0.085l24.406,24.405l9.301,9.301
			c0.171,0.171,0.256,0.341,0.426,0.512C231.941,309.668,231.201,318.446,225.775,324.268L225.775,324.268z"/>
		<path style="fill:#607D8B;" d="M498.67,61.782l-22.527,23.723l-14.421,15.104l-16.128,16.981l-14.336,15.104L415.13,149.59
			l-14.421,15.189l-16.127,16.981L370.33,196.78l-16.213,16.981l-14.335,15.104l-16.215,17.067l-14.25,14.933l-16.213,17.067
			l-8.107,8.533c-2.094,2.205-4.749,3.798-7.68,4.608c-6.041,1.83-12.598,0.191-17.067-4.267l-5.802-5.803l-36.608,36.608
			c-3.236,3.237-7.626,5.056-12.203,5.056c-4.577,0-8.967-1.819-12.203-5.056c-3.226-3.206-5.038-7.569-5.033-12.117v-0.085
			c-0.006-4.574,1.804-8.963,5.033-12.203l12.203-12.203l24.405-24.405l-5.803-5.803c-3.271-3.309-5.078-7.792-5.014-12.445
			c0.064-4.653,1.993-9.085,5.355-12.302l51.456-48.896l14.593-13.909L306.5,148.14l14.678-13.909l15.872-15.104l14.592-13.909
			v-0.085l15.873-15.019l14.677-13.909L398.064,61.1l14.677-13.995l15.787-15.019l14.763-13.995l5.972-5.717
			c6.862-6.285,17.422-6.173,24.149,0.256l25.002,25.003C505.014,44.29,505.127,54.987,498.67,61.782L498.67,61.782z"/>
		<g>
			<path style="fill:#CFD8DC;" d="M481.604,44.63l-22.527,23.723l-14.421,15.104l-16.128,16.981l-14.336,15.104l-16.128,16.896
				l-14.421,15.189l-16.127,16.981l-14.251,15.019l-16.213,16.981l-14.335,15.104L306.5,228.78l-14.25,14.933l-16.213,17.067
				l-8.107,8.533c-2.094,2.205-4.749,3.798-7.68,4.608c-6.041,1.83-12.598,0.191-17.067-4.267l-5.802-5.717l-36.608,36.523
				c-3.27,3.289-7.736,5.106-12.373,5.035v-0.085c-0.006-4.574,1.804-8.963,5.033-12.203l12.203-12.203l24.405-24.405l-5.803-5.803
				c-3.271-3.309-5.078-7.792-5.014-12.445c0.064-4.653,1.993-9.085,5.355-12.302l51.456-48.896l14.593-13.909L306.5,148.14
				l14.678-13.909l15.872-15.104l14.592-13.909v-0.085l15.873-15.019l14.677-13.909L398.064,61.1l14.677-13.995l15.787-15.019
				l14.763-13.995l5.972-5.717c6.862-6.285,17.422-6.173,24.149,0.256l7.851,7.851h0.084c0.139,0.12,0.255,0.265,0.341,0.427
				C487.937,27.594,487.9,37.989,481.604,44.63z"/>
			<path style="fill:#CFD8DC;" d="M230.064,305.387l-12.203,12.203c-3.236,3.236-7.626,5.055-12.203,5.055
				c-4.577,0-8.966-1.818-12.203-5.055l0,0c-3.236-3.236-5.055-7.626-5.055-12.203s1.818-8.966,5.055-12.203l12.203-12.203
				L230.064,305.387z"/>
			
				<rect x="212.774" y="263.694" transform="matrix(-0.7071 0.7071 -0.7071 -0.7071 591.3539 316.959)" style="fill:#CFD8DC;" width="34.517" height="34.517"/>
		</g>
	</g>
	<g>
		<path d="M45.516,513.045c-6.857,0.008-13.437-2.708-18.292-7.55L7.533,485.804c-7.573-7.614-9.655-19.114-5.233-28.9
			l11.183-24.608c17.393-38.265,46.396-70.081,82.892-90.933l27.583-12.775c15.937-9.267,26.715-25.36,29.217-43.625l8.45,1.208
			l-8.45-1.208c1.071-7.401,4.364-14.302,9.442-19.792c0.117-0.125,0.233-0.258,0.35-0.375h0.009l0.042-0.05l0,0l0.075-0.075
			c0.15-0.158,0.292-0.308,0.442-0.45c0.267-0.268,0.551-0.518,0.85-0.75c10.237-8.817,25.538-8.262,35.108,1.275l48.808,48.808
			c9.546,9.571,10.098,24.883,1.267,35.117c-0.227,0.298-0.474,0.579-0.742,0.842c-0.142,0.15-0.292,0.292-0.45,0.442l-0.075,0.075
			l0,0c-5.553,5.3-12.619,8.74-20.217,9.842c-18.503,2.582-34.752,13.624-43.967,29.875l-12.092,26.267
			c-8.878,15.696-19.838,30.118-32.583,42.875c-16.955,16.982-36.839,30.761-58.692,40.675l-24.608,11.183
			C52.805,512.264,49.182,513.049,45.516,513.045L45.516,513.045z M175.233,276.67c-2.776,2.95-4.577,6.683-5.158,10.692v0.009
			c-3.315,23.724-17.472,44.557-38.308,56.375l-27.583,12.775c-33.071,19.113-59.349,48.074-75.167,82.842l-11.183,24.609
			c-1.494,3.307-0.791,7.193,1.766,9.767l19.692,19.692c2.574,2.569,6.468,3.279,9.783,1.783l24.608-11.183
			c19.988-9.067,38.174-21.669,53.683-37.2c11.509-11.505,21.43-24.494,29.5-38.625l12.092-26.267
			c11.765-21.146,32.75-35.565,56.708-38.967c4.015-0.577,7.754-2.378,10.708-5.158c3.265-3.431,3.202-8.838-0.142-12.192
			l-48.808-48.808C184.075,273.457,178.659,273.394,175.233,276.67L175.233,276.67z"/>
		<path d="M47.825,473.754c-3.451-0.001-6.562-2.08-7.882-5.268c-1.32-3.188-0.591-6.858,1.849-9.298l12.2-12.2
			c3.332-3.332,8.735-3.332,12.067,0c3.332,3.332,3.332,8.735,0,12.067l-12.2,12.2C52.26,472.857,50.088,473.757,47.825,473.754
			L47.825,473.754z"/>
		<path d="M205.658,333.179c-10.433,0-19.838-6.285-23.83-15.924c-3.991-9.639-1.783-20.733,5.596-28.109l12.2-12.2
			c3.386-3.2,8.681-3.2,12.067,0l24.408,24.408c1.601,1.6,2.5,3.77,2.5,6.033s-0.899,4.433-2.5,6.033l-12.208,12.2
			C219.069,330.477,212.502,333.199,205.658,333.179L205.658,333.179z M205.658,295.046l-6.167,6.175
			c-1.638,1.633-2.558,3.85-2.558,6.163c0,2.313,0.921,4.53,2.558,6.163c3.44,3.311,8.88,3.315,12.325,0.009l6.183-6.167
			L205.658,295.046z"/>
		<path d="M272.466,302.371c-6.844,0.021-13.411-2.701-18.233-7.558l-36-36c-4.918-4.913-7.643-11.603-7.558-18.553
			c0.085-6.95,2.972-13.572,8.008-18.363L443.416,8.171c10.105-9.733,26.158-9.533,36.017,0.45l24.992,24.992
			c9.979,9.86,10.179,25.91,0.45,36.017L291.149,294.362c-4.779,5.051-11.406,7.941-18.358,8.008H272.466z M461.191,18.112
			c-2.24,0.005-4.392,0.873-6.008,2.425L230.449,234.262c-1.703,1.62-2.68,3.859-2.708,6.21c-0.028,2.351,0.894,4.613,2.558,6.273
			l36,36c1.673,1.651,3.933,2.571,6.283,2.558c2.349-0.024,4.586-1.002,6.2-2.708L492.508,57.862
			c3.292-3.418,3.225-8.847-0.15-12.183l-24.992-24.992C465.734,19.04,463.511,18.113,461.191,18.112z"/>
		<path d="M230.066,315.921c-2.263,0-4.434-0.899-6.033-2.5l-24.408-24.408c-1.601-1.6-2.5-3.77-2.5-6.033
			c0-2.263,0.899-4.433,2.5-6.033l24.408-24.4c1.6-1.601,3.77-2.5,6.033-2.5c2.263,0,4.433,0.899,6.033,2.5l24.4,24.4
			c1.601,1.6,2.5,3.77,2.5,6.033c0,2.263-0.899,4.433-2.5,6.033l-24.4,24.408C234.5,315.022,232.33,315.921,230.066,315.921
			L230.066,315.921z M217.725,282.979l12.342,12.342l12.333-12.342l-12.333-12.333L217.725,282.979z"/>
		<path d="M467.591,104.996c-2.264,0.001-4.435-0.897-6.035-2.498s-2.499-3.772-2.498-6.035V10.796c0-4.713,3.82-8.533,8.533-8.533
			c4.713,0,8.533,3.821,8.533,8.533v85.667c0.001,2.264-0.897,4.435-2.498,6.035S469.855,104.997,467.591,104.996L467.591,104.996z"
			/>
		<path d="M437.083,136.962c-2.264,0.001-4.435-0.897-6.035-2.498c-1.601-1.601-2.499-3.772-2.498-6.035v-102.5
			c0-4.713,3.82-8.533,8.533-8.533s8.533,3.821,8.533,8.533v102.5c0.001,2.264-0.897,4.435-2.498,6.035
			C441.518,136.065,439.346,136.964,437.083,136.962z"/>
		<path d="M406.583,169.062c-2.264,0.001-4.435-0.897-6.035-2.498c-1.601-1.601-2.499-3.772-2.498-6.035V54.971
			c0-4.713,3.82-8.533,8.533-8.533s8.533,3.821,8.533,8.533v105.558c0.001,2.264-0.897,4.435-2.498,6.035
			C411.018,168.165,408.846,169.064,406.583,169.062L406.583,169.062z"/>
		<path d="M376.074,201.029c-2.264,0.001-4.435-0.897-6.035-2.498c-1.601-1.601-2.499-3.772-2.498-6.035V84.137
			c0-4.713,3.82-8.533,8.533-8.533c4.713,0,8.533,3.821,8.533,8.533v108.358c0.001,2.264-0.897,4.435-2.498,6.035
			C380.509,200.132,378.338,201.03,376.074,201.029L376.074,201.029z"/>
		<path d="M345.566,233.121c-2.264,0.001-4.435-0.897-6.035-2.498c-1.601-1.601-2.499-3.772-2.498-6.035V113.179
			c0-4.713,3.82-8.533,8.533-8.533s8.533,3.821,8.533,8.533v111.408c0.001,2.264-0.897,4.435-2.498,6.035
			C350.001,232.223,347.829,233.122,345.566,233.121L345.566,233.121z"/>
		<path d="M315.058,265.096c-2.264,0.001-4.435-0.897-6.035-2.498c-1.601-1.601-2.499-3.772-2.498-6.035V142.221
			c0-4.713,3.82-8.533,8.533-8.533c4.713,0,8.533,3.821,8.533,8.533v114.342c0.001,2.264-0.897,4.435-2.498,6.035
			C319.493,264.198,317.321,265.097,315.058,265.096z"/>
		<path d="M284.55,297.187c-2.264,0.001-4.435-0.897-6.035-2.498c-1.601-1.601-2.499-3.772-2.498-6.035V171.262
			c0-4.713,3.821-8.533,8.533-8.533s8.533,3.82,8.533,8.533v117.392c0.001,2.264-0.897,4.435-2.498,6.035
			C288.984,296.29,286.813,297.189,284.55,297.187L284.55,297.187z"/>
	</g>
</g>
<g>
</g>
<g>
</g>
<g>
</g>
<g>
</g>
<g>
</g>
<g>
</g>
<g>
</g>
<g>
</g>
<g>
</g>
<g>
</g>
<g>
</g>
<g>
</g>
<g>
</g>
<g>
</g>
<g>
</g>
</svg>
