<?xml version="1.0" encoding="iso-8859-1"?>
<!-- Generator: Adobe Illustrator 19.0.0, SVG Export Plug-In . SVG Version: 6.00 Build 0)  -->
<svg version="1.1" id="Capa_1" xmlns="http://www.w3.org/2000/svg" xmlns:xlink="http://www.w3.org/1999/xlink" x="0px" y="0px"
	 viewBox="0 0 512.003 512.003" style="enable-background:new 0 0 512.003 512.003;" xml:space="preserve">
<g>
	<g transform="translate(1)">
		<path style="fill:#607D8B;" d="M500.762,82.825c-0.208,0.349-0.467,0.665-0.768,0.939L330.096,253.662
			c-6.707,6.656-17.528,6.656-24.235,0v-0.085c-2.95-2.926-7.067-4.358-11.196-3.894c-4.129,0.464-7.826,2.775-10.052,6.283
			l-26.88,57.941l-5.461,8.704l-16.042-15.36l-47.189-44.971l8.107-8.96l57.941-26.88c3.508-2.226,5.819-5.923,6.283-10.052
			c0.464-4.129-0.968-8.246-3.894-11.196h-0.085c-6.656-6.707-6.656-17.528,0-24.235L427.29,11.059
			c0.085-0.085,0.085-0.085,0.171-0.085c0.211-0.274,0.472-0.505,0.768-0.683L500.762,82.825z"/>
		<g>
			<path style="fill:#CFD8DC;" d="M484.378,67.891c-0.208,0.349-0.467,0.665-0.768,0.939L313.712,238.729
				c-6.707,6.656-17.528,6.656-24.235,0v-0.085c-2.95-2.926-7.067-4.358-11.196-3.894s-7.825,2.775-10.052,6.283l-26.88,57.941
				l-5.12,8.277l-47.189-44.971l8.107-8.96l57.941-26.88c3.508-2.226,5.819-5.923,6.283-10.052
				c0.464-4.129-0.968-8.246-3.894-11.196h-0.085c-6.656-6.707-6.656-17.528,0-24.235L427.29,11.059
				c0.085-0.085,0.085-0.085,0.171-0.085L484.378,67.891z"/>
			<path style="fill:#CFD8DC;" d="M500.762,82.825c-24.917,23.125-60.075,26.453-79.531,6.997s-16.128-54.613,6.997-79.53
				c3.4-2.555,8.16-2.228,11.179,0.768l60.587,60.587C502.99,74.665,503.317,79.424,500.762,82.825z"/>
		</g>
		<path style="fill:#2E7D32;" d="M258.416,325.939L124.528,483.465c-26.794,26.709-70.145,26.709-96.939,0
			c-1.876-1.888-3.643-3.883-5.291-5.973c-21.547-27.28-19.274-66.367,5.291-90.965l157.525-133.888
			c2.254-2.011,5.412-2.662,8.277-1.707c1.31,0.342,2.495,1.053,3.413,2.048l61.269,61.269
			C261.284,317.433,261.434,322.574,258.416,325.939z"/>
		<g>
			<path style="fill:#558B30;" d="M77.424,351.625c-1.704-0.933-3.281-2.08-4.693-3.413l0.853-0.768l2.475,2.816L77.424,351.625z"/>
			<path style="fill:#558B30;" d="M163.61,437.47l-39.083,45.995c-26.794,26.709-70.145,26.709-96.939,0
				c-1.871-1.838-3.611-3.806-5.205-5.888c27.156,17.532,62.86,13.767,85.76-9.045l39.083-45.995l0.683-0.597
				c0.261,0.334,0.546,0.648,0.853,0.939l12.032,12.117L163.61,437.47z"/>
		</g>
		<path style="fill:#4CAF50;" d="M242.032,311.006L108.144,468.531c-22.917,22.868-58.701,26.603-85.845,8.96
			c-21.547-27.28-19.274-66.367,5.291-90.965l157.525-133.888c2.254-2.011,5.412-2.662,8.277-1.707l48.299,48.384
			C244.943,302.48,245.094,307.656,242.032,311.006z"/>
		<path style="fill:#8BC34A;" d="M196.122,332.083c-0.011,4.546-1.821,8.902-5.035,12.117l-42.325,42.325
			c-9.708,9.677-10.084,25.28-0.853,35.413l-0.683,0.597l-39.083,45.995c-22.9,22.812-58.604,26.578-85.76,9.045
			c-21.635-27.269-19.397-66.425,5.205-91.051l45.141-38.315c1.412,1.333,2.99,2.48,4.693,3.413l10.752,10.667
			c4.813,4.834,11.354,7.552,18.176,7.552c6.822,0,13.363-2.718,18.176-7.552l42.325-42.325c3.311-3.376,7.906-5.177,12.629-4.949
			c4.363,0.088,8.522,1.862,11.605,4.949C194.315,323.172,196.127,327.534,196.122,332.083z"/>
	</g>
	<g>
		<path d="M258.727,322.414c-2.263,0-4.433-0.899-6.033-2.5l-60.558-60.558c-1.971-1.971-2.855-4.782-2.366-7.526
			c0.488-2.745,2.287-5.078,4.816-6.249l57.308-26.554c1.185-0.906,1.921-2.278,2.02-3.766c0.099-1.488-0.449-2.946-1.503-4.001
			c-10.026-10.026-10.041-26.277-0.033-36.321L422.269,5.051c3.195-3.214,7.543-5.015,12.075-5h0.009
			c4.537-0.016,8.891,1.785,12.092,5l60.558,60.558c6.667,6.681,6.667,17.498,0,24.179L337.119,259.676
			c-10.166,9.667-26.126,9.667-36.292,0c-1.109-1.131-2.675-1.69-4.25-1.517c-1.411,0.145-2.697,0.871-3.55,2.004l-26.558,57.304
			c-1.172,2.529-3.506,4.326-6.25,4.813C259.727,322.37,259.228,322.415,258.727,322.414z M212.844,255.926l43.275,43.279
			l21.717-46.85c0.16-0.343,0.341-0.675,0.542-0.996c3.622-5.689,9.63-9.426,16.334-10.162c6.704-0.736,13.379,1.611,18.149,6.378
			c3.403,3.266,8.773,3.279,12.192,0.029L494.936,77.722l-60.558-60.604L264.444,187.005c-3.35,3.359-3.35,8.795,0,12.154
			c4.789,4.764,7.151,11.447,6.42,18.162s-4.476,12.733-10.178,16.355c-0.318,0.203-0.649,0.384-0.992,0.542L212.844,255.926z"/>
		<path d="M454.861,111.085c-14.406,0.306-28.331-5.185-38.65-15.242c-22.683-22.679-19.725-62.804,6.741-91.346
			c3.203-3.456,8.602-3.662,12.058-0.458s3.662,8.602,0.458,12.058c-20.2,21.787-23.358,51.512-7.192,67.679
			c16.167,16.154,45.892,13.021,67.683-7.188c3.456-3.203,8.855-2.998,12.058,0.458s2.998,8.855-0.458,12.058
			C493.361,102.766,474.558,110.608,454.861,111.085z"/>
		<path d="M76.861,511.951c-31.118-0.048-59.146-18.827-71.027-47.588c-11.881-28.761-5.277-61.846,16.735-83.841L180.552,246.13
			c6.773-5.902,16.961-5.549,23.308,0.808v0.004l61.25,61.25c6.4,6.405,6.7,16.688,0.683,23.454L132.002,488.98
			C117.415,503.677,97.567,511.945,76.861,511.951L76.861,511.951z M191.786,259.005L34.127,393.056
			c-22.941,23.523-22.714,61.117,0.508,84.362c23.442,23.388,61.391,23.388,84.833,0l133.45-156.975l-61.125-61.429L191.786,259.005
			z"/>
		<path d="M161.836,443.535c-2.264,0.003-4.435-0.897-6.033-2.5l-12.109-12.112c-6.424-6.416-10.033-15.123-10.033-24.202
			c0-9.079,3.61-17.786,10.033-24.202l42.392-42.388c3.35-3.36,3.35-8.798,0-12.158c-3.399-3.247-8.749-3.249-12.15-0.004
			l-42.4,42.396c-13.375,13.35-35.034,13.35-48.408,0l-12.108-12.112c-3.332-3.332-3.332-8.735,0-12.067
			c3.332-3.332,8.735-3.332,12.067,0l12.108,12.112c6.706,6.696,17.569,6.696,24.275,0l42.392-42.392
			c10.154-9.696,26.137-9.696,36.292,0c9.998,10.028,10.002,26.254,0.009,36.288l-42.4,42.396c-3.222,3.215-5.033,7.58-5.033,12.131
			c0,4.552,1.811,8.916,5.033,12.131l12.108,12.117c2.44,2.44,3.169,6.11,1.849,9.298
			C168.398,441.455,165.287,443.534,161.836,443.535L161.836,443.535z"/>
		<path d="M343.194,201.618c-3.451-0.001-6.562-2.08-7.882-5.268c-1.32-3.188-0.591-6.858,1.849-9.298l91.158-91.162
			c3.338-3.296,8.711-3.28,12.029,0.038c3.317,3.317,3.334,8.69,0.038,12.029l-91.158,91.163
			C347.629,200.721,345.457,201.621,343.194,201.618L343.194,201.618z"/>
		<path d="M318.969,177.393c-3.451-0.001-6.562-2.08-7.882-5.268c-1.32-3.188-0.591-6.858,1.849-9.298l91.158-91.163
			c2.155-2.155,5.297-2.997,8.242-2.208c2.944,0.789,5.244,3.089,6.033,6.033s-0.053,6.086-2.208,8.242l-91.158,91.163
			C323.404,176.496,321.233,177.396,318.969,177.393L318.969,177.393z"/>
	</g>
</g>
<g>
</g>
<g>
</g>
<g>
</g>
<g>
</g>
<g>
</g>
<g>
</g>
<g>
</g>
<g>
</g>
<g>
</g>
<g>
</g>
<g>
</g>
<g>
</g>
<g>
</g>
<g>
</g>
<g>
</g>
</svg>
