<?xml version="1.0" encoding="iso-8859-1"?>
<!-- Generator: Adobe Illustrator 19.0.0, SVG Export Plug-In . SVG Version: 6.00 Build 0)  -->
<svg version="1.1" id="Capa_1" xmlns="http://www.w3.org/2000/svg" xmlns:xlink="http://www.w3.org/1999/xlink" x="0px" y="0px"
	 viewBox="0 0 512 512" style="enable-background:new 0 0 512 512;" xml:space="preserve">
<g>
	<g transform="translate(0 1)">
		<path style="fill:#607D8B;" d="M426.667,502.463H85.333c-0.012-9.056,3.58-17.746,9.984-24.149
			c6.404-6.404,15.093-9.996,24.149-9.984h25.6c32.99,0,59.733-26.744,59.733-59.733s-26.744-59.733-59.733-59.733l1.451-16.981
			v-0.085l224.683,0.939l-4.267,16.128c-32.99,0-59.733,26.744-59.733,59.733s26.744,59.733,59.733,59.733h25.6
			c9.054-0.003,17.737,3.593,24.139,9.995S426.669,493.409,426.667,502.463L426.667,502.463z"/>
		<g>
			<path style="fill:#CFD8DC;" d="M401.067,502.463H85.333c-0.012-9.056,3.58-17.746,9.984-24.149
				c6.404-6.404,15.093-9.996,24.149-9.984h25.6c32.99,0,59.733-26.744,59.733-59.733s-26.744-59.733-59.733-59.733l1.451-16.981
				l199.083,0.853l-4.267,16.128c-32.99,0-59.733,26.744-59.733,59.733s26.744,59.733,59.733,59.733h25.6
				c9.054-0.003,17.737,3.593,24.139,9.995S401.069,493.409,401.067,502.463L401.067,502.463z"/>
			<path style="fill:#CFD8DC;" d="M17.067,237.93H128v85.333H59.733c-28.277,0-51.2-22.923-51.2-51.2v-25.6
				C8.533,241.75,12.354,237.93,17.067,237.93z"/>
		</g>
		<path style="fill:#37474F;" d="M503.467,220.863v42.667c-0.017,47.121-38.212,85.316-85.333,85.333H145.067
			c-9.414-0.028-17.039-7.652-17.067-17.067v-102.4c0.028-9.414,7.652-17.039,17.067-17.067h349.867
			C499.64,212.344,503.453,216.156,503.467,220.863L503.467,220.863z"/>
		<path style="fill:#607D8B;" d="M477.867,220.863v42.667c0,47.104-35.623,85.333-79.515,85.333H143.903
			c-9.087-0.359-16.186-7.977-15.903-17.067v-102.4c-0.283-9.09,6.816-16.708,15.903-17.067h326.012
			C474.459,212.509,478.008,216.318,477.867,220.863z"/>
		<path style="fill:#F57C00;" d="M347.022,75.796v51.2H25.892c-5.461,0.022-10.611-2.542-13.887-6.912
			c-2.278-2.892-3.502-6.474-3.472-10.155V92.863c0.109-9.494,7.864-17.119,17.358-17.067H347.022z"/>
		<path style="fill:#FF9801;" d="M315.733,75.796v51.2H24.287c-5.092-0.054-9.82-2.647-12.603-6.912
			c-2.092-2.97-3.194-6.523-3.151-10.155V92.863c-0.321-9.048,6.709-16.664,15.754-17.067H315.733z"/>
		<path style="fill:#424242;" d="M418.133,178.196h-68.267c-4.825-0.116-8.644-4.119-8.533-8.944V16.49
			c-0.141-3.247,1.578-6.29,4.43-7.847c2.853-1.557,6.342-1.355,8.996,0.52l64.627,47.417c4.615,3.453,7.317,8.892,7.28,14.655
			v98.018C426.777,174.077,422.958,178.08,418.133,178.196L418.133,178.196z"/>
		<path style="fill:#9E9E9E;" d="M395.093,178.196h-47.787c-3.299,0-5.973-4.005-5.973-8.944V16.49c0-7.236,5.44-11.477,9.399-7.327
			l45.239,47.417c3.458,4.084,5.274,9.307,5.096,14.655v98.018C401.067,174.192,398.392,178.196,395.093,178.196z"/>
		<path style="fill:#37474F;" d="M230.4,468.33H119.467c-9.056-0.012-17.745,3.58-24.149,9.984
			c-6.404,6.404-9.996,15.093-9.984,24.149h341.333c0.003-9.053-3.593-17.737-9.995-24.139c-6.402-6.402-15.085-9.997-24.139-9.995
			H230.4L230.4,468.33z"/>
		<path style="fill:#607D8B;" d="M219.52,468.33H116.907c-8.51,0.079-16.603,3.696-22.338,9.984
			c-5.979,6.619-9.272,15.23-9.235,24.149h315.733c0.684-18.136-13.439-33.404-31.573-34.133H219.52L219.52,468.33z"/>
		<path style="fill:#CFD8DC;" d="M256,442.73L256,442.73c14.139,0,25.6,11.462,25.6,25.6v34.133h-51.2V468.33
			C230.4,454.191,241.862,442.73,256,442.73z"/>
	</g>
	<g>
		<path d="M418.133,358.396H145.067c-14.132-0.015-25.585-11.468-25.6-25.6v-102.4c0.015-14.132,11.468-25.585,25.6-25.6h349.867
			c9.421,0.011,17.056,7.645,17.067,17.067v42.667C511.941,316.347,469.95,358.338,418.133,358.396L418.133,358.396z
			 M145.067,221.863c-4.711,0.005-8.529,3.822-8.533,8.533v102.4c0.005,4.711,3.822,8.529,8.533,8.533h273.067
			c42.396-0.048,76.752-34.404,76.8-76.8v-42.667H145.067z"/>
		<path d="M145.067,477.863c-4.713,0-8.533-3.82-8.533-8.533s3.821-8.533,8.533-8.533c28.277,0,51.2-22.923,51.2-51.2
			s-22.923-51.2-51.2-51.2c-4.713,0-8.533-3.82-8.533-8.533s3.821-8.533,8.533-8.533c37.703,0,68.267,30.564,68.267,68.267
			S182.769,477.863,145.067,477.863z"/>
		<path d="M366.933,477.863c-37.703,0-68.267-30.564-68.267-68.267s30.564-68.267,68.267-68.267c4.713,0,8.533,3.82,8.533,8.533
			s-3.82,8.533-8.533,8.533c-28.277,0-51.2,22.923-51.2,51.2s22.923,51.2,51.2,51.2c4.713,0,8.533,3.82,8.533,8.533
			S371.646,477.863,366.933,477.863z"/>
		<path d="M426.667,511.996H85.333c-2.263,0.001-4.434-0.898-6.035-2.499c-1.6-1.6-2.499-3.771-2.499-6.035
			c-0.014-11.32,4.477-22.181,12.481-30.185c8.005-8.005,18.865-12.495,30.185-12.481H230.4c4.713,0,8.533,3.82,8.533,8.533
			s-3.821,8.533-8.533,8.533H119.467c-10.859-0.029-20.545,6.82-24.137,17.067h321.342c-3.627-10.221-13.292-17.054-24.137-17.067
			H281.6c-4.713,0-8.533-3.82-8.533-8.533s3.82-8.533,8.533-8.533h110.933c23.553,0.028,42.639,19.114,42.667,42.667
			c0.001,2.263-0.898,4.434-2.499,6.035C431.101,511.098,428.93,511.997,426.667,511.996z"/>
		<path d="M128,332.796H59.733C26.759,332.758,0.038,306.037,0,273.063v-25.6c0.011-9.421,7.645-17.056,17.067-17.067H128
			c2.263-0.001,4.434,0.898,6.035,2.499c1.6,1.6,2.499,3.771,2.499,6.035v85.333c0.001,2.263-0.898,4.434-2.499,6.035
			C132.434,331.898,130.263,332.797,128,332.796L128,332.796z M17.067,247.463v25.6c0.028,23.553,19.114,42.639,42.667,42.667
			h59.733v-68.267H17.067z"/>
		<path d="M128,307.196c-3.451-0.001-6.562-2.08-7.882-5.268c-1.32-3.188-0.591-6.858,1.849-9.298l85.333-85.333
			c3.341-3.281,8.701-3.256,12.012,0.054c3.311,3.311,3.335,8.671,0.054,12.012l-85.333,85.333
			C132.435,306.299,130.264,307.199,128,307.196L128,307.196z"/>
		<path d="M192,307.196c-3.451-0.001-6.562-2.08-7.882-5.268c-1.32-3.188-0.591-6.858,1.849-9.298l85.333-85.333
			c3.341-3.281,8.701-3.256,12.012,0.054c3.311,3.311,3.335,8.671,0.054,12.012l-85.333,85.333
			C196.435,306.299,194.264,307.199,192,307.196L192,307.196z"/>
		<path d="M281.6,511.996h-51.2c-2.263,0.001-4.434-0.898-6.035-2.499c-1.6-1.6-2.499-3.771-2.499-6.035V469.33
			c0-18.851,15.282-34.133,34.133-34.133c18.851,0,34.133,15.282,34.133,34.133v34.133c0.001,2.263-0.898,4.434-2.499,6.035
			C286.034,511.098,283.863,511.997,281.6,511.996L281.6,511.996z M238.933,494.93h34.133v-25.6c0-9.426-7.641-17.067-17.067-17.067
			c-9.426,0-17.067,7.641-17.067,17.067V494.93z"/>
		<path d="M341.333,136.53H25.6c-14.132-0.015-25.585-11.468-25.6-25.6V93.863c0.015-14.132,11.468-25.585,25.6-25.6h315.733
			c2.263-0.001,4.434,0.898,6.035,2.499c1.6,1.6,2.499,3.771,2.499,6.035v51.2c0.001,2.263-0.898,4.434-2.499,6.035
			C345.768,135.631,343.597,136.53,341.333,136.53z M25.6,85.33c-4.711,0.005-8.529,3.822-8.533,8.533v17.067
			c0.005,4.711,3.822,8.529,8.533,8.533h307.2V85.33H25.6z"/>
		<path d="M418.133,187.73h-68.267c-9.533-0.125-17.167-7.942-17.067-17.475V17.488c-0.057-6.601,3.623-12.667,9.504-15.667
			c5.639-2.872,12.418-2.307,17.504,1.458l64.625,47.417c6.801,5.067,10.796,13.06,10.767,21.542v98.017
			C435.3,179.788,427.667,187.605,418.133,187.73z M349.712,17.046l0.154,153.209l68.105,0.408l0.162-98.425
			c0.036-3.049-1.371-5.935-3.796-7.783L349.712,17.046z"/>
		<path d="M18.604,134.996c-3.451-0.001-6.562-2.08-7.882-5.268c-1.32-3.188-0.591-6.858,1.849-9.298l49.662-49.667
			c3.341-3.281,8.701-3.256,12.012,0.054c3.311,3.311,3.335,8.671,0.054,12.012l-49.662,49.667
			C23.039,134.099,20.868,134.999,18.604,134.996z"/>
		<path d="M68.267,136.53c-3.451-0.001-6.562-2.08-7.882-5.268s-0.591-6.858,1.849-9.298l51.2-51.2
			c3.341-3.281,8.701-3.256,12.012,0.054c3.311,3.311,3.335,8.671,0.054,12.012l-51.2,51.2
			C72.702,135.632,70.53,136.532,68.267,136.53z"/>
		<path d="M119.467,136.53c-3.451-0.001-6.562-2.08-7.882-5.268c-1.32-3.188-0.591-6.858,1.849-9.298l51.2-51.2
			c3.341-3.281,8.701-3.256,12.012,0.054c3.311,3.311,3.335,8.671,0.054,12.012l-51.2,51.2
			C123.902,135.632,121.73,136.532,119.467,136.53z"/>
		<path d="M170.667,136.53c-3.451-0.001-6.562-2.08-7.882-5.268s-0.591-6.858,1.849-9.298l51.2-51.2
			c3.341-3.281,8.701-3.256,12.012,0.054c3.311,3.311,3.335,8.671,0.054,12.012l-51.2,51.2
			C175.102,135.632,172.93,136.532,170.667,136.53z"/>
		<path d="M221.867,136.53c-3.451-0.001-6.562-2.08-7.882-5.268c-1.32-3.188-0.591-6.858,1.849-9.298l51.2-51.2
			c3.341-3.281,8.701-3.256,12.012,0.054c3.311,3.311,3.335,8.671,0.054,12.012l-51.2,51.2
			C226.302,135.632,224.13,136.532,221.867,136.53L221.867,136.53z"/>
		<path d="M273.067,136.53c-3.451-0.001-6.562-2.08-7.882-5.268c-1.32-3.188-0.591-6.858,1.849-9.298l51.2-51.2
			c3.341-3.281,8.701-3.256,12.012,0.054c3.311,3.311,3.335,8.671,0.054,12.012l-51.2,51.2
			C277.502,135.632,275.33,136.532,273.067,136.53z"/>
		<path d="M426.667,255.996H307.2c-4.713,0-8.533-3.821-8.533-8.533s3.82-8.533,8.533-8.533h119.467
			c4.713,0,8.533,3.821,8.533,8.533S431.38,255.996,426.667,255.996z"/>
		<path d="M469.333,255.996H460.8c-4.713,0-8.533-3.821-8.533-8.533s3.82-8.533,8.533-8.533h8.533c4.713,0,8.533,3.821,8.533,8.533
			S474.046,255.996,469.333,255.996z"/>
	</g>
</g>
<g>
</g>
<g>
</g>
<g>
</g>
<g>
</g>
<g>
</g>
<g>
</g>
<g>
</g>
<g>
</g>
<g>
</g>
<g>
</g>
<g>
</g>
<g>
</g>
<g>
</g>
<g>
</g>
<g>
</g>
</svg>
