<?xml version="1.0" encoding="iso-8859-1"?>
<!-- Generator: Adobe Illustrator 19.0.0, SVG Export Plug-In . SVG Version: 6.00 Build 0)  -->
<svg version="1.1" id="Capa_1" xmlns="http://www.w3.org/2000/svg" xmlns:xlink="http://www.w3.org/1999/xlink" x="0px" y="0px"
	 viewBox="0 0 511.965 511.965" style="enable-background:new 0 0 511.965 511.965;" xml:space="preserve">
<g>
	<g transform="translate(1 2)">
		<path style="fill:#CFD8DC;" d="M363.086,48.653l-78.336,78.336L128.163,283.661l-12.117,36.181
			c4.299,4.299,5.977,10.564,4.404,16.436c-1.573,5.872-6.16,10.459-12.032,12.032c-5.872,1.573-12.137-0.105-16.436-4.404
			l-6.325,11.951l-49.602-50.811l7.713-9.353c-6.609-6.675-6.573-17.438,0.081-24.068c6.654-6.63,17.417-6.628,24.068,0.004
			l36.096-12.032L339.022,24.589c1.594-1.598,3.759-2.496,6.016-2.496s4.422,0.898,6.016,2.496l12.032,12.032
			c1.598,1.594,2.496,3.759,2.496,6.016S364.684,47.058,363.086,48.653z"/>
		<path style="fill:#0377BC;" d="M429.39,295.693L248.654,476.514c-33.305,33.195-87.186,33.195-120.491,0l-16.811-16.811
			l-0.256-0.256l-73.301-73.387c-11.187-11.177-17.472-26.341-17.472-42.155c0-15.813,6.285-30.978,17.472-42.155l5.973-6.059
			l132.608,132.608c6.676,6.571,17.388,6.571,24.064,0l180.736-180.821c3.196-3.188,4.992-7.517,4.992-12.032
			c0-4.515-1.796-8.844-4.992-12.032L260.686,102.925c-6.656-6.674-6.656-17.475,0-24.149l24.064-24.064
			c6.674-6.656,17.475-6.656,24.149,0L429.39,175.202c15.981,15.976,24.96,37.648,24.96,60.245S445.371,279.716,429.39,295.693z"/>
		<path style="fill:#02A9F4;" d="M412.323,278.626L231.587,459.447c-33.205,33.095-86.889,33.209-120.235,0.256l-0.256-0.256
			l-73.301-73.387c-11.187-11.177-17.472-26.341-17.472-42.155c0-15.813,6.285-30.978,17.472-42.155l5.973-6.059l132.608,132.608
			c6.676,6.571,17.388,6.571,24.064,0l180.736-180.821c3.196-3.188,4.992-7.517,4.992-12.032c0-4.515-1.796-8.844-4.992-12.032
			L260.686,102.925c-6.656-6.674-6.656-17.475,0-24.149l24.064-24.064c6.674-6.656,17.475-6.656,24.149,0l103.424,103.424
			c15.981,15.976,24.96,37.648,24.96,60.245S428.305,262.65,412.323,278.626z"/>
		<path style="fill:#607D8B;" d="M91.997,343.9l-48.206-48.206c-6.655-6.655-6.655-17.445,0-24.1l0,0
			c6.655-6.655,17.445-6.655,24.1,0l48.206,48.206c6.655,6.655,6.655,17.445,0,24.1l0,0
			C109.442,350.555,98.652,350.555,91.997,343.9z"/>
		<polygon style="fill:#F4F4F4;" points="104.031,259.563 128.138,283.661 116.08,319.816 67.884,271.612 		"/>
	</g>
	<g>
		<path d="M189.385,511.965c-24.876,0.07-48.744-9.818-66.283-27.458l-90.383-90.379c-26.583-26.644-26.583-69.777,0-96.421
			l6.025-6.025c1.6-1.601,3.77-2.5,6.033-2.5c2.263,0,4.433,0.899,6.033,2.5L183.369,424.24c3.326,3.317,8.708,3.317,12.033,0
			l180.759-180.763c3.3-3.331,3.3-8.698,0-12.029l-120.5-120.513c-4.797-4.796-7.492-11.301-7.492-18.083
			c0-6.783,2.695-13.288,7.492-18.083l24.1-24.1c9.992-9.975,26.174-9.975,36.167,0l120.508,120.504
			c36.55,36.634,36.55,95.941,0,132.575L255.677,484.506C238.134,502.146,214.263,512.033,189.385,511.965z M44.777,309.781
			c-19.918,19.978-19.915,52.306,0.009,72.279l90.383,90.379c29.946,29.944,78.496,29.944,108.442,0l180.758-180.758
			c29.892-29.968,29.892-78.474,0-108.442L303.86,62.736c-3.326-3.317-8.708-3.317-12.033,0l-24.1,24.1v0.004
			c-1.595,1.594-2.492,3.757-2.492,6.013s0.896,4.418,2.492,6.012l120.5,120.512c9.967,9.997,9.967,26.174,0,36.171L207.469,436.306
			c-9.992,9.975-26.174,9.975-36.167,0L44.777,309.781z"/>
		<path d="M105.035,359.44c-6.79,0.02-13.305-2.68-18.092-7.496l-48.2-48.196l-0.009-0.004c-9.958-9.997-9.958-26.165,0-36.162
			c10.12-9.668,26.053-9.67,36.175-0.004l48.208,48.204c7.314,7.314,9.502,18.314,5.543,27.87
			C124.704,353.208,115.379,359.439,105.035,359.44z M50.81,291.681l48.208,48.2c3.366,3.217,8.667,3.217,12.033,0
			c3.317-3.326,3.317-8.708,0-12.033l-48.208-48.204c-3.367-3.216-8.668-3.214-12.033,0.004
			C47.502,282.977,47.502,288.352,50.81,291.681L50.81,291.681z"/>
		<path d="M117.085,330.348c-2.263,0-4.434-0.899-6.033-2.5l-48.209-48.204c-2.093-2.09-2.955-5.115-2.275-7.995
			c0.679-2.879,2.802-5.201,5.609-6.135l36.158-12.05c3.067-1.019,6.446-0.221,8.733,2.063l24.1,24.104
			c2.285,2.286,3.082,5.667,2.058,8.733l-12.05,36.15C124.014,327.996,120.756,330.345,117.085,330.348L117.085,330.348z
			 M84.677,277.34l28.675,28.679l6.017-18.05l-16.642-16.646L84.677,277.34z"/>
		<path d="M129.135,294.198L129.135,294.198c-2.263,0-4.434-0.899-6.033-2.5l-24.1-24.104c-1.601-1.6-2.5-3.77-2.5-6.033
			c0-2.263,0.899-4.433,2.5-6.033L255.66,98.869c1.6-1.601,3.77-2.5,6.033-2.5l0,0c2.263,0,4.434,0.899,6.033,2.5l24.1,24.104
			c1.601,1.6,2.5,3.77,2.5,6.033s-0.899,4.433-2.5,6.033L135.169,291.698C133.569,293.299,131.398,294.198,129.135,294.198
			L129.135,294.198z M117.102,261.56l12.033,12.037l144.592-144.592l-12.033-12.037L117.102,261.56z"/>
		<path d="M333.993,89.335c-2.264,0.003-4.435-0.897-6.033-2.5l-24.1-24.099c-1.601-1.6-2.5-3.77-2.5-6.033
			c0-2.263,0.899-4.433,2.5-6.033l30.117-30.121c6.671-6.647,17.46-6.649,24.133-0.004v0.004l12.033,12.033
			c6.658,6.668,6.658,17.469,0,24.137l-30.117,30.117C338.428,88.439,336.257,89.338,333.993,89.335L333.993,89.335z M321.96,56.702
			l12.033,12.033l24.083-24.083L346.035,32.61L321.96,56.702z"/>
		<path d="M267.719,167.665c-2.264,0.003-4.435-0.897-6.033-2.5l-36.15-36.154c-3.332-3.332-3.332-8.735,0-12.067
			c3.332-3.332,8.735-3.332,12.067,0l36.15,36.154c2.44,2.44,3.169,6.11,1.849,9.298C274.28,165.585,271.17,167.664,267.719,167.665
			L267.719,167.665z"/>
		<path d="M243.618,191.765c-2.264,0.003-4.435-0.897-6.033-2.5l-36.158-36.15c-2.156-2.156-2.997-5.297-2.208-8.242
			c0.789-2.944,3.089-5.244,6.033-6.033c2.944-0.789,6.086,0.053,8.242,2.208l36.158,36.15c2.44,2.44,3.169,6.11,1.849,9.298
			C250.181,189.684,247.07,191.763,243.618,191.765L243.618,191.765z"/>
		<path id="SVGCleanerId_0" d="M219.51,215.869c-2.264,0.003-4.435-0.897-6.033-2.5l-36.15-36.154
			c-3.332-3.332-3.332-8.735,0-12.067c3.332-3.332,8.735-3.332,12.067,0l36.15,36.154c2.44,2.441,3.169,6.11,1.849,9.298
			C226.072,213.789,222.962,215.868,219.51,215.869L219.51,215.869z"/>
		<g>
			<path id="SVGCleanerId_0_1_" d="M219.51,215.869c-2.264,0.003-4.435-0.897-6.033-2.5l-36.15-36.154
				c-3.332-3.332-3.332-8.735,0-12.067c3.332-3.332,8.735-3.332,12.067,0l36.15,36.154c2.44,2.441,3.169,6.11,1.849,9.298
				C226.072,213.789,222.962,215.868,219.51,215.869L219.51,215.869z"/>
		</g>
		<path d="M195.41,239.969c-2.264,0.003-4.435-0.897-6.033-2.5l-36.15-36.154c-3.296-3.338-3.28-8.711,0.038-12.029
			c3.317-3.317,8.69-3.334,12.029-0.038l36.15,36.154c2.44,2.44,3.169,6.11,1.849,9.298
			C201.972,237.889,198.861,239.968,195.41,239.969L195.41,239.969z"/>
		<path d="M171.31,264.069c-2.264,0.003-4.435-0.897-6.033-2.5l-36.15-36.15c-2.155-2.156-2.997-5.297-2.208-8.242
			c0.789-2.944,3.089-5.244,6.033-6.033c2.944-0.789,6.086,0.053,8.242,2.208l36.15,36.15c2.44,2.44,3.169,6.11,1.849,9.298
			C177.872,261.989,174.762,264.068,171.31,264.069L171.31,264.069z"/>
		<path d="M490.652,197.79c-2.264,0.003-4.435-0.897-6.033-2.5L352.06,62.736c-2.156-2.155-2.997-5.297-2.209-8.242
			c0.789-2.945,3.089-5.245,6.033-6.034c2.944-0.789,6.086,0.053,8.242,2.208l132.559,132.554c2.44,2.441,3.169,6.11,1.849,9.298
			C497.214,195.71,494.103,197.789,490.652,197.79L490.652,197.79z"/>
		<path d="M333.993,41.131c-2.264,0.003-4.435-0.897-6.033-2.5l-24.1-24.1c-3.3-3.338-3.284-8.714,0.035-12.032
			s8.695-3.334,12.032-0.034l24.1,24.1c2.44,2.44,3.169,6.11,1.849,9.298C340.555,39.052,337.445,41.131,333.993,41.131
			L333.993,41.131z"/>
	</g>
</g>
<g>
</g>
<g>
</g>
<g>
</g>
<g>
</g>
<g>
</g>
<g>
</g>
<g>
</g>
<g>
</g>
<g>
</g>
<g>
</g>
<g>
</g>
<g>
</g>
<g>
</g>
<g>
</g>
<g>
</g>
</svg>
